<svg width="408" height="539" viewBox="0 0 408 539" fill="none" xmlns="http://www.w3.org/2000/svg">
<rect width="408" height="539" rx="5" fill="#153A7E"/>
<path d="M0 311.909C0 309.522 1.68718 307.468 4.02864 307.005L402.029 228.183C405.12 227.57 408 229.936 408 233.087V534C408 536.761 405.761 539 403 539H5C2.23857 539 0 536.761 0 534V311.909Z" fill="#0D2A61"/>
<path d="M127.137 51.008H120.897L119.553 54H118.321L123.441 42.8H124.609L129.729 54H128.481L127.137 51.008ZM126.705 50.048L124.017 44.032L121.329 50.048H126.705ZM140.316 42.8L135.356 54H134.188L129.228 42.8H130.508L134.796 52.528L139.116 42.8H140.316ZM149.861 52.976V54H141.941V42.8H149.621V43.824H143.125V47.808H148.917V48.816H143.125V52.976H149.861ZM157.446 54.096C156.336 54.096 155.334 53.8507 154.438 53.36C153.552 52.8693 152.854 52.192 152.342 51.328C151.84 50.4533 151.59 49.4773 151.59 48.4C151.59 47.3227 151.84 46.352 152.342 45.488C152.854 44.6133 153.558 43.9307 154.454 43.44C155.35 42.9493 156.352 42.704 157.462 42.704C158.294 42.704 159.062 42.8427 159.766 43.12C160.47 43.3973 161.067 43.8027 161.558 44.336L160.806 45.088C159.931 44.2027 158.827 43.76 157.494 43.76C156.608 43.76 155.803 43.9627 155.078 44.368C154.352 44.7733 153.782 45.328 153.366 46.032C152.96 46.736 152.758 47.5253 152.758 48.4C152.758 49.2747 152.96 50.064 153.366 50.768C153.782 51.472 154.352 52.0267 155.078 52.432C155.803 52.8373 156.608 53.04 157.494 53.04C158.838 53.04 159.942 52.592 160.806 51.696L161.558 52.448C161.067 52.9813 160.464 53.392 159.75 53.68C159.046 53.9573 158.278 54.096 157.446 54.096ZM175.325 48.224C176.061 48.384 176.627 48.704 177.021 49.184C177.427 49.6533 177.629 50.2613 177.629 51.008C177.629 51.968 177.272 52.7093 176.557 53.232C175.853 53.744 174.808 54 173.421 54H168.269V42.8H173.101C174.349 42.8 175.315 43.0507 175.997 43.552C176.691 44.0533 177.037 44.7627 177.037 45.68C177.037 46.2987 176.883 46.8267 176.573 47.264C176.275 47.6907 175.859 48.0107 175.325 48.224ZM169.453 43.776V47.84H173.021C173.928 47.84 174.627 47.6693 175.117 47.328C175.608 46.976 175.853 46.4693 175.853 45.808C175.853 45.1467 175.608 44.6453 175.117 44.304C174.627 43.952 173.928 43.776 173.021 43.776H169.453ZM173.405 53.024C174.408 53.024 175.165 52.8533 175.677 52.512C176.189 52.1707 176.445 51.6373 176.445 50.912C176.445 49.5147 175.432 48.816 173.405 48.816H169.453V53.024H173.405ZM180.332 42.8H181.516V54H180.332V42.8ZM190.024 54.096C188.915 54.096 187.912 53.8507 187.016 53.36C186.131 52.8693 185.432 52.192 184.92 51.328C184.419 50.4533 184.168 49.4773 184.168 48.4C184.168 47.3227 184.419 46.352 184.92 45.488C185.432 44.6133 186.136 43.9307 187.032 43.44C187.928 42.9493 188.931 42.704 190.04 42.704C190.872 42.704 191.64 42.8427 192.344 43.12C193.048 43.3973 193.645 43.8027 194.136 44.336L193.384 45.088C192.509 44.2027 191.405 43.76 190.072 43.76C189.187 43.76 188.381 43.9627 187.656 44.368C186.931 44.7733 186.36 45.328 185.944 46.032C185.539 46.736 185.336 47.5253 185.336 48.4C185.336 49.2747 185.539 50.064 185.944 50.768C186.36 51.472 186.931 52.0267 187.656 52.432C188.381 52.8373 189.187 53.04 190.072 53.04C191.416 53.04 192.52 52.592 193.384 51.696L194.136 52.448C193.645 52.9813 193.043 53.392 192.328 53.68C191.624 53.9573 190.856 54.096 190.024 54.096ZM196.66 42.8H197.844V54H196.66V42.8ZM210.54 54.096C209.43 54.096 208.428 53.8507 207.532 53.36C206.646 52.8693 205.948 52.192 205.436 51.328C204.934 50.4533 204.684 49.4773 204.684 48.4C204.684 47.3227 204.934 46.352 205.436 45.488C205.948 44.6133 206.652 43.9307 207.548 43.44C208.444 42.9493 209.446 42.704 210.556 42.704C211.388 42.704 212.156 42.8427 212.86 43.12C213.564 43.3973 214.161 43.8027 214.652 44.336L213.9 45.088C213.025 44.2027 211.921 43.76 210.588 43.76C209.702 43.76 208.897 43.9627 208.172 44.368C207.446 44.7733 206.876 45.328 206.46 46.032C206.054 46.736 205.852 47.5253 205.852 48.4C205.852 49.2747 206.054 50.064 206.46 50.768C206.876 51.472 207.446 52.0267 208.172 52.432C208.897 52.8373 209.702 53.04 210.588 53.04C211.932 53.04 213.036 52.592 213.9 51.696L214.652 52.448C214.161 52.9813 213.558 53.392 212.844 53.68C212.14 53.9573 211.372 54.096 210.54 54.096ZM221.837 54.096C220.728 54.096 219.72 53.8507 218.813 53.36C217.917 52.8587 217.213 52.176 216.701 51.312C216.2 50.448 215.949 49.4773 215.949 48.4C215.949 47.3227 216.2 46.352 216.701 45.488C217.213 44.624 217.917 43.9467 218.813 43.456C219.72 42.9547 220.728 42.704 221.837 42.704C222.947 42.704 223.944 42.9493 224.829 43.44C225.725 43.9307 226.429 44.6133 226.941 45.488C227.453 46.352 227.709 47.3227 227.709 48.4C227.709 49.4773 227.453 50.4533 226.941 51.328C226.429 52.192 225.725 52.8693 224.829 53.36C223.944 53.8507 222.947 54.096 221.837 54.096ZM221.837 53.04C222.723 53.04 223.523 52.8427 224.237 52.448C224.952 52.0427 225.512 51.488 225.917 50.784C226.323 50.0693 226.525 49.2747 226.525 48.4C226.525 47.5253 226.323 46.736 225.917 46.032C225.512 45.3173 224.952 44.7627 224.237 44.368C223.523 43.9627 222.723 43.76 221.837 43.76C220.952 43.76 220.147 43.9627 219.421 44.368C218.707 44.7627 218.141 45.3173 217.725 46.032C217.32 46.736 217.117 47.5253 217.117 48.4C217.117 49.2747 217.32 50.0693 217.725 50.784C218.141 51.488 218.707 52.0427 219.421 52.448C220.147 52.8427 220.952 53.04 221.837 53.04ZM234.875 54.096C233.424 54.096 232.294 53.68 231.483 52.848C230.672 52.016 230.267 50.8053 230.267 49.216V42.8H231.451V49.168C231.451 50.4693 231.744 51.44 232.331 52.08C232.918 52.72 233.766 53.04 234.875 53.04C235.995 53.04 236.848 52.72 237.435 52.08C238.022 51.44 238.315 50.4693 238.315 49.168V42.8H239.467V49.216C239.467 50.8053 239.062 52.016 238.251 52.848C237.451 53.68 236.326 54.096 234.875 54.096ZM250.683 54L248.123 50.4C247.835 50.432 247.536 50.448 247.227 50.448H244.219V54H243.035V42.8H247.227C248.656 42.8 249.776 43.1413 250.587 43.824C251.398 44.5067 251.803 45.4453 251.803 46.64C251.803 47.5147 251.579 48.256 251.131 48.864C250.694 49.4613 250.064 49.8933 249.243 50.16L251.979 54H250.683ZM247.195 49.44C248.304 49.44 249.152 49.1947 249.739 48.704C250.326 48.2133 250.619 47.5253 250.619 46.64C250.619 45.7333 250.326 45.04 249.739 44.56C249.152 44.0693 248.304 43.824 247.195 43.824H244.219V49.44H247.195ZM254.597 42.8H255.781V54H254.597V42.8ZM267.346 52.976V54H259.426V42.8H267.106V43.824H260.61V47.808H266.402V48.816H260.61V52.976H267.346ZM277.777 54L275.217 50.4C274.929 50.432 274.63 50.448 274.321 50.448H271.313V54H270.129V42.8H274.321C275.75 42.8 276.87 43.1413 277.681 43.824C278.491 44.5067 278.897 45.4453 278.897 46.64C278.897 47.5147 278.673 48.256 278.225 48.864C277.787 49.4613 277.158 49.8933 276.337 50.16L279.073 54H277.777ZM274.289 49.44C275.398 49.44 276.246 49.1947 276.833 48.704C277.419 48.2133 277.713 47.5253 277.713 46.64C277.713 45.7333 277.419 45.04 276.833 44.56C276.246 44.0693 275.398 43.824 274.289 43.824H271.313V49.44H274.289ZM284.779 54.096C283.947 54.096 283.147 53.9627 282.379 53.696C281.622 53.4293 281.035 53.0773 280.619 52.64L281.083 51.728C281.489 52.1333 282.027 52.464 282.699 52.72C283.371 52.9653 284.065 53.088 284.779 53.088C285.782 53.088 286.534 52.9067 287.035 52.544C287.537 52.1707 287.787 51.6907 287.787 51.104C287.787 50.656 287.649 50.2987 287.371 50.032C287.105 49.7653 286.774 49.5627 286.379 49.424C285.985 49.2747 285.435 49.1147 284.731 48.944C283.889 48.7307 283.217 48.528 282.715 48.336C282.214 48.1333 281.782 47.8293 281.419 47.424C281.067 47.0187 280.891 46.4693 280.891 45.776C280.891 45.2107 281.041 44.6987 281.339 44.24C281.638 43.7707 282.097 43.3973 282.715 43.12C283.334 42.8427 284.102 42.704 285.019 42.704C285.659 42.704 286.283 42.7947 286.891 42.976C287.51 43.1467 288.043 43.3867 288.491 43.696L288.091 44.64C287.622 44.3307 287.121 44.1013 286.587 43.952C286.054 43.792 285.531 43.712 285.019 43.712C284.038 43.712 283.297 43.904 282.795 44.288C282.305 44.6613 282.059 45.1467 282.059 45.744C282.059 46.192 282.193 46.5547 282.459 46.832C282.737 47.0987 283.078 47.3067 283.483 47.456C283.899 47.5947 284.454 47.7493 285.147 47.92C285.969 48.1227 286.63 48.3253 287.131 48.528C287.643 48.72 288.075 49.0187 288.427 49.424C288.779 49.8187 288.955 50.3573 288.955 51.04C288.955 51.6053 288.801 52.1227 288.491 52.592C288.193 53.0507 287.729 53.4187 287.099 53.696C286.47 53.9627 285.697 54.096 284.779 54.096Z" fill="white"/>
<path d="M123.1 492.096C122.268 492.096 121.468 491.963 120.7 491.696C119.942 491.429 119.356 491.077 118.94 490.64L119.404 489.728C119.809 490.133 120.348 490.464 121.02 490.72C121.692 490.965 122.385 491.088 123.1 491.088C124.102 491.088 124.854 490.907 125.356 490.544C125.857 490.171 126.108 489.691 126.108 489.104C126.108 488.656 125.969 488.299 125.692 488.032C125.425 487.765 125.094 487.563 124.7 487.424C124.305 487.275 123.756 487.115 123.052 486.944C122.209 486.731 121.537 486.528 121.036 486.336C120.534 486.133 120.102 485.829 119.74 485.424C119.388 485.019 119.212 484.469 119.212 483.776C119.212 483.211 119.361 482.699 119.66 482.24C119.958 481.771 120.417 481.397 121.036 481.12C121.654 480.843 122.422 480.704 123.34 480.704C123.98 480.704 124.604 480.795 125.212 480.976C125.83 481.147 126.364 481.387 126.812 481.696L126.411 482.64C125.942 482.331 125.441 482.101 124.908 481.952C124.374 481.792 123.852 481.712 123.34 481.712C122.358 481.712 121.617 481.904 121.116 482.288C120.625 482.661 120.38 483.147 120.38 483.744C120.38 484.192 120.513 484.555 120.78 484.832C121.057 485.099 121.398 485.307 121.804 485.456C122.22 485.595 122.774 485.749 123.468 485.92C124.289 486.123 124.95 486.325 125.452 486.528C125.964 486.72 126.396 487.019 126.748 487.424C127.1 487.819 127.276 488.357 127.276 489.04C127.276 489.605 127.121 490.123 126.812 490.592C126.513 491.051 126.049 491.419 125.42 491.696C124.79 491.963 124.017 492.096 123.1 492.096ZM136.879 489.008H130.639L129.295 492H128.063L133.183 480.8H134.351L139.471 492H138.223L136.879 489.008ZM136.447 488.048L133.759 482.032L131.071 488.048H136.447ZM150.684 480.8V492H149.708L142.508 482.912V492H141.324V480.8H142.3L149.516 489.888V480.8H150.684ZM157.428 492.096C156.596 492.096 155.796 491.963 155.028 491.696C154.27 491.429 153.684 491.077 153.268 490.64L153.732 489.728C154.137 490.133 154.676 490.464 155.348 490.72C156.02 490.965 156.713 491.088 157.428 491.088C158.43 491.088 159.182 490.907 159.684 490.544C160.185 490.171 160.436 489.691 160.436 489.104C160.436 488.656 160.297 488.299 160.02 488.032C159.753 487.765 159.422 487.563 159.028 487.424C158.633 487.275 158.084 487.115 157.38 486.944C156.537 486.731 155.865 486.528 155.364 486.336C154.862 486.133 154.43 485.829 154.068 485.424C153.716 485.019 153.54 484.469 153.54 483.776C153.54 483.211 153.689 482.699 153.988 482.24C154.286 481.771 154.745 481.397 155.364 481.12C155.982 480.843 156.75 480.704 157.668 480.704C158.308 480.704 158.932 480.795 159.54 480.976C160.158 481.147 160.692 481.387 161.14 481.696L160.74 482.64C160.27 482.331 159.769 482.101 159.236 481.952C158.702 481.792 158.18 481.712 157.668 481.712C156.686 481.712 155.945 481.904 155.444 482.288C154.953 482.661 154.708 483.147 154.708 483.744C154.708 484.192 154.841 484.555 155.108 484.832C155.385 485.099 155.726 485.307 156.132 485.456C156.548 485.595 157.102 485.749 157.796 485.92C158.617 486.123 159.278 486.325 159.78 486.528C160.292 486.72 160.724 487.019 161.076 487.424C161.428 487.819 161.604 488.357 161.604 489.04C161.604 489.605 161.449 490.123 161.14 490.592C160.841 491.051 160.377 491.419 159.748 491.696C159.118 491.963 158.345 492.096 157.428 492.096ZM175.427 486.224C176.163 486.384 176.728 486.704 177.123 487.184C177.528 487.653 177.731 488.261 177.731 489.008C177.731 489.968 177.374 490.709 176.659 491.232C175.955 491.744 174.91 492 173.523 492H168.371V480.8H173.203C174.451 480.8 175.416 481.051 176.099 481.552C176.792 482.053 177.139 482.763 177.139 483.68C177.139 484.299 176.984 484.827 176.675 485.264C176.376 485.691 175.96 486.011 175.427 486.224ZM169.555 481.776V485.84H173.123C174.03 485.84 174.728 485.669 175.219 485.328C175.71 484.976 175.955 484.469 175.955 483.808C175.955 483.147 175.71 482.645 175.219 482.304C174.728 481.952 174.03 481.776 173.123 481.776H169.555ZM173.507 491.024C174.51 491.024 175.267 490.853 175.779 490.512C176.291 490.171 176.547 489.637 176.547 488.912C176.547 487.515 175.534 486.816 173.507 486.816H169.555V491.024H173.507ZM180.433 480.8H181.617V492H180.433V480.8ZM190.126 492.096C189.016 492.096 188.014 491.851 187.118 491.36C186.232 490.869 185.534 490.192 185.022 489.328C184.52 488.453 184.27 487.477 184.27 486.4C184.27 485.323 184.52 484.352 185.022 483.488C185.534 482.613 186.238 481.931 187.134 481.44C188.03 480.949 189.032 480.704 190.142 480.704C190.974 480.704 191.742 480.843 192.446 481.12C193.15 481.397 193.747 481.803 194.238 482.336L193.486 483.088C192.611 482.203 191.507 481.76 190.174 481.76C189.288 481.76 188.483 481.963 187.758 482.368C187.032 482.773 186.462 483.328 186.046 484.032C185.64 484.736 185.438 485.525 185.438 486.4C185.438 487.275 185.64 488.064 186.046 488.768C186.462 489.472 187.032 490.027 187.758 490.432C188.483 490.837 189.288 491.04 190.174 491.04C191.518 491.04 192.622 490.592 193.486 489.696L194.238 490.448C193.747 490.981 193.144 491.392 192.43 491.68C191.726 491.957 190.958 492.096 190.126 492.096ZM196.762 480.8H197.946V492H196.762V480.8ZM210.641 492.096C209.532 492.096 208.529 491.851 207.633 491.36C206.748 490.869 206.049 490.192 205.537 489.328C205.036 488.453 204.785 487.477 204.785 486.4C204.785 485.323 205.036 484.352 205.537 483.488C206.049 482.613 206.753 481.931 207.649 481.44C208.545 480.949 209.548 480.704 210.657 480.704C211.489 480.704 212.257 480.843 212.961 481.12C213.665 481.397 214.262 481.803 214.753 482.336L214.001 483.088C213.126 482.203 212.022 481.76 210.689 481.76C209.804 481.76 208.998 481.963 208.273 482.368C207.548 482.773 206.977 483.328 206.561 484.032C206.156 484.736 205.953 485.525 205.953 486.4C205.953 487.275 206.156 488.064 206.561 488.768C206.977 489.472 207.548 490.027 208.273 490.432C208.998 490.837 209.804 491.04 210.689 491.04C212.033 491.04 213.137 490.592 214.001 489.696L214.753 490.448C214.262 490.981 213.66 491.392 212.945 491.68C212.241 491.957 211.473 492.096 210.641 492.096ZM221.939 492.096C220.829 492.096 219.821 491.851 218.915 491.36C218.019 490.859 217.315 490.176 216.803 489.312C216.301 488.448 216.051 487.477 216.051 486.4C216.051 485.323 216.301 484.352 216.803 483.488C217.315 482.624 218.019 481.947 218.915 481.456C219.821 480.955 220.829 480.704 221.939 480.704C223.048 480.704 224.045 480.949 224.931 481.44C225.827 481.931 226.531 482.613 227.043 483.488C227.555 484.352 227.811 485.323 227.811 486.4C227.811 487.477 227.555 488.453 227.043 489.328C226.531 490.192 225.827 490.869 224.931 491.36C224.045 491.851 223.048 492.096 221.939 492.096ZM221.939 491.04C222.824 491.04 223.624 490.843 224.339 490.448C225.053 490.043 225.613 489.488 226.019 488.784C226.424 488.069 226.627 487.275 226.627 486.4C226.627 485.525 226.424 484.736 226.019 484.032C225.613 483.317 225.053 482.763 224.339 482.368C223.624 481.963 222.824 481.76 221.939 481.76C221.053 481.76 220.248 481.963 219.523 482.368C218.808 482.763 218.243 483.317 217.827 484.032C217.421 484.736 217.219 485.525 217.219 486.4C217.219 487.275 217.421 488.069 217.827 488.784C218.243 489.488 218.808 490.043 219.523 490.448C220.248 490.843 221.053 491.04 221.939 491.04ZM234.977 492.096C233.526 492.096 232.395 491.68 231.585 490.848C230.774 490.016 230.369 488.805 230.369 487.216V480.8H231.553V487.168C231.553 488.469 231.846 489.44 232.433 490.08C233.019 490.72 233.867 491.04 234.977 491.04C236.097 491.04 236.95 490.72 237.537 490.08C238.123 489.44 238.417 488.469 238.417 487.168V480.8H239.569V487.216C239.569 488.805 239.163 490.016 238.353 490.848C237.553 491.68 236.427 492.096 234.977 492.096ZM250.785 492L248.225 488.4C247.937 488.432 247.638 488.448 247.329 488.448H244.321V492H243.137V480.8H247.329C248.758 480.8 249.878 481.141 250.689 481.824C251.499 482.507 251.905 483.445 251.905 484.64C251.905 485.515 251.681 486.256 251.233 486.864C250.795 487.461 250.166 487.893 249.345 488.16L252.081 492H250.785ZM247.297 487.44C248.406 487.44 249.254 487.195 249.841 486.704C250.427 486.213 250.72 485.525 250.72 484.64C250.72 483.733 250.427 483.04 249.841 482.56C249.254 482.069 248.406 481.824 247.297 481.824H244.321V487.44H247.297ZM254.699 480.8H255.883V492H254.699V480.8ZM267.447 490.976V492H259.527V480.8H267.207V481.824H260.711V485.808H266.503V486.816H260.711V490.976H267.447ZM277.878 492L275.318 488.4C275.03 488.432 274.732 488.448 274.422 488.448H271.414V492H270.23V480.8H274.422C275.852 480.8 276.972 481.141 277.782 481.824C278.593 482.507 278.998 483.445 278.998 484.64C278.998 485.515 278.774 486.256 278.326 486.864C277.889 487.461 277.26 487.893 276.438 488.16L279.174 492H277.878ZM274.39 487.44C275.5 487.44 276.348 487.195 276.934 486.704C277.521 486.213 277.814 485.525 277.814 484.64C277.814 483.733 277.521 483.04 276.934 482.56C276.348 482.069 275.5 481.824 274.39 481.824H271.414V487.44H274.39ZM284.881 492.096C284.049 492.096 283.249 491.963 282.481 491.696C281.723 491.429 281.137 491.077 280.721 490.64L281.185 489.728C281.59 490.133 282.129 490.464 282.801 490.72C283.473 490.965 284.166 491.088 284.881 491.088C285.883 491.088 286.635 490.907 287.137 490.544C287.638 490.171 287.889 489.691 287.889 489.104C287.889 488.656 287.75 488.299 287.473 488.032C287.206 487.765 286.875 487.563 286.481 487.424C286.086 487.275 285.537 487.115 284.833 486.944C283.99 486.731 283.318 486.528 282.817 486.336C282.315 486.133 281.883 485.829 281.521 485.424C281.169 485.019 280.993 484.469 280.993 483.776C280.993 483.211 281.142 482.699 281.441 482.24C281.739 481.771 282.198 481.397 282.817 481.12C283.435 480.843 284.203 480.704 285.121 480.704C285.761 480.704 286.385 480.795 286.993 480.976C287.611 481.147 288.145 481.387 288.593 481.696L288.193 482.64C287.723 482.331 287.222 482.101 286.689 481.952C286.155 481.792 285.633 481.712 285.121 481.712C284.139 481.712 283.398 481.904 282.897 482.288C282.406 482.661 282.161 483.147 282.161 483.744C282.161 484.192 282.294 484.555 282.561 484.832C282.838 485.099 283.179 485.307 283.585 485.456C284.001 485.595 284.555 485.749 285.249 485.92C286.07 486.123 286.731 486.325 287.233 486.528C287.745 486.72 288.177 487.019 288.529 487.424C288.881 487.819 289.057 488.357 289.057 489.04C289.057 489.605 288.902 490.123 288.593 490.592C288.294 491.051 287.83 491.419 287.201 491.696C286.571 491.963 285.798 492.096 284.881 492.096Z" fill="white"/>
</svg>
