<svg width="176" height="170" viewBox="0 0 176 170" fill="none" xmlns="http://www.w3.org/2000/svg">
<path d="M108.954 13.0968C122.963 17.8477 133.105 34.709 141.63 53.8006C150.155 72.8922 157.236 94.151 151.331 111.665C145.427 129.18 126.637 143.044 108.208 145.09C89.8366 147.115 71.7887 137.399 55.3487 127.952C38.9087 118.504 24.0609 109.462 18.8645 96.4481C13.726 83.4126 18.2598 66.4627 26.5748 53.5868C34.8898 40.7108 47.0647 31.9456 62.0287 23.807C77.0718 15.7052 94.9461 8.34583 108.954 13.0968Z" fill="#FFCC01"/>
<path d="M126.421 133.306C116.598 133.314 106.962 130.616 98.5672 125.506C90.1724 120.396 83.3426 113.071 78.8253 104.333H126.421L134.684 87.7778H73.3716C72.9584 85.0461 72.7105 82.3145 72.7105 79.5C72.7105 76.6856 72.9584 73.9539 73.3716 71.2222H126.421L134.684 54.6667H78.8253C83.3506 45.9351 90.1823 38.6159 98.5752 33.507C106.968 28.3981 116.6 25.6957 126.421 25.6945C139.725 25.6945 151.954 30.5784 161.374 38.6906L176 24.0389C162.394 11.7668 144.729 4.98347 126.421 5.00003C94.0295 5.00003 66.5958 25.7772 56.3495 54.6667H27.2632L19 71.2222H52.5484C51.8792 76.7204 51.8792 82.2796 52.5484 87.7778H27.2632L19 104.333H56.3495C66.5958 133.223 94.0295 154 126.421 154C145.509 154 162.862 146.798 176 134.961L161.292 120.309C151.954 128.422 139.807 133.306 126.421 133.306Z" fill="white"/>
</svg>
