<svg width="112" height="94" viewBox="0 0 112 94" fill="none" xmlns="http://www.w3.org/2000/svg">
<path fill-rule="evenodd" clip-rule="evenodd" d="M100.941 54.0999C109.343 36.37 116.179 12.8259 107.362 4.26442C99.9213 -2.9347 81.435 0.459882 63.6982 3.71683C60.3416 4.33318 57.012 4.9446 53.789 5.47836C49.5127 6.18546 45.4238 6.75628 41.5502 7.29706C27.0481 9.32157 15.5626 10.925 8.55375 17.6817C-0.327186 26.2751 -1.98837 43.1425 2.16459 57.582C6.31755 72.0535 16.2846 84.129 28.9991 90.0709C41.7135 96.0128 57.1434 95.8212 69.8578 89.7515C82.5722 83.7137 92.5393 71.8298 100.941 54.0999ZM41.5849 71.0665C45.2178 73.2739 49.3879 74.4395 53.6388 74.4357C59.4318 74.4357 64.6884 72.3259 68.7292 68.8215L75.0944 75.1509C69.4086 80.2644 61.8992 83.3755 53.6388 83.3755C39.6212 83.3755 27.7492 74.3999 23.315 61.9199H7.15184L10.7278 54.7681H21.6701C21.3805 52.3929 21.3805 49.9914 21.6701 47.6162H7.15184L10.7278 40.4644H23.315C27.7492 27.9844 39.6212 19.0089 53.6388 19.0089C61.5619 19.0017 69.2063 21.9321 75.0944 27.2335L68.765 33.5629C64.6884 30.0585 59.3961 27.9487 53.6388 27.9487C49.3888 27.9492 45.2205 29.1166 41.5884 31.3236C37.9563 33.5306 34.9999 36.6925 33.0415 40.4644H57.2148L53.6388 47.6162H30.6814C30.5026 48.7963 30.3953 49.9764 30.3953 51.1922C30.3953 52.408 30.5026 53.588 30.6814 54.7681H57.2148L53.6388 61.9199H33.0415C34.9964 65.6947 37.9521 68.859 41.5849 71.0665Z" fill="#FFCC00"/>
</svg>
