<svg width="157" height="149" viewBox="0 0 157 149" fill="none" xmlns="http://www.w3.org/2000/svg">
<path d="M107.421 128.306C97.598 128.314 87.9619 125.616 79.5672 120.506C71.1724 115.396 64.3426 108.071 59.8253 99.3333H107.421L115.684 82.7778H54.3716C53.9584 80.0461 53.7105 77.3145 53.7105 74.5C53.7105 71.6856 53.9584 68.9539 54.3716 66.2222H107.421L115.684 49.6667H59.8253C64.3506 40.9351 71.1823 33.6159 79.5752 28.507C87.9681 23.3981 97.6002 20.6957 107.421 20.6945C120.725 20.6945 132.954 25.5784 142.374 33.6906L157 19.0389C143.394 6.76684 125.729 -0.0165281 107.421 3.02432e-05C75.0295 3.02432e-05 47.5958 20.7772 37.3495 49.6667H8.26316L0 66.2222H33.5484C32.8792 71.7204 32.8792 77.2796 33.5484 82.7778H8.26316L0 99.3333H37.3495C47.5958 128.223 75.0295 149 107.421 149C126.509 149 143.862 141.798 157 129.961L142.292 115.309C132.954 123.422 120.807 128.306 107.421 128.306Z" fill="white"/>
</svg>
