<svg width="74" height="69" viewBox="0 0 74 69" fill="none" xmlns="http://www.w3.org/2000/svg">
<path d="M48.8723 41.7826C48.5493 42.9389 49.3112 51.6481 49.7999 51.9476C50.3713 52.3052 57.8417 47.6969 58.9184 45.6756C59.9951 43.6542 73.9917 12.0948 74 11.1298C74 9.35805 65.6683 5.61483 64.5254 6.94575C63.076 8.63436 50.2388 36.9165 48.8723 41.7826Z" fill="#FFCC01"/>
<path d="M56.9556 69H1.01041C0.455512 69 0 68.5425 0 67.9769V1.02315C0 0.457505 0.455512 0 1.01041 0H56.9556C57.5187 0 57.9743 0.457505 57.9743 1.02315C57.9743 1.58879 57.5187 2.04629 56.9639 2.04629H2.0291V66.962H55.9452V51.6814C55.9452 51.1157 56.4007 50.6665 56.9556 50.6665C57.5105 50.6665 57.9743 51.1157 57.9743 51.6814V67.9852C57.9743 68.5425 57.5187 69 56.9556 69ZM16.8374 54.5096C15.3715 54.5096 13.9718 53.7942 12.6632 52.3718C11.6114 51.2322 11.5534 50.1259 11.686 49.4022C11.7936 48.8365 12.0504 48.3291 12.3734 47.8633C11.512 47.2394 10.7666 46.7986 10.3691 46.732C9.8225 46.6322 9.44152 46.1165 9.52434 45.5675C9.60716 45.0184 10.0958 44.6358 10.6341 44.7107C11.2553 44.7939 12.4727 45.4676 13.8062 46.4242C14.5681 45.842 15.2721 45.4843 15.4212 45.4094C17.119 44.6524 19.2971 44.5942 21.9143 45.243C24.3906 45.8503 26.7261 47.489 28.7884 48.928C30.0721 49.8264 31.7285 50.9826 32.7472 51.2655C32.5898 50.8995 32.391 50.4835 32.2917 50.2756L32.184 50.051C31.2813 48.2043 30.7346 46.9233 31.3061 46C31.5628 45.5841 32.0184 45.3429 32.5484 45.3429C35.1655 45.3429 39.5219 47.8799 43.8782 50.6665L42.901 43.1052C42.8678 42.8058 42.8844 42.6228 43.547 40.7928L43.5884 40.6846V40.6763C43.5966 40.6514 43.6049 40.6264 43.6132 40.6098L58.7362 6.23038C58.9101 5.83942 59.2828 5.59819 59.7218 5.62315C60.8481 5.68969 63.1008 5.95588 65.4447 6.99566C67.805 8.04376 69.1136 9.31646 69.8176 9.99855L69.9252 10.0984C70.2317 10.3978 70.3228 10.8553 70.1489 11.2463L55.0341 45.6673C55.0259 45.6922 55.0093 45.7255 54.9927 45.7505C54.8271 46.0499 53.9989 47.5472 53.6096 47.83L50.1891 50.3505L45.7665 53.4781C45.6009 53.5946 45.3938 53.6694 45.1785 53.6694C45.1702 53.6694 45.1619 53.6694 45.1537 53.6694C44.781 53.6611 44.6153 53.553 43.108 52.5881C40.8967 51.1656 35.9689 47.9964 33.2689 47.464C33.4677 48.0213 33.8404 48.77 34.0226 49.1609L34.1303 49.3855C34.8011 50.7747 35.2152 51.7313 34.9088 52.4799C34.8094 52.7212 34.5775 53.0622 34.0143 53.2452C32.2585 53.8275 30.1218 52.3385 27.6537 50.6166C25.7323 49.2691 23.5624 47.7552 21.4505 47.2311C19.3054 46.7071 17.5248 46.7154 16.2908 47.2644C16.1086 47.3559 15.8187 47.5139 15.4957 47.7302C17.4585 49.3855 19.2226 51.357 19.2723 52.6629C19.2971 53.3533 18.9245 54.1685 17.7981 54.4098C17.4751 54.4763 17.1604 54.5096 16.8374 54.5096ZM13.9801 49.111C13.831 49.3273 13.7233 49.5519 13.6819 49.7765C13.6322 50.026 13.6322 50.417 14.154 50.9743C14.8166 51.6897 15.8353 52.5964 17.1521 52.4383C16.7877 51.6814 15.4129 50.3172 13.9801 49.111ZM44.9466 43.0137L45.9653 50.8496L49.0048 48.7034L52.3093 46.2745C52.3839 46.1664 52.5164 45.9584 52.6489 45.7421L45.1454 42.4148C45.0294 42.7309 44.9715 42.9139 44.9466 43.0137ZM45.899 40.5016C47.7459 41.3168 51.7462 43.0886 53.5848 43.9121L68.0121 11.0882C67.333 10.4561 66.2977 9.6076 64.633 8.86727C62.9849 8.13526 61.3865 7.8358 60.3015 7.71935L45.899 40.5016ZM40.1513 34.0633H8.84522C8.28204 34.0633 7.82653 33.6058 7.82653 33.0485C7.82653 32.4828 8.28204 32.0336 8.84522 32.0336H40.1513C40.7145 32.0336 41.1617 32.4911 41.1617 33.0485C41.1617 33.6058 40.7062 34.0633 40.1513 34.0633ZM40.1513 24.4557H8.84522C8.28204 24.4557 7.82653 23.9982 7.82653 23.4409C7.82653 22.8835 8.28204 22.426 8.84522 22.426H40.1513C40.7145 22.426 41.1617 22.8835 41.1617 23.4409C41.1617 23.9982 40.7062 24.4557 40.1513 24.4557ZM40.1513 14.8481H8.84522C8.28204 14.8481 7.82653 14.3906 7.82653 13.825C7.82653 13.2593 8.28204 12.8101 8.83693 12.8101H40.143C40.7062 12.8101 41.1534 13.2676 41.1534 13.8333C41.1534 14.3989 40.7062 14.8481 40.1513 14.8481Z" fill="white"/>
</svg>
