<svg width="38" height="20" viewBox="0 0 38 20" fill="none" xmlns="http://www.w3.org/2000/svg">
<path d="M30.7143 8.94093C30.7143 6.40082 32.773 4.3421 35.3131 4.3421V0.982605L1.35449 0.982605L1.35449 4.3421C3.8946 4.3421 5.95332 6.40082 5.95332 8.94093C5.95332 11.481 3.8946 13.5398 1.35449 13.5398L1.35449 16.8993H35.308V13.5398C32.7679 13.5398 30.7143 11.481 30.7143 8.94093Z" stroke="white" stroke-miterlimit="10"/>
<path d="M3.35449 16.9113V18.8993H37.308V15.5398C36.5598 15.5398 35.8539 15.3612 35.2302 15.0443M33.1987 13C32.8887 12.3806 32.7143 11.6812 32.7143 10.9409C32.7143 8.40082 34.773 6.3421 37.3131 6.3421V2.9826H35.5" stroke="white" stroke-miterlimit="10"/>
<path d="M26.6484 0.982727V16.8994" stroke="white" stroke-miterlimit="10"/>
<path d="M19.6987 4.06582C20.6564 4.834 20.9688 6.43694 21.0917 8.1679C21.2146 9.89886 21.1634 11.7579 20.2057 12.9562C19.2481 14.1546 17.3891 14.7025 15.8937 14.3389C14.4034 13.9753 13.2717 12.7053 12.2577 11.5018C11.2437 10.2983 10.3423 9.17165 10.3065 8.00914C10.2758 6.84663 11.1105 5.65339 12.1245 4.88521C13.1385 4.11704 14.3368 3.77903 15.7349 3.56907C17.1381 3.36422 18.7411 3.29764 19.6987 4.06582Z" fill="#FFCC01"/>
<path d="M16.6518 13.3759C19.0559 13.3759 21.0048 11.427 21.0048 9.02293C21.0048 6.61883 19.0559 4.66992 16.6518 4.66992C14.2477 4.66992 12.2988 6.61883 12.2988 9.02293C12.2988 11.427 14.2477 13.3759 16.6518 13.3759Z" stroke="white" stroke-miterlimit="10"/>
</svg>
