<svg width="123" height="89" viewBox="0 0 123 89" fill="none" xmlns="http://www.w3.org/2000/svg">
<g clip-path="url(#clip0)">
<path d="M97.8892 30.6806C95.143 23.1355 99.0324 14.7945 106.578 12.0483L102.945 2.06932L2.0752 38.7831L5.70726 48.7621C13.2524 46.0159 21.5933 49.9054 24.3395 57.4505C27.0857 64.9956 23.1963 73.3365 15.6512 76.0827L19.2832 86.0617L120.138 49.3535L116.506 39.3745C108.961 42.1207 100.635 38.2257 97.8892 30.6806Z" stroke="white" stroke-width="2" stroke-miterlimit="10"/>
<path d="M77.207 11.4374L94.4151 58.716" stroke="white" stroke-width="2" stroke-miterlimit="10"/>
<path d="M59.8971 28.1082C63.5722 29.3547 66.2331 33.7783 68.4696 38.787C70.7061 43.7958 72.5638 49.3731 71.0147 53.968C69.4657 58.563 64.5362 62.2004 59.7012 62.7371C54.8814 63.2682 50.1465 60.7193 45.8334 58.2408C41.5203 55.7622 37.625 53.3901 36.2617 49.9757C34.9136 46.5558 36.103 42.109 38.2845 38.7309C40.4659 35.3529 43.6601 33.0533 47.5859 30.9181C51.5325 28.7926 56.2219 26.8618 59.8971 28.1082Z" fill="#FFCC01"/>
<path d="M60.9118 59.0578C68.0529 56.4587 71.7349 48.5626 69.1358 41.4215C66.5366 34.2804 58.6406 30.5984 51.4995 33.1976C44.3584 35.7967 40.6764 43.6928 43.2755 50.8339C45.8747 57.975 53.7707 61.657 60.9118 59.0578Z" stroke="white" stroke-width="2" stroke-miterlimit="10"/>
</g>
<defs>
<clipPath id="clip0">
<rect y="37.8156" width="110.565" height="53.5505" transform="rotate(-20 0 37.8156)" fill="white"/>
</clipPath>
</defs>
</svg>
