<svg width="84" height="84" viewBox="0 0 84 84" fill="none" xmlns="http://www.w3.org/2000/svg">
<path d="M54.25 19.25C58.1 19.25 61.25 16.1 61.25 12.25C61.25 8.4 58.1 5.25 54.25 5.25C50.4 5.25 47.25 8.4 47.25 12.25C47.25 16.1 50.4 19.25 54.25 19.25ZM17.5 42C7.7 42 0 49.7 0 59.5C0 69.3 7.7 77 17.5 77C27.3 77 35 69.3 35 59.5C35 49.7 27.3 42 17.5 42ZM17.5 71.75C10.85 71.75 5.25 66.15 5.25 59.5C5.25 52.85 10.85 47.25 17.5 47.25C24.15 47.25 29.75 52.85 29.75 59.5C29.75 66.15 24.15 71.75 17.5 71.75ZM37.8 36.75L46.2 28.35L49 31.15C53.55 35.7 59.5 38.5 66.85 38.5V31.5C61.6 31.5 57.4 29.4 54.25 26.25L47.6 19.6C45.85 18.2 44.1 17.5 42 17.5C39.9 17.5 38.15 18.2 37.1 19.6L27.3 29.4C25.9 30.8 25.2 32.55 25.2 34.3C25.2 36.4 25.9 38.15 27.3 39.2L38.5 49V66.5H45.5V44.8L37.8 36.75ZM66.5 42C56.7 42 49 49.7 49 59.5C49 69.3 56.7 77 66.5 77C76.3 77 84 69.3 84 59.5C84 49.7 76.3 42 66.5 42ZM66.5 71.75C59.85 71.75 54.25 66.15 54.25 59.5C54.25 52.85 59.85 47.25 66.5 47.25C73.15 47.25 78.75 52.85 78.75 59.5C78.75 66.15 73.15 71.75 66.5 71.75Z" fill="white"/>
</svg>
