<svg width="136" height="72" viewBox="0 0 136 72" fill="none" xmlns="http://www.w3.org/2000/svg">
<path fill-rule="evenodd" clip-rule="evenodd" d="M61.25 7C61.25 10.85 58.1 14 54.25 14C50.4 14 47.25 10.85 47.25 7C47.25 3.15 50.4 0 54.25 0C58.1 0 61.25 3.15 61.25 7ZM0 54.25C0 44.45 7.7 36.75 17.5 36.75C27.3 36.75 35 44.45 35 54.25C35 64.05 27.3 71.75 17.5 71.75C7.7 71.75 0 64.05 0 54.25ZM5.25 54.25C5.25 60.9 10.85 66.5 17.5 66.5C24.15 66.5 29.75 60.9 29.75 54.25C29.75 47.6 24.15 42 17.5 42C10.85 42 5.25 47.6 5.25 54.25ZM49 25.9L46.2 23.1L37.8 31.5L45.5 39.55V61.25H38.5V43.75L27.3 33.95C25.9 32.9 25.2 31.15 25.2 29.05C25.2 27.3 25.9 25.55 27.3 24.15L37.1 14.35C38.15 12.95 39.9 12.25 42 12.25C44.1 12.25 45.85 12.95 47.6 14.35L54.25 21C57.4 24.15 61.6 26.25 66.85 26.25V33.25C59.5 33.25 53.55 30.45 49 25.9Z" fill="#FF016C"/>
<rect x="63" y="37.75" width="4" height="24" fill="#FF016C"/>
<rect x="115.938" y="45.147" width="4" height="17.4308" transform="rotate(34.7581 115.938 45.147)" fill="#FF016C"/>
<path d="M67 57.75H112L109.5 61.75H67V57.75Z" fill="#FF016C"/>
<path fill-rule="evenodd" clip-rule="evenodd" d="M125 49.75C118.84 49.75 114 54.59 114 60.75C114 66.91 118.84 71.75 125 71.75C131.16 71.75 136 66.91 136 60.75C136 54.59 131.16 49.75 125 49.75ZM125 68.45C120.82 68.45 117.3 64.93 117.3 60.75C117.3 56.57 120.82 53.05 125 53.05C129.18 53.05 132.7 56.57 132.7 60.75C132.7 64.93 129.18 68.45 125 68.45Z" fill="#FF016C"/>
</svg>
