<svg width="92" height="110" viewBox="0 0 92 110" fill="none" xmlns="http://www.w3.org/2000/svg">
<g clip-path="url(#clip0)">
<path d="M15.6113 30.281C15.6113 24.8016 16.9681 19.7351 19.6816 15.0815C22.3951 10.4279 26.072 6.75096 30.7125 4.05058C35.353 1.35019 40.3998 0 45.853 0C49.9429 0 53.8493 0.799628 57.5721 2.39888C61.295 3.99814 64.5066 6.14796 67.207 8.84834C69.9074 11.5487 72.0572 14.7669 73.6565 18.5029C75.2557 22.2388 76.0554 26.1649 76.0554 30.281C76.0554 34.3709 75.2557 38.2838 73.6565 42.0198C72.0572 45.7558 69.9074 48.9674 67.207 51.6547C64.5066 54.3419 61.295 56.4787 57.5721 58.0648C53.8493 59.6509 49.9429 60.444 45.853 60.444C41.7369 60.444 37.8108 59.6444 34.0749 58.0451C30.3389 56.4459 27.1207 54.2961 24.4203 51.5957C21.72 48.8953 19.5767 45.6902 17.9905 41.9805C16.4044 38.2707 15.6113 34.3709 15.6113 30.281ZM22.2574 30.281C22.2574 36.6518 24.5777 42.1837 29.2181 46.8766C33.8586 51.517 39.4035 53.8373 45.853 53.8373C50.1002 53.8373 54.0328 52.782 57.6508 50.6715C61.2688 48.561 64.1396 45.6968 66.2632 42.0788C68.3868 38.4608 69.4486 34.5282 69.4486 30.281C69.4486 26.0338 68.3868 22.0946 66.2632 18.4635C64.1396 14.8324 61.2688 11.9617 57.6508 9.85116C54.0328 7.74066 50.1002 6.68542 45.853 6.68542C41.6058 6.68542 37.6732 7.74066 34.0552 9.85116C30.4372 11.9617 27.5664 14.8324 25.4428 18.4635C23.3192 22.0946 22.2574 26.0338 22.2574 30.281ZM31.1058 30.2417C31.1058 29.6125 31.3221 29.0816 31.7546 28.649C32.1872 28.2164 32.7181 28.0001 33.3473 28.0001H43.5328V12.3877C43.5328 11.7585 43.7491 11.2276 44.1816 10.795C44.6142 10.3624 45.1451 10.1461 45.7744 10.1461C46.4036 10.1461 46.9345 10.3624 47.3671 10.795C47.7996 11.2276 48.0159 11.7585 48.0159 12.3877V30.281C48.0159 30.9102 47.7996 31.4411 47.3671 31.8737C46.9345 32.3063 46.4036 32.5226 45.7744 32.5226C45.5122 32.5226 45.3418 32.5095 45.2631 32.4833H33.3473C32.7181 32.4833 32.1872 32.2604 31.7546 31.8147C31.3221 31.369 31.1058 30.8447 31.1058 30.2417Z" fill="#FF016C"/>
</g>
<path d="M16.719 74.1389H17.755V83.0429H23.243V83.9389H16.719V74.1389ZM24.7532 76.5749H25.7472V83.9389H24.7532V76.5749ZM25.2572 74.9649C25.0518 74.9649 24.8792 74.8949 24.7392 74.7549C24.5992 74.6149 24.5292 74.4469 24.5292 74.2509C24.5292 74.0643 24.5992 73.9009 24.7392 73.7609C24.8792 73.6209 25.0518 73.5509 25.2572 73.5509C25.4625 73.5509 25.6352 73.6209 25.7752 73.7609C25.9152 73.8916 25.9852 74.0503 25.9852 74.2369C25.9852 74.4423 25.9152 74.6149 25.7752 74.7549C25.6352 74.8949 25.4625 74.9649 25.2572 74.9649ZM34.7009 76.5749L31.4249 83.9389H30.4029L27.1409 76.5749H28.1769L30.9349 82.8469L33.7209 76.5749H34.7009ZM37.0528 78.0169C37.2861 77.5223 37.6315 77.1489 38.0888 76.8969C38.5555 76.6449 39.1295 76.5189 39.8108 76.5189V77.4849L39.5728 77.4709C38.7981 77.4709 38.1915 77.7089 37.7528 78.1849C37.3141 78.6609 37.0948 79.3283 37.0948 80.1869V83.9389H36.1008V76.5749H37.0528V78.0169ZM44.1729 76.5189C45.1342 76.5189 45.8716 76.7616 46.3849 77.2469C46.8982 77.7229 47.1549 78.4323 47.1549 79.3749V83.9389H46.2029V82.7909C45.9789 83.1736 45.6476 83.4723 45.2089 83.6869C44.7796 83.9016 44.2662 84.0089 43.6689 84.0089C42.8476 84.0089 42.1942 83.8129 41.7089 83.4209C41.2236 83.0289 40.9809 82.5109 40.9809 81.8669C40.9809 81.2416 41.2049 80.7376 41.6529 80.3549C42.1102 79.9723 42.8336 79.7809 43.8229 79.7809H46.1609V79.3329C46.1609 78.6983 45.9836 78.2176 45.6289 77.8909C45.2742 77.5549 44.7562 77.3869 44.0749 77.3869C43.6082 77.3869 43.1602 77.4663 42.7309 77.6249C42.3016 77.7743 41.9329 77.9843 41.6249 78.2549L41.1769 77.5129C41.5502 77.1956 41.9982 76.9529 42.5209 76.7849C43.0436 76.6076 43.5942 76.5189 44.1729 76.5189ZM43.8229 83.2249C44.3829 83.2249 44.8636 83.0989 45.2649 82.8469C45.6662 82.5856 45.9649 82.2123 46.1609 81.7269V80.5229H43.8509C42.5909 80.5229 41.9609 80.9616 41.9609 81.8389C41.9609 82.2683 42.1242 82.6089 42.4509 82.8609C42.7776 83.1036 43.2349 83.2249 43.8229 83.2249ZM49.8547 76.5749H50.8487V83.9389H49.8547V76.5749ZM50.3587 74.9649C50.1534 74.9649 49.9807 74.8949 49.8407 74.7549C49.7007 74.6149 49.6307 74.4469 49.6307 74.2509C49.6307 74.0643 49.7007 73.9009 49.8407 73.7609C49.9807 73.6209 50.1534 73.5509 50.3587 73.5509C50.564 73.5509 50.7367 73.6209 50.8767 73.7609C51.0167 73.8916 51.0867 74.0503 51.0867 74.2369C51.0867 74.4423 51.0167 74.6149 50.8767 74.7549C50.7367 74.8949 50.564 74.9649 50.3587 74.9649ZM55.5885 84.0089C54.9911 84.0089 54.4171 83.9249 53.8665 83.7569C53.3251 83.5796 52.9005 83.3603 52.5925 83.0989L53.0405 82.3149C53.3485 82.5576 53.7358 82.7583 54.2025 82.9169C54.6691 83.0663 55.1545 83.1409 55.6585 83.1409C56.3305 83.1409 56.8251 83.0383 57.1425 82.8329C57.4691 82.6183 57.6325 82.3196 57.6325 81.9369C57.6325 81.6663 57.5438 81.4563 57.3665 81.3069C57.1891 81.1483 56.9651 81.0316 56.6945 80.9569C56.4238 80.8729 56.0645 80.7936 55.6165 80.7189C55.0191 80.6069 54.5385 80.4949 54.1745 80.3829C53.8105 80.2616 53.4978 80.0609 53.2365 79.7809C52.9845 79.5009 52.8585 79.1136 52.8585 78.6189C52.8585 78.0029 53.1151 77.4989 53.6285 77.1069C54.1418 76.7149 54.8558 76.5189 55.7705 76.5189C56.2465 76.5189 56.7225 76.5843 57.1985 76.7149C57.6745 76.8363 58.0665 76.9996 58.3745 77.2049L57.9405 78.0029C57.3338 77.5829 56.6105 77.3729 55.7705 77.3729C55.1358 77.3729 54.6551 77.4849 54.3285 77.7089C54.0111 77.9329 53.8525 78.2269 53.8525 78.5909C53.8525 78.8709 53.9411 79.0949 54.1185 79.2629C54.3051 79.4309 54.5338 79.5569 54.8045 79.6409C55.0751 79.7156 55.4485 79.7949 55.9245 79.8789C56.5125 79.9909 56.9838 80.1029 57.3385 80.2149C57.6931 80.3269 57.9965 80.5183 58.2485 80.7889C58.5005 81.0596 58.6265 81.4329 58.6265 81.9089C58.6265 82.5529 58.3558 83.0663 57.8145 83.4489C57.2825 83.8223 56.5405 84.0089 55.5885 84.0089ZM63.4741 84.0089C62.7648 84.0089 62.1254 83.8503 61.5561 83.5329C60.9868 83.2063 60.5388 82.7583 60.2121 82.1889C59.8854 81.6196 59.7221 80.9756 59.7221 80.2569C59.7221 79.5383 59.8854 78.8943 60.2121 78.3249C60.5388 77.7556 60.9868 77.3123 61.5561 76.9949C62.1254 76.6776 62.7648 76.5189 63.4741 76.5189C64.1834 76.5189 64.8228 76.6776 65.3921 76.9949C65.9614 77.3123 66.4048 77.7556 66.7221 78.3249C67.0488 78.8943 67.2121 79.5383 67.2121 80.2569C67.2121 80.9756 67.0488 81.6196 66.7221 82.1889C66.4048 82.7583 65.9614 83.2063 65.3921 83.5329C64.8228 83.8503 64.1834 84.0089 63.4741 84.0089ZM63.4741 83.1269C63.9968 83.1269 64.4634 83.0103 64.8741 82.7769C65.2941 82.5343 65.6208 82.1936 65.8541 81.7549C66.0874 81.3163 66.2041 80.8169 66.2041 80.2569C66.2041 79.6969 66.0874 79.1976 65.8541 78.7589C65.6208 78.3203 65.2941 77.9843 64.8741 77.7509C64.4634 77.5083 63.9968 77.3869 63.4741 77.3869C62.9514 77.3869 62.4801 77.5083 62.0601 77.7509C61.6494 77.9843 61.3228 78.3203 61.0801 78.7589C60.8468 79.1976 60.7301 79.6969 60.7301 80.2569C60.7301 80.8169 60.8468 81.3163 61.0801 81.7549C61.3228 82.1936 61.6494 82.5343 62.0601 82.7769C62.4801 83.0103 62.9514 83.1269 63.4741 83.1269ZM72.9934 76.5189C73.9174 76.5189 74.6501 76.7896 75.1914 77.3309C75.7421 77.8629 76.0174 78.6423 76.0174 79.6689V83.9389H75.0234V79.7669C75.0234 79.0016 74.8321 78.4183 74.4494 78.0169C74.0668 77.6156 73.5208 77.4149 72.8114 77.4149C72.0181 77.4149 71.3881 77.6529 70.9214 78.1289C70.4641 78.5956 70.2354 79.2443 70.2354 80.0749V83.9389H69.2414V76.5749H70.1934V77.9329C70.4641 77.4849 70.8374 77.1396 71.3134 76.8969C71.7988 76.6449 72.3588 76.5189 72.9934 76.5189ZM22.398 108.043V108.939H15.468V99.1389H22.188V100.035H16.504V103.521H21.572V104.403H16.504V108.043H22.398ZM30.8562 108.939L27.6922 104.627L24.5422 108.939H23.3522L27.0762 103.899L23.5902 99.1389H24.7802L27.7342 103.143L30.6742 99.1389H31.7942L28.3222 103.871L32.0602 108.939H30.8562ZM37.2239 99.1389C38.4746 99.1389 39.4546 99.4376 40.1639 100.035C40.8733 100.632 41.2279 101.454 41.2279 102.499C41.2279 103.544 40.8733 104.366 40.1639 104.963C39.4546 105.551 38.4746 105.845 37.2239 105.845H34.5919V108.939H33.5559V99.1389H37.2239ZM37.1959 104.935C38.1666 104.935 38.9086 104.725 39.4219 104.305C39.9353 103.876 40.1919 103.274 40.1919 102.499C40.1919 101.706 39.9353 101.099 39.4219 100.679C38.9086 100.25 38.1666 100.035 37.1959 100.035H34.5919V104.935H37.1959ZM50.16 108.939L47.92 105.789C47.668 105.817 47.4067 105.831 47.136 105.831H44.504V108.939H43.468V99.1389H47.136C48.3867 99.1389 49.3667 99.4376 50.076 100.035C50.7854 100.632 51.14 101.454 51.14 102.499C51.14 103.264 50.944 103.913 50.552 104.445C50.1694 104.968 49.6187 105.346 48.9 105.579L51.294 108.939H50.16ZM47.108 104.949C48.0787 104.949 48.8207 104.734 49.334 104.305C49.8474 103.876 50.104 103.274 50.104 102.499C50.104 101.706 49.8474 101.099 49.334 100.679C48.8207 100.25 48.0787 100.035 47.108 100.035H44.504V104.949H47.108ZM60.5152 108.043V108.939H53.5852V99.1389H60.3052V100.035H54.6212V103.521H59.6892V104.403H54.6212V108.043H60.5152ZM65.6525 109.023C64.9245 109.023 64.2245 108.906 63.5525 108.673C62.8898 108.44 62.3765 108.132 62.0125 107.749L62.4185 106.951C62.7731 107.306 63.2445 107.595 63.8325 107.819C64.4205 108.034 65.0271 108.141 65.6525 108.141C66.5298 108.141 67.1878 107.982 67.6265 107.665C68.0651 107.338 68.2845 106.918 68.2845 106.405C68.2845 106.013 68.1631 105.7 67.9205 105.467C67.6871 105.234 67.3978 105.056 67.0525 104.935C66.7071 104.804 66.2265 104.664 65.6105 104.515C64.8731 104.328 64.2851 104.151 63.8465 103.983C63.4078 103.806 63.0298 103.54 62.7125 103.185C62.4045 102.83 62.2505 102.35 62.2505 101.743C62.2505 101.248 62.3811 100.8 62.6425 100.399C62.9038 99.9883 63.3051 99.6616 63.8465 99.4189C64.3878 99.1763 65.0598 99.0549 65.8625 99.0549C66.4225 99.0549 66.9685 99.1343 67.5005 99.2929C68.0418 99.4423 68.5085 99.6523 68.9005 99.9229L68.5505 100.749C68.1398 100.478 67.7011 100.278 67.2345 100.147C66.7678 100.007 66.3105 99.9369 65.8625 99.9369C65.0038 99.9369 64.3551 100.105 63.9165 100.441C63.4871 100.768 63.2725 101.192 63.2725 101.715C63.2725 102.107 63.3891 102.424 63.6225 102.667C63.8651 102.9 64.1638 103.082 64.5185 103.213C64.8825 103.334 65.3678 103.47 65.9745 103.619C66.6931 103.796 67.2718 103.974 67.7105 104.151C68.1585 104.319 68.5365 104.58 68.8445 104.935C69.1525 105.28 69.3065 105.752 69.3065 106.349C69.3065 106.844 69.1711 107.296 68.9005 107.707C68.6391 108.108 68.2331 108.43 67.6825 108.673C67.1318 108.906 66.4551 109.023 65.6525 109.023ZM74.2657 109.023C73.5377 109.023 72.8377 108.906 72.1657 108.673C71.5031 108.44 70.9897 108.132 70.6257 107.749L71.0317 106.951C71.3864 107.306 71.8577 107.595 72.4457 107.819C73.0337 108.034 73.6404 108.141 74.2657 108.141C75.1431 108.141 75.8011 107.982 76.2397 107.665C76.6784 107.338 76.8977 106.918 76.8977 106.405C76.8977 106.013 76.7764 105.7 76.5337 105.467C76.3004 105.234 76.0111 105.056 75.6657 104.935C75.3204 104.804 74.8397 104.664 74.2237 104.515C73.4864 104.328 72.8984 104.151 72.4597 103.983C72.0211 103.806 71.6431 103.54 71.3257 103.185C71.0177 102.83 70.8637 102.35 70.8637 101.743C70.8637 101.248 70.9944 100.8 71.2557 100.399C71.5171 99.9883 71.9184 99.6616 72.4597 99.4189C73.0011 99.1763 73.6731 99.0549 74.4757 99.0549C75.0357 99.0549 75.5817 99.1343 76.1137 99.2929C76.6551 99.4423 77.1217 99.6523 77.5137 99.9229L77.1637 100.749C76.7531 100.478 76.3144 100.278 75.8477 100.147C75.3811 100.007 74.9237 99.9369 74.4757 99.9369C73.6171 99.9369 72.9684 100.105 72.5297 100.441C72.1004 100.768 71.8857 101.192 71.8857 101.715C71.8857 102.107 72.0024 102.424 72.2357 102.667C72.4784 102.9 72.7771 103.082 73.1317 103.213C73.4957 103.334 73.9811 103.47 74.5877 103.619C75.3064 103.796 75.8851 103.974 76.3237 104.151C76.7717 104.319 77.1497 104.58 77.4577 104.935C77.7657 105.28 77.9197 105.752 77.9197 106.349C77.9197 106.844 77.7844 107.296 77.5137 107.707C77.2524 108.108 76.8464 108.43 76.2957 108.673C75.7451 108.906 75.0684 109.023 74.2657 109.023Z" fill="white"/>
<defs>
<clipPath id="clip0">
<rect x="15.6113" width="60.444" height="60.444" fill="white"/>
</clipPath>
</defs>
</svg>
