<svg width="62" height="61" viewBox="0 0 62 61" fill="none" xmlns="http://www.w3.org/2000/svg">
<g clip-path="url(#clip0)">
<path d="M0.501953 30.281C0.501953 24.8016 1.8704 19.7351 4.60728 15.0815C7.34416 10.4279 11.0528 6.75096 15.7333 4.05058C20.4138 1.35019 25.5041 0 31.0043 0C35.1295 0 39.0695 0.799628 42.8245 2.39888C46.5795 3.99814 49.8188 6.14796 52.5424 8.84834C55.2661 11.5487 57.4344 14.7669 59.0475 18.5029C60.6605 22.2388 61.467 26.1649 61.467 30.281C61.467 34.3709 60.6605 38.2838 59.0475 42.0198C57.4344 45.7558 55.2661 48.9674 52.5424 51.6547C49.8188 54.3419 46.5795 56.4787 42.8245 58.0648C39.0695 59.6509 35.1295 60.444 31.0043 60.444C26.8527 60.444 22.8928 59.6444 19.1247 58.0451C15.3565 56.4459 12.1106 54.2961 9.38691 51.5957C6.66325 48.8953 4.50151 45.6902 2.90169 41.9805C1.30186 38.2707 0.501953 34.3709 0.501953 30.281ZM7.20534 30.281C7.20534 36.6518 9.54557 42.1837 14.226 46.8766C18.9065 51.517 24.4993 53.8373 31.0043 53.8373C35.2882 53.8373 39.2546 52.782 42.9038 50.6715C46.553 48.561 49.4486 45.6968 51.5905 42.0788C53.7324 38.4608 54.8033 34.5282 54.8033 30.281C54.8033 26.0338 53.7324 22.0946 51.5905 18.4635C49.4486 14.8324 46.553 11.9617 42.9038 9.85116C39.2546 7.74066 35.2882 6.68542 31.0043 6.68542C26.7205 6.68542 22.754 7.74066 19.1048 9.85116C15.4557 11.9617 12.5601 14.8324 10.4182 18.4635C8.27629 22.0946 7.20534 26.0338 7.20534 30.281ZM16.13 30.2417C16.13 29.6125 16.3481 29.0816 16.7844 28.649C17.2207 28.2164 17.7562 28.0001 18.3909 28.0001H28.6641V12.3877C28.6641 11.7585 28.8823 11.2276 29.3186 10.795C29.7549 10.3624 30.2904 10.1461 30.925 10.1461C31.5596 10.1461 32.0951 10.3624 32.5314 10.795C32.9677 11.2276 33.1859 11.7585 33.1859 12.3877V30.281C33.1859 30.9102 32.9677 31.4411 32.5314 31.8737C32.0951 32.3063 31.5596 32.5226 30.925 32.5226C30.6606 32.5226 30.4887 32.5095 30.4094 32.4833H18.3909C17.7562 32.4833 17.2207 32.2604 16.7844 31.8147C16.3481 31.369 16.13 30.8447 16.13 30.2417Z" fill="white"/>
</g>
<defs>
<clipPath id="clip0">
<rect x="0.501953" width="60.9651" height="60.444" fill="white"/>
</clipPath>
</defs>
</svg>
