<svg width="62" height="61" viewBox="0 0 62 61" fill="none" xmlns="http://www.w3.org/2000/svg">
<g clip-path="url(#clip0)">
<path d="M0.611328 30.281C0.611328 24.8016 1.96807 19.7351 4.68157 15.0815C7.39506 10.4279 11.072 6.75096 15.7125 4.05058C20.353 1.35019 25.3998 0 30.853 0C34.9429 0 38.8493 0.799628 42.5721 2.39888C46.295 3.99814 49.5066 6.14796 52.207 8.84834C54.9074 11.5487 57.0572 14.7669 58.6565 18.5029C60.2557 22.2388 61.0554 26.1649 61.0554 30.281C61.0554 34.3709 60.2557 38.2838 58.6565 42.0198C57.0572 45.7558 54.9074 48.9674 52.207 51.6547C49.5066 54.3419 46.295 56.4787 42.5721 58.0648C38.8493 59.6509 34.9429 60.444 30.853 60.444C26.7369 60.444 22.8108 59.6444 19.0749 58.0451C15.3389 56.4459 12.1207 54.2961 9.42035 51.5957C6.71996 48.8953 4.5767 45.6902 2.99055 41.9805C1.4044 38.2707 0.611328 34.3709 0.611328 30.281ZM7.25742 30.281C7.25742 36.6518 9.57765 42.1837 14.2181 46.8766C18.8586 51.517 24.4035 53.8373 30.853 53.8373C35.1002 53.8373 39.0328 52.782 42.6508 50.6715C46.2688 48.561 49.1396 45.6968 51.2632 42.0788C53.3868 38.4608 54.4486 34.5282 54.4486 30.281C54.4486 26.0338 53.3868 22.0946 51.2632 18.4635C49.1396 14.8324 46.2688 11.9617 42.6508 9.85116C39.0328 7.74066 35.1002 6.68542 30.853 6.68542C26.6058 6.68542 22.6732 7.74066 19.0552 9.85116C15.4372 11.9617 12.5664 14.8324 10.4428 18.4635C8.31922 22.0946 7.25742 26.0338 7.25742 30.281ZM16.1058 30.2417C16.1058 29.6125 16.3221 29.0816 16.7546 28.649C17.1872 28.2164 17.7181 28.0001 18.3473 28.0001H28.5328V12.3877C28.5328 11.7585 28.7491 11.2276 29.1816 10.795C29.6142 10.3624 30.1451 10.1461 30.7744 10.1461C31.4036 10.1461 31.9345 10.3624 32.3671 10.795C32.7996 11.2276 33.0159 11.7585 33.0159 12.3877V30.281C33.0159 30.9102 32.7996 31.4411 32.3671 31.8737C31.9345 32.3063 31.4036 32.5226 30.7744 32.5226C30.5122 32.5226 30.3418 32.5095 30.2631 32.4833H18.3473C17.7181 32.4833 17.1872 32.2604 16.7546 31.8147C16.3221 31.369 16.1058 30.8447 16.1058 30.2417Z" fill="#FF016C"/>
</g>
<defs>
<clipPath id="clip0">
<rect x="0.611328" width="60.444" height="60.444" fill="white"/>
</clipPath>
</defs>
</svg>
