<svg width="326" height="229" viewBox="0 0 326 229" fill="none" xmlns="http://www.w3.org/2000/svg">
<path d="M216.849 114.516C208.241 114.516 200.142 109.916 195.762 102.555L163.011 48.0667L130.311 102.555C125.88 109.967 117.782 114.567 109.174 114.567C106.882 114.567 104.59 114.26 102.399 113.596L32.6195 93.5588V184.543C32.6195 192.057 37.7129 198.6 44.9456 200.389L155.066 228.042C160.261 229.319 165.711 229.319 170.855 228.042L281.077 200.389C288.31 198.548 293.403 192.006 293.403 184.543V93.5588L223.623 113.545C221.433 114.209 219.141 114.516 216.849 114.516ZM325.135 57.1651L298.904 4.61922C297.325 1.45011 293.912 -0.390024 290.398 0.0700081L163.011 16.3756L209.718 94.1211C211.654 97.3413 215.525 98.8747 219.141 97.8524L319.94 68.9726C324.982 67.4903 327.427 61.8677 325.135 57.1651V57.1651ZM27.1186 4.61922L0.887441 57.1651C-1.45554 61.8677 1.04024 67.4903 6.0318 68.9215L106.831 97.8013C110.447 98.8236 114.318 97.2902 116.254 94.07L163.011 16.3756L35.5737 0.0700081C32.0592 -0.33891 28.6976 1.45011 27.1186 4.61922V4.61922Z" fill="white"/>
</svg>
