<svg width="237" height="229" viewBox="0 0 237 229" fill="none" xmlns="http://www.w3.org/2000/svg">
<path d="M118.5 0L73.8255 27.9153H35.55V51.5723L11.4945 66.8311C4.6215 70.9711 0 78.423 0 87.0579V205.343C0 211.617 2.49696 217.634 6.94157 222.071C11.3862 226.508 17.4144 229 23.7 229H213.3C226.454 229 237 218.473 237 205.343V87.0579C237 78.423 232.379 70.9711 225.506 66.8311L201.45 51.5723V27.9153H163.175L118.5 0ZM59.25 51.5723H177.75V109.295L118.5 146.2L59.25 109.295V51.5723ZM71.1 63.4008V81.1436H165.9V63.4008H71.1ZM35.55 79.7242V94.5098L23.7 87.0579L35.55 79.7242ZM201.45 79.7242L213.3 87.0579L201.45 94.5098V79.7242ZM71.1 92.9721V110.715H165.9V92.9721H71.1Z" fill="white"/>
</svg>
