<svg width="184" height="75" viewBox="0 0 184 75" fill="none" xmlns="http://www.w3.org/2000/svg">
<path d="M98.66 -2.38419e-06V35H90.56V6.5H83.56V-2.38419e-06H98.66ZM6.36497 70.192C5.29297 70.192 4.24497 70.064 3.22097 69.808C2.19697 69.536 1.38097 69.2 0.772969 68.8L2.02097 66.112C2.59697 66.48 3.29297 66.784 4.10897 67.024C4.92497 67.248 5.72497 67.36 6.50897 67.36C8.09297 67.36 8.88497 66.968 8.88497 66.184C8.88497 65.816 8.66897 65.552 8.23697 65.392C7.80497 65.232 7.14097 65.096 6.24497 64.984C5.18897 64.824 4.31697 64.64 3.62897 64.432C2.94097 64.224 2.34097 63.856 1.82897 63.328C1.33297 62.8 1.08497 62.048 1.08497 61.072C1.08497 60.256 1.31697 59.536 1.78097 58.912C2.26097 58.272 2.94897 57.776 3.84497 57.424C4.75697 57.072 5.82897 56.896 7.06097 56.896C7.97297 56.896 8.87697 57 9.77297 57.208C10.685 57.4 11.437 57.672 12.029 58.024L10.781 60.688C9.64497 60.048 8.40497 59.728 7.06097 59.728C6.26097 59.728 5.66097 59.84 5.26097 60.064C4.86097 60.288 4.66097 60.576 4.66097 60.928C4.66097 61.328 4.87697 61.608 5.30897 61.768C5.74097 61.928 6.42897 62.08 7.37297 62.224C8.42897 62.4 9.29297 62.592 9.96497 62.8C10.637 62.992 11.221 63.352 11.717 63.88C12.213 64.408 12.461 65.144 12.461 66.088C12.461 66.888 12.221 67.6 11.741 68.224C11.261 68.848 10.557 69.336 9.62897 69.688C8.71697 70.024 7.62897 70.192 6.36497 70.192ZM22.403 56.896C23.603 56.896 24.691 57.176 25.667 57.736C26.659 58.28 27.435 59.056 27.995 60.064C28.555 61.056 28.835 62.216 28.835 63.544C28.835 64.872 28.555 66.04 27.995 67.048C27.435 68.04 26.659 68.816 25.667 69.376C24.691 69.92 23.603 70.192 22.403 70.192C20.755 70.192 19.459 69.672 18.515 68.632V74.656H14.771V57.088H18.347V58.576C19.275 57.456 20.627 56.896 22.403 56.896ZM21.755 67.12C22.715 67.12 23.499 66.8 24.107 66.16C24.731 65.504 25.043 64.632 25.043 63.544C25.043 62.456 24.731 61.592 24.107 60.952C23.499 60.296 22.715 59.968 21.755 59.968C20.795 59.968 20.003 60.296 19.379 60.952C18.771 61.592 18.467 62.456 18.467 63.544C18.467 64.632 18.771 65.504 19.379 66.16C20.003 66.8 20.795 67.12 21.755 67.12ZM34.9173 58.792C35.3653 58.168 35.9653 57.696 36.7173 57.376C37.4853 57.056 38.3653 56.896 39.3573 56.896V60.352C38.9413 60.32 38.6613 60.304 38.5173 60.304C37.4453 60.304 36.6053 60.608 35.9973 61.216C35.3893 61.808 35.0853 62.704 35.0853 63.904V70H31.3413V57.088H34.9173V58.792ZM41.5835 57.088H45.3275V70H41.5835V57.088ZM43.4555 55.288C42.7675 55.288 42.2075 55.088 41.7755 54.688C41.3435 54.288 41.1275 53.792 41.1275 53.2C41.1275 52.608 41.3435 52.112 41.7755 51.712C42.2075 51.312 42.7675 51.112 43.4555 51.112C44.1435 51.112 44.7035 51.304 45.1355 51.688C45.5675 52.072 45.7835 52.552 45.7835 53.128C45.7835 53.752 45.5675 54.272 45.1355 54.688C44.7035 55.088 44.1435 55.288 43.4555 55.288ZM56.6502 56.896C58.2502 56.896 59.5382 57.376 60.5142 58.336C61.5062 59.296 62.0022 60.72 62.0022 62.608V70H58.2582V63.184C58.2582 62.16 58.0342 61.4 57.5862 60.904C57.1382 60.392 56.4902 60.136 55.6422 60.136C54.6982 60.136 53.9462 60.432 53.3862 61.024C52.8262 61.6 52.5462 62.464 52.5462 63.616V70H48.8022V57.088H52.3782V58.6C52.8742 58.056 53.4902 57.64 54.2262 57.352C54.9622 57.048 55.7702 56.896 56.6502 56.896ZM73.724 69.376C73.356 69.648 72.9 69.856 72.356 70C71.828 70.128 71.268 70.192 70.676 70.192C69.14 70.192 67.948 69.8 67.1 69.016C66.268 68.232 65.852 67.08 65.852 65.56V60.256H63.86V57.376H65.852V54.232H69.596V57.376H72.812V60.256H69.596V65.512C69.596 66.056 69.732 66.48 70.004 66.784C70.292 67.072 70.692 67.216 71.204 67.216C71.796 67.216 72.3 67.056 72.716 66.736L73.724 69.376ZM82.6225 57.088H86.3665V70H82.6225V57.088ZM84.4945 55.288C83.8065 55.288 83.2465 55.088 82.8145 54.688C82.3825 54.288 82.1665 53.792 82.1665 53.2C82.1665 52.608 82.3825 52.112 82.8145 51.712C83.2465 51.312 83.8065 51.112 84.4945 51.112C85.1825 51.112 85.7425 51.304 86.1745 51.688C86.6065 52.072 86.8225 52.552 86.8225 53.128C86.8225 53.752 86.6065 54.272 86.1745 54.688C85.7425 55.088 85.1825 55.288 84.4945 55.288ZM106.377 56.896C107.993 56.896 109.273 57.376 110.217 58.336C111.177 59.28 111.657 60.704 111.657 62.608V70H107.913V63.184C107.913 62.16 107.697 61.4 107.265 60.904C106.849 60.392 106.249 60.136 105.465 60.136C104.585 60.136 103.889 60.424 103.377 61C102.865 61.56 102.609 62.4 102.609 63.52V70H98.8653V63.184C98.8653 61.152 98.0493 60.136 96.4173 60.136C95.5533 60.136 94.8653 60.424 94.3533 61C93.8413 61.56 93.5853 62.4 93.5853 63.52V70H89.8413V57.088H93.4173V58.576C93.8973 58.032 94.4813 57.616 95.1693 57.328C95.8733 57.04 96.6413 56.896 97.4733 56.896C98.3853 56.896 99.2093 57.08 99.9453 57.448C100.681 57.8 101.273 58.32 101.721 59.008C102.249 58.336 102.913 57.816 103.713 57.448C104.529 57.08 105.417 56.896 106.377 56.896ZM122.645 56.896C123.845 56.896 124.933 57.176 125.909 57.736C126.901 58.28 127.677 59.056 128.237 60.064C128.797 61.056 129.077 62.216 129.077 63.544C129.077 64.872 128.797 66.04 128.237 67.048C127.677 68.04 126.901 68.816 125.909 69.376C124.933 69.92 123.845 70.192 122.645 70.192C120.997 70.192 119.701 69.672 118.757 68.632V74.656H115.013V57.088H118.589V58.576C119.517 57.456 120.869 56.896 122.645 56.896ZM121.997 67.12C122.957 67.12 123.741 66.8 124.349 66.16C124.973 65.504 125.285 64.632 125.285 63.544C125.285 62.456 124.973 61.592 124.349 60.952C123.741 60.296 122.957 59.968 121.997 59.968C121.037 59.968 120.245 60.296 119.621 60.952C119.013 61.592 118.709 62.456 118.709 63.544C118.709 64.632 119.013 65.504 119.621 66.16C120.245 66.8 121.037 67.12 121.997 67.12ZM135.159 58.792C135.607 58.168 136.207 57.696 136.959 57.376C137.727 57.056 138.607 56.896 139.599 56.896V60.352C139.183 60.32 138.903 60.304 138.759 60.304C137.687 60.304 136.847 60.608 136.239 61.216C135.631 61.808 135.327 62.704 135.327 63.904V70H131.583V57.088H135.159V58.792ZM154.356 63.592C154.356 63.64 154.332 63.976 154.284 64.6H144.516C144.692 65.4 145.108 66.032 145.764 66.496C146.42 66.96 147.236 67.192 148.212 67.192C148.884 67.192 149.476 67.096 149.988 66.904C150.516 66.696 151.004 66.376 151.452 65.944L153.444 68.104C152.228 69.496 150.452 70.192 148.116 70.192C146.66 70.192 145.372 69.912 144.252 69.352C143.132 68.776 142.268 67.984 141.66 66.976C141.052 65.968 140.748 64.824 140.748 63.544C140.748 62.28 141.044 61.144 141.636 60.136C142.244 59.112 143.068 58.32 144.108 57.76C145.164 57.184 146.34 56.896 147.636 56.896C148.9 56.896 150.044 57.168 151.068 57.712C152.092 58.256 152.892 59.04 153.468 60.064C154.06 61.072 154.356 62.248 154.356 63.592ZM147.66 59.728C146.812 59.728 146.1 59.968 145.524 60.448C144.948 60.928 144.596 61.584 144.468 62.416H150.828C150.7 61.6 150.348 60.952 149.772 60.472C149.196 59.976 148.492 59.728 147.66 59.728ZM148.62 51.976H152.652L148.308 55.432H145.38L148.62 51.976ZM169.431 57.088L163.983 70H160.119L154.695 57.088H158.559L162.135 65.872L165.831 57.088H169.431ZM183.966 57.088V70H180.414V68.464C179.918 69.024 179.326 69.456 178.638 69.76C177.95 70.048 177.206 70.192 176.406 70.192C174.71 70.192 173.366 69.704 172.374 68.728C171.382 67.752 170.886 66.304 170.886 64.384V57.088H174.63V63.832C174.63 65.912 175.502 66.952 177.246 66.952C178.142 66.952 178.862 66.664 179.406 66.088C179.95 65.496 180.222 64.624 180.222 63.472V57.088H183.966Z" fill="white"/>
</svg>
