<svg width="215" height="77" viewBox="0 0 215 77" fill="none" xmlns="http://www.w3.org/2000/svg">
<path d="M19.0148 17.25C22.0815 17.75 24.4315 18.9 26.0648 20.7C27.6982 22.4667 28.5148 24.6667 28.5148 27.3C28.5148 29.3333 27.9815 31.2167 26.9148 32.95C25.8482 34.65 24.2148 36.0167 22.0148 37.05C19.8482 38.0833 17.1815 38.6 14.0148 38.6C11.5482 38.6 9.11484 38.2833 6.71484 37.65C4.34818 36.9833 2.33151 36.05 0.664844 34.85L3.81484 28.65C5.14818 29.65 6.68151 30.4333 8.41484 31C10.1815 31.5333 11.9815 31.8 13.8148 31.8C15.8482 31.8 17.4482 31.4167 18.6148 30.65C19.7815 29.85 20.3648 28.7333 20.3648 27.3C20.3648 24.4333 18.1815 23 13.8148 23H10.1148V17.65L17.3148 9.5H2.41484V3H26.9148V8.25L19.0148 17.25ZM45.4547 27.45L41.7047 31.15V38H33.9047V0.899998H41.7047V21.9L53.1047 11.1H62.4047L51.2047 22.5L63.4047 38H53.9547L45.4547 27.45ZM93.4906 11.1V33.5C93.4906 38.4333 92.2073 42.1 89.6406 44.5C87.074 46.9 83.324 48.1 78.3906 48.1C75.7906 48.1 73.324 47.7833 70.9906 47.15C68.6573 46.5167 66.724 45.6 65.1906 44.4L68.2906 38.8C69.424 39.7333 70.8573 40.4667 72.5906 41C74.324 41.5667 76.0573 41.85 77.7906 41.85C80.4906 41.85 82.474 41.2333 83.7406 40C85.0406 38.8 85.6906 36.9667 85.6906 34.5V33.35C83.6573 35.5833 80.824 36.7 77.1906 36.7C74.724 36.7 72.4573 36.1667 70.3906 35.1C68.3573 34 66.7406 32.4667 65.5406 30.5C64.3406 28.5333 63.7406 26.2667 63.7406 23.7C63.7406 21.1333 64.3406 18.8667 65.5406 16.9C66.7406 14.9333 68.3573 13.4167 70.3906 12.35C72.4573 11.25 74.724 10.7 77.1906 10.7C81.0906 10.7 84.0573 11.9833 86.0906 14.55V11.1H93.4906ZM78.7406 30.3C80.8073 30.3 82.4906 29.7 83.7906 28.5C85.124 27.2667 85.7906 25.6667 85.7906 23.7C85.7906 21.7333 85.124 20.15 83.7906 18.95C82.4906 17.7167 80.8073 17.1 78.7406 17.1C76.674 17.1 74.974 17.7167 73.6406 18.95C72.3073 20.15 71.6406 21.7333 71.6406 23.7C71.6406 25.6667 72.3073 27.2667 73.6406 28.5C74.974 29.7 76.674 30.3 78.7406 30.3ZM121.414 15.74V38H116.944V36.14C115.784 37.54 114.104 38.24 111.904 38.24C110.384 38.24 109.004 37.9 107.764 37.22C106.544 36.54 105.584 35.57 104.884 34.31C104.184 33.05 103.834 31.59 103.834 29.93C103.834 28.27 104.184 26.81 104.884 25.55C105.584 24.29 106.544 23.32 107.764 22.64C109.004 21.96 110.384 21.62 111.904 21.62C113.964 21.62 115.574 22.27 116.734 23.57V15.74H121.414ZM112.714 34.4C113.894 34.4 114.874 34 115.654 33.2C116.434 32.38 116.824 31.29 116.824 29.93C116.824 28.57 116.434 27.49 115.654 26.69C114.874 25.87 113.894 25.46 112.714 25.46C111.514 25.46 110.524 25.87 109.744 26.69C108.964 27.49 108.574 28.57 108.574 29.93C108.574 31.29 108.964 32.38 109.744 33.2C110.524 34 111.514 34.4 112.714 34.4ZM141.556 29.99C141.556 30.05 141.526 30.47 141.466 31.25H129.256C129.476 32.25 129.996 33.04 130.816 33.62C131.636 34.2 132.656 34.49 133.876 34.49C134.716 34.49 135.456 34.37 136.096 34.13C136.756 33.87 137.366 33.47 137.926 32.93L140.416 35.63C138.896 37.37 136.676 38.24 133.756 38.24C131.936 38.24 130.326 37.89 128.926 37.19C127.526 36.47 126.446 35.48 125.686 34.22C124.926 32.96 124.546 31.53 124.546 29.93C124.546 28.35 124.916 26.93 125.656 25.67C126.416 24.39 127.446 23.4 128.746 22.7C130.066 21.98 131.536 21.62 133.156 21.62C134.736 21.62 136.166 21.96 137.446 22.64C138.726 23.32 139.726 24.3 140.446 25.58C141.186 26.84 141.556 28.31 141.556 29.99ZM133.186 25.16C132.126 25.16 131.236 25.46 130.516 26.06C129.796 26.66 129.356 27.48 129.196 28.52H137.146C136.986 27.5 136.546 26.69 135.826 26.09C135.106 25.47 134.226 25.16 133.186 25.16ZM163.548 38.36C161.408 38.36 159.468 37.9 157.728 36.98C156.008 36.04 154.648 34.75 153.648 33.11C152.668 31.45 152.178 29.58 152.178 27.5C152.178 25.42 152.668 23.56 153.648 21.92C154.648 20.26 156.008 18.97 157.728 18.05C159.468 17.11 161.418 16.64 163.578 16.64C165.398 16.64 167.038 16.96 168.498 17.6C169.978 18.24 171.218 19.16 172.218 20.36L169.098 23.24C167.678 21.6 165.918 20.78 163.818 20.78C162.518 20.78 161.358 21.07 160.338 21.65C159.318 22.21 158.518 23 157.938 24.02C157.378 25.04 157.098 26.2 157.098 27.5C157.098 28.8 157.378 29.96 157.938 30.98C158.518 32 159.318 32.8 160.338 33.38C161.358 33.94 162.518 34.22 163.818 34.22C165.918 34.22 167.678 33.39 169.098 31.73L172.218 34.61C171.218 35.83 169.978 36.76 168.498 37.4C167.018 38.04 165.368 38.36 163.548 38.36ZM185.23 38.36C183.05 38.36 181.08 37.89 179.32 36.95C177.58 36.01 176.21 34.72 175.21 33.08C174.23 31.42 173.74 29.56 173.74 27.5C173.74 25.44 174.23 23.59 175.21 21.95C176.21 20.29 177.58 18.99 179.32 18.05C181.08 17.11 183.05 16.64 185.23 16.64C187.41 16.64 189.37 17.11 191.11 18.05C192.85 18.99 194.22 20.29 195.22 21.95C196.22 23.59 196.72 25.44 196.72 27.5C196.72 29.56 196.22 31.42 195.22 33.08C194.22 34.72 192.85 36.01 191.11 36.95C189.37 37.89 187.41 38.36 185.23 38.36ZM185.23 34.22C186.47 34.22 187.59 33.94 188.59 33.38C189.59 32.8 190.37 32 190.93 30.98C191.51 29.96 191.8 28.8 191.8 27.5C191.8 26.2 191.51 25.04 190.93 24.02C190.37 23 189.59 22.21 188.59 21.65C187.59 21.07 186.47 20.78 185.23 20.78C183.99 20.78 182.87 21.07 181.87 21.65C180.87 22.21 180.08 23 179.5 24.02C178.94 25.04 178.66 26.2 178.66 27.5C178.66 28.8 178.94 29.96 179.5 30.98C180.08 32 180.87 32.8 181.87 33.38C182.87 33.94 183.99 34.22 185.23 34.22ZM214.45 34.04V38H198.58V34.85L206.68 27.2C207.54 26.38 208.12 25.68 208.42 25.1C208.72 24.5 208.87 23.91 208.87 23.33C208.87 22.49 208.58 21.85 208 21.41C207.44 20.95 206.61 20.72 205.51 20.72C204.59 20.72 203.76 20.9 203.02 21.26C202.28 21.6 201.66 22.12 201.16 22.82L197.62 20.54C198.44 19.32 199.57 18.37 201.01 17.69C202.45 16.99 204.1 16.64 205.96 16.64C207.52 16.64 208.88 16.9 210.04 17.42C211.22 17.92 212.13 18.64 212.77 19.58C213.43 20.5 213.76 21.59 213.76 22.85C213.76 23.99 213.52 25.06 213.04 26.06C212.56 27.06 211.63 28.2 210.25 29.48L205.42 34.04H214.45ZM62.734 62.4C63.7207 62.4 64.614 62.6267 65.414 63.08C66.214 63.52 66.8407 64.1467 67.294 64.96C67.7473 65.7733 67.974 66.7 67.974 67.74C67.974 68.7933 67.7473 69.7267 67.294 70.54C66.8407 71.3533 66.214 71.9867 65.414 72.44C64.6273 72.88 63.734 73.1 62.734 73.1C61.8807 73.1 61.1073 72.9267 60.414 72.58C59.734 72.22 59.174 71.7 58.734 71.02V76.88H57.314V62.48H58.674V64.56C59.1007 63.8667 59.6607 63.3333 60.354 62.96C61.0607 62.5867 61.854 62.4 62.734 62.4ZM62.634 71.84C63.3673 71.84 64.034 71.6733 64.634 71.34C65.234 70.9933 65.7007 70.5067 66.034 69.88C66.3807 69.2533 66.554 68.54 66.554 67.74C66.554 66.94 66.3807 66.2333 66.034 65.62C65.7007 64.9933 65.234 64.5067 64.634 64.16C64.034 63.8133 63.3673 63.64 62.634 63.64C61.8873 63.64 61.214 63.8133 60.614 64.16C60.0273 64.5067 59.5607 64.9933 59.214 65.62C58.8807 66.2333 58.714 66.94 58.714 67.74C58.714 68.54 58.8807 69.2533 59.214 69.88C59.5607 70.5067 60.0273 70.9933 60.614 71.34C61.214 71.6733 61.8873 71.84 62.634 71.84ZM74.4901 62.4C75.8634 62.4 76.9167 62.7467 77.6501 63.44C78.3834 64.12 78.7501 65.1333 78.7501 66.48V73H77.3901V71.36C77.0701 71.9067 76.5967 72.3333 75.9701 72.64C75.3567 72.9467 74.6234 73.1 73.7701 73.1C72.5967 73.1 71.6634 72.82 70.9701 72.26C70.2767 71.7 69.9301 70.96 69.9301 70.04C69.9301 69.1467 70.2501 68.4267 70.8901 67.88C71.5434 67.3333 72.5767 67.06 73.9901 67.06H77.3301V66.42C77.3301 65.5133 77.0767 64.8267 76.5701 64.36C76.0634 63.88 75.3234 63.64 74.3501 63.64C73.6834 63.64 73.0434 63.7533 72.4301 63.98C71.8167 64.1933 71.2901 64.4933 70.8501 64.88L70.2101 63.82C70.7434 63.3667 71.3834 63.02 72.1301 62.78C72.8767 62.5267 73.6634 62.4 74.4901 62.4ZM73.9901 71.98C74.7901 71.98 75.4767 71.8 76.0501 71.44C76.6234 71.0667 77.0501 70.5333 77.3301 69.84V68.12H74.0301C72.2301 68.12 71.3301 68.7467 71.3301 70C71.3301 70.6133 71.5634 71.1 72.0301 71.46C72.4967 71.8067 73.1501 71.98 73.9901 71.98ZM83.967 64.54C84.3003 63.8333 84.7936 63.3 85.447 62.94C86.1136 62.58 86.9336 62.4 87.907 62.4V63.78L87.567 63.76C86.4603 63.76 85.5936 64.1 84.967 64.78C84.3403 65.46 84.027 66.4133 84.027 67.64V73H82.607V62.48H83.967V64.54ZM98.8087 59V73H97.3687V60.28H94.0687V59H98.8087ZM107.735 73.12C106.655 73.12 105.689 72.8333 104.835 72.26C103.995 71.6867 103.335 70.8667 102.855 69.8C102.389 68.72 102.155 67.4533 102.155 66C102.155 64.5467 102.389 63.2867 102.855 62.22C103.335 61.14 103.995 60.3133 104.835 59.74C105.689 59.1667 106.655 58.88 107.735 58.88C108.815 58.88 109.775 59.1667 110.615 59.74C111.469 60.3133 112.135 61.14 112.615 62.22C113.095 63.2867 113.335 64.5467 113.335 66C113.335 67.4533 113.095 68.72 112.615 69.8C112.135 70.8667 111.469 71.6867 110.615 72.26C109.775 72.8333 108.815 73.12 107.735 73.12ZM107.735 71.8C108.549 71.8 109.262 71.5733 109.875 71.12C110.502 70.6667 110.989 70.0067 111.335 69.14C111.682 68.2733 111.855 67.2267 111.855 66C111.855 64.7733 111.682 63.7267 111.335 62.86C110.989 61.9933 110.502 61.3333 109.875 60.88C109.262 60.4267 108.549 60.2 107.735 60.2C106.922 60.2 106.202 60.4267 105.575 60.88C104.962 61.3333 104.482 61.9933 104.135 62.86C103.789 63.7267 103.615 64.7733 103.615 66C103.615 67.2267 103.789 68.2733 104.135 69.14C104.482 70.0067 104.962 70.6667 105.575 71.12C106.202 71.5733 106.922 71.8 107.735 71.8ZM120.977 73.12C119.897 73.12 118.931 72.8333 118.077 72.26C117.237 71.6867 116.577 70.8667 116.097 69.8C115.631 68.72 115.397 67.4533 115.397 66C115.397 64.5467 115.631 63.2867 116.097 62.22C116.577 61.14 117.237 60.3133 118.077 59.74C118.931 59.1667 119.897 58.88 120.977 58.88C122.057 58.88 123.017 59.1667 123.857 59.74C124.711 60.3133 125.377 61.14 125.857 62.22C126.337 63.2867 126.577 64.5467 126.577 66C126.577 67.4533 126.337 68.72 125.857 69.8C125.377 70.8667 124.711 71.6867 123.857 72.26C123.017 72.8333 122.057 73.12 120.977 73.12ZM120.977 71.8C121.791 71.8 122.504 71.5733 123.117 71.12C123.744 70.6667 124.231 70.0067 124.577 69.14C124.924 68.2733 125.097 67.2267 125.097 66C125.097 64.7733 124.924 63.7267 124.577 62.86C124.231 61.9933 123.744 61.3333 123.117 60.88C122.504 60.4267 121.791 60.2 120.977 60.2C120.164 60.2 119.444 60.4267 118.817 60.88C118.204 61.3333 117.724 61.9933 117.377 62.86C117.031 63.7267 116.857 64.7733 116.857 66C116.857 67.2267 117.031 68.2733 117.377 69.14C117.724 70.0067 118.204 70.6667 118.817 71.12C119.444 71.5733 120.164 71.8 120.977 71.8ZM133.48 67.72L131 70V73H129.58V58.16H131V68.22L137.28 62.48H139.04L134.54 66.78L139.46 73H137.72L133.48 67.72ZM154.555 62.4C155.875 62.4 156.908 62.78 157.655 63.54C158.415 64.3 158.795 65.42 158.795 66.9V73H157.375V67.04C157.375 65.9467 157.108 65.1133 156.575 64.54C156.055 63.9667 155.315 63.68 154.355 63.68C153.262 63.68 152.402 64.02 151.775 64.7C151.148 65.3667 150.835 66.2933 150.835 67.48V73H149.415V67.04C149.415 65.9467 149.148 65.1133 148.615 64.54C148.095 63.9667 147.348 63.68 146.375 63.68C145.295 63.68 144.435 64.02 143.795 64.7C143.168 65.3667 142.855 66.2933 142.855 67.48V73H141.435V62.48H142.795V64.4C143.168 63.76 143.688 63.2667 144.355 62.92C145.022 62.5733 145.788 62.4 146.655 62.4C147.535 62.4 148.295 62.5867 148.935 62.96C149.588 63.3333 150.075 63.8867 150.395 64.62C150.782 63.9267 151.335 63.3867 152.055 63C152.788 62.6 153.622 62.4 154.555 62.4Z" fill="white"/>
</svg>
