<svg width="329" height="66" viewBox="0 0 329 66" fill="none" xmlns="http://www.w3.org/2000/svg">
<circle cx="81" cy="33" r="9" fill="white"/>
<circle cx="291" cy="33" r="9" fill="white"/>
<path d="M80 31.8119L104.154 41.0449C127.661 50.0305 154.026 47.4334 175.327 34.0338V34.0338C194.76 21.8099 218.508 18.522 240.531 25.0064L263.645 31.8119C284.834 38.8134 299.792 77.6229 311.426 60.8188C325.968 39.8137 338.432 2.80484 314.749 6.80582C291.067 10.8068 262.814 29.3114 279.849 41.8145C296.884 54.3175 300.207 61.3192 308.933 48.3161C317.658 35.3129 324.306 13.8076 308.933 15.308C293.56 16.8084 305.609 -3.1964 292.729 1.80471C279.849 6.80582 260.321 44.3148 279.849 52.3167C295.471 58.7183 303.808 51.3167 305.609 41.8145C308.517 33.479 310.013 17.7083 292.729 21.3092C271.123 25.8103 281.095 60.8188 303.116 58.3182C325.137 55.8176 328.876 35.3126 321.813 28.3109C314.749 21.3092 302.7 21.8094 296.468 31.8119" stroke="white" stroke-width="2"/>
<path d="M38.722 49.6509L38.7217 49.6509C37.5675 49.6489 36.4618 49.1792 35.6467 48.3459C34.8317 47.5127 34.3735 46.3839 34.3715 45.2069V45.2067C34.3715 44.3284 34.6262 43.4696 35.1038 42.7389C35.5815 42.0081 36.2607 41.438 37.056 41.1012C37.8514 40.7644 38.7268 40.6762 39.5714 40.848C40.4159 41.0197 41.1912 41.4435 41.7994 42.0653C42.4076 42.687 42.8214 43.4788 42.989 44.3403C43.1567 45.2017 43.0707 46.0947 42.7418 46.9063C42.4129 47.718 41.8558 48.4123 41.1403 48.9011C40.4248 49.3898 39.5832 49.6509 38.722 49.6509ZM41.7856 40.5137C40.8785 39.8941 39.8124 39.5636 38.7221 39.5636C37.2606 39.5655 35.8589 40.1599 34.8244 41.2174C33.7899 42.2751 33.2072 43.7097 33.2053 45.2069C33.2054 46.3236 33.5293 47.415 34.1359 48.3431C34.7425 49.2711 35.6043 49.994 36.612 50.4207C37.6196 50.8474 38.7282 50.959 39.7976 50.7415C40.8671 50.524 41.85 49.9871 42.6217 49.1981C43.3935 48.4091 43.9194 47.4035 44.1325 46.3082C44.3457 45.2129 44.2363 44.0776 43.8183 43.0461C43.4004 42.0146 42.6928 41.1334 41.7856 40.5137Z" fill="white" stroke="#153A7E" stroke-width="0.3"/>
<path d="M12.717 49.651L12.7168 49.651C11.4792 49.6408 10.2943 49.1703 9.41977 48.3393C8.54495 47.5079 8.05134 46.3825 8.04922 45.207V45.2067C8.04924 44.3244 8.32698 43.4628 8.84605 42.7311C9.36504 41.9996 10.1016 41.4312 10.9614 41.0968C11.8211 40.7624 12.7663 40.6766 13.6773 40.85C14.5884 41.0234 15.4255 41.4483 16.0821 42.0723C16.7388 42.6963 17.1853 43.4914 17.3637 44.3573C17.542 45.2232 17.4437 46.1194 17.0818 46.932C16.7199 47.7444 16.1111 48.4357 15.334 48.9193C14.557 49.4027 13.6462 49.6571 12.717 49.651ZM16.0578 40.5026C15.0686 39.885 13.9065 39.5579 12.7188 39.5636C11.1338 39.5733 9.61865 40.1739 8.50322 41.232C7.38806 42.2898 6.7629 43.7188 6.76089 45.207C6.76095 46.3222 7.11178 47.4132 7.77009 48.3416C8.42853 49.2701 9.3652 49.9946 10.4624 50.4219C11.5596 50.8492 12.767 50.9596 13.9312 50.7389C15.0954 50.5181 16.1628 49.9764 16.9986 49.1836C17.8344 48.3908 18.4008 47.3829 18.6277 46.288C18.8545 45.1932 18.732 44.0594 18.2751 43.0298C17.8182 42.0001 17.0469 41.1202 16.0578 40.5026Z" fill="white" stroke="#153A7E" stroke-width="0.3"/>
<path d="M31.3511 44.3912H20.5938C20.4451 44.3912 20.2928 44.466 20.1741 44.6168C20.0546 44.7685 19.9836 44.9804 19.9836 45.2067C19.9836 45.4331 20.0546 45.645 20.1741 45.7967C20.2928 45.9474 20.4451 46.0222 20.5938 46.0222H31.3511C31.4998 46.0222 31.6521 45.9474 31.7708 45.7967C31.8902 45.645 31.9613 45.4331 31.9613 45.2067C31.9613 44.9804 31.8902 44.7685 31.7708 44.6168C31.6521 44.466 31.4998 44.3912 31.3511 44.3912Z" fill="white" stroke="#153A7E" stroke-width="0.3"/>
<path d="M4.88084 26.6291L4.88176 26.6274C5.42878 25.5979 6.2224 24.7361 7.18366 24.1266C8.14428 23.5175 9.23941 23.1811 10.3612 23.15H33.6992H33.7C34.117 23.1478 34.5298 23.2407 34.9096 23.4226C35.2894 23.6044 35.6273 23.8709 35.8996 24.2041L35.9068 24.2129L35.9071 24.2126L42.1226 30.7403L42.1283 30.7464L42.1347 30.7518C43.0226 31.4973 44.1123 31.9338 45.2509 31.9987L45.2594 31.9992V31.999H46.5464H46.5475C47.3465 31.9932 48.1278 32.25 48.7812 32.7341C49.4343 33.2179 49.927 33.9048 50.1887 34.6987C50.6514 36.2192 50.8741 37.8085 50.8479 39.4042L50.8479 39.4066C50.8479 40.5412 50.7726 41.5899 50.7045 42.4528L50.7045 42.4529C50.6017 43.7713 50.0707 44.5825 49.3992 45.0888C48.7216 45.5997 47.8868 45.8107 47.1647 45.8964L47.1458 45.8986L47.128 45.9055C47.0529 45.9347 46.9737 45.95 46.8939 45.9508H45.9408C45.782 45.9508 45.6283 45.8849 45.5139 45.7651C45.3993 45.6452 45.3337 45.4811 45.3337 45.3086C45.3337 45.1361 45.3993 44.972 45.5139 44.852C45.6283 44.7323 45.782 44.6664 45.9408 44.6664C47.0844 44.6664 47.9344 44.508 48.5167 44.1314C49.111 43.747 49.4036 43.1513 49.4668 42.3418C49.5198 41.6913 49.5731 40.9516 49.5959 40.1636L49.6004 40.0092H49.4459H48.436C47.8598 39.9744 47.3166 39.7105 46.9179 39.2693C46.5181 38.8268 46.2943 38.2397 46.2943 37.6281C46.2943 37.0166 46.5181 36.4294 46.9179 35.987C47.3166 35.5458 47.8598 35.2819 48.436 35.247H48.8933H49.1023L49.0354 35.049C48.8545 34.5134 48.5182 34.0489 48.0722 33.7207C47.6262 33.3925 47.0928 33.2171 46.546 33.22M4.88084 26.6291L46.5464 33.37M4.88084 26.6291L1.71802 32.4013L4.88084 26.6291ZM46.546 33.22C46.5458 33.22 46.5457 33.22 46.5456 33.22L46.5464 33.37M46.546 33.22H46.5464V33.37M46.546 33.22H45.2755M46.5464 33.37H45.2746M45.2755 33.22C45.2758 33.22 45.2761 33.22 45.2764 33.22L45.2746 33.37M45.2755 33.22H45.2746V33.37M45.2755 33.22L45.2746 33.37M48.8933 35.097V34.947H48.8376C48.8576 34.9963 48.8762 35.0463 48.8933 35.097ZM48.8933 35.097L48.7512 35.1451C48.7458 35.129 48.7402 35.113 48.7344 35.097H48.8933ZM49.4459 40.1592H49.2959C49.2959 40.1578 49.296 40.1563 49.296 40.1549L49.4459 40.1592ZM49.4459 40.1592V40.3092H49.4412C49.4429 40.2594 49.4445 40.2094 49.4459 40.1592ZM1.63779 40.1355V40.2855H1.65984C1.65207 40.2356 1.64472 40.1856 1.63779 40.1355ZM1.63779 40.1355L1.78637 40.1149C1.78732 40.1218 1.78827 40.1286 1.78924 40.1355H1.63779ZM2.09202 35.1208C2.10763 35.0707 2.12351 35.0207 2.13967 34.9708H2.09202V35.1208ZM2.09202 35.1208H2.24921C2.24453 35.1357 2.23987 35.1505 2.23524 35.1654L2.09202 35.1208ZM26.333 24.5448V24.6948H26.347L26.333 24.5448ZM26.333 24.5448L26.4823 24.5309L26.4836 24.5448H26.333ZM1.5549 38.7327L1.53226 38.7375L1.35075 38.7755L1.35152 38.5901C1.35413 37.9596 1.41063 37.3307 1.52036 36.7108L1.54229 36.5869H1.66806H2.42484H2.42512L1.5549 38.7327ZM1.5549 38.7327H2.42484H2.42512H1.5549ZM4.56144 37.4512V37.4499H4.71144L4.56147 37.4528C4.56146 37.4522 4.56145 37.4517 4.56144 37.4512ZM4.56144 37.8051C4.56145 37.8046 4.56146 37.804 4.56147 37.8035L4.71144 37.8064H4.56144V37.8051ZM48.4399 36.6034L48.447 36.6028H48.4542H49.2718H49.3994L49.4199 36.7287C49.5226 37.3608 49.589 37.9988 49.6185 38.6392L49.6257 38.7961H49.4687H48.4542H48.447L48.4399 38.7954C48.175 38.7701 47.9302 38.6421 47.753 38.4389C47.5759 38.2358 47.4786 37.972 47.4786 37.6994C47.4786 37.4269 47.5759 37.1631 47.753 36.96C47.9302 36.7568 48.175 36.6288 48.4399 36.6034ZM10.3539 24.4345L10.3539 24.4345H10.3591H11.6309H11.8308L11.775 24.6264L9.67035 31.8592L9.6389 31.9673H9.52633H3.62128H3.36781L3.48979 31.7451L5.9411 27.28C5.94136 27.2795 5.94161 27.279 5.94186 27.2785C6.37609 26.4454 7.01094 25.7444 7.78439 25.2453C8.55834 24.7459 9.44403 24.4663 10.3539 24.4345ZM13.0767 24.5425L13.1082 24.4345H13.2208H24.8113H24.9477L24.9606 24.5702L25.6496 31.8031L25.6652 31.9673H25.5002H11.1161H10.9163L10.9721 31.7754L13.0767 24.5425ZM41.2799 31.6109L41.2919 31.6234L33.7065 24.3948L33.7067 24.5448V24.3948H33.7066C33.958 24.3944 34.2062 24.4521 34.4334 24.5635C34.6585 24.6738 34.8573 24.834 35.0161 25.0324L41.2799 31.6109ZM1.60648 44.2475L1.4788 44.3262L1.60591 44.2466C1.60595 44.2467 1.606 44.2467 1.60604 44.2468C1.60619 44.247 1.60634 44.2473 1.60648 44.2475Z" fill="white" stroke="#153A7E" stroke-width="0.3"/>
<path d="M31.0252 36.3675H34.1412C34.3046 36.3675 34.4683 36.2896 34.5938 36.1387C34.72 35.987 34.7943 35.7763 34.7943 35.5519C34.7943 35.3276 34.72 35.1168 34.5938 34.9651C34.4683 34.8142 34.3046 34.7364 34.1412 34.7364H31.0252C30.8619 34.7364 30.6982 34.8142 30.5727 34.9651C30.4465 35.1168 30.3721 35.3276 30.3721 35.5519C30.3721 35.7763 30.4465 35.987 30.5727 36.1387C30.6982 36.2896 30.8619 36.3675 31.0252 36.3675Z" fill="white" stroke="#153A7E" stroke-width="0.3"/>
<path d="M13.5717 36.139C13.6966 36.2899 13.8592 36.3675 14.0211 36.3675H17.1453C17.3073 36.3675 17.4699 36.2899 17.5947 36.139C17.7203 35.9873 17.7943 35.7764 17.7943 35.5519C17.7943 35.3274 17.7203 35.1166 17.5947 34.9649C17.4699 34.814 17.3073 34.7364 17.1453 34.7364H14.0211C13.8592 34.7364 13.6966 34.814 13.5717 34.9649C13.4462 35.1166 13.3721 35.3274 13.3721 35.5519C13.3721 35.7764 13.4462 35.9873 13.5717 36.139Z" fill="white" stroke="#153A7E" stroke-width="0.3"/>
</svg>
