<svg width="127" height="72" viewBox="0 0 127 72" fill="none" xmlns="http://www.w3.org/2000/svg">
<path d="M16.0711 0.999998V36H7.97109V7.5H0.971094V0.999998H16.0711ZM48.3012 29.4V36H21.8512V30.75L35.3512 18C36.7845 16.6333 37.7512 15.4667 38.2512 14.5C38.7512 13.5 39.0012 12.5167 39.0012 11.55C39.0012 10.15 38.5178 9.08333 37.5512 8.35C36.6178 7.58333 35.2345 7.2 33.4012 7.2C31.8678 7.2 30.4845 7.5 29.2512 8.1C28.0178 8.66667 26.9845 9.53333 26.1512 10.7L20.2512 6.9C21.6178 4.86667 23.5012 3.28333 25.9012 2.15C28.3012 0.983332 31.0512 0.399999 34.1512 0.399999C36.7512 0.399999 39.0178 0.833332 40.9512 1.7C42.9178 2.53333 44.4345 3.73333 45.5012 5.3C46.6012 6.83333 47.1512 8.65 47.1512 10.75C47.1512 12.65 46.7512 14.4333 45.9512 16.1C45.1512 17.7667 43.6012 19.6667 41.3012 21.8L33.2512 29.4H48.3012ZM66.5457 36.6C63.6457 36.6 61.0624 35.8833 58.7957 34.45C56.529 33.0167 54.7457 30.95 53.4457 28.25C52.179 25.5167 51.5457 22.2667 51.5457 18.5C51.5457 14.7333 52.179 11.5 53.4457 8.8C54.7457 6.06666 56.529 3.98333 58.7957 2.55C61.0624 1.11667 63.6457 0.399999 66.5457 0.399999C69.4457 0.399999 72.029 1.11667 74.2957 2.55C76.5624 3.98333 78.329 6.06666 79.5957 8.8C80.8957 11.5 81.5457 14.7333 81.5457 18.5C81.5457 22.2667 80.8957 25.5167 79.5957 28.25C78.329 30.95 76.5624 33.0167 74.2957 34.45C72.029 35.8833 69.4457 36.6 66.5457 36.6ZM66.5457 29.75C68.679 29.75 70.3457 28.8333 71.5457 27C72.779 25.1667 73.3957 22.3333 73.3957 18.5C73.3957 14.6667 72.779 11.8333 71.5457 10C70.3457 8.16666 68.679 7.25 66.5457 7.25C64.4457 7.25 62.779 8.16666 61.5457 10C60.3457 11.8333 59.7457 14.6667 59.7457 18.5C59.7457 22.3333 60.3457 25.1667 61.5457 27C62.779 28.8333 64.4457 29.75 66.5457 29.75ZM93.5813 19.9C91.0146 19.9 88.9146 19.0333 87.2813 17.3C85.6813 15.5333 84.8813 13.1833 84.8813 10.25C84.8813 7.31666 85.6813 4.98333 87.2813 3.25C88.9146 1.48333 91.0146 0.6 93.5813 0.6C96.1479 0.6 98.2313 1.48333 99.8313 3.25C101.431 4.98333 102.231 7.31666 102.231 10.25C102.231 13.1833 101.431 15.5333 99.8313 17.3C98.2313 19.0333 96.1479 19.9 93.5813 19.9ZM114.431 0.999998H120.381L96.4813 36H90.5313L114.431 0.999998ZM93.5813 15.8C94.7146 15.8 95.5979 15.3333 96.2313 14.4C96.8979 13.4667 97.2313 12.0833 97.2313 10.25C97.2313 8.41666 96.8979 7.03333 96.2313 6.1C95.5979 5.16666 94.7146 4.7 93.5813 4.7C92.4813 4.7 91.5979 5.18333 90.9313 6.15C90.2646 7.08333 89.9313 8.45 89.9313 10.25C89.9313 12.05 90.2646 13.4333 90.9313 14.4C91.5979 15.3333 92.4813 15.8 93.5813 15.8ZM117.331 36.4C115.665 36.4 114.165 36.0167 112.831 35.25C111.531 34.45 110.515 33.3167 109.781 31.85C109.048 30.3833 108.681 28.6833 108.681 26.75C108.681 24.8167 109.048 23.1167 109.781 21.65C110.515 20.1833 111.531 19.0667 112.831 18.3C114.165 17.5 115.665 17.1 117.331 17.1C119.898 17.1 121.981 17.9833 123.581 19.75C125.215 21.4833 126.031 23.8167 126.031 26.75C126.031 29.6833 125.215 32.0333 123.581 33.8C121.981 35.5333 119.898 36.4 117.331 36.4ZM117.331 32.3C118.465 32.3 119.348 31.8333 119.981 30.9C120.648 29.9333 120.981 28.55 120.981 26.75C120.981 24.95 120.648 23.5833 119.981 22.65C119.348 21.6833 118.465 21.2 117.331 21.2C116.231 21.2 115.348 21.6667 114.681 22.6C114.015 23.5333 113.681 24.9167 113.681 26.75C113.681 28.5833 114.015 29.9667 114.681 30.9C115.348 31.8333 116.231 32.3 117.331 32.3ZM22.63 53.192V71H19.054V69.512C18.126 70.632 16.782 71.192 15.022 71.192C13.806 71.192 12.702 70.92 11.71 70.376C10.734 69.832 9.966 69.056 9.406 68.048C8.846 67.04 8.566 65.872 8.566 64.544C8.566 63.216 8.846 62.048 9.406 61.04C9.966 60.032 10.734 59.256 11.71 58.712C12.702 58.168 13.806 57.896 15.022 57.896C16.67 57.896 17.958 58.416 18.886 59.456V53.192H22.63ZM15.67 68.12C16.614 68.12 17.398 67.8 18.022 67.16C18.646 66.504 18.958 65.632 18.958 64.544C18.958 63.456 18.646 62.592 18.022 61.952C17.398 61.296 16.614 60.968 15.67 60.968C14.71 60.968 13.918 61.296 13.294 61.952C12.67 62.592 12.358 63.456 12.358 64.544C12.358 65.632 12.67 66.504 13.294 67.16C13.918 67.8 14.71 68.12 15.67 68.12ZM38.7432 64.592C38.7432 64.64 38.7192 64.976 38.6712 65.6H28.9032C29.0792 66.4 29.4952 67.032 30.1512 67.496C30.8072 67.96 31.6232 68.192 32.5992 68.192C33.2712 68.192 33.8632 68.096 34.3752 67.904C34.9032 67.696 35.3912 67.376 35.8392 66.944L37.8312 69.104C36.6152 70.496 34.8392 71.192 32.5032 71.192C31.0472 71.192 29.7592 70.912 28.6392 70.352C27.5192 69.776 26.6552 68.984 26.0472 67.976C25.4392 66.968 25.1352 65.824 25.1352 64.544C25.1352 63.28 25.4312 62.144 26.0232 61.136C26.6312 60.112 27.4552 59.32 28.4952 58.76C29.5512 58.184 30.7272 57.896 32.0232 57.896C33.2872 57.896 34.4312 58.168 35.4552 58.712C36.4792 59.256 37.2792 60.04 37.8552 61.064C38.4472 62.072 38.7432 63.248 38.7432 64.592ZM32.0472 60.728C31.1992 60.728 30.4872 60.968 29.9112 61.448C29.3352 61.928 28.9832 62.584 28.8552 63.416H35.2152C35.0872 62.6 34.7352 61.952 34.1592 61.472C33.5832 60.976 32.8792 60.728 32.0472 60.728ZM52.3767 71.192C51.3047 71.192 50.2567 71.064 49.2327 70.808C48.2087 70.536 47.3927 70.2 46.7847 69.8L48.0327 67.112C48.6087 67.48 49.3047 67.784 50.1207 68.024C50.9367 68.248 51.7367 68.36 52.5207 68.36C54.1047 68.36 54.8967 67.968 54.8967 67.184C54.8967 66.816 54.6807 66.552 54.2487 66.392C53.8167 66.232 53.1527 66.096 52.2567 65.984C51.2007 65.824 50.3287 65.64 49.6407 65.432C48.9527 65.224 48.3527 64.856 47.8407 64.328C47.3447 63.8 47.0967 63.048 47.0967 62.072C47.0967 61.256 47.3287 60.536 47.7927 59.912C48.2727 59.272 48.9607 58.776 49.8567 58.424C50.7687 58.072 51.8407 57.896 53.0727 57.896C53.9847 57.896 54.8887 58 55.7847 58.208C56.6967 58.4 57.4487 58.672 58.0407 59.024L56.7927 61.688C55.6567 61.048 54.4167 60.728 53.0727 60.728C52.2727 60.728 51.6727 60.84 51.2727 61.064C50.8727 61.288 50.6727 61.576 50.6727 61.928C50.6727 62.328 50.8887 62.608 51.3207 62.768C51.7527 62.928 52.4407 63.08 53.3847 63.224C54.4407 63.4 55.3047 63.592 55.9767 63.8C56.6487 63.992 57.2327 64.352 57.7287 64.88C58.2247 65.408 58.4727 66.144 58.4727 67.088C58.4727 67.888 58.2327 68.6 57.7527 69.224C57.2727 69.848 56.5687 70.336 55.6407 70.688C54.7287 71.024 53.6407 71.192 52.3767 71.192ZM69.1107 70.376C68.7427 70.648 68.2867 70.856 67.7427 71C67.2147 71.128 66.6547 71.192 66.0627 71.192C64.5267 71.192 63.3347 70.8 62.4867 70.016C61.6547 69.232 61.2387 68.08 61.2387 66.56V61.256H59.2467V58.376H61.2387V55.232H64.9827V58.376H68.1987V61.256H64.9827V66.512C64.9827 67.056 65.1187 67.48 65.3907 67.784C65.6787 68.072 66.0787 68.216 66.5907 68.216C67.1827 68.216 67.6867 68.056 68.1027 67.736L69.1107 70.376ZM74.7884 59.792C75.2364 59.168 75.8364 58.696 76.5884 58.376C77.3564 58.056 78.2364 57.896 79.2284 57.896V61.352C78.8124 61.32 78.5324 61.304 78.3884 61.304C77.3164 61.304 76.4764 61.608 75.8684 62.216C75.2604 62.808 74.9564 63.704 74.9564 64.904V71H71.2124V58.088H74.7884V59.792ZM93.9854 64.592C93.9854 64.64 93.9614 64.976 93.9134 65.6H84.1454C84.3214 66.4 84.7374 67.032 85.3934 67.496C86.0494 67.96 86.8654 68.192 87.8414 68.192C88.5134 68.192 89.1054 68.096 89.6174 67.904C90.1454 67.696 90.6334 67.376 91.0814 66.944L93.0734 69.104C91.8574 70.496 90.0814 71.192 87.7454 71.192C86.2894 71.192 85.0014 70.912 83.8814 70.352C82.7614 69.776 81.8974 68.984 81.2894 67.976C80.6814 66.968 80.3774 65.824 80.3774 64.544C80.3774 63.28 80.6734 62.144 81.2654 61.136C81.8734 60.112 82.6974 59.32 83.7374 58.76C84.7934 58.184 85.9694 57.896 87.2654 57.896C88.5294 57.896 89.6734 58.168 90.6974 58.712C91.7214 59.256 92.5214 60.04 93.0974 61.064C93.6894 62.072 93.9854 63.248 93.9854 64.592ZM87.2894 60.728C86.4414 60.728 85.7294 60.968 85.1534 61.448C84.5774 61.928 84.2254 62.584 84.0974 63.416H90.4574C90.3294 62.6 89.9774 61.952 89.4014 61.472C88.8254 60.976 88.1214 60.728 87.2894 60.728ZM100.822 71.192C99.75 71.192 98.702 71.064 97.678 70.808C96.654 70.536 95.838 70.2 95.23 69.8L96.478 67.112C97.054 67.48 97.75 67.784 98.566 68.024C99.382 68.248 100.182 68.36 100.966 68.36C102.55 68.36 103.342 67.968 103.342 67.184C103.342 66.816 103.126 66.552 102.694 66.392C102.262 66.232 101.598 66.096 100.702 65.984C99.646 65.824 98.774 65.64 98.086 65.432C97.398 65.224 96.798 64.856 96.286 64.328C95.79 63.8 95.542 63.048 95.542 62.072C95.542 61.256 95.774 60.536 96.238 59.912C96.718 59.272 97.406 58.776 98.302 58.424C99.214 58.072 100.286 57.896 101.518 57.896C102.43 57.896 103.334 58 104.23 58.208C105.142 58.4 105.894 58.672 106.486 59.024L105.238 61.688C104.102 61.048 102.862 60.728 101.518 60.728C100.718 60.728 100.118 60.84 99.718 61.064C99.318 61.288 99.118 61.576 99.118 61.928C99.118 62.328 99.334 62.608 99.766 62.768C100.198 62.928 100.886 63.08 101.83 63.224C102.886 63.4 103.75 63.592 104.422 63.8C105.094 63.992 105.678 64.352 106.174 64.88C106.67 65.408 106.918 66.144 106.918 67.088C106.918 67.888 106.678 68.6 106.198 69.224C105.718 69.848 105.014 70.336 104.086 70.688C103.174 71.024 102.086 71.192 100.822 71.192ZM113.572 71.192C112.5 71.192 111.452 71.064 110.428 70.808C109.404 70.536 108.588 70.2 107.98 69.8L109.228 67.112C109.804 67.48 110.5 67.784 111.316 68.024C112.132 68.248 112.932 68.36 113.716 68.36C115.3 68.36 116.092 67.968 116.092 67.184C116.092 66.816 115.876 66.552 115.444 66.392C115.012 66.232 114.348 66.096 113.452 65.984C112.396 65.824 111.524 65.64 110.836 65.432C110.148 65.224 109.548 64.856 109.036 64.328C108.54 63.8 108.292 63.048 108.292 62.072C108.292 61.256 108.524 60.536 108.988 59.912C109.468 59.272 110.156 58.776 111.052 58.424C111.964 58.072 113.036 57.896 114.268 57.896C115.18 57.896 116.084 58 116.98 58.208C117.892 58.4 118.644 58.672 119.236 59.024L117.988 61.688C116.852 61.048 115.612 60.728 114.268 60.728C113.468 60.728 112.868 60.84 112.468 61.064C112.068 61.288 111.868 61.576 111.868 61.928C111.868 62.328 112.084 62.608 112.516 62.768C112.948 62.928 113.636 63.08 114.58 63.224C115.636 63.4 116.5 63.592 117.172 63.8C117.844 63.992 118.428 64.352 118.924 64.88C119.42 65.408 119.668 66.144 119.668 67.088C119.668 67.888 119.428 68.6 118.948 69.224C118.468 69.848 117.764 70.336 116.836 70.688C115.924 71.024 114.836 71.192 113.572 71.192Z" fill="white"/>
</svg>
