<svg width="256" height="76" viewBox="0 0 256 76" fill="none" xmlns="http://www.w3.org/2000/svg">
<path d="M77.8006 0.999998V36H69.7006V7.5H62.7006V0.999998H77.8006ZM98.8807 36.6C95.9807 36.6 93.3973 35.8833 91.1307 34.45C88.864 33.0167 87.0807 30.95 85.7807 28.25C84.514 25.5167 83.8807 22.2667 83.8807 18.5C83.8807 14.7333 84.514 11.5 85.7807 8.8C87.0807 6.06666 88.864 3.98333 91.1307 2.55C93.3973 1.11667 95.9807 0.399999 98.8807 0.399999C101.781 0.399999 104.364 1.11667 106.631 2.55C108.897 3.98333 110.664 6.06666 111.931 8.8C113.231 11.5 113.881 14.7333 113.881 18.5C113.881 22.2667 113.231 25.5167 111.931 28.25C110.664 30.95 108.897 33.0167 106.631 34.45C104.364 35.8833 101.781 36.6 98.8807 36.6ZM98.8807 29.75C101.014 29.75 102.681 28.8333 103.881 27C105.114 25.1667 105.731 22.3333 105.731 18.5C105.731 14.6667 105.114 11.8333 103.881 10C102.681 8.16666 101.014 7.25 98.8807 7.25C96.7807 7.25 95.114 8.16666 93.8807 10C92.6807 11.8333 92.0807 14.6667 92.0807 18.5C92.0807 22.3333 92.6807 25.1667 93.8807 27C95.114 28.8333 96.7807 29.75 98.8807 29.75ZM132.816 36.6C129.916 36.6 127.333 35.8833 125.066 34.45C122.8 33.0167 121.016 30.95 119.716 28.25C118.45 25.5167 117.816 22.2667 117.816 18.5C117.816 14.7333 118.45 11.5 119.716 8.8C121.016 6.06666 122.8 3.98333 125.066 2.55C127.333 1.11667 129.916 0.399999 132.816 0.399999C135.716 0.399999 138.3 1.11667 140.566 2.55C142.833 3.98333 144.6 6.06666 145.866 8.8C147.166 11.5 147.816 14.7333 147.816 18.5C147.816 22.2667 147.166 25.5167 145.866 28.25C144.6 30.95 142.833 33.0167 140.566 34.45C138.3 35.8833 135.716 36.6 132.816 36.6ZM132.816 29.75C134.95 29.75 136.616 28.8333 137.816 27C139.05 25.1667 139.666 22.3333 139.666 18.5C139.666 14.6667 139.05 11.8333 137.816 10C136.616 8.16666 134.95 7.25 132.816 7.25C130.716 7.25 129.05 8.16666 127.816 10C126.616 11.8333 126.016 14.6667 126.016 18.5C126.016 22.3333 126.616 25.1667 127.816 27C129.05 28.8333 130.716 29.75 132.816 29.75ZM159.852 19.9C157.285 19.9 155.185 19.0333 153.552 17.3C151.952 15.5333 151.152 13.1833 151.152 10.25C151.152 7.31666 151.952 4.98333 153.552 3.25C155.185 1.48333 157.285 0.6 159.852 0.6C162.418 0.6 164.502 1.48333 166.102 3.25C167.702 4.98333 168.502 7.31666 168.502 10.25C168.502 13.1833 167.702 15.5333 166.102 17.3C164.502 19.0333 162.418 19.9 159.852 19.9ZM180.702 0.999998H186.652L162.752 36H156.802L180.702 0.999998ZM159.852 15.8C160.985 15.8 161.868 15.3333 162.502 14.4C163.168 13.4667 163.502 12.0833 163.502 10.25C163.502 8.41666 163.168 7.03333 162.502 6.1C161.868 5.16666 160.985 4.7 159.852 4.7C158.752 4.7 157.868 5.18333 157.202 6.15C156.535 7.08333 156.202 8.45 156.202 10.25C156.202 12.05 156.535 13.4333 157.202 14.4C157.868 15.3333 158.752 15.8 159.852 15.8ZM183.602 36.4C181.935 36.4 180.435 36.0167 179.102 35.25C177.802 34.45 176.785 33.3167 176.052 31.85C175.318 30.3833 174.952 28.6833 174.952 26.75C174.952 24.8167 175.318 23.1167 176.052 21.65C176.785 20.1833 177.802 19.0667 179.102 18.3C180.435 17.5 181.935 17.1 183.602 17.1C186.168 17.1 188.252 17.9833 189.852 19.75C191.485 21.4833 192.302 23.8167 192.302 26.75C192.302 29.6833 191.485 32.0333 189.852 33.8C188.252 35.5333 186.168 36.4 183.602 36.4ZM183.602 32.3C184.735 32.3 185.618 31.8333 186.252 30.9C186.918 29.9333 187.252 28.55 187.252 26.75C187.252 24.95 186.918 23.5833 186.252 22.65C185.618 21.6833 184.735 21.2 183.602 21.2C182.502 21.2 181.618 21.6667 180.952 22.6C180.285 23.5333 179.952 24.9167 179.952 26.75C179.952 28.5833 180.285 29.9667 180.952 30.9C181.618 31.8333 182.502 32.3 183.602 32.3ZM14.8995 53.192V71H11.3235V69.512C10.3955 70.632 9.05153 71.192 7.29153 71.192C6.07553 71.192 4.97153 70.92 3.97953 70.376C3.00353 69.832 2.23553 69.056 1.67553 68.048C1.11553 67.04 0.835531 65.872 0.835531 64.544C0.835531 63.216 1.11553 62.048 1.67553 61.04C2.23553 60.032 3.00353 59.256 3.97953 58.712C4.97153 58.168 6.07553 57.896 7.29153 57.896C8.93953 57.896 10.2275 58.416 11.1555 59.456V53.192H14.8995ZM7.93953 68.12C8.88353 68.12 9.66753 67.8 10.2915 67.16C10.9155 66.504 11.2275 65.632 11.2275 64.544C11.2275 63.456 10.9155 62.592 10.2915 61.952C9.66753 61.296 8.88353 60.968 7.93953 60.968C6.97953 60.968 6.18753 61.296 5.56353 61.952C4.93953 62.592 4.62753 63.456 4.62753 64.544C4.62753 65.632 4.93953 66.504 5.56353 67.16C6.18753 67.8 6.97953 68.12 7.93953 68.12ZM31.0127 64.592C31.0127 64.64 30.9887 64.976 30.9407 65.6H21.1727C21.3487 66.4 21.7647 67.032 22.4207 67.496C23.0767 67.96 23.8927 68.192 24.8687 68.192C25.5407 68.192 26.1327 68.096 26.6447 67.904C27.1727 67.696 27.6607 67.376 28.1087 66.944L30.1007 69.104C28.8847 70.496 27.1087 71.192 24.7727 71.192C23.3167 71.192 22.0287 70.912 20.9087 70.352C19.7887 69.776 18.9247 68.984 18.3167 67.976C17.7087 66.968 17.4047 65.824 17.4047 64.544C17.4047 63.28 17.7007 62.144 18.2927 61.136C18.9007 60.112 19.7247 59.32 20.7647 58.76C21.8207 58.184 22.9967 57.896 24.2927 57.896C25.5567 57.896 26.7007 58.168 27.7247 58.712C28.7487 59.256 29.5487 60.04 30.1247 61.064C30.7167 62.072 31.0127 63.248 31.0127 64.592ZM24.3167 60.728C23.4687 60.728 22.7567 60.968 22.1807 61.448C21.6047 61.928 21.2527 62.584 21.1247 63.416H27.4847C27.3567 62.6 27.0047 61.952 26.4287 61.472C25.8527 60.976 25.1487 60.728 24.3167 60.728ZM46.5422 71.192C45.1662 71.192 43.9262 70.912 42.8222 70.352C41.7342 69.776 40.8782 68.984 40.2542 67.976C39.6462 66.968 39.3422 65.824 39.3422 64.544C39.3422 63.264 39.6462 62.12 40.2542 61.112C40.8782 60.104 41.7342 59.32 42.8222 58.76C43.9262 58.184 45.1662 57.896 46.5422 57.896C47.9022 57.896 49.0862 58.184 50.0942 58.76C51.1182 59.32 51.8622 60.128 52.3262 61.184L49.4222 62.744C48.7502 61.56 47.7822 60.968 46.5182 60.968C45.5422 60.968 44.7342 61.288 44.0942 61.928C43.4542 62.568 43.1342 63.44 43.1342 64.544C43.1342 65.648 43.4542 66.52 44.0942 67.16C44.7342 67.8 45.5422 68.12 46.5182 68.12C47.7982 68.12 48.7662 67.528 49.4222 66.344L52.3262 67.928C51.8622 68.952 51.1182 69.752 50.0942 70.328C49.0862 70.904 47.9022 71.192 46.5422 71.192ZM60.4618 71.192C59.1018 71.192 57.8778 70.912 56.7898 70.352C55.7178 69.776 54.8778 68.984 54.2698 67.976C53.6618 66.968 53.3578 65.824 53.3578 64.544C53.3578 63.264 53.6618 62.12 54.2698 61.112C54.8778 60.104 55.7178 59.32 56.7898 58.76C57.8778 58.184 59.1018 57.896 60.4618 57.896C61.8218 57.896 63.0378 58.184 64.1098 58.76C65.1818 59.32 66.0218 60.104 66.6298 61.112C67.2378 62.12 67.5418 63.264 67.5418 64.544C67.5418 65.824 67.2378 66.968 66.6298 67.976C66.0218 68.984 65.1818 69.776 64.1098 70.352C63.0378 70.912 61.8218 71.192 60.4618 71.192ZM60.4618 68.12C61.4218 68.12 62.2058 67.8 62.8138 67.16C63.4378 66.504 63.7498 65.632 63.7498 64.544C63.7498 63.456 63.4378 62.592 62.8138 61.952C62.2058 61.296 61.4218 60.968 60.4618 60.968C59.5018 60.968 58.7098 61.296 58.0858 61.952C57.4618 62.592 57.1498 63.456 57.1498 64.544C57.1498 65.632 57.4618 66.504 58.0858 67.16C58.7098 67.8 59.5018 68.12 60.4618 68.12ZM83.0524 58.088V71H79.5004V69.464C79.0044 70.024 78.4124 70.456 77.7244 70.76C77.0364 71.048 76.2924 71.192 75.4924 71.192C73.7964 71.192 72.4524 70.704 71.4604 69.728C70.4684 68.752 69.9724 67.304 69.9724 65.384V58.088H73.7164V64.832C73.7164 66.912 74.5884 67.952 76.3324 67.952C77.2284 67.952 77.9484 67.664 78.4924 67.088C79.0364 66.496 79.3084 65.624 79.3084 64.472V58.088H83.0524ZM90.097 59.792C90.545 59.168 91.145 58.696 91.897 58.376C92.665 58.056 93.545 57.896 94.537 57.896V61.352C94.121 61.32 93.841 61.304 93.697 61.304C92.625 61.304 91.785 61.608 91.177 62.216C90.569 62.808 90.265 63.704 90.265 64.904V71H86.521V58.088H90.097V59.792ZM101.154 71.192C100.082 71.192 99.034 71.064 98.01 70.808C96.986 70.536 96.17 70.2 95.562 69.8L96.81 67.112C97.386 67.48 98.082 67.784 98.898 68.024C99.714 68.248 100.514 68.36 101.298 68.36C102.882 68.36 103.674 67.968 103.674 67.184C103.674 66.816 103.458 66.552 103.026 66.392C102.594 66.232 101.93 66.096 101.034 65.984C99.978 65.824 99.106 65.64 98.418 65.432C97.73 65.224 97.13 64.856 96.618 64.328C96.122 63.8 95.874 63.048 95.874 62.072C95.874 61.256 96.106 60.536 96.57 59.912C97.05 59.272 97.738 58.776 98.634 58.424C99.546 58.072 100.618 57.896 101.85 57.896C102.762 57.896 103.666 58 104.562 58.208C105.474 58.4 106.226 58.672 106.818 59.024L105.57 61.688C104.434 61.048 103.194 60.728 101.85 60.728C101.05 60.728 100.45 60.84 100.05 61.064C99.65 61.288 99.45 61.576 99.45 61.928C99.45 62.328 99.666 62.608 100.098 62.768C100.53 62.928 101.218 63.08 102.162 63.224C103.218 63.4 104.082 63.592 104.754 63.8C105.426 63.992 106.01 64.352 106.506 64.88C107.002 65.408 107.25 66.144 107.25 67.088C107.25 67.888 107.01 68.6 106.53 69.224C106.05 69.848 105.346 70.336 104.418 70.688C103.506 71.024 102.418 71.192 101.154 71.192ZM109.56 58.088H113.304V71H109.56V58.088ZM111.432 56.288C110.744 56.288 110.184 56.088 109.752 55.688C109.32 55.288 109.104 54.792 109.104 54.2C109.104 53.608 109.32 53.112 109.752 52.712C110.184 52.312 110.744 52.112 111.432 52.112C112.12 52.112 112.68 52.304 113.112 52.688C113.544 53.072 113.76 53.552 113.76 54.128C113.76 54.752 113.544 55.272 113.112 55.688C112.68 56.088 112.12 56.288 111.432 56.288ZM129.427 64.592C129.427 64.64 129.403 64.976 129.355 65.6H119.587C119.763 66.4 120.179 67.032 120.835 67.496C121.491 67.96 122.307 68.192 123.283 68.192C123.955 68.192 124.547 68.096 125.059 67.904C125.587 67.696 126.075 67.376 126.523 66.944L128.515 69.104C127.299 70.496 125.523 71.192 123.187 71.192C121.731 71.192 120.443 70.912 119.323 70.352C118.203 69.776 117.339 68.984 116.731 67.976C116.123 66.968 115.819 65.824 115.819 64.544C115.819 63.28 116.115 62.144 116.707 61.136C117.315 60.112 118.139 59.32 119.179 58.76C120.235 58.184 121.411 57.896 122.707 57.896C123.971 57.896 125.115 58.168 126.139 58.712C127.163 59.256 127.963 60.04 128.539 61.064C129.131 62.072 129.427 63.248 129.427 64.592ZM122.731 60.728C121.883 60.728 121.171 60.968 120.595 61.448C120.019 61.928 119.667 62.584 119.539 63.416H125.899C125.771 62.6 125.419 61.952 124.843 61.472C124.267 60.976 123.563 60.728 122.731 60.728ZM135.495 59.792C135.943 59.168 136.543 58.696 137.295 58.376C138.063 58.056 138.943 57.896 139.935 57.896V61.352C139.519 61.32 139.239 61.304 139.095 61.304C138.023 61.304 137.183 61.608 136.575 62.216C135.967 62.808 135.663 63.704 135.663 64.904V71H131.919V58.088H135.495V59.792ZM146.552 71.192C145.48 71.192 144.432 71.064 143.408 70.808C142.384 70.536 141.568 70.2 140.96 69.8L142.208 67.112C142.784 67.48 143.48 67.784 144.296 68.024C145.112 68.248 145.912 68.36 146.696 68.36C148.28 68.36 149.072 67.968 149.072 67.184C149.072 66.816 148.856 66.552 148.424 66.392C147.992 66.232 147.328 66.096 146.432 65.984C145.376 65.824 144.504 65.64 143.816 65.432C143.128 65.224 142.528 64.856 142.016 64.328C141.52 63.8 141.272 63.048 141.272 62.072C141.272 61.256 141.504 60.536 141.968 59.912C142.448 59.272 143.136 58.776 144.032 58.424C144.944 58.072 146.016 57.896 147.248 57.896C148.16 57.896 149.064 58 149.96 58.208C150.872 58.4 151.624 58.672 152.216 59.024L150.968 61.688C149.832 61.048 148.592 60.728 147.248 60.728C146.448 60.728 145.848 60.84 145.448 61.064C145.048 61.288 144.848 61.576 144.848 61.928C144.848 62.328 145.064 62.608 145.496 62.768C145.928 62.928 146.616 63.08 147.56 63.224C148.616 63.4 149.48 63.592 150.152 63.8C150.824 63.992 151.408 64.352 151.904 64.88C152.4 65.408 152.648 66.144 152.648 67.088C152.648 67.888 152.408 68.6 151.928 69.224C151.448 69.848 150.744 70.336 149.816 70.688C148.904 71.024 147.816 71.192 146.552 71.192ZM166.099 71.192C165.027 71.192 163.979 71.064 162.955 70.808C161.931 70.536 161.115 70.2 160.507 69.8L161.755 67.112C162.331 67.48 163.027 67.784 163.843 68.024C164.659 68.248 165.459 68.36 166.243 68.36C167.827 68.36 168.619 67.968 168.619 67.184C168.619 66.816 168.403 66.552 167.971 66.392C167.539 66.232 166.875 66.096 165.979 65.984C164.923 65.824 164.051 65.64 163.363 65.432C162.675 65.224 162.075 64.856 161.563 64.328C161.067 63.8 160.819 63.048 160.819 62.072C160.819 61.256 161.051 60.536 161.515 59.912C161.995 59.272 162.683 58.776 163.579 58.424C164.491 58.072 165.563 57.896 166.795 57.896C167.707 57.896 168.611 58 169.507 58.208C170.419 58.4 171.171 58.672 171.763 59.024L170.515 61.688C169.379 61.048 168.139 60.728 166.795 60.728C165.995 60.728 165.395 60.84 164.995 61.064C164.595 61.288 164.395 61.576 164.395 61.928C164.395 62.328 164.611 62.608 165.043 62.768C165.475 62.928 166.163 63.08 167.107 63.224C168.163 63.4 169.027 63.592 169.699 63.8C170.371 63.992 170.955 64.352 171.451 64.88C171.947 65.408 172.195 66.144 172.195 67.088C172.195 67.888 171.955 68.6 171.475 69.224C170.995 69.848 170.291 70.336 169.363 70.688C168.451 71.024 167.363 71.192 166.099 71.192ZM187.087 58.088L181.255 71.792C180.663 73.28 179.927 74.328 179.047 74.936C178.183 75.544 177.135 75.848 175.903 75.848C175.231 75.848 174.567 75.744 173.911 75.536C173.255 75.328 172.719 75.04 172.303 74.672L173.671 72.008C173.959 72.264 174.287 72.464 174.655 72.608C175.039 72.752 175.415 72.824 175.783 72.824C176.295 72.824 176.711 72.696 177.031 72.44C177.351 72.2 177.639 71.792 177.895 71.216L177.943 71.096L172.351 58.088H176.215L179.839 66.848L183.487 58.088H187.087ZM205.151 57.896C206.767 57.896 208.047 58.376 208.991 59.336C209.951 60.28 210.431 61.704 210.431 63.608V71H206.687V64.184C206.687 63.16 206.471 62.4 206.039 61.904C205.623 61.392 205.023 61.136 204.239 61.136C203.359 61.136 202.663 61.424 202.151 62C201.639 62.56 201.383 63.4 201.383 64.52V71H197.639V64.184C197.639 62.152 196.823 61.136 195.191 61.136C194.327 61.136 193.639 61.424 193.127 62C192.615 62.56 192.359 63.4 192.359 64.52V71H188.615V58.088H192.191V59.576C192.671 59.032 193.255 58.616 193.943 58.328C194.647 58.04 195.415 57.896 196.247 57.896C197.159 57.896 197.983 58.08 198.719 58.448C199.455 58.8 200.047 59.32 200.495 60.008C201.023 59.336 201.687 58.816 202.487 58.448C203.303 58.08 204.191 57.896 205.151 57.896ZM221.419 57.896C222.619 57.896 223.707 58.176 224.683 58.736C225.675 59.28 226.451 60.056 227.011 61.064C227.571 62.056 227.851 63.216 227.851 64.544C227.851 65.872 227.571 67.04 227.011 68.048C226.451 69.04 225.675 69.816 224.683 70.376C223.707 70.92 222.619 71.192 221.419 71.192C219.771 71.192 218.475 70.672 217.531 69.632V75.656H213.787V58.088H217.363V59.576C218.291 58.456 219.643 57.896 221.419 57.896ZM220.771 68.12C221.731 68.12 222.515 67.8 223.123 67.16C223.747 66.504 224.059 65.632 224.059 64.544C224.059 63.456 223.747 62.592 223.123 61.952C222.515 61.296 221.731 60.968 220.771 60.968C219.811 60.968 219.019 61.296 218.395 61.952C217.787 62.592 217.483 63.456 217.483 64.544C217.483 65.632 217.787 66.504 218.395 67.16C219.019 67.8 219.811 68.12 220.771 68.12ZM235.354 57.896C237.354 57.896 238.89 58.376 239.962 59.336C241.034 60.28 241.57 61.712 241.57 63.632V71H238.066V69.392C237.362 70.592 236.05 71.192 234.13 71.192C233.138 71.192 232.274 71.024 231.538 70.688C230.818 70.352 230.266 69.888 229.882 69.296C229.498 68.704 229.306 68.032 229.306 67.28C229.306 66.08 229.754 65.136 230.65 64.448C231.562 63.76 232.962 63.416 234.85 63.416H237.826C237.826 62.6 237.578 61.976 237.082 61.544C236.586 61.096 235.842 60.872 234.85 60.872C234.162 60.872 233.482 60.984 232.81 61.208C232.154 61.416 231.594 61.704 231.13 62.072L229.786 59.456C230.49 58.96 231.33 58.576 232.306 58.304C233.298 58.032 234.314 57.896 235.354 57.896ZM235.066 68.672C235.706 68.672 236.274 68.528 236.77 68.24C237.266 67.936 237.618 67.496 237.826 66.92V65.6H235.258C233.722 65.6 232.954 66.104 232.954 67.112C232.954 67.592 233.138 67.976 233.506 68.264C233.89 68.536 234.41 68.672 235.066 68.672ZM249.302 71.192C248.23 71.192 247.182 71.064 246.158 70.808C245.134 70.536 244.318 70.2 243.71 69.8L244.958 67.112C245.534 67.48 246.23 67.784 247.046 68.024C247.862 68.248 248.662 68.36 249.446 68.36C251.03 68.36 251.822 67.968 251.822 67.184C251.822 66.816 251.606 66.552 251.174 66.392C250.742 66.232 250.078 66.096 249.182 65.984C248.126 65.824 247.254 65.64 246.566 65.432C245.878 65.224 245.278 64.856 244.766 64.328C244.27 63.8 244.022 63.048 244.022 62.072C244.022 61.256 244.254 60.536 244.718 59.912C245.198 59.272 245.886 58.776 246.782 58.424C247.694 58.072 248.766 57.896 249.998 57.896C250.91 57.896 251.814 58 252.71 58.208C253.622 58.4 254.374 58.672 254.966 59.024L253.718 61.688C252.582 61.048 251.342 60.728 249.998 60.728C249.198 60.728 248.598 60.84 248.198 61.064C247.798 61.288 247.598 61.576 247.598 61.928C247.598 62.328 247.814 62.608 248.246 62.768C248.678 62.928 249.366 63.08 250.31 63.224C251.366 63.4 252.23 63.592 252.902 63.8C253.574 63.992 254.158 64.352 254.654 64.88C255.15 65.408 255.398 66.144 255.398 67.088C255.398 67.888 255.158 68.6 254.678 69.224C254.198 69.848 253.494 70.336 252.566 70.688C251.654 71.024 250.566 71.192 249.302 71.192Z" fill="white"/>
</svg>
