<svg width="408" height="540" viewBox="0 0 408 540" fill="none" xmlns="http://www.w3.org/2000/svg">
<rect y="0.854004" width="408" height="539" rx="5" fill="#153A7E"/>
<path d="M0 312.763C0 310.376 1.68718 308.322 4.02864 307.859L402.029 229.037C405.12 228.424 408 230.79 408 233.941V534.854C408 537.615 405.761 539.854 403 539.854H5C2.23857 539.854 0 537.615 0 534.854V312.763Z" fill="#0D2A61"/>
<path d="M115.015 358.104C118.082 358.604 120.432 359.754 122.065 361.554C123.698 363.321 124.515 365.521 124.515 368.154C124.515 370.187 123.982 372.071 122.915 373.804C121.848 375.504 120.215 376.871 118.015 377.904C115.848 378.937 113.182 379.454 110.015 379.454C107.548 379.454 105.115 379.137 102.715 378.504C100.348 377.837 98.3315 376.904 96.6648 375.704L99.8148 369.504C101.148 370.504 102.682 371.287 104.415 371.854C106.182 372.387 107.982 372.654 109.815 372.654C111.848 372.654 113.448 372.271 114.615 371.504C115.782 370.704 116.365 369.587 116.365 368.154C116.365 365.287 114.182 363.854 109.815 363.854H106.115V358.504L113.315 350.354H98.4148V343.854H122.915V349.104L115.015 358.104ZM141.455 368.304L137.705 372.004V378.854H129.905V341.754H137.705V362.754L149.105 351.954H158.405L147.205 363.354L159.405 378.854H149.955L141.455 368.304ZM189.491 351.954V374.354C189.491 379.287 188.207 382.954 185.641 385.354C183.074 387.754 179.324 388.954 174.391 388.954C171.791 388.954 169.324 388.637 166.991 388.004C164.657 387.371 162.724 386.454 161.191 385.254L164.291 379.654C165.424 380.587 166.857 381.321 168.591 381.854C170.324 382.421 172.057 382.704 173.791 382.704C176.491 382.704 178.474 382.087 179.741 380.854C181.041 379.654 181.691 377.821 181.691 375.354V374.204C179.657 376.437 176.824 377.554 173.191 377.554C170.724 377.554 168.457 377.021 166.391 375.954C164.357 374.854 162.741 373.321 161.541 371.354C160.341 369.387 159.741 367.121 159.741 364.554C159.741 361.987 160.341 359.721 161.541 357.754C162.741 355.787 164.357 354.271 166.391 353.204C168.457 352.104 170.724 351.554 173.191 351.554C177.091 351.554 180.057 352.837 182.091 355.404V351.954H189.491ZM174.741 371.154C176.807 371.154 178.491 370.554 179.791 369.354C181.124 368.121 181.791 366.521 181.791 364.554C181.791 362.587 181.124 361.004 179.791 359.804C178.491 358.571 176.807 357.954 174.741 357.954C172.674 357.954 170.974 358.571 169.641 359.804C168.307 361.004 167.641 362.587 167.641 364.554C167.641 366.521 168.307 368.121 169.641 369.354C170.974 370.554 172.674 371.154 174.741 371.154ZM217.414 356.594V378.854H212.944V376.994C211.784 378.394 210.104 379.094 207.904 379.094C206.384 379.094 205.004 378.754 203.764 378.074C202.544 377.394 201.584 376.424 200.884 375.164C200.184 373.904 199.834 372.444 199.834 370.784C199.834 369.124 200.184 367.664 200.884 366.404C201.584 365.144 202.544 364.174 203.764 363.494C205.004 362.814 206.384 362.474 207.904 362.474C209.964 362.474 211.574 363.124 212.734 364.424V356.594H217.414ZM208.714 375.254C209.894 375.254 210.874 374.854 211.654 374.054C212.434 373.234 212.824 372.144 212.824 370.784C212.824 369.424 212.434 368.344 211.654 367.544C210.874 366.724 209.894 366.314 208.714 366.314C207.514 366.314 206.524 366.724 205.744 367.544C204.964 368.344 204.574 369.424 204.574 370.784C204.574 372.144 204.964 373.234 205.744 374.054C206.524 374.854 207.514 375.254 208.714 375.254ZM237.556 370.844C237.556 370.904 237.526 371.324 237.466 372.104H225.256C225.476 373.104 225.996 373.894 226.816 374.474C227.636 375.054 228.656 375.344 229.876 375.344C230.716 375.344 231.456 375.224 232.096 374.984C232.756 374.724 233.366 374.324 233.926 373.784L236.416 376.484C234.896 378.224 232.676 379.094 229.756 379.094C227.936 379.094 226.326 378.744 224.926 378.044C223.526 377.324 222.446 376.334 221.686 375.074C220.926 373.814 220.546 372.384 220.546 370.784C220.546 369.204 220.916 367.784 221.656 366.524C222.416 365.244 223.446 364.254 224.746 363.554C226.066 362.834 227.536 362.474 229.156 362.474C230.736 362.474 232.166 362.814 233.446 363.494C234.726 364.174 235.726 365.154 236.446 366.434C237.186 367.694 237.556 369.164 237.556 370.844ZM229.186 366.014C228.126 366.014 227.236 366.314 226.516 366.914C225.796 367.514 225.356 368.334 225.196 369.374H233.146C232.986 368.354 232.546 367.544 231.826 366.944C231.106 366.324 230.226 366.014 229.186 366.014ZM259.548 379.214C257.408 379.214 255.468 378.754 253.728 377.834C252.008 376.894 250.648 375.604 249.648 373.964C248.668 372.304 248.178 370.434 248.178 368.354C248.178 366.274 248.668 364.414 249.648 362.774C250.648 361.114 252.008 359.824 253.728 358.904C255.468 357.964 257.418 357.494 259.578 357.494C261.398 357.494 263.038 357.814 264.498 358.454C265.978 359.094 267.218 360.014 268.218 361.214L265.098 364.094C263.678 362.454 261.918 361.634 259.818 361.634C258.518 361.634 257.358 361.924 256.338 362.504C255.318 363.064 254.518 363.854 253.938 364.874C253.378 365.894 253.098 367.054 253.098 368.354C253.098 369.654 253.378 370.814 253.938 371.834C254.518 372.854 255.318 373.654 256.338 374.234C257.358 374.794 258.518 375.074 259.818 375.074C261.918 375.074 263.678 374.244 265.098 372.584L268.218 375.464C267.218 376.684 265.978 377.614 264.498 378.254C263.018 378.894 261.368 379.214 259.548 379.214ZM281.23 379.214C279.05 379.214 277.08 378.744 275.32 377.804C273.58 376.864 272.21 375.574 271.21 373.934C270.23 372.274 269.74 370.414 269.74 368.354C269.74 366.294 270.23 364.444 271.21 362.804C272.21 361.144 273.58 359.844 275.32 358.904C277.08 357.964 279.05 357.494 281.23 357.494C283.41 357.494 285.37 357.964 287.11 358.904C288.85 359.844 290.22 361.144 291.22 362.804C292.22 364.444 292.72 366.294 292.72 368.354C292.72 370.414 292.22 372.274 291.22 373.934C290.22 375.574 288.85 376.864 287.11 377.804C285.37 378.744 283.41 379.214 281.23 379.214ZM281.23 375.074C282.47 375.074 283.59 374.794 284.59 374.234C285.59 373.654 286.37 372.854 286.93 371.834C287.51 370.814 287.8 369.654 287.8 368.354C287.8 367.054 287.51 365.894 286.93 364.874C286.37 363.854 285.59 363.064 284.59 362.504C283.59 361.924 282.47 361.634 281.23 361.634C279.99 361.634 278.87 361.924 277.87 362.504C276.87 363.064 276.08 363.854 275.5 364.874C274.94 365.894 274.66 367.054 274.66 368.354C274.66 369.654 274.94 370.814 275.5 371.834C276.08 372.854 276.87 373.654 277.87 374.234C278.87 374.794 279.99 375.074 281.23 375.074ZM310.45 374.894V378.854H294.58V375.704L302.68 368.054C303.54 367.234 304.12 366.534 304.42 365.954C304.72 365.354 304.87 364.764 304.87 364.184C304.87 363.344 304.58 362.704 304 362.264C303.44 361.804 302.61 361.574 301.51 361.574C300.59 361.574 299.76 361.754 299.02 362.114C298.28 362.454 297.66 362.974 297.16 363.674L293.62 361.394C294.44 360.174 295.57 359.224 297.01 358.544C298.45 357.844 300.1 357.494 301.96 357.494C303.52 357.494 304.88 357.754 306.04 358.274C307.22 358.774 308.13 359.494 308.77 360.434C309.43 361.354 309.76 362.444 309.76 363.704C309.76 364.844 309.52 365.914 309.04 366.914C308.56 367.914 307.63 369.054 306.25 370.334L301.42 374.894H310.45ZM158.734 403.254C159.721 403.254 160.614 403.481 161.414 403.934C162.214 404.374 162.841 405.001 163.294 405.814C163.747 406.627 163.974 407.554 163.974 408.594C163.974 409.647 163.747 410.581 163.294 411.394C162.841 412.207 162.214 412.841 161.414 413.294C160.627 413.734 159.734 413.954 158.734 413.954C157.881 413.954 157.107 413.781 156.414 413.434C155.734 413.074 155.174 412.554 154.734 411.874V417.734H153.314V403.334H154.674V405.414C155.101 404.721 155.661 404.187 156.354 403.814C157.061 403.441 157.854 403.254 158.734 403.254ZM158.634 412.694C159.367 412.694 160.034 412.527 160.634 412.194C161.234 411.847 161.701 411.361 162.034 410.734C162.381 410.107 162.554 409.394 162.554 408.594C162.554 407.794 162.381 407.087 162.034 406.474C161.701 405.847 161.234 405.361 160.634 405.014C160.034 404.667 159.367 404.494 158.634 404.494C157.887 404.494 157.214 404.667 156.614 405.014C156.027 405.361 155.561 405.847 155.214 406.474C154.881 407.087 154.714 407.794 154.714 408.594C154.714 409.394 154.881 410.107 155.214 410.734C155.561 411.361 156.027 411.847 156.614 412.194C157.214 412.527 157.887 412.694 158.634 412.694ZM170.49 403.254C171.863 403.254 172.917 403.601 173.65 404.294C174.383 404.974 174.75 405.987 174.75 407.334V413.854H173.39V412.214C173.07 412.761 172.597 413.187 171.97 413.494C171.357 413.801 170.623 413.954 169.77 413.954C168.597 413.954 167.663 413.674 166.97 413.114C166.277 412.554 165.93 411.814 165.93 410.894C165.93 410.001 166.25 409.281 166.89 408.734C167.543 408.187 168.577 407.914 169.99 407.914H173.33V407.274C173.33 406.367 173.077 405.681 172.57 405.214C172.063 404.734 171.323 404.494 170.35 404.494C169.683 404.494 169.043 404.607 168.43 404.834C167.817 405.047 167.29 405.347 166.85 405.734L166.21 404.674C166.743 404.221 167.383 403.874 168.13 403.634C168.877 403.381 169.663 403.254 170.49 403.254ZM169.99 412.834C170.79 412.834 171.477 412.654 172.05 412.294C172.623 411.921 173.05 411.387 173.33 410.694V408.974H170.03C168.23 408.974 167.33 409.601 167.33 410.854C167.33 411.467 167.563 411.954 168.03 412.314C168.497 412.661 169.15 412.834 169.99 412.834ZM179.967 405.394C180.3 404.687 180.794 404.154 181.447 403.794C182.114 403.434 182.934 403.254 183.907 403.254V404.634L183.567 404.614C182.46 404.614 181.594 404.954 180.967 405.634C180.34 406.314 180.027 407.267 180.027 408.494V413.854H178.607V403.334H179.967V405.394ZM194.809 399.854V413.854H193.369V401.134H190.069V399.854H194.809ZM203.735 413.974C202.655 413.974 201.689 413.687 200.835 413.114C199.995 412.541 199.335 411.721 198.855 410.654C198.389 409.574 198.155 408.307 198.155 406.854C198.155 405.401 198.389 404.141 198.855 403.074C199.335 401.994 199.995 401.167 200.835 400.594C201.689 400.021 202.655 399.734 203.735 399.734C204.815 399.734 205.775 400.021 206.615 400.594C207.469 401.167 208.135 401.994 208.615 403.074C209.095 404.141 209.335 405.401 209.335 406.854C209.335 408.307 209.095 409.574 208.615 410.654C208.135 411.721 207.469 412.541 206.615 413.114C205.775 413.687 204.815 413.974 203.735 413.974ZM203.735 412.654C204.549 412.654 205.262 412.427 205.875 411.974C206.502 411.521 206.989 410.861 207.335 409.994C207.682 409.127 207.855 408.081 207.855 406.854C207.855 405.627 207.682 404.581 207.335 403.714C206.989 402.847 206.502 402.187 205.875 401.734C205.262 401.281 204.549 401.054 203.735 401.054C202.922 401.054 202.202 401.281 201.575 401.734C200.962 402.187 200.482 402.847 200.135 403.714C199.789 404.581 199.615 405.627 199.615 406.854C199.615 408.081 199.789 409.127 200.135 409.994C200.482 410.861 200.962 411.521 201.575 411.974C202.202 412.427 202.922 412.654 203.735 412.654ZM216.977 413.974C215.897 413.974 214.931 413.687 214.077 413.114C213.237 412.541 212.577 411.721 212.097 410.654C211.631 409.574 211.397 408.307 211.397 406.854C211.397 405.401 211.631 404.141 212.097 403.074C212.577 401.994 213.237 401.167 214.077 400.594C214.931 400.021 215.897 399.734 216.977 399.734C218.057 399.734 219.017 400.021 219.857 400.594C220.711 401.167 221.377 401.994 221.857 403.074C222.337 404.141 222.577 405.401 222.577 406.854C222.577 408.307 222.337 409.574 221.857 410.654C221.377 411.721 220.711 412.541 219.857 413.114C219.017 413.687 218.057 413.974 216.977 413.974ZM216.977 412.654C217.791 412.654 218.504 412.427 219.117 411.974C219.744 411.521 220.231 410.861 220.577 409.994C220.924 409.127 221.097 408.081 221.097 406.854C221.097 405.627 220.924 404.581 220.577 403.714C220.231 402.847 219.744 402.187 219.117 401.734C218.504 401.281 217.791 401.054 216.977 401.054C216.164 401.054 215.444 401.281 214.817 401.734C214.204 402.187 213.724 402.847 213.377 403.714C213.031 404.581 212.857 405.627 212.857 406.854C212.857 408.081 213.031 409.127 213.377 409.994C213.724 410.861 214.204 411.521 214.817 411.974C215.444 412.427 216.164 412.654 216.977 412.654ZM229.48 408.574L227 410.854V413.854H225.58V399.014H227V409.074L233.28 403.334H235.04L230.54 407.634L235.46 413.854H233.72L229.48 408.574ZM250.555 403.254C251.875 403.254 252.908 403.634 253.655 404.394C254.415 405.154 254.795 406.274 254.795 407.754V413.854H253.375V407.894C253.375 406.801 253.108 405.967 252.575 405.394C252.055 404.821 251.315 404.534 250.355 404.534C249.262 404.534 248.402 404.874 247.775 405.554C247.148 406.221 246.835 407.147 246.835 408.334V413.854H245.415V407.894C245.415 406.801 245.148 405.967 244.615 405.394C244.095 404.821 243.348 404.534 242.375 404.534C241.295 404.534 240.435 404.874 239.795 405.554C239.168 406.221 238.855 407.147 238.855 408.334V413.854H237.435V403.334H238.795V405.254C239.168 404.614 239.688 404.121 240.355 403.774C241.022 403.427 241.788 403.254 242.655 403.254C243.535 403.254 244.295 403.441 244.935 403.814C245.588 404.187 246.075 404.741 246.395 405.474C246.782 404.781 247.335 404.241 248.055 403.854C248.788 403.454 249.622 403.254 250.555 403.254Z" fill="white"/>
<path d="M111.492 167.454C108.592 167.454 106.009 166.737 103.742 165.304C101.475 163.871 99.692 161.804 98.392 159.104C97.1253 156.371 96.492 153.121 96.492 149.354C96.492 145.587 97.1253 142.354 98.392 139.654C99.692 136.921 101.475 134.837 103.742 133.404C106.009 131.971 108.592 131.254 111.492 131.254C114.392 131.254 116.975 131.971 119.242 133.404C121.509 134.837 123.275 136.921 124.542 139.654C125.842 142.354 126.492 145.587 126.492 149.354C126.492 153.121 125.842 156.371 124.542 159.104C123.275 161.804 121.509 163.871 119.242 165.304C116.975 166.737 114.392 167.454 111.492 167.454ZM111.492 160.604C113.625 160.604 115.292 159.687 116.492 157.854C117.725 156.021 118.342 153.187 118.342 149.354C118.342 145.521 117.725 142.687 116.492 140.854C115.292 139.021 113.625 138.104 111.492 138.104C109.392 138.104 107.725 139.021 106.492 140.854C105.292 142.687 104.692 145.521 104.692 149.354C104.692 153.187 105.292 156.021 106.492 157.854C107.725 159.687 109.392 160.604 111.492 160.604ZM143.628 156.304L139.878 160.004V166.854H132.078V129.754H139.878V150.754L151.278 139.954H160.578L149.378 151.354L161.578 166.854H152.128L143.628 156.304ZM191.663 139.954V162.354C191.663 167.287 190.38 170.954 187.813 173.354C185.247 175.754 181.497 176.954 176.563 176.954C173.963 176.954 171.497 176.637 169.163 176.004C166.83 175.371 164.897 174.454 163.363 173.254L166.463 167.654C167.597 168.587 169.03 169.321 170.763 169.854C172.497 170.421 174.23 170.704 175.963 170.704C178.663 170.704 180.647 170.087 181.913 168.854C183.213 167.654 183.863 165.821 183.863 163.354V162.204C181.83 164.437 178.997 165.554 175.363 165.554C172.897 165.554 170.63 165.021 168.563 163.954C166.53 162.854 164.913 161.321 163.713 159.354C162.513 157.387 161.913 155.121 161.913 152.554C161.913 149.987 162.513 147.721 163.713 145.754C164.913 143.787 166.53 142.271 168.563 141.204C170.63 140.104 172.897 139.554 175.363 139.554C179.263 139.554 182.23 140.837 184.263 143.404V139.954H191.663ZM176.913 159.154C178.98 159.154 180.663 158.554 181.963 157.354C183.297 156.121 183.963 154.521 183.963 152.554C183.963 150.587 183.297 149.004 181.963 147.804C180.663 146.571 178.98 145.954 176.913 145.954C174.847 145.954 173.147 146.571 171.813 147.804C170.48 149.004 169.813 150.587 169.813 152.554C169.813 154.521 170.48 156.121 171.813 157.354C173.147 158.554 174.847 159.154 176.913 159.154ZM219.587 144.594V166.854H215.117V164.994C213.957 166.394 212.277 167.094 210.077 167.094C208.557 167.094 207.177 166.754 205.937 166.074C204.717 165.394 203.757 164.424 203.057 163.164C202.357 161.904 202.007 160.444 202.007 158.784C202.007 157.124 202.357 155.664 203.057 154.404C203.757 153.144 204.717 152.174 205.937 151.494C207.177 150.814 208.557 150.474 210.077 150.474C212.137 150.474 213.747 151.124 214.907 152.424V144.594H219.587ZM210.887 163.254C212.067 163.254 213.047 162.854 213.827 162.054C214.607 161.234 214.997 160.144 214.997 158.784C214.997 157.424 214.607 156.344 213.827 155.544C213.047 154.724 212.067 154.314 210.887 154.314C209.687 154.314 208.697 154.724 207.917 155.544C207.137 156.344 206.747 157.424 206.747 158.784C206.747 160.144 207.137 161.234 207.917 162.054C208.697 162.854 209.687 163.254 210.887 163.254ZM239.729 158.844C239.729 158.904 239.699 159.324 239.639 160.104H227.429C227.649 161.104 228.169 161.894 228.989 162.474C229.809 163.054 230.829 163.344 232.049 163.344C232.889 163.344 233.629 163.224 234.269 162.984C234.929 162.724 235.539 162.324 236.099 161.784L238.589 164.484C237.069 166.224 234.849 167.094 231.929 167.094C230.109 167.094 228.499 166.744 227.099 166.044C225.699 165.324 224.619 164.334 223.859 163.074C223.099 161.814 222.719 160.384 222.719 158.784C222.719 157.204 223.089 155.784 223.829 154.524C224.589 153.244 225.619 152.254 226.919 151.554C228.239 150.834 229.709 150.474 231.329 150.474C232.909 150.474 234.339 150.814 235.619 151.494C236.899 152.174 237.899 153.154 238.619 154.434C239.359 155.694 239.729 157.164 239.729 158.844ZM231.359 154.014C230.299 154.014 229.409 154.314 228.689 154.914C227.969 155.514 227.529 156.334 227.369 157.374H235.319C235.159 156.354 234.719 155.544 233.999 154.944C233.279 154.324 232.399 154.014 231.359 154.014ZM261.721 167.214C259.581 167.214 257.641 166.754 255.901 165.834C254.181 164.894 252.821 163.604 251.821 161.964C250.841 160.304 250.351 158.434 250.351 156.354C250.351 154.274 250.841 152.414 251.821 150.774C252.821 149.114 254.181 147.824 255.901 146.904C257.641 145.964 259.591 145.494 261.751 145.494C263.571 145.494 265.211 145.814 266.671 146.454C268.151 147.094 269.391 148.014 270.391 149.214L267.271 152.094C265.851 150.454 264.091 149.634 261.991 149.634C260.691 149.634 259.531 149.924 258.511 150.504C257.491 151.064 256.691 151.854 256.111 152.874C255.551 153.894 255.271 155.054 255.271 156.354C255.271 157.654 255.551 158.814 256.111 159.834C256.691 160.854 257.491 161.654 258.511 162.234C259.531 162.794 260.691 163.074 261.991 163.074C264.091 163.074 265.851 162.244 267.271 160.584L270.391 163.464C269.391 164.684 268.151 165.614 266.671 166.254C265.191 166.894 263.541 167.214 261.721 167.214ZM283.403 167.214C281.223 167.214 279.253 166.744 277.493 165.804C275.753 164.864 274.383 163.574 273.383 161.934C272.403 160.274 271.913 158.414 271.913 156.354C271.913 154.294 272.403 152.444 273.383 150.804C274.383 149.144 275.753 147.844 277.493 146.904C279.253 145.964 281.223 145.494 283.403 145.494C285.583 145.494 287.543 145.964 289.283 146.904C291.023 147.844 292.393 149.144 293.393 150.804C294.393 152.444 294.893 154.294 294.893 156.354C294.893 158.414 294.393 160.274 293.393 161.934C292.393 163.574 291.023 164.864 289.283 165.804C287.543 166.744 285.583 167.214 283.403 167.214ZM283.403 163.074C284.643 163.074 285.763 162.794 286.763 162.234C287.763 161.654 288.543 160.854 289.103 159.834C289.683 158.814 289.973 157.654 289.973 156.354C289.973 155.054 289.683 153.894 289.103 152.874C288.543 151.854 287.763 151.064 286.763 150.504C285.763 149.924 284.643 149.634 283.403 149.634C282.163 149.634 281.043 149.924 280.043 150.504C279.043 151.064 278.253 151.854 277.673 152.874C277.113 153.894 276.833 155.054 276.833 156.354C276.833 157.654 277.113 158.814 277.673 159.834C278.253 160.854 279.043 161.654 280.043 162.234C281.043 162.794 282.163 163.074 283.403 163.074ZM312.623 162.894V166.854H296.753V163.704L304.853 156.054C305.713 155.234 306.293 154.534 306.593 153.954C306.893 153.354 307.043 152.764 307.043 152.184C307.043 151.344 306.753 150.704 306.173 150.264C305.613 149.804 304.783 149.574 303.683 149.574C302.763 149.574 301.933 149.754 301.193 150.114C300.453 150.454 299.833 150.974 299.333 151.674L295.793 149.394C296.613 148.174 297.743 147.224 299.183 146.544C300.623 145.844 302.273 145.494 304.133 145.494C305.693 145.494 307.053 145.754 308.213 146.274C309.393 146.774 310.303 147.494 310.943 148.434C311.603 149.354 311.933 150.444 311.933 151.704C311.933 152.844 311.693 153.914 311.213 154.914C310.733 155.914 309.803 157.054 308.423 158.334L303.593 162.894H312.623ZM158.734 191.254C159.721 191.254 160.614 191.481 161.414 191.934C162.214 192.374 162.841 193.001 163.294 193.814C163.747 194.627 163.974 195.554 163.974 196.594C163.974 197.647 163.747 198.581 163.294 199.394C162.841 200.207 162.214 200.841 161.414 201.294C160.627 201.734 159.734 201.954 158.734 201.954C157.881 201.954 157.107 201.781 156.414 201.434C155.734 201.074 155.174 200.554 154.734 199.874V205.734H153.314V191.334H154.674V193.414C155.101 192.721 155.661 192.187 156.354 191.814C157.061 191.441 157.854 191.254 158.734 191.254ZM158.634 200.694C159.367 200.694 160.034 200.527 160.634 200.194C161.234 199.847 161.701 199.361 162.034 198.734C162.381 198.107 162.554 197.394 162.554 196.594C162.554 195.794 162.381 195.087 162.034 194.474C161.701 193.847 161.234 193.361 160.634 193.014C160.034 192.667 159.367 192.494 158.634 192.494C157.887 192.494 157.214 192.667 156.614 193.014C156.027 193.361 155.561 193.847 155.214 194.474C154.881 195.087 154.714 195.794 154.714 196.594C154.714 197.394 154.881 198.107 155.214 198.734C155.561 199.361 156.027 199.847 156.614 200.194C157.214 200.527 157.887 200.694 158.634 200.694ZM170.49 191.254C171.863 191.254 172.917 191.601 173.65 192.294C174.383 192.974 174.75 193.987 174.75 195.334V201.854H173.39V200.214C173.07 200.761 172.597 201.187 171.97 201.494C171.357 201.801 170.623 201.954 169.77 201.954C168.597 201.954 167.663 201.674 166.97 201.114C166.277 200.554 165.93 199.814 165.93 198.894C165.93 198.001 166.25 197.281 166.89 196.734C167.543 196.187 168.577 195.914 169.99 195.914H173.33V195.274C173.33 194.367 173.077 193.681 172.57 193.214C172.063 192.734 171.323 192.494 170.35 192.494C169.683 192.494 169.043 192.607 168.43 192.834C167.817 193.047 167.29 193.347 166.85 193.734L166.21 192.674C166.743 192.221 167.383 191.874 168.13 191.634C168.877 191.381 169.663 191.254 170.49 191.254ZM169.99 200.834C170.79 200.834 171.477 200.654 172.05 200.294C172.623 199.921 173.05 199.387 173.33 198.694V196.974H170.03C168.23 196.974 167.33 197.601 167.33 198.854C167.33 199.467 167.563 199.954 168.03 200.314C168.497 200.661 169.15 200.834 169.99 200.834ZM179.967 193.394C180.3 192.687 180.794 192.154 181.447 191.794C182.114 191.434 182.934 191.254 183.907 191.254V192.634L183.567 192.614C182.46 192.614 181.594 192.954 180.967 193.634C180.34 194.314 180.027 195.267 180.027 196.494V201.854H178.607V191.334H179.967V193.394ZM194.809 187.854V201.854H193.369V189.134H190.069V187.854H194.809ZM203.735 201.974C202.655 201.974 201.689 201.687 200.835 201.114C199.995 200.541 199.335 199.721 198.855 198.654C198.389 197.574 198.155 196.307 198.155 194.854C198.155 193.401 198.389 192.141 198.855 191.074C199.335 189.994 199.995 189.167 200.835 188.594C201.689 188.021 202.655 187.734 203.735 187.734C204.815 187.734 205.775 188.021 206.615 188.594C207.469 189.167 208.135 189.994 208.615 191.074C209.095 192.141 209.335 193.401 209.335 194.854C209.335 196.307 209.095 197.574 208.615 198.654C208.135 199.721 207.469 200.541 206.615 201.114C205.775 201.687 204.815 201.974 203.735 201.974ZM203.735 200.654C204.549 200.654 205.262 200.427 205.875 199.974C206.502 199.521 206.989 198.861 207.335 197.994C207.682 197.127 207.855 196.081 207.855 194.854C207.855 193.627 207.682 192.581 207.335 191.714C206.989 190.847 206.502 190.187 205.875 189.734C205.262 189.281 204.549 189.054 203.735 189.054C202.922 189.054 202.202 189.281 201.575 189.734C200.962 190.187 200.482 190.847 200.135 191.714C199.789 192.581 199.615 193.627 199.615 194.854C199.615 196.081 199.789 197.127 200.135 197.994C200.482 198.861 200.962 199.521 201.575 199.974C202.202 200.427 202.922 200.654 203.735 200.654ZM216.977 201.974C215.897 201.974 214.931 201.687 214.077 201.114C213.237 200.541 212.577 199.721 212.097 198.654C211.631 197.574 211.397 196.307 211.397 194.854C211.397 193.401 211.631 192.141 212.097 191.074C212.577 189.994 213.237 189.167 214.077 188.594C214.931 188.021 215.897 187.734 216.977 187.734C218.057 187.734 219.017 188.021 219.857 188.594C220.711 189.167 221.377 189.994 221.857 191.074C222.337 192.141 222.577 193.401 222.577 194.854C222.577 196.307 222.337 197.574 221.857 198.654C221.377 199.721 220.711 200.541 219.857 201.114C219.017 201.687 218.057 201.974 216.977 201.974ZM216.977 200.654C217.791 200.654 218.504 200.427 219.117 199.974C219.744 199.521 220.231 198.861 220.577 197.994C220.924 197.127 221.097 196.081 221.097 194.854C221.097 193.627 220.924 192.581 220.577 191.714C220.231 190.847 219.744 190.187 219.117 189.734C218.504 189.281 217.791 189.054 216.977 189.054C216.164 189.054 215.444 189.281 214.817 189.734C214.204 190.187 213.724 190.847 213.377 191.714C213.031 192.581 212.857 193.627 212.857 194.854C212.857 196.081 213.031 197.127 213.377 197.994C213.724 198.861 214.204 199.521 214.817 199.974C215.444 200.427 216.164 200.654 216.977 200.654ZM229.48 196.574L227 198.854V201.854H225.58V187.014H227V197.074L233.28 191.334H235.04L230.54 195.634L235.46 201.854H233.72L229.48 196.574ZM250.555 191.254C251.875 191.254 252.908 191.634 253.655 192.394C254.415 193.154 254.795 194.274 254.795 195.754V201.854H253.375V195.894C253.375 194.801 253.108 193.967 252.575 193.394C252.055 192.821 251.315 192.534 250.355 192.534C249.262 192.534 248.402 192.874 247.775 193.554C247.148 194.221 246.835 195.147 246.835 196.334V201.854H245.415V195.894C245.415 194.801 245.148 193.967 244.615 193.394C244.095 192.821 243.348 192.534 242.375 192.534C241.295 192.534 240.435 192.874 239.795 193.554C239.168 194.221 238.855 195.147 238.855 196.334V201.854H237.435V191.334H238.795V193.254C239.168 192.614 239.688 192.121 240.355 191.774C241.022 191.427 241.788 191.254 242.655 191.254C243.535 191.254 244.295 191.441 244.935 191.814C245.588 192.187 246.075 192.741 246.395 193.474C246.782 192.781 247.335 192.241 248.055 191.854C248.788 191.454 249.622 191.254 250.555 191.254Z" fill="white"/>
<path d="M127.137 51.862H120.897L119.553 54.854H118.321L123.441 43.654H124.609L129.729 54.854H128.481L127.137 51.862ZM126.705 50.902L124.017 44.886L121.329 50.902H126.705ZM140.316 43.654L135.356 54.854H134.188L129.228 43.654H130.508L134.796 53.382L139.116 43.654H140.316ZM149.861 53.83V54.854H141.941V43.654H149.621V44.678H143.125V48.662H148.917V49.67H143.125V53.83H149.861ZM157.446 54.95C156.336 54.95 155.334 54.7047 154.438 54.214C153.552 53.7233 152.854 53.046 152.342 52.182C151.84 51.3073 151.59 50.3313 151.59 49.254C151.59 48.1767 151.84 47.206 152.342 46.342C152.854 45.4673 153.558 44.7847 154.454 44.294C155.35 43.8033 156.352 43.558 157.462 43.558C158.294 43.558 159.062 43.6967 159.766 43.974C160.47 44.2513 161.067 44.6567 161.558 45.19L160.806 45.942C159.931 45.0567 158.827 44.614 157.494 44.614C156.608 44.614 155.803 44.8167 155.078 45.222C154.352 45.6273 153.782 46.182 153.366 46.886C152.96 47.59 152.758 48.3793 152.758 49.254C152.758 50.1287 152.96 50.918 153.366 51.622C153.782 52.326 154.352 52.8807 155.078 53.286C155.803 53.6913 156.608 53.894 157.494 53.894C158.838 53.894 159.942 53.446 160.806 52.55L161.558 53.302C161.067 53.8353 160.464 54.246 159.75 54.534C159.046 54.8113 158.278 54.95 157.446 54.95ZM175.325 49.078C176.061 49.238 176.627 49.558 177.021 50.038C177.427 50.5073 177.629 51.1153 177.629 51.862C177.629 52.822 177.272 53.5633 176.557 54.086C175.853 54.598 174.808 54.854 173.421 54.854H168.269V43.654H173.101C174.349 43.654 175.315 43.9047 175.997 44.406C176.691 44.9073 177.037 45.6167 177.037 46.534C177.037 47.1527 176.883 47.6807 176.573 48.118C176.275 48.5447 175.859 48.8647 175.325 49.078ZM169.453 44.63V48.694H173.021C173.928 48.694 174.627 48.5233 175.117 48.182C175.608 47.83 175.853 47.3233 175.853 46.662C175.853 46.0007 175.608 45.4993 175.117 45.158C174.627 44.806 173.928 44.63 173.021 44.63H169.453ZM173.405 53.878C174.408 53.878 175.165 53.7073 175.677 53.366C176.189 53.0247 176.445 52.4913 176.445 51.766C176.445 50.3687 175.432 49.67 173.405 49.67H169.453V53.878H173.405ZM180.332 43.654H181.516V54.854H180.332V43.654ZM190.024 54.95C188.915 54.95 187.912 54.7047 187.016 54.214C186.131 53.7233 185.432 53.046 184.92 52.182C184.419 51.3073 184.168 50.3313 184.168 49.254C184.168 48.1767 184.419 47.206 184.92 46.342C185.432 45.4673 186.136 44.7847 187.032 44.294C187.928 43.8033 188.931 43.558 190.04 43.558C190.872 43.558 191.64 43.6967 192.344 43.974C193.048 44.2513 193.645 44.6567 194.136 45.19L193.384 45.942C192.509 45.0567 191.405 44.614 190.072 44.614C189.187 44.614 188.381 44.8167 187.656 45.222C186.931 45.6273 186.36 46.182 185.944 46.886C185.539 47.59 185.336 48.3793 185.336 49.254C185.336 50.1287 185.539 50.918 185.944 51.622C186.36 52.326 186.931 52.8807 187.656 53.286C188.381 53.6913 189.187 53.894 190.072 53.894C191.416 53.894 192.52 53.446 193.384 52.55L194.136 53.302C193.645 53.8353 193.043 54.246 192.328 54.534C191.624 54.8113 190.856 54.95 190.024 54.95ZM196.66 43.654H197.844V54.854H196.66V43.654ZM210.54 54.95C209.43 54.95 208.428 54.7047 207.532 54.214C206.646 53.7233 205.948 53.046 205.436 52.182C204.934 51.3073 204.684 50.3313 204.684 49.254C204.684 48.1767 204.934 47.206 205.436 46.342C205.948 45.4673 206.652 44.7847 207.548 44.294C208.444 43.8033 209.446 43.558 210.556 43.558C211.388 43.558 212.156 43.6967 212.86 43.974C213.564 44.2513 214.161 44.6567 214.652 45.19L213.9 45.942C213.025 45.0567 211.921 44.614 210.588 44.614C209.702 44.614 208.897 44.8167 208.172 45.222C207.446 45.6273 206.876 46.182 206.46 46.886C206.054 47.59 205.852 48.3793 205.852 49.254C205.852 50.1287 206.054 50.918 206.46 51.622C206.876 52.326 207.446 52.8807 208.172 53.286C208.897 53.6913 209.702 53.894 210.588 53.894C211.932 53.894 213.036 53.446 213.9 52.55L214.652 53.302C214.161 53.8353 213.558 54.246 212.844 54.534C212.14 54.8113 211.372 54.95 210.54 54.95ZM221.837 54.95C220.728 54.95 219.72 54.7047 218.813 54.214C217.917 53.7127 217.213 53.03 216.701 52.166C216.2 51.302 215.949 50.3313 215.949 49.254C215.949 48.1767 216.2 47.206 216.701 46.342C217.213 45.478 217.917 44.8007 218.813 44.31C219.72 43.8087 220.728 43.558 221.837 43.558C222.947 43.558 223.944 43.8033 224.829 44.294C225.725 44.7847 226.429 45.4673 226.941 46.342C227.453 47.206 227.709 48.1767 227.709 49.254C227.709 50.3313 227.453 51.3073 226.941 52.182C226.429 53.046 225.725 53.7233 224.829 54.214C223.944 54.7047 222.947 54.95 221.837 54.95ZM221.837 53.894C222.723 53.894 223.523 53.6967 224.237 53.302C224.952 52.8967 225.512 52.342 225.917 51.638C226.323 50.9233 226.525 50.1287 226.525 49.254C226.525 48.3793 226.323 47.59 225.917 46.886C225.512 46.1713 224.952 45.6167 224.237 45.222C223.523 44.8167 222.723 44.614 221.837 44.614C220.952 44.614 220.147 44.8167 219.421 45.222C218.707 45.6167 218.141 46.1713 217.725 46.886C217.32 47.59 217.117 48.3793 217.117 49.254C217.117 50.1287 217.32 50.9233 217.725 51.638C218.141 52.342 218.707 52.8967 219.421 53.302C220.147 53.6967 220.952 53.894 221.837 53.894ZM234.875 54.95C233.424 54.95 232.294 54.534 231.483 53.702C230.672 52.87 230.267 51.6593 230.267 50.07V43.654H231.451V50.022C231.451 51.3233 231.744 52.294 232.331 52.934C232.918 53.574 233.766 53.894 234.875 53.894C235.995 53.894 236.848 53.574 237.435 52.934C238.022 52.294 238.315 51.3233 238.315 50.022V43.654H239.467V50.07C239.467 51.6593 239.062 52.87 238.251 53.702C237.451 54.534 236.326 54.95 234.875 54.95ZM250.683 54.854L248.123 51.254C247.835 51.286 247.536 51.302 247.227 51.302H244.219V54.854H243.035V43.654H247.227C248.656 43.654 249.776 43.9953 250.587 44.678C251.398 45.3607 251.803 46.2993 251.803 47.494C251.803 48.3687 251.579 49.11 251.131 49.718C250.694 50.3153 250.064 50.7473 249.243 51.014L251.979 54.854H250.683ZM247.195 50.294C248.304 50.294 249.152 50.0487 249.739 49.558C250.326 49.0673 250.619 48.3793 250.619 47.494C250.619 46.5873 250.326 45.894 249.739 45.414C249.152 44.9233 248.304 44.678 247.195 44.678H244.219V50.294H247.195ZM254.597 43.654H255.781V54.854H254.597V43.654ZM267.346 53.83V54.854H259.426V43.654H267.106V44.678H260.61V48.662H266.402V49.67H260.61V53.83H267.346ZM277.777 54.854L275.217 51.254C274.929 51.286 274.63 51.302 274.321 51.302H271.313V54.854H270.129V43.654H274.321C275.75 43.654 276.87 43.9953 277.681 44.678C278.491 45.3607 278.897 46.2993 278.897 47.494C278.897 48.3687 278.673 49.11 278.225 49.718C277.787 50.3153 277.158 50.7473 276.337 51.014L279.073 54.854H277.777ZM274.289 50.294C275.398 50.294 276.246 50.0487 276.833 49.558C277.419 49.0673 277.713 48.3793 277.713 47.494C277.713 46.5873 277.419 45.894 276.833 45.414C276.246 44.9233 275.398 44.678 274.289 44.678H271.313V50.294H274.289ZM284.779 54.95C283.947 54.95 283.147 54.8167 282.379 54.55C281.622 54.2833 281.035 53.9313 280.619 53.494L281.083 52.582C281.489 52.9873 282.027 53.318 282.699 53.574C283.371 53.8193 284.065 53.942 284.779 53.942C285.782 53.942 286.534 53.7607 287.035 53.398C287.537 53.0247 287.787 52.5447 287.787 51.958C287.787 51.51 287.649 51.1527 287.371 50.886C287.105 50.6193 286.774 50.4167 286.379 50.278C285.985 50.1287 285.435 49.9687 284.731 49.798C283.889 49.5847 283.217 49.382 282.715 49.19C282.214 48.9873 281.782 48.6833 281.419 48.278C281.067 47.8727 280.891 47.3233 280.891 46.63C280.891 46.0647 281.041 45.5527 281.339 45.094C281.638 44.6247 282.097 44.2513 282.715 43.974C283.334 43.6967 284.102 43.558 285.019 43.558C285.659 43.558 286.283 43.6487 286.891 43.83C287.51 44.0007 288.043 44.2407 288.491 44.55L288.091 45.494C287.622 45.1847 287.121 44.9553 286.587 44.806C286.054 44.646 285.531 44.566 285.019 44.566C284.038 44.566 283.297 44.758 282.795 45.142C282.305 45.5153 282.059 46.0007 282.059 46.598C282.059 47.046 282.193 47.4087 282.459 47.686C282.737 47.9527 283.078 48.1607 283.483 48.31C283.899 48.4487 284.454 48.6033 285.147 48.774C285.969 48.9767 286.63 49.1793 287.131 49.382C287.643 49.574 288.075 49.8727 288.427 50.278C288.779 50.6727 288.955 51.2113 288.955 51.894C288.955 52.4593 288.801 52.9767 288.491 53.446C288.193 53.9047 287.729 54.2727 287.099 54.55C286.47 54.8167 285.697 54.95 284.779 54.95Z" fill="white"/>
<path d="M123.1 492.95C122.268 492.95 121.468 492.817 120.7 492.55C119.942 492.283 119.356 491.931 118.94 491.494L119.404 490.582C119.809 490.987 120.348 491.318 121.02 491.574C121.692 491.819 122.385 491.942 123.1 491.942C124.102 491.942 124.854 491.761 125.356 491.398C125.857 491.025 126.108 490.545 126.108 489.958C126.108 489.51 125.969 489.153 125.692 488.886C125.425 488.619 125.094 488.417 124.7 488.278C124.305 488.129 123.756 487.969 123.052 487.798C122.209 487.585 121.537 487.382 121.036 487.19C120.534 486.987 120.102 486.683 119.74 486.278C119.388 485.873 119.212 485.323 119.212 484.63C119.212 484.065 119.361 483.553 119.66 483.094C119.958 482.625 120.417 482.251 121.036 481.974C121.654 481.697 122.422 481.558 123.34 481.558C123.98 481.558 124.604 481.649 125.212 481.83C125.83 482.001 126.364 482.241 126.812 482.55L126.411 483.494C125.942 483.185 125.441 482.955 124.908 482.806C124.374 482.646 123.852 482.566 123.34 482.566C122.358 482.566 121.617 482.758 121.116 483.142C120.625 483.515 120.38 484.001 120.38 484.598C120.38 485.046 120.513 485.409 120.78 485.686C121.057 485.953 121.398 486.161 121.804 486.31C122.22 486.449 122.774 486.603 123.468 486.774C124.289 486.977 124.95 487.179 125.452 487.382C125.964 487.574 126.396 487.873 126.748 488.278C127.1 488.673 127.276 489.211 127.276 489.894C127.276 490.459 127.121 490.977 126.812 491.446C126.513 491.905 126.049 492.273 125.42 492.55C124.79 492.817 124.017 492.95 123.1 492.95ZM136.879 489.862H130.639L129.295 492.854H128.063L133.183 481.654H134.351L139.471 492.854H138.223L136.879 489.862ZM136.447 488.902L133.759 482.886L131.071 488.902H136.447ZM150.684 481.654V492.854H149.708L142.508 483.766V492.854H141.324V481.654H142.3L149.516 490.742V481.654H150.684ZM157.428 492.95C156.596 492.95 155.796 492.817 155.028 492.55C154.27 492.283 153.684 491.931 153.268 491.494L153.732 490.582C154.137 490.987 154.676 491.318 155.348 491.574C156.02 491.819 156.713 491.942 157.428 491.942C158.43 491.942 159.182 491.761 159.684 491.398C160.185 491.025 160.436 490.545 160.436 489.958C160.436 489.51 160.297 489.153 160.02 488.886C159.753 488.619 159.422 488.417 159.028 488.278C158.633 488.129 158.084 487.969 157.38 487.798C156.537 487.585 155.865 487.382 155.364 487.19C154.862 486.987 154.43 486.683 154.068 486.278C153.716 485.873 153.54 485.323 153.54 484.63C153.54 484.065 153.689 483.553 153.988 483.094C154.286 482.625 154.745 482.251 155.364 481.974C155.982 481.697 156.75 481.558 157.668 481.558C158.308 481.558 158.932 481.649 159.54 481.83C160.158 482.001 160.692 482.241 161.14 482.55L160.74 483.494C160.27 483.185 159.769 482.955 159.236 482.806C158.702 482.646 158.18 482.566 157.668 482.566C156.686 482.566 155.945 482.758 155.444 483.142C154.953 483.515 154.708 484.001 154.708 484.598C154.708 485.046 154.841 485.409 155.108 485.686C155.385 485.953 155.726 486.161 156.132 486.31C156.548 486.449 157.102 486.603 157.796 486.774C158.617 486.977 159.278 487.179 159.78 487.382C160.292 487.574 160.724 487.873 161.076 488.278C161.428 488.673 161.604 489.211 161.604 489.894C161.604 490.459 161.449 490.977 161.14 491.446C160.841 491.905 160.377 492.273 159.748 492.55C159.118 492.817 158.345 492.95 157.428 492.95ZM175.427 487.078C176.163 487.238 176.728 487.558 177.123 488.038C177.528 488.507 177.731 489.115 177.731 489.862C177.731 490.822 177.374 491.563 176.659 492.086C175.955 492.598 174.91 492.854 173.523 492.854H168.371V481.654H173.203C174.451 481.654 175.416 481.905 176.099 482.406C176.792 482.907 177.139 483.617 177.139 484.534C177.139 485.153 176.984 485.681 176.675 486.118C176.376 486.545 175.96 486.865 175.427 487.078ZM169.555 482.63V486.694H173.123C174.03 486.694 174.728 486.523 175.219 486.182C175.71 485.83 175.955 485.323 175.955 484.662C175.955 484.001 175.71 483.499 175.219 483.158C174.728 482.806 174.03 482.63 173.123 482.63H169.555ZM173.507 491.878C174.51 491.878 175.267 491.707 175.779 491.366C176.291 491.025 176.547 490.491 176.547 489.766C176.547 488.369 175.534 487.67 173.507 487.67H169.555V491.878H173.507ZM180.433 481.654H181.617V492.854H180.433V481.654ZM190.126 492.95C189.016 492.95 188.014 492.705 187.118 492.214C186.232 491.723 185.534 491.046 185.022 490.182C184.52 489.307 184.27 488.331 184.27 487.254C184.27 486.177 184.52 485.206 185.022 484.342C185.534 483.467 186.238 482.785 187.134 482.294C188.03 481.803 189.032 481.558 190.142 481.558C190.974 481.558 191.742 481.697 192.446 481.974C193.15 482.251 193.747 482.657 194.238 483.19L193.486 483.942C192.611 483.057 191.507 482.614 190.174 482.614C189.288 482.614 188.483 482.817 187.758 483.222C187.032 483.627 186.462 484.182 186.046 484.886C185.64 485.59 185.438 486.379 185.438 487.254C185.438 488.129 185.64 488.918 186.046 489.622C186.462 490.326 187.032 490.881 187.758 491.286C188.483 491.691 189.288 491.894 190.174 491.894C191.518 491.894 192.622 491.446 193.486 490.55L194.238 491.302C193.747 491.835 193.144 492.246 192.43 492.534C191.726 492.811 190.958 492.95 190.126 492.95ZM196.762 481.654H197.946V492.854H196.762V481.654ZM210.641 492.95C209.532 492.95 208.529 492.705 207.633 492.214C206.748 491.723 206.049 491.046 205.537 490.182C205.036 489.307 204.785 488.331 204.785 487.254C204.785 486.177 205.036 485.206 205.537 484.342C206.049 483.467 206.753 482.785 207.649 482.294C208.545 481.803 209.548 481.558 210.657 481.558C211.489 481.558 212.257 481.697 212.961 481.974C213.665 482.251 214.262 482.657 214.753 483.19L214.001 483.942C213.126 483.057 212.022 482.614 210.689 482.614C209.804 482.614 208.998 482.817 208.273 483.222C207.548 483.627 206.977 484.182 206.561 484.886C206.156 485.59 205.953 486.379 205.953 487.254C205.953 488.129 206.156 488.918 206.561 489.622C206.977 490.326 207.548 490.881 208.273 491.286C208.998 491.691 209.804 491.894 210.689 491.894C212.033 491.894 213.137 491.446 214.001 490.55L214.753 491.302C214.262 491.835 213.66 492.246 212.945 492.534C212.241 492.811 211.473 492.95 210.641 492.95ZM221.939 492.95C220.829 492.95 219.821 492.705 218.915 492.214C218.019 491.713 217.315 491.03 216.803 490.166C216.301 489.302 216.051 488.331 216.051 487.254C216.051 486.177 216.301 485.206 216.803 484.342C217.315 483.478 218.019 482.801 218.915 482.31C219.821 481.809 220.829 481.558 221.939 481.558C223.048 481.558 224.045 481.803 224.931 482.294C225.827 482.785 226.531 483.467 227.043 484.342C227.555 485.206 227.811 486.177 227.811 487.254C227.811 488.331 227.555 489.307 227.043 490.182C226.531 491.046 225.827 491.723 224.931 492.214C224.045 492.705 223.048 492.95 221.939 492.95ZM221.939 491.894C222.824 491.894 223.624 491.697 224.339 491.302C225.053 490.897 225.613 490.342 226.019 489.638C226.424 488.923 226.627 488.129 226.627 487.254C226.627 486.379 226.424 485.59 226.019 484.886C225.613 484.171 225.053 483.617 224.339 483.222C223.624 482.817 222.824 482.614 221.939 482.614C221.053 482.614 220.248 482.817 219.523 483.222C218.808 483.617 218.243 484.171 217.827 484.886C217.421 485.59 217.219 486.379 217.219 487.254C217.219 488.129 217.421 488.923 217.827 489.638C218.243 490.342 218.808 490.897 219.523 491.302C220.248 491.697 221.053 491.894 221.939 491.894ZM234.977 492.95C233.526 492.95 232.395 492.534 231.585 491.702C230.774 490.87 230.369 489.659 230.369 488.07V481.654H231.553V488.022C231.553 489.323 231.846 490.294 232.433 490.934C233.019 491.574 233.867 491.894 234.977 491.894C236.097 491.894 236.95 491.574 237.537 490.934C238.123 490.294 238.417 489.323 238.417 488.022V481.654H239.569V488.07C239.569 489.659 239.163 490.87 238.353 491.702C237.553 492.534 236.427 492.95 234.977 492.95ZM250.785 492.854L248.225 489.254C247.937 489.286 247.638 489.302 247.329 489.302H244.321V492.854H243.137V481.654H247.329C248.758 481.654 249.878 481.995 250.689 482.678C251.499 483.361 251.905 484.299 251.905 485.494C251.905 486.369 251.681 487.11 251.233 487.718C250.795 488.315 250.166 488.747 249.345 489.014L252.081 492.854H250.785ZM247.297 488.294C248.406 488.294 249.254 488.049 249.841 487.558C250.427 487.067 250.72 486.379 250.72 485.494C250.72 484.587 250.427 483.894 249.841 483.414C249.254 482.923 248.406 482.678 247.297 482.678H244.321V488.294H247.297ZM254.699 481.654H255.883V492.854H254.699V481.654ZM267.447 491.83V492.854H259.527V481.654H267.207V482.678H260.711V486.662H266.503V487.67H260.711V491.83H267.447ZM277.878 492.854L275.318 489.254C275.03 489.286 274.732 489.302 274.422 489.302H271.414V492.854H270.23V481.654H274.422C275.852 481.654 276.972 481.995 277.782 482.678C278.593 483.361 278.998 484.299 278.998 485.494C278.998 486.369 278.774 487.11 278.326 487.718C277.889 488.315 277.26 488.747 276.438 489.014L279.174 492.854H277.878ZM274.39 488.294C275.5 488.294 276.348 488.049 276.934 487.558C277.521 487.067 277.814 486.379 277.814 485.494C277.814 484.587 277.521 483.894 276.934 483.414C276.348 482.923 275.5 482.678 274.39 482.678H271.414V488.294H274.39ZM284.881 492.95C284.049 492.95 283.249 492.817 282.481 492.55C281.723 492.283 281.137 491.931 280.721 491.494L281.185 490.582C281.59 490.987 282.129 491.318 282.801 491.574C283.473 491.819 284.166 491.942 284.881 491.942C285.883 491.942 286.635 491.761 287.137 491.398C287.638 491.025 287.889 490.545 287.889 489.958C287.889 489.51 287.75 489.153 287.473 488.886C287.206 488.619 286.875 488.417 286.481 488.278C286.086 488.129 285.537 487.969 284.833 487.798C283.99 487.585 283.318 487.382 282.817 487.19C282.315 486.987 281.883 486.683 281.521 486.278C281.169 485.873 280.993 485.323 280.993 484.63C280.993 484.065 281.142 483.553 281.441 483.094C281.739 482.625 282.198 482.251 282.817 481.974C283.435 481.697 284.203 481.558 285.121 481.558C285.761 481.558 286.385 481.649 286.993 481.83C287.611 482.001 288.145 482.241 288.593 482.55L288.193 483.494C287.723 483.185 287.222 482.955 286.689 482.806C286.155 482.646 285.633 482.566 285.121 482.566C284.139 482.566 283.398 482.758 282.897 483.142C282.406 483.515 282.161 484.001 282.161 484.598C282.161 485.046 282.294 485.409 282.561 485.686C282.838 485.953 283.179 486.161 283.585 486.31C284.001 486.449 284.555 486.603 285.249 486.774C286.07 486.977 286.731 487.179 287.233 487.382C287.745 487.574 288.177 487.873 288.529 488.278C288.881 488.673 289.057 489.211 289.057 489.894C289.057 490.459 288.902 490.977 288.593 491.446C288.294 491.905 287.83 492.273 287.201 492.55C286.571 492.817 285.798 492.95 284.881 492.95Z" fill="white"/>
</svg>
