<svg width="321" height="577" viewBox="0 0 321 577" fill="none" xmlns="http://www.w3.org/2000/svg">
<path d="M400.239 361.323C371.461 400.152 304.008 410.461 253.274 393.968C202.432 377.581 168.202 334.391 125.525 295.833C82.8492 257.274 31.8348 223.454 11.5975 169.515C-8.74739 115.47 1.79197 41.3056 44.0357 -6.1311C86.3869 -53.4612 160.549 -74.1715 221.662 -61.2465C282.881 -48.4289 331.051 -1.97617 360.154 45.1905C389.257 92.2503 399.295 140.131 409.261 197.745C419.121 255.253 429.017 322.601 400.239 361.323Z" fill="#FFCC00"/>
<path d="M243.43 433.668C250.013 418.635 271.538 410.135 289.56 411.774C307.609 413.37 322.19 425.096 339.213 434.652C356.237 444.208 375.66 451.565 386.426 467.908C397.235 484.277 399.352 509.64 388.967 528.538C378.538 547.41 355.579 559.862 334.395 560.187C313.184 560.556 293.748 548.8 280.562 535.369C267.384 521.974 260.449 506.87 252.802 488.535C245.198 470.228 236.839 448.664 243.43 433.668Z" fill="#FFCC00"/>
</svg>
