<svg width="408" height="539" viewBox="0 0 408 539" fill="none" xmlns="http://www.w3.org/2000/svg">
<rect width="408" height="539" rx="5" fill="#153A7E"/>
<path d="M0 311.909C0 309.522 1.68718 307.468 4.02864 307.005L402.029 228.183C405.12 227.57 408 229.936 408 233.087V534C408 536.761 405.761 539 403 539H5C2.23857 539 0 536.761 0 534V311.909Z" fill="#0D2A61"/>
<path d="M127.137 51.008H120.897L119.553 54H118.321L123.441 42.8H124.609L129.729 54H128.481L127.137 51.008ZM126.705 50.048L124.017 44.032L121.329 50.048H126.705ZM140.316 42.8L135.356 54H134.188L129.228 42.8H130.508L134.796 52.528L139.116 42.8H140.316ZM149.861 52.976V54H141.941V42.8H149.621V43.824H143.125V47.808H148.917V48.816H143.125V52.976H149.861ZM157.446 54.096C156.336 54.096 155.334 53.8507 154.438 53.36C153.552 52.8693 152.854 52.192 152.342 51.328C151.84 50.4533 151.59 49.4773 151.59 48.4C151.59 47.3227 151.84 46.352 152.342 45.488C152.854 44.6133 153.558 43.9307 154.454 43.44C155.35 42.9493 156.352 42.704 157.462 42.704C158.294 42.704 159.062 42.8427 159.766 43.12C160.47 43.3973 161.067 43.8027 161.558 44.336L160.806 45.088C159.931 44.2027 158.827 43.76 157.494 43.76C156.608 43.76 155.803 43.9627 155.078 44.368C154.352 44.7733 153.782 45.328 153.366 46.032C152.96 46.736 152.758 47.5253 152.758 48.4C152.758 49.2747 152.96 50.064 153.366 50.768C153.782 51.472 154.352 52.0267 155.078 52.432C155.803 52.8373 156.608 53.04 157.494 53.04C158.838 53.04 159.942 52.592 160.806 51.696L161.558 52.448C161.067 52.9813 160.464 53.392 159.75 53.68C159.046 53.9573 158.278 54.096 157.446 54.096ZM175.325 48.224C176.061 48.384 176.627 48.704 177.021 49.184C177.427 49.6533 177.629 50.2613 177.629 51.008C177.629 51.968 177.272 52.7093 176.557 53.232C175.853 53.744 174.808 54 173.421 54H168.269V42.8H173.101C174.349 42.8 175.315 43.0507 175.997 43.552C176.691 44.0533 177.037 44.7627 177.037 45.68C177.037 46.2987 176.883 46.8267 176.573 47.264C176.275 47.6907 175.859 48.0107 175.325 48.224ZM169.453 43.776V47.84H173.021C173.928 47.84 174.627 47.6693 175.117 47.328C175.608 46.976 175.853 46.4693 175.853 45.808C175.853 45.1467 175.608 44.6453 175.117 44.304C174.627 43.952 173.928 43.776 173.021 43.776H169.453ZM173.405 53.024C174.408 53.024 175.165 52.8533 175.677 52.512C176.189 52.1707 176.445 51.6373 176.445 50.912C176.445 49.5147 175.432 48.816 173.405 48.816H169.453V53.024H173.405ZM180.332 42.8H181.516V54H180.332V42.8ZM190.024 54.096C188.915 54.096 187.912 53.8507 187.016 53.36C186.131 52.8693 185.432 52.192 184.92 51.328C184.419 50.4533 184.168 49.4773 184.168 48.4C184.168 47.3227 184.419 46.352 184.92 45.488C185.432 44.6133 186.136 43.9307 187.032 43.44C187.928 42.9493 188.931 42.704 190.04 42.704C190.872 42.704 191.64 42.8427 192.344 43.12C193.048 43.3973 193.645 43.8027 194.136 44.336L193.384 45.088C192.509 44.2027 191.405 43.76 190.072 43.76C189.187 43.76 188.381 43.9627 187.656 44.368C186.931 44.7733 186.36 45.328 185.944 46.032C185.539 46.736 185.336 47.5253 185.336 48.4C185.336 49.2747 185.539 50.064 185.944 50.768C186.36 51.472 186.931 52.0267 187.656 52.432C188.381 52.8373 189.187 53.04 190.072 53.04C191.416 53.04 192.52 52.592 193.384 51.696L194.136 52.448C193.645 52.9813 193.043 53.392 192.328 53.68C191.624 53.9573 190.856 54.096 190.024 54.096ZM196.66 42.8H197.844V54H196.66V42.8ZM210.54 54.096C209.43 54.096 208.428 53.8507 207.532 53.36C206.646 52.8693 205.948 52.192 205.436 51.328C204.934 50.4533 204.684 49.4773 204.684 48.4C204.684 47.3227 204.934 46.352 205.436 45.488C205.948 44.6133 206.652 43.9307 207.548 43.44C208.444 42.9493 209.446 42.704 210.556 42.704C211.388 42.704 212.156 42.8427 212.86 43.12C213.564 43.3973 214.161 43.8027 214.652 44.336L213.9 45.088C213.025 44.2027 211.921 43.76 210.588 43.76C209.702 43.76 208.897 43.9627 208.172 44.368C207.446 44.7733 206.876 45.328 206.46 46.032C206.054 46.736 205.852 47.5253 205.852 48.4C205.852 49.2747 206.054 50.064 206.46 50.768C206.876 51.472 207.446 52.0267 208.172 52.432C208.897 52.8373 209.702 53.04 210.588 53.04C211.932 53.04 213.036 52.592 213.9 51.696L214.652 52.448C214.161 52.9813 213.558 53.392 212.844 53.68C212.14 53.9573 211.372 54.096 210.54 54.096ZM221.837 54.096C220.728 54.096 219.72 53.8507 218.813 53.36C217.917 52.8587 217.213 52.176 216.701 51.312C216.2 50.448 215.949 49.4773 215.949 48.4C215.949 47.3227 216.2 46.352 216.701 45.488C217.213 44.624 217.917 43.9467 218.813 43.456C219.72 42.9547 220.728 42.704 221.837 42.704C222.947 42.704 223.944 42.9493 224.829 43.44C225.725 43.9307 226.429 44.6133 226.941 45.488C227.453 46.352 227.709 47.3227 227.709 48.4C227.709 49.4773 227.453 50.4533 226.941 51.328C226.429 52.192 225.725 52.8693 224.829 53.36C223.944 53.8507 222.947 54.096 221.837 54.096ZM221.837 53.04C222.723 53.04 223.523 52.8427 224.237 52.448C224.952 52.0427 225.512 51.488 225.917 50.784C226.323 50.0693 226.525 49.2747 226.525 48.4C226.525 47.5253 226.323 46.736 225.917 46.032C225.512 45.3173 224.952 44.7627 224.237 44.368C223.523 43.9627 222.723 43.76 221.837 43.76C220.952 43.76 220.147 43.9627 219.421 44.368C218.707 44.7627 218.141 45.3173 217.725 46.032C217.32 46.736 217.117 47.5253 217.117 48.4C217.117 49.2747 217.32 50.0693 217.725 50.784C218.141 51.488 218.707 52.0427 219.421 52.448C220.147 52.8427 220.952 53.04 221.837 53.04ZM234.875 54.096C233.424 54.096 232.294 53.68 231.483 52.848C230.672 52.016 230.267 50.8053 230.267 49.216V42.8H231.451V49.168C231.451 50.4693 231.744 51.44 232.331 52.08C232.918 52.72 233.766 53.04 234.875 53.04C235.995 53.04 236.848 52.72 237.435 52.08C238.022 51.44 238.315 50.4693 238.315 49.168V42.8H239.467V49.216C239.467 50.8053 239.062 52.016 238.251 52.848C237.451 53.68 236.326 54.096 234.875 54.096ZM250.683 54L248.123 50.4C247.835 50.432 247.536 50.448 247.227 50.448H244.219V54H243.035V42.8H247.227C248.656 42.8 249.776 43.1413 250.587 43.824C251.398 44.5067 251.803 45.4453 251.803 46.64C251.803 47.5147 251.579 48.256 251.131 48.864C250.694 49.4613 250.064 49.8933 249.243 50.16L251.979 54H250.683ZM247.195 49.44C248.304 49.44 249.152 49.1947 249.739 48.704C250.326 48.2133 250.619 47.5253 250.619 46.64C250.619 45.7333 250.326 45.04 249.739 44.56C249.152 44.0693 248.304 43.824 247.195 43.824H244.219V49.44H247.195ZM254.597 42.8H255.781V54H254.597V42.8ZM267.346 52.976V54H259.426V42.8H267.106V43.824H260.61V47.808H266.402V48.816H260.61V52.976H267.346ZM277.777 54L275.217 50.4C274.929 50.432 274.63 50.448 274.321 50.448H271.313V54H270.129V42.8H274.321C275.75 42.8 276.87 43.1413 277.681 43.824C278.491 44.5067 278.897 45.4453 278.897 46.64C278.897 47.5147 278.673 48.256 278.225 48.864C277.787 49.4613 277.158 49.8933 276.337 50.16L279.073 54H277.777ZM274.289 49.44C275.398 49.44 276.246 49.1947 276.833 48.704C277.419 48.2133 277.713 47.5253 277.713 46.64C277.713 45.7333 277.419 45.04 276.833 44.56C276.246 44.0693 275.398 43.824 274.289 43.824H271.313V49.44H274.289ZM284.779 54.096C283.947 54.096 283.147 53.9627 282.379 53.696C281.622 53.4293 281.035 53.0773 280.619 52.64L281.083 51.728C281.489 52.1333 282.027 52.464 282.699 52.72C283.371 52.9653 284.065 53.088 284.779 53.088C285.782 53.088 286.534 52.9067 287.035 52.544C287.537 52.1707 287.787 51.6907 287.787 51.104C287.787 50.656 287.649 50.2987 287.371 50.032C287.105 49.7653 286.774 49.5627 286.379 49.424C285.985 49.2747 285.435 49.1147 284.731 48.944C283.889 48.7307 283.217 48.528 282.715 48.336C282.214 48.1333 281.782 47.8293 281.419 47.424C281.067 47.0187 280.891 46.4693 280.891 45.776C280.891 45.2107 281.041 44.6987 281.339 44.24C281.638 43.7707 282.097 43.3973 282.715 43.12C283.334 42.8427 284.102 42.704 285.019 42.704C285.659 42.704 286.283 42.7947 286.891 42.976C287.51 43.1467 288.043 43.3867 288.491 43.696L288.091 44.64C287.622 44.3307 287.121 44.1013 286.587 43.952C286.054 43.792 285.531 43.712 285.019 43.712C284.038 43.712 283.297 43.904 282.795 44.288C282.305 44.6613 282.059 45.1467 282.059 45.744C282.059 46.192 282.193 46.5547 282.459 46.832C282.737 47.0987 283.078 47.3067 283.483 47.456C283.899 47.5947 284.454 47.7493 285.147 47.92C285.969 48.1227 286.63 48.3253 287.131 48.528C287.643 48.72 288.075 49.0187 288.427 49.424C288.779 49.8187 288.955 50.3573 288.955 51.04C288.955 51.6053 288.801 52.1227 288.491 52.592C288.193 53.0507 287.729 53.4187 287.099 53.696C286.47 53.9627 285.697 54.096 284.779 54.096Z" fill="white"/>
<path d="M123.1 492.096C122.268 492.096 121.468 491.963 120.7 491.696C119.942 491.429 119.356 491.077 118.94 490.64L119.404 489.728C119.809 490.133 120.348 490.464 121.02 490.72C121.692 490.965 122.385 491.088 123.1 491.088C124.102 491.088 124.854 490.907 125.356 490.544C125.857 490.171 126.108 489.691 126.108 489.104C126.108 488.656 125.969 488.299 125.692 488.032C125.425 487.765 125.094 487.563 124.7 487.424C124.305 487.275 123.756 487.115 123.052 486.944C122.209 486.731 121.537 486.528 121.036 486.336C120.534 486.133 120.102 485.829 119.74 485.424C119.388 485.019 119.212 484.469 119.212 483.776C119.212 483.211 119.361 482.699 119.66 482.24C119.958 481.771 120.417 481.397 121.036 481.12C121.654 480.843 122.422 480.704 123.34 480.704C123.98 480.704 124.604 480.795 125.212 480.976C125.83 481.147 126.364 481.387 126.812 481.696L126.411 482.64C125.942 482.331 125.441 482.101 124.908 481.952C124.374 481.792 123.852 481.712 123.34 481.712C122.358 481.712 121.617 481.904 121.116 482.288C120.625 482.661 120.38 483.147 120.38 483.744C120.38 484.192 120.513 484.555 120.78 484.832C121.057 485.099 121.398 485.307 121.804 485.456C122.22 485.595 122.774 485.749 123.468 485.92C124.289 486.123 124.95 486.325 125.452 486.528C125.964 486.72 126.396 487.019 126.748 487.424C127.1 487.819 127.276 488.357 127.276 489.04C127.276 489.605 127.121 490.123 126.812 490.592C126.513 491.051 126.049 491.419 125.42 491.696C124.79 491.963 124.017 492.096 123.1 492.096ZM136.879 489.008H130.639L129.295 492H128.063L133.183 480.8H134.351L139.471 492H138.223L136.879 489.008ZM136.447 488.048L133.759 482.032L131.071 488.048H136.447ZM150.684 480.8V492H149.708L142.508 482.912V492H141.324V480.8H142.3L149.516 489.888V480.8H150.684ZM157.428 492.096C156.596 492.096 155.796 491.963 155.028 491.696C154.27 491.429 153.684 491.077 153.268 490.64L153.732 489.728C154.137 490.133 154.676 490.464 155.348 490.72C156.02 490.965 156.713 491.088 157.428 491.088C158.43 491.088 159.182 490.907 159.684 490.544C160.185 490.171 160.436 489.691 160.436 489.104C160.436 488.656 160.297 488.299 160.02 488.032C159.753 487.765 159.422 487.563 159.028 487.424C158.633 487.275 158.084 487.115 157.38 486.944C156.537 486.731 155.865 486.528 155.364 486.336C154.862 486.133 154.43 485.829 154.068 485.424C153.716 485.019 153.54 484.469 153.54 483.776C153.54 483.211 153.689 482.699 153.988 482.24C154.286 481.771 154.745 481.397 155.364 481.12C155.982 480.843 156.75 480.704 157.668 480.704C158.308 480.704 158.932 480.795 159.54 480.976C160.158 481.147 160.692 481.387 161.14 481.696L160.74 482.64C160.27 482.331 159.769 482.101 159.236 481.952C158.702 481.792 158.18 481.712 157.668 481.712C156.686 481.712 155.945 481.904 155.444 482.288C154.953 482.661 154.708 483.147 154.708 483.744C154.708 484.192 154.841 484.555 155.108 484.832C155.385 485.099 155.726 485.307 156.132 485.456C156.548 485.595 157.102 485.749 157.796 485.92C158.617 486.123 159.278 486.325 159.78 486.528C160.292 486.72 160.724 487.019 161.076 487.424C161.428 487.819 161.604 488.357 161.604 489.04C161.604 489.605 161.449 490.123 161.14 490.592C160.841 491.051 160.377 491.419 159.748 491.696C159.118 491.963 158.345 492.096 157.428 492.096ZM175.427 486.224C176.163 486.384 176.728 486.704 177.123 487.184C177.528 487.653 177.731 488.261 177.731 489.008C177.731 489.968 177.374 490.709 176.659 491.232C175.955 491.744 174.91 492 173.523 492H168.371V480.8H173.203C174.451 480.8 175.416 481.051 176.099 481.552C176.792 482.053 177.139 482.763 177.139 483.68C177.139 484.299 176.984 484.827 176.675 485.264C176.376 485.691 175.96 486.011 175.427 486.224ZM169.555 481.776V485.84H173.123C174.03 485.84 174.728 485.669 175.219 485.328C175.71 484.976 175.955 484.469 175.955 483.808C175.955 483.147 175.71 482.645 175.219 482.304C174.728 481.952 174.03 481.776 173.123 481.776H169.555ZM173.507 491.024C174.51 491.024 175.267 490.853 175.779 490.512C176.291 490.171 176.547 489.637 176.547 488.912C176.547 487.515 175.534 486.816 173.507 486.816H169.555V491.024H173.507ZM180.433 480.8H181.617V492H180.433V480.8ZM190.126 492.096C189.016 492.096 188.014 491.851 187.118 491.36C186.232 490.869 185.534 490.192 185.022 489.328C184.52 488.453 184.27 487.477 184.27 486.4C184.27 485.323 184.52 484.352 185.022 483.488C185.534 482.613 186.238 481.931 187.134 481.44C188.03 480.949 189.032 480.704 190.142 480.704C190.974 480.704 191.742 480.843 192.446 481.12C193.15 481.397 193.747 481.803 194.238 482.336L193.486 483.088C192.611 482.203 191.507 481.76 190.174 481.76C189.288 481.76 188.483 481.963 187.758 482.368C187.032 482.773 186.462 483.328 186.046 484.032C185.64 484.736 185.438 485.525 185.438 486.4C185.438 487.275 185.64 488.064 186.046 488.768C186.462 489.472 187.032 490.027 187.758 490.432C188.483 490.837 189.288 491.04 190.174 491.04C191.518 491.04 192.622 490.592 193.486 489.696L194.238 490.448C193.747 490.981 193.144 491.392 192.43 491.68C191.726 491.957 190.958 492.096 190.126 492.096ZM196.762 480.8H197.946V492H196.762V480.8ZM210.641 492.096C209.532 492.096 208.529 491.851 207.633 491.36C206.748 490.869 206.049 490.192 205.537 489.328C205.036 488.453 204.785 487.477 204.785 486.4C204.785 485.323 205.036 484.352 205.537 483.488C206.049 482.613 206.753 481.931 207.649 481.44C208.545 480.949 209.548 480.704 210.657 480.704C211.489 480.704 212.257 480.843 212.961 481.12C213.665 481.397 214.262 481.803 214.753 482.336L214.001 483.088C213.126 482.203 212.022 481.76 210.689 481.76C209.804 481.76 208.998 481.963 208.273 482.368C207.548 482.773 206.977 483.328 206.561 484.032C206.156 484.736 205.953 485.525 205.953 486.4C205.953 487.275 206.156 488.064 206.561 488.768C206.977 489.472 207.548 490.027 208.273 490.432C208.998 490.837 209.804 491.04 210.689 491.04C212.033 491.04 213.137 490.592 214.001 489.696L214.753 490.448C214.262 490.981 213.66 491.392 212.945 491.68C212.241 491.957 211.473 492.096 210.641 492.096ZM221.939 492.096C220.829 492.096 219.821 491.851 218.915 491.36C218.019 490.859 217.315 490.176 216.803 489.312C216.301 488.448 216.051 487.477 216.051 486.4C216.051 485.323 216.301 484.352 216.803 483.488C217.315 482.624 218.019 481.947 218.915 481.456C219.821 480.955 220.829 480.704 221.939 480.704C223.048 480.704 224.045 480.949 224.931 481.44C225.827 481.931 226.531 482.613 227.043 483.488C227.555 484.352 227.811 485.323 227.811 486.4C227.811 487.477 227.555 488.453 227.043 489.328C226.531 490.192 225.827 490.869 224.931 491.36C224.045 491.851 223.048 492.096 221.939 492.096ZM221.939 491.04C222.824 491.04 223.624 490.843 224.339 490.448C225.053 490.043 225.613 489.488 226.019 488.784C226.424 488.069 226.627 487.275 226.627 486.4C226.627 485.525 226.424 484.736 226.019 484.032C225.613 483.317 225.053 482.763 224.339 482.368C223.624 481.963 222.824 481.76 221.939 481.76C221.053 481.76 220.248 481.963 219.523 482.368C218.808 482.763 218.243 483.317 217.827 484.032C217.421 484.736 217.219 485.525 217.219 486.4C217.219 487.275 217.421 488.069 217.827 488.784C218.243 489.488 218.808 490.043 219.523 490.448C220.248 490.843 221.053 491.04 221.939 491.04ZM234.977 492.096C233.526 492.096 232.395 491.68 231.585 490.848C230.774 490.016 230.369 488.805 230.369 487.216V480.8H231.553V487.168C231.553 488.469 231.846 489.44 232.433 490.08C233.019 490.72 233.867 491.04 234.977 491.04C236.097 491.04 236.95 490.72 237.537 490.08C238.123 489.44 238.417 488.469 238.417 487.168V480.8H239.569V487.216C239.569 488.805 239.163 490.016 238.353 490.848C237.553 491.68 236.427 492.096 234.977 492.096ZM250.785 492L248.225 488.4C247.937 488.432 247.638 488.448 247.329 488.448H244.321V492H243.137V480.8H247.329C248.758 480.8 249.878 481.141 250.689 481.824C251.499 482.507 251.905 483.445 251.905 484.64C251.905 485.515 251.681 486.256 251.233 486.864C250.795 487.461 250.166 487.893 249.345 488.16L252.081 492H250.785ZM247.297 487.44C248.406 487.44 249.254 487.195 249.841 486.704C250.427 486.213 250.72 485.525 250.72 484.64C250.72 483.733 250.427 483.04 249.841 482.56C249.254 482.069 248.406 481.824 247.297 481.824H244.321V487.44H247.297ZM254.699 480.8H255.883V492H254.699V480.8ZM267.447 490.976V492H259.527V480.8H267.207V481.824H260.711V485.808H266.503V486.816H260.711V490.976H267.447ZM277.878 492L275.318 488.4C275.03 488.432 274.732 488.448 274.422 488.448H271.414V492H270.23V480.8H274.422C275.852 480.8 276.972 481.141 277.782 481.824C278.593 482.507 278.998 483.445 278.998 484.64C278.998 485.515 278.774 486.256 278.326 486.864C277.889 487.461 277.26 487.893 276.438 488.16L279.174 492H277.878ZM274.39 487.44C275.5 487.44 276.348 487.195 276.934 486.704C277.521 486.213 277.814 485.525 277.814 484.64C277.814 483.733 277.521 483.04 276.934 482.56C276.348 482.069 275.5 481.824 274.39 481.824H271.414V487.44H274.39ZM284.881 492.096C284.049 492.096 283.249 491.963 282.481 491.696C281.723 491.429 281.137 491.077 280.721 490.64L281.185 489.728C281.59 490.133 282.129 490.464 282.801 490.72C283.473 490.965 284.166 491.088 284.881 491.088C285.883 491.088 286.635 490.907 287.137 490.544C287.638 490.171 287.889 489.691 287.889 489.104C287.889 488.656 287.75 488.299 287.473 488.032C287.206 487.765 286.875 487.563 286.481 487.424C286.086 487.275 285.537 487.115 284.833 486.944C283.99 486.731 283.318 486.528 282.817 486.336C282.315 486.133 281.883 485.829 281.521 485.424C281.169 485.019 280.993 484.469 280.993 483.776C280.993 483.211 281.142 482.699 281.441 482.24C281.739 481.771 282.198 481.397 282.817 481.12C283.435 480.843 284.203 480.704 285.121 480.704C285.761 480.704 286.385 480.795 286.993 480.976C287.611 481.147 288.145 481.387 288.593 481.696L288.193 482.64C287.723 482.331 287.222 482.101 286.689 481.952C286.155 481.792 285.633 481.712 285.121 481.712C284.139 481.712 283.398 481.904 282.897 482.288C282.406 482.661 282.161 483.147 282.161 483.744C282.161 484.192 282.294 484.555 282.561 484.832C282.838 485.099 283.179 485.307 283.585 485.456C284.001 485.595 284.555 485.749 285.249 485.92C286.07 486.123 286.731 486.325 287.233 486.528C287.745 486.72 288.177 487.019 288.529 487.424C288.881 487.819 289.057 488.357 289.057 489.04C289.057 489.605 288.902 490.123 288.593 490.592C288.294 491.051 287.83 491.419 287.201 491.696C286.571 491.963 285.798 492.096 284.881 492.096Z" fill="white"/>
<path d="M65.1358 142.629C66.0416 143.025 67.1372 143.084 68.2036 143.011C69.0509 142.952 69.9567 142.79 70.541 142.247C71.1253 141.703 71.1253 140.719 70.3511 140.469C69.8982 140.322 69.3577 140.469 68.8464 140.513C67.9553 140.572 67.1226 140.264 66.2607 140.117C63.5727 139.632 62.8423 141.63 65.1358 142.629Z" fill="white"/>
<path d="M59.7598 167C54.0186 167 49.3439 162.299 49.3439 156.526C49.3439 150.752 54.0186 146.051 59.7598 146.051C65.501 146.051 70.1757 150.752 70.1757 156.526C70.1757 162.299 65.501 167 59.7598 167ZM59.7598 146.947C54.5007 146.947 50.2204 151.252 50.2204 156.54C50.2204 161.829 54.5007 166.133 59.7598 166.133C65.0189 166.133 69.2992 161.829 69.2992 156.54C69.2992 151.252 65.0189 146.947 59.7598 146.947Z" fill="white"/>
<path d="M89.0794 167C83.3382 167 78.6635 162.299 78.6635 156.526C78.6635 150.752 83.3382 146.051 89.0794 146.051C94.8206 146.051 99.4953 150.752 99.4953 156.526C99.4953 162.299 94.8206 167 89.0794 167ZM89.0794 146.947C83.8203 146.947 79.54 151.252 79.54 156.54C79.54 161.829 83.8203 166.133 89.0794 166.133C94.3385 166.133 98.6188 161.829 98.6188 156.54C98.6188 151.252 94.3385 146.947 89.0794 146.947Z" fill="white"/>
<path d="M89.0793 156.966C88.9186 156.966 88.7725 156.878 88.6849 156.731L79.9636 139.646C79.8905 139.514 79.9051 139.353 79.9782 139.22C80.0512 139.088 80.1973 139.015 80.358 139.015H86.4352C86.5666 139.015 86.6835 139.073 86.7566 139.162L87.1218 139.573C87.9545 140.498 87.9691 141.909 87.151 142.864L86.7566 143.319C86.6689 143.422 86.552 143.466 86.4206 143.466H84.7113C84.463 143.466 84.2731 143.275 84.2731 143.025C84.2731 142.775 84.463 142.584 84.7113 142.584H86.2306L86.4936 142.276C87.0195 141.674 87.0049 140.763 86.479 140.161L86.2306 139.881H81.0738L89.4591 156.335C89.576 156.555 89.4884 156.819 89.2692 156.922C89.2108 156.952 89.1524 156.966 89.0793 156.966Z" fill="white"/>
<path d="M73.9887 156.967H59.7599C59.5992 156.967 59.4531 156.878 59.3655 156.732C59.2925 156.585 59.3071 156.408 59.3947 156.276L68.0576 143.745C68.1453 143.628 68.2767 143.554 68.4228 143.554H82.1403C82.301 143.554 82.4471 143.642 82.5201 143.789C82.5932 143.936 82.5932 144.098 82.5055 144.245L74.3539 156.776C74.2663 156.893 74.1348 156.967 73.9887 156.967ZM60.6072 156.085H73.755L81.3514 144.436H68.6712L60.6072 156.085Z" fill="white"/>
<path d="M48.4383 155.718C48.1899 155.718 48 155.527 48 155.277C48 149.504 52.6748 144.803 58.4159 144.803C58.6643 144.803 58.8542 144.994 58.8542 145.243C58.8542 145.493 58.6643 145.684 58.4159 145.684C53.1568 145.684 48.8765 149.988 48.8765 155.277C48.8765 155.527 48.6866 155.718 48.4383 155.718Z" fill="white"/>
<path d="M59.76 156.966C59.5117 156.966 59.3218 156.775 59.3218 156.526V148.931C59.3218 148.681 59.5117 148.49 59.76 148.49C60.0084 148.49 60.1983 148.681 60.1983 148.931V156.526C60.1983 156.775 60.0084 156.966 59.76 156.966Z" fill="white"/>
<path d="M89.0794 156.966C88.831 156.966 88.6411 156.775 88.6411 156.526V148.931C88.6411 148.681 88.831 148.49 89.0794 148.49C89.3277 148.49 89.5176 148.681 89.5176 148.931V156.526C89.5176 156.775 89.3131 156.966 89.0794 156.966Z" fill="white"/>
<circle cx="129" cy="155" r="9" fill="white"/>
<circle cx="339" cy="155" r="9" fill="white"/>
<line x1="129" y1="154" x2="339" y2="154" stroke="white" stroke-width="2"/>
<circle cx="129" cy="370" r="9" fill="white"/>
<circle cx="339" cy="370" r="9" fill="white"/>
<path d="M128 368.812L152.154 378.045C175.661 387.03 202.026 384.433 223.327 371.034V371.034C242.76 358.81 266.508 355.522 288.531 362.006L311.645 368.812C332.834 375.813 347.792 414.623 359.426 397.819C373.968 376.814 386.432 339.805 362.749 343.806C339.067 347.807 310.814 366.311 327.849 378.814C344.884 391.318 348.207 398.319 356.933 385.316C365.658 372.313 372.306 350.808 356.933 352.308C341.56 353.808 353.609 333.804 340.729 338.805C327.849 343.806 308.321 381.315 327.849 389.317C343.471 395.718 351.808 388.317 353.609 378.814C356.517 370.479 358.013 354.708 340.729 358.309C319.123 362.81 329.095 397.819 351.116 395.318C373.137 392.818 376.876 372.313 369.813 365.311C362.749 358.309 350.7 358.809 344.468 368.812" stroke="white" stroke-width="2"/>
<path d="M82.3717 382.207V382.207C82.3717 381.329 82.6265 380.47 83.1041 379.739C83.5817 379.008 84.261 378.438 85.0563 378.101C85.8517 377.765 86.727 377.676 87.5716 377.848C88.4162 378.02 89.1915 378.444 89.7997 379.066C90.4079 379.687 90.8217 380.479 90.9893 381.341C91.1569 382.202 91.0709 383.095 90.742 383.907C90.4132 384.718 89.856 385.413 89.1405 385.901C88.425 386.39 87.5834 386.651 86.7222 386.651V386.501L86.722 386.651C85.5678 386.649 84.4621 386.179 83.6469 385.346C82.8319 384.513 82.3737 383.384 82.3717 382.207ZM89.7859 377.514C88.8788 376.894 87.8127 376.564 86.7223 376.564C85.2609 376.566 83.8591 377.16 82.8247 378.218C81.7901 379.275 81.2075 380.71 81.2056 382.207C81.2056 383.324 81.5296 384.415 82.1361 385.343C82.7427 386.271 83.6045 386.994 84.6122 387.421C85.6198 387.848 86.7284 387.959 87.7979 387.742C88.8674 387.524 89.8502 386.987 90.622 386.198C91.3937 385.409 91.9197 384.404 92.1328 383.308C92.3459 382.213 92.2365 381.078 91.8185 380.046C91.4006 379.015 90.693 378.134 89.7859 377.514Z" fill="white" stroke="#153A7E" stroke-width="0.3"/>
<path d="M56.0495 382.207V382.207C56.0495 381.325 56.3272 380.463 56.8463 379.731C57.3653 379 58.1019 378.431 58.9616 378.097C59.8214 377.763 60.7665 377.677 61.6776 377.85C62.5887 378.024 63.4258 378.449 64.0823 379.073C64.739 379.697 65.1856 380.492 65.3639 381.357C65.5423 382.223 65.444 383.12 65.082 383.932C64.7201 384.745 64.1113 385.436 63.3343 385.92C62.5573 386.403 61.6465 386.657 60.7173 386.651L60.7183 386.501L60.717 386.651C59.4795 386.641 58.2945 386.171 57.42 385.34C56.5452 384.508 56.0516 383.383 56.0495 382.207ZM64.058 377.503C63.0688 376.885 61.9067 376.558 60.7191 376.564C59.134 376.574 57.6189 377.174 56.5035 378.232C55.3883 379.29 54.7631 380.719 54.7611 382.207C54.7612 383.322 55.112 384.413 55.7703 385.342C56.4288 386.27 57.3654 386.995 58.4626 387.422C59.5598 387.849 60.7672 387.96 61.9314 387.739C63.0957 387.518 64.1631 386.977 64.9989 386.184C65.8346 385.391 66.401 384.383 66.6279 383.288C66.8548 382.193 66.7322 381.06 66.2753 380.03C65.8184 379 65.0472 378.12 64.058 377.503Z" fill="white" stroke="#153A7E" stroke-width="0.3"/>
<path d="M79.3509 381.391H68.5935C68.4448 381.391 68.2926 381.466 68.1738 381.617C68.0544 381.769 67.9833 381.981 67.9833 382.207C67.9833 382.433 68.0544 382.645 68.1738 382.797C68.2926 382.948 68.4448 383.022 68.5935 383.022H79.3509C79.4995 383.022 79.6518 382.948 79.7706 382.797C79.89 382.645 79.9611 382.433 79.9611 382.207C79.9611 381.981 79.89 381.769 79.7706 381.617C79.6518 381.466 79.4995 381.391 79.3509 381.391Z" fill="white" stroke="#153A7E" stroke-width="0.3"/>
<mask id="path-23-inside-1" fill="white">
<path d="M52.7493 363.557C53.3082 362.505 54.1196 361.624 55.1033 361C56.0871 360.376 57.2092 360.032 58.3591 360H81.6992C82.1391 359.998 82.5743 360.096 82.9743 360.287C83.3744 360.479 83.7298 360.759 84.0158 361.109L90.2312 367.637C91.0948 368.362 92.1538 368.786 93.2594 368.849H94.5464C95.3785 368.843 96.1914 369.11 96.8705 369.614C97.5496 370.117 98.0607 370.83 98.3317 371.653C98.7993 373.189 99.0243 374.795 98.9979 376.407C98.9979 376.407 98.9979 376.407 98.9979 376.407C98.9979 377.547 98.9222 378.601 98.8541 379.465C98.6421 382.182 96.651 382.871 95.1823 383.045C95.0902 383.081 94.9929 383.1 94.8947 383.101H93.9408C93.74 383.101 93.5474 383.017 93.4055 382.869C93.2635 382.72 93.1837 382.519 93.1837 382.309C93.1837 382.098 93.2635 381.897 93.4055 381.748C93.5474 381.6 93.74 381.516 93.9408 381.516C96.2119 381.516 97.1961 380.883 97.3172 379.33C97.3702 378.68 97.4232 377.944 97.4459 377.159H96.4315C95.8134 377.123 95.232 376.841 94.8066 376.37C94.3813 375.899 94.1443 375.276 94.1443 374.628C94.1443 373.98 94.3813 373.357 94.8066 372.886C95.232 372.416 95.8134 372.133 96.4315 372.097H96.8933C96.7219 371.59 96.4039 371.151 95.9833 370.841C95.5628 370.532 95.0606 370.367 94.5464 370.37H93.2746C93.0948 370.368 92.9153 370.355 92.7371 370.33H50.7885C50.5158 370.909 50.2831 371.507 50.092 372.121H50.4403C51.0348 372.121 51.6057 372.365 52.0304 372.8C52.455 373.235 52.6996 373.828 52.7114 374.45V374.806C52.6996 375.428 52.455 376.021 52.0304 376.456C51.6057 376.892 51.0348 377.136 50.4403 377.135H49.6378C49.7975 378.29 50.1814 379.398 50.7658 380.391C50.9802 380.754 51.2786 381.053 51.6334 381.262C51.9881 381.472 52.3876 381.583 52.7947 381.588H53.2717C53.4724 381.588 53.665 381.671 53.807 381.82C53.949 381.968 54.0287 382.17 54.0287 382.38C54.0287 382.59 53.949 382.791 53.807 382.94C53.665 383.089 53.4724 383.172 53.2717 383.172H52.7947C52.1383 383.181 51.4904 383.016 50.9109 382.694C50.3313 382.371 49.8388 381.901 49.4788 381.326C48.7217 380.098 46.5111 375.622 49.5848 369.332L52.7493 363.557ZM96.4542 373.753C96.2286 373.774 96.0188 373.883 95.866 374.059C95.7133 374.234 95.6286 374.462 95.6286 374.699C95.6286 374.937 95.7133 375.165 95.866 375.34C96.0188 375.515 96.2286 375.625 96.4542 375.646H97.4687C97.4394 375.011 97.3737 374.379 97.2718 373.753H96.4542ZM58.3591 361.584C57.4767 361.615 56.6172 361.886 55.8657 362.371C55.1142 362.856 54.4967 363.538 54.0741 364.349L51.6213 368.817H57.5263L59.6309 361.584H58.3591ZM61.2208 361.584L59.1161 368.817H73.5002L72.8113 361.584H61.2208ZM89.1713 368.714L82.9029 362.131C82.757 361.947 82.5741 361.799 82.3674 361.698C82.1606 361.597 81.935 361.544 81.7067 361.545H74.333L75.0143 368.817H89.2319L89.1713 368.714ZM49.5394 375.583H50.4251C50.6183 375.583 50.8043 375.506 50.945 375.368C51.0857 375.229 51.1706 375.04 51.1822 374.838V374.482C51.1706 374.28 51.0857 374.09 50.945 373.952C50.8043 373.813 50.6183 373.737 50.4251 373.737H49.6681C49.5598 374.348 49.5041 374.969 49.5015 375.591L49.5394 375.583Z"/>
</mask>
<path d="M52.7493 363.557C53.3082 362.505 54.1196 361.624 55.1033 361C56.0871 360.376 57.2092 360.032 58.3591 360H81.6992C82.1391 359.998 82.5743 360.096 82.9743 360.287C83.3744 360.479 83.7298 360.759 84.0158 361.109L90.2312 367.637C91.0948 368.362 92.1538 368.786 93.2594 368.849H94.5464C95.3785 368.843 96.1914 369.11 96.8705 369.614C97.5496 370.117 98.0607 370.83 98.3317 371.653C98.7993 373.189 99.0243 374.795 98.9979 376.407C98.9979 376.407 98.9979 376.407 98.9979 376.407C98.9979 377.547 98.9222 378.601 98.8541 379.465C98.6421 382.182 96.651 382.871 95.1823 383.045C95.0902 383.081 94.9929 383.1 94.8947 383.101H93.9408C93.74 383.101 93.5474 383.017 93.4055 382.869C93.2635 382.72 93.1837 382.519 93.1837 382.309C93.1837 382.098 93.2635 381.897 93.4055 381.748C93.5474 381.6 93.74 381.516 93.9408 381.516C96.2119 381.516 97.1961 380.883 97.3172 379.33C97.3702 378.68 97.4232 377.944 97.4459 377.159H96.4315C95.8134 377.123 95.232 376.841 94.8066 376.37C94.3813 375.899 94.1443 375.276 94.1443 374.628C94.1443 373.98 94.3813 373.357 94.8066 372.886C95.232 372.416 95.8134 372.133 96.4315 372.097H96.8933C96.7219 371.59 96.4039 371.151 95.9833 370.841C95.5628 370.532 95.0606 370.367 94.5464 370.37H93.2746C93.0948 370.368 92.9153 370.355 92.7371 370.33H50.7885C50.5158 370.909 50.2831 371.507 50.092 372.121H50.4403C51.0348 372.121 51.6057 372.365 52.0304 372.8C52.455 373.235 52.6996 373.828 52.7114 374.45V374.806C52.6996 375.428 52.455 376.021 52.0304 376.456C51.6057 376.892 51.0348 377.136 50.4403 377.135H49.6378C49.7975 378.29 50.1814 379.398 50.7658 380.391C50.9802 380.754 51.2786 381.053 51.6334 381.262C51.9881 381.472 52.3876 381.583 52.7947 381.588H53.2717C53.4724 381.588 53.665 381.671 53.807 381.82C53.949 381.968 54.0287 382.17 54.0287 382.38C54.0287 382.59 53.949 382.791 53.807 382.94C53.665 383.089 53.4724 383.172 53.2717 383.172H52.7947C52.1383 383.181 51.4904 383.016 50.9109 382.694C50.3313 382.371 49.8388 381.901 49.4788 381.326C48.7217 380.098 46.5111 375.622 49.5848 369.332L52.7493 363.557ZM96.4542 373.753C96.2286 373.774 96.0188 373.883 95.866 374.059C95.7133 374.234 95.6286 374.462 95.6286 374.699C95.6286 374.937 95.7133 375.165 95.866 375.34C96.0188 375.515 96.2286 375.625 96.4542 375.646H97.4687C97.4394 375.011 97.3737 374.379 97.2718 373.753H96.4542ZM58.3591 361.584C57.4767 361.615 56.6172 361.886 55.8657 362.371C55.1142 362.856 54.4967 363.538 54.0741 364.349L51.6213 368.817H57.5263L59.6309 361.584H58.3591ZM61.2208 361.584L59.1161 368.817H73.5002L72.8113 361.584H61.2208ZM89.1713 368.714L82.9029 362.131C82.757 361.947 82.5741 361.799 82.3674 361.698C82.1606 361.597 81.935 361.544 81.7067 361.545H74.333L75.0143 368.817H89.2319L89.1713 368.714ZM49.5394 375.583H50.4251C50.6183 375.583 50.8043 375.506 50.945 375.368C51.0857 375.229 51.1706 375.04 51.1822 374.838V374.482C51.1706 374.28 51.0857 374.09 50.945 373.952C50.8043 373.813 50.6183 373.737 50.4251 373.737H49.6681C49.5598 374.348 49.5041 374.969 49.5015 375.591L49.5394 375.583Z" fill="white"/>
<path d="M52.7493 363.557L53.0142 363.698L53.0124 363.701L52.7493 363.557ZM58.3591 360L58.3509 359.7H58.3591V360ZM81.6992 360L81.7007 360.3H81.6992V360ZM84.0158 361.109L83.7985 361.316L83.7907 361.308L83.7835 361.299L84.0158 361.109ZM90.2312 367.637L90.0383 367.867L90.0255 367.856L90.0139 367.844L90.2312 367.637ZM93.2594 368.849V369.149H93.2509L93.2423 369.149L93.2594 368.849ZM94.5464 368.849L94.5486 369.149H94.5464V368.849ZM98.3317 371.653L98.6167 371.56L98.6187 371.566L98.3317 371.653ZM98.9979 376.407L99.2979 376.412L99.2973 376.446L99.2888 376.48L98.9979 376.407ZM98.9979 376.407L98.707 376.333L99.2979 376.407H98.9979ZM98.8541 379.465L98.555 379.441L98.555 379.441L98.8541 379.465ZM95.1823 383.045L95.0737 382.766L95.1092 382.752L95.147 382.747L95.1823 383.045ZM94.8947 383.101L94.8974 383.401H94.8947V383.101ZM97.3172 379.33L97.0182 379.307L97.0182 379.305L97.3172 379.33ZM97.4459 377.159V376.859H97.7548L97.7458 377.168L97.4459 377.159ZM96.4315 377.159V377.459H96.4227L96.414 377.459L96.4315 377.159ZM96.4315 372.097L96.414 371.798L96.4227 371.797H96.4315V372.097ZM96.8933 372.097L97.1775 372.001L97.3113 372.397H96.8933V372.097ZM94.5464 370.37L94.5481 370.67H94.5464V370.37ZM93.2746 370.37V370.67L93.2709 370.67L93.2746 370.37ZM92.7371 370.33V370.03H92.7573L92.7774 370.033L92.7371 370.33ZM50.7885 370.33L50.5171 370.203L50.5982 370.03H50.7885V370.33ZM50.092 372.121V372.421H49.6844L49.8056 372.032L50.092 372.121ZM50.4403 372.121L50.4403 372.421H50.4403V372.121ZM52.7114 374.45L53.0114 374.444V374.45H52.7114ZM52.7114 374.806H53.0115L53.0114 374.812L52.7114 374.806ZM50.4403 377.135L50.4403 376.835L50.4403 376.835L50.4403 377.135ZM49.6378 377.135L49.3406 377.177L49.2934 376.835H49.6378V377.135ZM50.7658 380.391L50.5076 380.544L50.5072 380.544L50.7658 380.391ZM52.7947 381.588L52.7947 381.888L52.7916 381.888L52.7947 381.588ZM52.7947 383.172L52.7908 382.872H52.7947V383.172ZM49.4788 381.326L49.2246 381.486L49.2234 381.484L49.4788 381.326ZM49.5848 369.332L49.315 369.2L49.3217 369.188L49.5848 369.332ZM96.4542 373.753L96.4256 373.454L96.4399 373.453H96.4542V373.753ZM96.4542 375.646V375.946H96.4399L96.4256 375.945L96.4542 375.646ZM97.4687 375.646L97.7683 375.632L97.7828 375.946H97.4687V375.646ZM97.2718 373.753V373.453H97.527L97.5679 373.705L97.2718 373.753ZM58.3591 361.584L58.3486 361.284H58.3591V361.584ZM54.0741 364.349L54.3403 364.488L54.3371 364.494L54.0741 364.349ZM51.6213 368.817V369.117H51.1143L51.3583 368.673L51.6213 368.817ZM57.5263 368.817L57.8144 368.901L57.7515 369.117H57.5263V368.817ZM59.6309 361.584V361.284H60.0307L59.919 361.668L59.6309 361.584ZM61.2208 361.584L60.9327 361.501L60.9956 361.284H61.2208V361.584ZM59.1161 368.817V369.117H58.7164L58.8281 368.733L59.1161 368.817ZM73.5002 368.817L73.7989 368.789L73.8302 369.117H73.5002V368.817ZM72.8113 361.584V361.284H73.0841L73.11 361.556L72.8113 361.584ZM89.1713 368.714L89.3886 368.507L89.4124 368.532L89.4299 368.562L89.1713 368.714ZM82.9029 362.131L82.6856 362.338L82.6763 362.328L82.6679 362.318L82.9029 362.131ZM81.7067 361.545L81.7072 361.845H81.7067V361.545ZM74.333 361.545L74.0343 361.573L74.0036 361.245H74.333V361.545ZM75.0143 368.817V369.117H74.7411L74.7157 368.845L75.0143 368.817ZM89.2319 368.817L89.4905 368.665L89.7563 369.117H89.2319V368.817ZM49.5394 375.583L49.4779 375.289L49.5083 375.283H49.5394V375.583ZM50.4251 375.583L50.4251 375.283L50.4257 375.283L50.4251 375.583ZM51.1822 374.838H51.4822V374.847L51.4817 374.855L51.1822 374.838ZM51.1822 374.482L51.4817 374.464L51.4822 374.473V374.482H51.1822ZM50.4251 373.737L50.4257 374.037H50.4251V373.737ZM49.6681 373.737L49.3727 373.685L49.4165 373.437H49.6681V373.737ZM49.5015 375.591L49.563 375.884L49.2 375.96L49.2015 375.589L49.5015 375.591ZM52.4844 363.416C53.0671 362.319 53.914 361.399 54.9427 360.747L55.264 361.253C54.3252 361.849 53.5493 362.691 53.0142 363.698L52.4844 363.416ZM54.9427 360.747C55.9715 360.094 57.1462 359.733 58.3509 359.7L58.3673 360.3C57.2722 360.33 56.2027 360.658 55.264 361.253L54.9427 360.747ZM58.3591 359.7H81.6992V360.3H58.3591V359.7ZM81.6976 359.7C82.1833 359.697 82.6632 359.806 83.1039 360.017L82.8448 360.558C82.4853 360.386 82.0949 360.298 81.7007 360.3L81.6976 359.7ZM83.1039 360.017C83.5445 360.228 83.9347 360.536 84.248 360.919L83.7835 361.299C83.5249 360.983 83.2043 360.73 82.8448 360.558L83.1039 360.017ZM84.233 360.902L90.4485 367.43L90.0139 367.844L83.7985 361.316L84.233 360.902ZM90.4241 367.407C91.2391 368.092 92.2367 368.49 93.2765 368.549L93.2423 369.149C92.0709 369.082 90.9505 368.633 90.0383 367.867L90.4241 367.407ZM93.2594 368.549H94.5464V369.149H93.2594V368.549ZM94.5443 368.549C95.4425 368.543 96.3186 368.831 97.0491 369.372L96.6919 369.855C96.0642 369.39 95.3145 369.143 94.5486 369.149L94.5443 368.549ZM97.0491 369.372C97.7794 369.914 98.3268 370.679 98.6167 371.56L98.0467 371.747C97.7946 370.981 97.3199 370.32 96.6919 369.855L97.0491 369.372ZM98.6187 371.566C99.0954 373.132 99.3248 374.769 99.2979 376.412L98.698 376.402C98.7239 374.821 98.5032 373.247 98.0447 371.741L98.6187 371.566ZM98.9979 376.707C98.9979 376.707 98.9979 376.707 98.9979 376.707C98.9979 376.707 98.9979 376.707 98.9979 376.707C98.9979 376.707 98.9979 376.707 98.9979 376.707C98.9979 376.707 98.9979 376.707 98.9979 376.707C98.9979 376.707 98.9979 376.707 98.9979 376.707C98.9979 376.707 98.9979 376.707 98.9979 376.707C98.9979 376.707 98.9979 376.707 98.9979 376.707C98.9979 376.707 98.9979 376.707 98.9979 376.707C98.9979 376.707 98.9979 376.707 98.9979 376.707C98.9979 376.707 98.9979 376.707 98.9979 376.707C98.9979 376.707 98.9979 376.707 98.9979 376.707C98.9979 376.707 98.9979 376.707 98.9979 376.707C98.9979 376.707 98.9979 376.707 98.9979 376.707C98.9979 376.707 98.9979 376.707 98.9979 376.707C98.9979 376.707 98.9979 376.707 98.9979 376.707C98.9979 376.707 98.9979 376.707 98.9979 376.707C98.9979 376.707 98.9979 376.707 98.9979 376.707C98.9979 376.707 98.9979 376.707 98.9979 376.707C98.9979 376.707 98.9979 376.707 98.9979 376.707C98.9979 376.707 98.9979 376.707 98.9979 376.707C98.9979 376.707 98.9979 376.707 98.9979 376.707C98.9979 376.707 98.9979 376.707 98.9979 376.707C98.9979 376.707 98.9979 376.707 98.9979 376.707C98.9979 376.707 98.9979 376.707 98.9979 376.707C98.9979 376.707 98.9979 376.707 98.9979 376.707C98.9979 376.707 98.9979 376.707 98.9979 376.707C98.9979 376.707 98.9979 376.707 98.9979 376.707C98.9979 376.707 98.9979 376.707 98.9979 376.707C98.9979 376.707 98.9979 376.707 98.9979 376.707C98.9979 376.707 98.9979 376.707 98.9979 376.707C98.9979 376.707 98.9979 376.707 98.9979 376.707C98.9979 376.707 98.9979 376.707 98.9979 376.707C98.9979 376.707 98.9979 376.707 98.9979 376.707C98.9979 376.707 98.9979 376.707 98.9979 376.707C98.9979 376.707 98.9979 376.707 98.9979 376.707C98.9979 376.707 98.9979 376.707 98.9979 376.707C98.9979 376.707 98.9979 376.707 98.9979 376.707C98.9979 376.707 98.9979 376.707 98.9979 376.707C98.9979 376.707 98.9979 376.707 98.9979 376.707C98.9979 376.707 98.9979 376.707 98.9979 376.707C98.9979 376.707 98.9979 376.707 98.9979 376.707C98.9979 376.707 98.9979 376.707 98.9979 376.707C99.2099 376.619 99.2979 376.407 99.2979 376.407C98.9979 376.707 98.9979 376.707 98.9979 376.707C98.9979 376.707 98.9979 376.707 98.9979 376.707C98.9979 376.707 98.9979 376.707 98.9979 376.707C98.9979 376.707 98.9979 376.707 98.9979 376.707C98.9979 376.707 98.9979 376.707 98.9979 376.707C98.9979 376.707 98.9979 376.707 98.9979 376.707C98.9979 376.707 98.9979 376.707 98.9979 376.707C98.9979 376.707 98.9979 376.707 98.9979 376.707C98.9979 376.707 98.9979 376.707 98.9979 376.707C98.9979 376.707 98.9979 376.707 98.9979 376.707C98.9979 376.707 98.9979 376.707 98.9979 376.707C98.9979 376.707 98.9979 376.707 98.9979 376.707C98.9979 376.707 98.9979 376.707 98.9979 376.707C98.9979 376.707 98.9979 376.707 98.9979 376.707C98.9979 376.707 98.9979 376.707 98.9979 376.707C98.9979 376.707 98.9979 376.707 98.9979 376.707C98.9979 376.707 98.9979 376.707 98.9979 376.707C98.9979 376.707 98.9979 376.707 98.9979 376.707C98.9979 376.707 98.9979 376.707 98.9979 376.707C98.9979 376.707 98.9979 376.707 98.9979 376.707C98.9979 376.707 98.9979 376.707 98.9979 376.707C98.9979 376.707 98.9979 376.707 98.9979 376.707C98.9979 376.707 98.9979 376.707 98.9979 376.707C98.9979 376.707 98.9979 376.707 98.9979 376.707C98.9979 376.707 98.9979 376.707 98.9979 376.707C98.9979 376.707 98.9979 376.707 98.9979 376.707C98.9979 376.707 98.9979 376.707 98.9979 376.707C98.9979 376.707 98.9979 376.707 98.9979 376.707C98.9979 376.707 98.9979 376.707 98.9979 376.707C98.9979 376.707 98.9979 376.707 98.9979 376.707C98.9979 376.707 98.9979 376.707 98.9979 376.707C98.9979 376.707 98.9979 376.707 98.9979 376.707C98.9979 376.707 98.9979 376.707 98.9979 376.707C98.9979 376.707 98.9979 376.707 98.9979 376.707C98.9979 376.707 98.9979 376.707 98.9979 376.707C98.9979 376.707 98.9979 376.707 98.9979 376.707C98.9979 376.707 98.9979 376.707 98.9979 376.707C98.9979 376.707 98.9979 376.707 98.9979 376.707C98.9979 376.707 98.9979 376.707 98.9979 376.707C98.9979 376.707 98.9979 376.707 98.9979 376.707C98.9979 376.707 98.9979 376.707 98.9979 376.707C98.9979 376.707 98.9979 376.707 98.9979 376.707C98.9979 376.707 98.9979 376.707 98.9979 376.707C98.9979 376.707 98.9979 376.707 98.9979 376.707C98.9979 376.707 98.9979 376.707 98.9979 376.707C98.9979 376.707 98.9979 376.707 98.9979 376.707C98.9979 376.707 98.9979 376.707 98.9979 376.707C98.9979 376.707 98.9979 376.707 98.9979 376.707C98.9979 376.707 98.9979 376.707 98.9979 376.707C98.9979 376.707 98.9979 376.707 98.9979 376.707C98.9979 376.707 98.9979 376.707 98.9979 376.707C98.9979 376.707 98.9979 376.707 98.9979 376.707C98.9979 376.707 98.9979 376.707 98.9979 376.707C98.9979 376.707 98.9979 376.707 98.9979 376.707C98.9979 376.707 98.9979 376.707 98.9979 376.707C98.9979 376.707 98.9979 376.707 98.9979 376.707C98.9979 376.707 98.9979 376.707 98.9979 376.707C98.9979 376.707 98.9979 376.707 98.9979 376.707C98.9979 376.707 98.9979 376.707 98.9979 376.707C98.9979 376.707 98.9979 376.707 98.9979 376.707C98.9979 376.707 98.9979 376.707 98.9979 376.707C98.9979 376.707 98.9979 376.707 98.9979 376.707C98.9979 376.707 98.9979 376.707 98.9979 376.707C98.9979 376.707 98.9979 376.707 98.9979 376.707C98.9979 376.707 98.9979 376.707 98.9979 376.707C98.9979 376.707 98.9979 376.707 98.9979 376.707C98.9979 376.707 98.9979 376.707 98.9979 376.707C98.9979 376.707 98.9979 376.707 98.9979 376.707C98.9979 376.707 98.9979 376.707 98.9979 376.707C98.9979 376.707 98.9979 376.707 98.9979 376.707C98.9979 376.707 98.9979 376.707 98.9979 376.707C98.9979 376.707 98.9979 376.707 98.9979 376.707C98.9979 376.707 98.9979 376.707 98.9979 376.707C98.9979 376.707 98.9979 376.707 98.9979 376.707C98.9979 376.707 98.9979 376.707 98.9979 376.707C98.9979 376.707 98.9979 376.707 98.9979 376.707C98.9979 376.707 98.9979 376.707 98.9979 376.707C98.9979 376.707 98.9979 376.707 98.9979 376.707C98.9979 376.707 98.9979 376.707 98.9979 376.707C98.9979 376.707 98.9979 376.707 98.9979 376.707C98.9979 376.707 98.9979 376.707 98.9979 376.707C98.9979 376.707 98.9979 376.707 98.9979 376.707C98.9979 376.707 98.9979 376.707 98.9979 376.707C98.9979 376.707 98.9979 376.707 98.9979 376.707C98.9979 376.707 98.9979 376.707 98.9979 376.707C98.9979 376.707 98.9979 376.707 98.9979 376.707C98.9979 376.707 98.9979 376.707 98.9979 376.707C98.9979 376.707 98.9979 376.707 98.9979 376.707C98.9979 376.707 98.9979 376.707 98.9979 376.707C98.9979 376.707 98.9979 376.707 98.9979 376.707C98.9979 376.707 98.9979 376.707 98.9979 376.707C98.9979 376.707 98.9979 376.707 98.9979 376.707C98.9979 376.707 98.9979 376.707 98.9979 376.707C98.9979 376.707 98.9979 376.707 98.9979 376.707C98.9979 376.707 98.9979 376.707 98.9979 376.707C98.9979 376.707 98.9979 376.707 98.9979 376.707C98.9979 376.707 98.9979 376.707 98.9979 376.707C98.9979 376.707 98.9979 376.707 98.9979 376.707C98.9979 376.707 98.9979 376.707 98.9979 376.707C98.9979 376.707 98.9979 376.707 98.9979 376.707C98.9979 376.707 98.9979 376.707 98.9979 376.707C98.9979 376.707 98.9979 376.707 98.9979 376.707C98.9979 376.707 98.9979 376.707 98.9979 376.707C98.9979 376.707 98.9979 376.707 98.9979 376.707C98.9979 376.707 98.9979 376.707 98.9979 376.707C98.9979 376.707 98.9979 376.707 98.9979 376.707C98.9979 376.707 98.9979 376.707 98.9979 376.707C98.9979 376.707 98.9979 376.707 98.9979 376.707C98.9979 376.707 98.9979 376.707 98.9979 376.707C98.9979 376.707 98.9979 376.707 98.9979 376.707C98.9979 376.707 98.9979 376.707 98.9979 376.707C98.9979 376.707 98.9979 376.707 98.9979 376.707C98.9979 376.707 98.9979 376.707 98.9979 376.707C98.9979 376.707 98.9979 376.707 98.9979 376.707C98.9979 376.707 98.9979 376.707 98.9979 376.707C98.9979 376.707 98.9979 376.407 98.9979 376.407C98.9979 376.707 98.9979 376.707 98.9979 376.407C98.9979 376.707 98.9979 376.707 98.9979 376.707C98.9979 376.407 98.9979 376.707 98.9979 376.707C98.9979 376.707 98.9979 376.407 98.9979 376.407C98.9979 376.407 98.9979 376.707 98.9979 376.707C98.9979 376.707 98.9979 376.407 98.9979 376.407C98.9979 376.407 98.9979 376.707 98.9979 376.707C98.9979 376.707 98.9979 376.407 98.9979 376.407C98.9979 376.107 98.9979 376.107 98.9979 376.107C98.9979 376.407 98.9979 376.407 98.9979 376.407C98.9979 376.107 98.9979 376.107 98.9979 376.407C98.9979 376.107 98.9979 376.107 98.9979 376.407C98.9979 376.107 98.9979 376.107 98.9979 376.107C98.9979 376.407 98.9979 376.107 98.9979 376.107C98.9979 376.107 98.9979 376.407 98.9979 376.407C98.9979 376.107 98.9979 376.107 98.9979 376.407C98.9979 376.107 98.9979 376.107 98.9979 376.107C98.9979 376.407 98.9979 376.107 98.9979 376.107C98.9979 376.107 98.9979 376.107 98.9979 376.107C98.9979 376.107 98.9979 376.107 98.9979 376.107C98.9979 376.107 98.9979 376.107 98.9979 376.107C98.9979 376.107 98.9979 376.107 98.9979 376.107C98.9979 376.107 98.9979 376.107 98.9979 376.107C98.9979 376.107 98.9979 376.107 98.9979 376.107C98.9979 376.107 98.9979 376.107 98.9979 376.107C98.9979 376.107 98.9979 376.107 98.9979 376.107C98.9979 376.107 98.9979 376.107 98.9979 376.107C98.9979 376.107 98.9979 376.107 98.9979 376.107C98.9979 376.107 98.9979 376.107 98.9979 376.107C98.9979 376.107 98.9979 376.107 98.9979 376.107C98.9979 376.107 98.9979 376.107 98.9979 376.107C98.9979 376.107 98.9979 376.107 98.9979 376.107C98.9979 376.107 98.9979 376.107 98.9979 376.107C98.9979 376.107 98.9979 376.107 98.9979 376.107C98.9979 376.107 98.9979 376.107 98.9979 376.107C98.9979 376.107 98.9979 376.107 98.9979 376.107C98.9979 376.107 98.9979 376.107 98.9979 376.107C98.9979 376.107 98.9979 376.107 98.9979 376.107C98.9979 376.107 98.9979 376.107 98.9979 376.107C98.9979 376.107 98.9979 376.107 98.9979 376.107C98.9979 376.107 98.9979 376.107 98.9979 376.107C98.9979 376.107 98.9979 376.107 98.9979 376.107C98.9979 376.107 98.9979 376.107 98.9979 376.107C98.9979 376.107 98.9979 376.107 98.9979 376.107C98.9979 376.107 98.9979 376.107 98.9979 376.107C98.9979 376.107 98.9979 376.107 98.9979 376.107C98.9979 376.107 98.9979 376.107 98.9979 376.107C98.9979 376.107 98.9979 376.107 98.9979 376.107C98.9979 376.107 98.9979 376.107 98.9979 376.107C98.9979 376.107 98.9979 376.107 98.9979 376.107C98.9979 376.107 98.9979 376.107 98.9979 376.107C98.9979 376.107 98.9979 376.107 98.9979 376.107C98.9979 376.107 98.9979 376.107 98.9979 376.107C98.9979 376.107 98.9979 376.107 98.9979 376.107C98.9979 376.107 98.9979 376.107 98.9979 376.107C98.9979 376.107 98.9979 376.107 98.9979 376.107C98.9979 376.107 98.9979 376.107 98.9979 376.107C98.9979 376.107 98.9979 376.107 98.9979 376.107C98.9979 376.107 98.9979 376.107 98.9979 376.107C98.9979 376.107 98.9979 376.107 98.9979 376.107C98.9979 376.107 98.9979 376.107 98.9979 376.107C98.9979 376.107 98.9979 376.107 98.9979 376.107C98.9979 376.107 98.9979 376.107 98.9979 376.107C98.9979 376.107 98.9979 376.107 98.9979 376.107C98.9979 376.107 98.9979 376.107 98.9979 376.107C98.9979 376.107 98.9979 376.107 98.9979 376.107C98.9979 376.107 98.9979 376.107 98.9979 376.107C98.9979 376.107 98.9979 376.107 98.9979 376.107C98.9979 376.107 98.9979 376.107 98.9979 376.107C98.9979 376.107 98.9979 376.107 98.9979 376.107C98.9979 376.107 98.9979 376.107 98.9979 376.107C98.9979 376.107 98.9979 376.107 98.9979 376.107C98.9979 376.107 98.9979 376.107 98.9979 376.107C98.9979 376.107 98.9979 376.107 98.9979 376.107C98.9979 376.107 98.9979 376.107 98.9979 376.107C98.9979 376.107 98.9979 376.107 98.9979 376.107C98.9979 376.107 98.9979 376.107 98.9979 376.107C98.9979 376.107 98.9979 376.107 98.9979 376.107C98.9979 376.107 98.9979 376.107 98.9979 376.107C98.9979 376.107 98.9979 376.107 98.9979 376.107C98.9979 376.107 98.9979 376.107 98.9979 376.107C98.9979 376.107 98.9979 376.107 98.9979 376.107C98.9979 376.107 98.9979 376.107 98.9979 376.107C98.9979 376.107 98.9979 376.107 98.9979 376.107C98.9979 376.107 98.9979 376.107 98.9979 376.107C98.9979 376.107 98.9979 376.107 98.9979 376.107C98.9979 376.107 98.9979 376.107 98.9979 376.107C98.9979 376.107 98.9979 376.107 98.9979 376.107C98.9979 376.107 98.9979 376.107 98.9979 376.107C98.9979 376.107 98.9979 376.107 98.9979 376.107C98.9979 376.107 98.9979 376.107 98.9979 376.107C98.9979 376.107 98.9979 376.107 98.9979 376.107C98.9979 376.107 98.9979 376.107 98.9979 376.107C98.9979 376.107 98.9979 376.107 98.9979 376.107C98.9979 376.107 98.9979 376.107 98.9979 376.107C98.9979 376.107 98.9979 376.107 98.9979 376.107C98.9979 376.107 98.9979 376.107 98.9979 376.107C98.9979 376.107 98.9979 376.107 98.9979 376.107C98.9979 376.107 98.9979 376.107 98.9979 376.107C98.9979 376.107 98.9979 376.107 98.9979 376.107C98.9979 376.107 98.9979 376.107 98.9979 376.107C98.9979 376.107 98.9979 376.107 98.9979 376.107C98.9979 376.107 98.9979 376.107 98.9979 376.107C98.9979 376.107 98.9979 376.107 98.9979 376.107C98.9979 376.107 98.9979 376.107 98.9979 376.107C98.9979 376.107 98.9979 376.107 98.9979 376.107C98.9979 376.107 98.9979 376.107 98.9979 376.107C98.9979 376.107 98.9979 376.107 98.9979 376.107C98.9979 376.107 98.9979 376.107 98.9979 376.107C98.9979 376.107 98.9979 376.107 98.9979 376.107C98.9979 376.107 98.9979 376.107 98.9979 376.107C98.9979 376.107 98.9979 376.107 98.9979 376.107C98.9979 376.107 98.9979 376.107 98.9979 376.107C98.9979 376.107 98.9979 376.107 98.9979 376.107C98.9979 376.107 98.9979 376.107 98.9979 376.107C98.9979 376.107 98.9979 376.107 98.9979 376.107C98.9979 376.107 98.9979 376.107 98.9979 376.107C98.9979 376.107 98.9979 376.107 98.9979 376.107C98.9979 376.107 98.9979 376.107 98.9979 376.107C98.9979 376.107 98.9979 376.107 98.9979 376.107C98.9979 376.107 98.9979 376.107 98.9979 376.107C98.9979 376.107 98.9979 376.107 98.9979 376.107C98.9979 376.107 98.9979 376.107 98.9979 376.107C98.9979 376.107 98.9979 376.107 98.9979 376.107C98.9979 376.107 98.9979 376.107 98.9979 376.107C98.9979 376.107 98.9979 376.107 98.9979 376.107C98.9979 376.107 98.9979 376.107 98.9979 376.107C98.9979 376.107 98.9979 376.107 98.9979 376.107C98.9979 376.107 98.9979 376.107 98.9979 376.107C98.9979 376.107 98.9979 376.107 98.9979 376.107C98.9979 376.107 98.9979 376.107 98.9979 376.107C98.9979 376.107 98.9979 376.107 98.9979 376.107C98.9979 376.107 98.9979 376.107 98.9979 376.107C98.9979 376.107 98.9979 376.107 98.9979 376.107C98.9979 376.107 98.9979 376.107 98.9979 376.107C98.9979 376.107 98.9979 376.107 98.9979 376.107C98.9979 376.107 98.9979 376.107 98.9979 376.107C98.9979 376.107 98.9979 376.107 98.9979 376.107C98.9979 376.107 98.9979 376.107 98.9979 376.107C98.9979 376.107 98.9979 376.107 98.9979 376.107C98.9979 376.107 98.9979 376.107 98.9979 376.107C98.9979 376.107 98.9979 376.107 98.9979 376.107C98.9979 376.107 98.9979 376.107 98.9979 376.107C98.9979 376.107 98.9979 376.107 98.9979 376.107C98.9979 376.107 98.9979 376.107 98.9979 376.107C98.9979 376.107 98.9979 376.107 98.9979 376.107C98.9979 376.107 98.9979 376.107 98.9979 376.107C98.9979 376.107 98.9979 376.107 98.9979 376.107C98.9979 376.107 98.9979 376.107 98.9979 376.107C98.9979 376.107 98.9979 376.107 98.9979 376.107C98.9979 376.107 98.9979 376.107 98.9979 376.107C98.9979 376.107 98.9979 376.107 98.9979 376.107C98.9979 376.107 98.9979 376.107 98.9979 376.107C98.9979 376.107 98.9979 376.107 98.9979 376.107C98.9979 376.107 98.9979 376.107 98.9979 376.107C98.9979 376.107 98.9979 376.107 98.9979 376.107C98.9979 376.107 98.9979 376.107 98.9979 376.107C98.9979 376.107 98.9979 376.107 98.9979 376.107C98.9979 376.107 98.9979 376.107 98.9979 376.107C98.9979 376.107 98.9979 376.107 98.9979 376.107C98.9979 376.107 98.9979 376.107 98.9979 376.107C98.9979 376.107 98.9979 376.107 98.9979 376.107C98.9979 376.107 98.9979 376.107 98.9979 376.107C98.9979 376.107 98.9979 376.107 98.9979 376.107C98.9979 376.107 98.9979 376.107 98.9979 376.107C98.9979 376.107 98.9979 376.107 98.9979 376.107C98.9979 376.107 98.9979 376.107 98.9979 376.107C98.9979 376.107 98.9979 376.107 98.9979 376.107C98.9979 376.107 98.9979 376.107 98.9979 376.107C98.9979 376.107 98.9979 376.107 98.9979 376.107C98.9979 376.107 98.9979 376.107 98.9979 376.107C98.9979 376.107 98.9979 376.107 98.9979 376.107C98.9979 376.107 98.9979 376.107 98.9979 376.107C98.6979 376.406 98.7858 376.194 98.9979 376.107C98.9979 376.107 98.9979 376.107 98.9979 376.107C98.9979 376.107 98.9979 376.107 98.9979 376.107C98.9979 376.107 98.9979 376.107 98.9979 376.107C98.9979 376.107 98.9979 376.107 98.9979 376.107C98.9979 376.107 98.9979 376.107 98.9979 376.107C98.9979 376.107 98.9979 376.107 98.9979 376.107C98.9979 376.107 98.9979 376.107 98.9979 376.107C98.9979 376.107 98.9979 376.107 98.9979 376.107C98.9979 376.107 98.9979 376.107 98.9979 376.107C98.9979 376.107 98.9979 376.107 98.9979 376.107C98.9979 376.107 98.9979 376.107 98.9979 376.107C98.9979 376.107 98.9979 376.107 98.9979 376.107C98.9979 376.107 98.9979 376.107 98.9979 376.107C98.9979 376.107 98.9979 376.107 98.9979 376.107C98.9979 376.107 98.9979 376.107 98.9979 376.107C98.9979 376.107 98.9979 376.107 98.9979 376.107C98.9979 376.107 98.9979 376.107 98.9979 376.107C98.9979 376.107 98.9979 376.107 98.9979 376.107C98.9979 376.107 98.9979 376.107 98.9979 376.107C98.9979 376.107 98.9979 376.107 98.9979 376.107C98.9979 376.107 98.9979 376.107 98.9979 376.107C98.9979 376.107 98.9979 376.107 98.9979 376.107C98.9979 376.107 98.9979 376.107 98.9979 376.107C98.9979 376.107 98.9979 376.107 98.9979 376.107C98.9979 376.107 98.9979 376.107 98.9979 376.107C98.9979 376.107 98.9979 376.107 98.9979 376.107C98.9979 376.107 98.9979 376.107 98.9979 376.107C98.9979 376.107 98.9979 376.107 98.9979 376.107C98.9979 376.107 98.9979 376.107 98.9979 376.107C98.9979 376.107 98.9979 376.107 98.9979 376.107C98.9979 376.107 98.9979 376.107 98.9979 376.107C98.9979 376.107 98.9979 376.107 98.9979 376.107C98.9979 376.107 98.9979 376.107 98.9979 376.107C98.9979 376.107 98.9979 376.107 98.9979 376.107C98.9979 376.107 98.9979 376.107 98.9979 376.107C98.9979 376.107 98.9979 376.107 98.9979 376.107C98.9979 376.107 98.9979 376.107 98.9979 376.107C98.9979 376.107 98.9979 376.107 98.9979 376.107C98.9979 376.107 98.9979 376.107 98.9979 376.107C98.9979 376.107 98.9979 376.107 98.9979 376.107C98.9979 376.107 98.9979 376.107 98.9979 376.107C98.9979 376.107 98.9979 376.107 98.9979 376.107C98.9979 376.107 98.9979 376.107 98.9979 376.107C98.9979 376.107 98.9979 376.107 98.9979 376.107C98.9979 376.107 98.9979 376.107 98.9979 376.107C98.9979 376.107 98.9979 376.107 98.9979 376.107C98.9979 376.107 98.9979 376.107 98.9979 376.107C98.9979 376.107 98.9979 376.107 98.9979 376.107C98.9979 376.107 98.9979 376.107 98.9979 376.107C98.9979 376.107 98.9979 376.107 98.9979 376.107C98.9979 376.107 98.9979 376.107 98.9979 376.107C98.9979 376.107 98.9979 376.107 98.9979 376.107C98.9979 376.107 98.9979 376.107 98.9979 376.107C98.9979 376.107 98.9979 376.107 98.9979 376.107C98.9979 376.107 98.9979 376.107 98.9979 376.107C98.9979 376.107 98.9979 376.107 98.9979 376.107C98.9979 376.107 98.9979 376.107 98.9979 376.107C98.9979 376.107 98.9979 376.107 98.9979 376.107C98.9979 376.107 98.9979 376.107 98.9979 376.107C98.9979 376.107 98.9979 376.107 98.9979 376.107C98.9979 376.107 98.9979 376.107 98.9979 376.107C98.9979 376.107 98.9979 376.107 98.9979 376.107C98.9979 376.107 98.9979 376.107 98.9979 376.107C98.9979 376.107 98.9979 376.107 98.9979 376.107C98.9979 376.107 98.9979 376.107 98.9979 376.107C98.9979 376.107 98.9979 376.107 98.9979 376.107C98.9979 376.107 98.9979 376.107 98.9979 376.107C98.9979 376.107 98.9979 376.107 98.9979 376.107C98.9979 376.107 98.9979 376.107 98.9979 376.107C98.9979 376.107 98.9979 376.107 98.9979 376.107C98.9979 376.107 98.9979 376.107 98.9979 376.107C98.9979 376.107 98.9979 376.107 98.9979 376.107C98.9979 376.107 98.9979 376.107 98.9979 376.107C98.9979 376.107 98.9979 376.107 98.9979 376.107C98.9979 376.107 98.9979 376.107 98.9979 376.107C98.9979 376.107 98.9979 376.107 98.9979 376.107C98.9979 376.107 98.9979 376.107 98.9979 376.107C98.9979 376.107 98.9979 376.107 98.9979 376.107C98.9979 376.107 98.9979 376.107 98.9979 376.107C98.9979 376.107 98.9979 376.107 98.9979 376.107C98.9979 376.107 98.9979 376.107 98.9979 376.107C98.9979 376.107 98.9979 376.107 98.9979 376.107C98.9979 376.107 98.9979 376.107 98.9979 376.107C98.9979 376.107 98.9979 376.107 98.9979 376.107C98.9979 376.107 98.9979 376.107 98.9979 376.107C98.9979 376.107 98.9979 376.107 98.9979 376.107C98.9979 376.107 98.9979 376.107 98.9979 376.107C98.9979 376.107 98.9979 376.107 98.9979 376.107C98.9979 376.107 98.9979 376.107 98.9979 376.107C98.9979 376.107 98.9979 376.107 98.9979 376.107C98.9979 376.107 98.9979 376.107 98.9979 376.107C98.9979 376.107 98.9979 376.107 98.9979 376.107C98.9979 376.107 98.9979 376.107 98.9979 376.107C98.9979 376.107 98.9979 376.107 98.9979 376.107C98.9979 376.107 98.9979 376.107 98.9979 376.107C98.9979 376.107 98.9979 376.107 98.9979 376.107C98.9979 376.107 98.9979 376.107 98.9979 376.107C98.9979 376.107 98.9979 376.107 98.9979 376.107C98.9979 376.107 98.9979 376.107 98.9979 376.107C98.9979 376.107 98.9979 376.107 98.9979 376.107C98.9979 376.107 98.9979 376.107 98.9979 376.107C98.9979 376.107 98.9979 376.107 98.9979 376.107C98.9979 376.107 98.9979 376.107 98.9979 376.107C98.9979 376.107 98.9979 376.107 98.9979 376.107C98.9979 376.107 98.9979 376.107 98.9979 376.107C98.9979 376.107 98.9979 376.107 98.9979 376.107C98.9979 376.107 98.9979 376.107 98.9979 376.107C98.9979 376.107 98.9979 376.107 98.9979 376.107C98.9979 376.107 98.9979 376.107 98.9979 376.107C98.9979 376.107 98.9979 376.107 98.9979 376.107C98.9979 376.107 98.9979 376.107 98.9979 376.107C98.9979 376.107 98.9979 376.107 98.9979 376.107C98.9979 376.107 98.9979 376.107 98.9979 376.107C98.9979 376.107 98.9979 376.107 98.9979 376.107C98.9979 376.107 98.9979 376.107 98.9979 376.107C98.9979 376.107 98.9979 376.107 98.9979 376.107C98.9979 376.107 98.9979 376.107 98.9979 376.107C98.9979 376.107 98.9979 376.107 98.9979 376.107C98.9979 376.107 98.9979 376.107 98.9979 376.107C98.9979 376.107 98.9979 376.107 98.9979 376.107C98.9979 376.107 98.9979 376.107 98.9979 376.107C98.9979 376.107 98.9979 376.107 98.9979 376.107C98.9979 376.107 98.9979 376.107 98.9979 376.107C98.9979 376.107 98.9979 376.107 98.9979 376.107C98.9979 376.107 98.9979 376.107 98.9979 376.107C98.9979 376.107 98.9979 376.107 98.9979 376.107C98.9979 376.107 98.9979 376.107 98.9979 376.107C98.9979 376.107 98.9979 376.107 98.9979 376.107C98.9979 376.107 98.9979 376.107 98.9979 376.107C98.9979 376.107 98.9979 376.107 98.9979 376.107C98.9979 376.107 98.9979 376.107 98.9979 376.107C98.9979 376.107 98.9979 376.107 98.9979 376.107C98.9979 376.107 98.9979 376.107 98.9979 376.107C98.9979 376.107 98.9979 376.107 98.9979 376.107C98.9979 376.107 98.9979 376.107 98.9979 376.107C98.9979 376.107 98.9979 376.107 98.9979 376.107C98.9979 376.107 98.9979 376.107 98.9979 376.107C98.9979 376.107 98.9979 376.107 98.9979 376.107C98.9979 376.107 98.9979 376.107 98.9979 376.107C98.9979 376.107 98.9979 376.107 98.9979 376.107C98.9979 376.107 98.9979 376.107 98.9979 376.107C98.9979 376.107 98.9979 376.107 98.9979 376.107C98.9979 376.107 98.9979 376.107 98.9979 376.107C98.9979 376.107 98.9979 376.107 98.9979 376.107C98.9979 376.107 98.9979 376.107 98.9979 376.107C98.9979 376.107 98.9979 376.107 98.9979 376.107C98.9979 376.107 98.9979 376.107 98.9979 376.107C98.9979 376.107 98.9979 376.107 98.9979 376.107C98.9979 376.107 98.9979 376.107 98.9979 376.107C98.9979 376.107 98.9979 376.107 98.9979 376.107C98.9979 376.107 98.9979 376.107 98.9979 376.107C98.9979 376.107 98.9979 376.107 98.9979 376.107C98.9979 376.107 98.9979 376.107 98.9979 376.107C98.9979 376.107 98.9979 376.107 98.9979 376.107C98.9979 376.107 98.9979 376.107 98.9979 376.407C98.9979 376.107 98.9979 376.107 98.9979 376.407C98.9979 376.107 98.9979 376.107 98.9979 376.407C98.9979 376.107 98.9979 376.107 98.9979 376.407C98.9979 376.107 98.9979 376.107 98.9979 376.107C98.9979 376.407 98.9979 376.107 98.9979 376.107C98.9979 376.107 98.9979 376.407 98.9979 376.407C98.9979 376.407 98.9979 376.107 98.9979 376.107C98.9979 376.107 98.9979 376.407 98.9979 376.407C98.9979 376.407 98.9979 376.107 98.9979 376.107C98.9979 376.107 98.9979 376.407 98.9979 376.407C98.9979 376.407 98.9979 376.107 98.9979 376.107C98.9979 376.107 98.9979 376.407 98.9979 376.407C98.9979 376.407 98.9979 376.707 98.9979 376.707C98.9979 376.707 98.9979 376.407 98.9979 376.407C98.9979 376.407 98.9979 376.707 98.9979 376.707C98.9979 376.707 98.9979 376.407 98.9979 376.407C98.9979 376.407 98.9979 376.707 98.9979 376.707C98.9979 376.707 98.9979 376.407 98.9979 376.407C98.9979 376.407 98.9979 376.707 98.9979 376.707C98.9979 376.707 98.9979 376.407 98.9979 376.407C98.9979 376.707 98.9979 376.707 98.9979 376.407C98.9979 376.707 98.9979 376.707 98.9979 376.707C98.9979 376.707 98.9979 376.707 98.9979 376.707C98.9979 376.707 98.9979 376.707 98.9979 376.707C98.9979 376.707 98.9979 376.707 98.9979 376.707C98.9979 376.707 98.9979 376.707 98.9979 376.407C98.9979 376.707 98.9979 376.707 98.9979 376.407C98.9979 376.707 98.9979 376.707 98.9979 376.707C98.9979 376.707 98.9979 376.707 98.9979 376.707C98.9979 376.707 98.9979 376.707 98.9979 376.707C98.9979 376.707 98.9979 376.707 98.9979 376.707C98.9979 376.707 98.9979 376.707 98.9979 376.707C98.9979 376.707 98.9979 376.707 98.9979 376.707C98.9979 376.707 98.9979 376.707 98.9979 376.707C98.9979 376.707 98.9979 376.707 98.9979 376.707C98.9979 376.707 98.9979 376.707 98.9979 376.707C98.9979 376.707 98.9979 376.707 98.9979 376.707C98.9979 376.707 98.9979 376.707 98.9979 376.707C98.9979 376.707 98.9979 376.707 98.9979 376.707C98.9979 376.707 98.9979 376.707 98.9979 376.707C98.9979 376.707 98.9979 376.707 98.9979 376.707C98.9979 376.707 98.9979 376.707 98.9979 376.707C98.9979 376.707 98.9979 376.707 98.9979 376.707C98.9979 376.707 98.9979 376.707 98.9979 376.707C98.9979 376.707 98.9979 376.707 98.9979 376.707C98.9979 376.707 98.9979 376.707 98.9979 376.707C98.9979 376.707 98.9979 376.707 98.9979 376.707C98.9979 376.707 98.9979 376.707 98.9979 376.707C98.9979 376.707 98.9979 376.707 98.9979 376.707C98.9979 376.707 98.9979 376.707 98.9979 376.707C98.9979 376.707 98.9979 376.707 98.9979 376.707C98.9979 376.707 98.9979 376.707 98.9979 376.707C98.9979 376.707 98.9979 376.707 98.9979 376.707C98.9979 376.707 98.9979 376.707 98.9979 376.707C98.9979 376.707 98.9979 376.707 98.9979 376.707C98.9979 376.707 98.9979 376.707 98.9979 376.707C98.9979 376.707 98.9979 376.707 98.9979 376.707C98.9979 376.707 98.9979 376.707 98.9979 376.707C98.9979 376.707 98.9979 376.707 98.9979 376.707C98.9979 376.707 98.9979 376.707 98.9979 376.707C98.9979 376.707 98.9979 376.707 98.9979 376.707C98.9979 376.707 98.9979 376.707 98.9979 376.707C98.9979 376.707 98.9979 376.707 98.9979 376.707C98.9979 376.707 98.9979 376.707 98.9979 376.707C98.9979 376.707 98.9979 376.707 98.9979 376.707C98.9979 376.707 98.9979 376.707 98.9979 376.707C98.9979 376.707 98.9979 376.707 98.9979 376.707C98.9979 376.707 98.9979 376.707 98.9979 376.707C98.9979 376.707 98.9979 376.707 98.9979 376.707C98.9979 376.707 98.9979 376.707 98.9979 376.707C98.9979 376.707 98.9979 376.707 98.9979 376.707C98.9979 376.707 98.9979 376.707 98.9979 376.707C98.9979 376.707 98.9979 376.707 98.9979 376.707C98.9979 376.707 98.9979 376.707 98.9979 376.707C98.9979 376.707 98.9979 376.707 98.9979 376.707C98.9979 376.707 98.9979 376.707 98.9979 376.707C98.9979 376.707 98.9979 376.707 98.9979 376.707C98.9979 376.707 98.9979 376.707 98.9979 376.707C98.9979 376.707 98.9979 376.707 98.9979 376.707C98.9979 376.707 98.9979 376.707 98.9979 376.707C98.9979 376.707 98.9979 376.707 98.9979 376.707C98.9979 376.707 98.9979 376.707 98.9979 376.707C98.9979 376.707 98.9979 376.707 98.9979 376.707C98.9979 376.707 98.9979 376.707 98.9979 376.707C98.9979 376.707 98.9979 376.707 98.9979 376.707C98.9979 376.707 98.9979 376.707 98.9979 376.707C98.9979 376.707 98.9979 376.707 98.9979 376.707C98.9979 376.707 98.9979 376.707 98.9979 376.707C98.9979 376.707 98.9979 376.707 98.9979 376.707C98.9979 376.707 98.9979 376.707 98.9979 376.707C98.9979 376.707 98.9979 376.707 98.9979 376.707C98.9979 376.707 98.9979 376.707 98.9979 376.707C98.9979 376.707 98.9979 376.707 98.9979 376.707C98.9979 376.707 98.9979 376.707 98.9979 376.707C98.9979 376.707 98.9979 376.707 98.9979 376.707C98.9979 376.707 98.9979 376.707 98.9979 376.707C98.9979 376.707 98.9979 376.707 98.9979 376.707C98.9979 376.707 98.9979 376.707 98.9979 376.707C98.9979 376.707 98.9979 376.707 98.9979 376.707C98.9979 376.707 98.9979 376.707 98.9979 376.707C98.9979 376.707 98.9979 376.707 98.9979 376.707C98.9979 376.707 98.9979 376.707 98.9979 376.707C98.9979 376.707 98.9979 376.707 98.9979 376.707C98.9979 376.707 98.9979 376.707 98.9979 376.707C98.9979 376.707 98.9979 376.707 98.9979 376.707C98.9979 376.707 98.9979 376.707 98.9979 376.707C98.9979 376.707 98.9979 376.707 98.9979 376.707C98.9979 376.707 98.9979 376.707 98.9979 376.707C98.9979 376.707 98.9979 376.707 98.9979 376.707C98.9979 376.707 98.9979 376.707 98.9979 376.707C98.9979 376.707 98.9979 376.707 98.9979 376.707C98.9979 376.707 98.9979 376.707 98.9979 376.707C98.9979 376.707 98.9979 376.707 98.9979 376.707C98.9979 376.707 98.9979 376.707 98.9979 376.707C98.9979 376.707 98.9979 376.707 98.9979 376.707C98.9979 376.707 98.9979 376.707 98.9979 376.707C98.9979 376.707 98.9979 376.707 98.9979 376.707C98.9979 376.707 98.9979 376.707 98.9979 376.707C98.9979 376.707 98.9979 376.707 98.9979 376.707C98.9979 376.707 98.9979 376.707 98.9979 376.707C98.9979 376.707 98.9979 376.707 98.9979 376.707C98.9979 376.707 98.9979 376.707 98.9979 376.707C98.9979 376.707 98.9979 376.707 98.9979 376.707C98.9979 376.707 98.9979 376.707 98.9979 376.707C98.9979 376.707 98.9979 376.707 98.9979 376.707C98.9979 376.707 98.9979 376.707 98.9979 376.707C98.9979 376.707 98.9979 376.707 98.9979 376.707C98.9979 376.707 98.9979 376.707 98.9979 376.707C98.9979 376.707 98.9979 376.707 98.9979 376.707C98.9979 376.707 98.9979 376.707 98.9979 376.707C98.9979 376.707 98.9979 376.707 98.9979 376.707C98.9979 376.707 98.9979 376.707 98.9979 376.707C98.9979 376.707 98.9979 376.707 98.9979 376.707C98.9979 376.707 98.9979 376.707 98.9979 376.707C98.9979 376.707 98.9979 376.707 98.9979 376.707C98.9979 376.707 98.9979 376.707 98.9979 376.707C98.9979 376.707 98.9979 376.707 98.9979 376.707C98.9979 376.707 98.9979 376.707 98.9979 376.707C98.9979 376.707 98.9979 376.707 98.9979 376.707C98.9979 376.707 98.9979 376.707 98.9979 376.707C98.9979 376.707 98.9979 376.707 98.9979 376.707C98.9979 376.707 98.9979 376.707 98.9979 376.707C98.9979 376.707 98.9979 376.707 98.9979 376.707C98.9979 376.707 98.9979 376.707 98.9979 376.707C98.9979 376.707 98.9979 376.707 98.9979 376.707C98.9979 376.707 98.9979 376.707 98.9979 376.707C98.9979 376.707 98.9979 376.707 98.9979 376.707C98.9979 376.707 98.9979 376.707 98.9979 376.707C98.9979 376.707 98.9979 376.707 98.9979 376.707C98.9979 376.707 98.9979 376.707 98.9979 376.707C98.9979 376.707 98.9979 376.707 98.9979 376.707C98.9979 376.707 98.9979 376.707 98.9979 376.707C98.9979 376.707 98.9979 376.707 98.9979 376.707C98.9979 376.707 98.9979 376.707 98.9979 376.707C98.9979 376.707 98.9979 376.707 98.9979 376.707C98.9979 376.707 98.9979 376.707 98.9979 376.707C98.9979 376.707 98.9979 376.707 98.9979 376.707C98.9979 376.707 98.9979 376.707 98.9979 376.707C98.9979 376.707 98.9979 376.707 98.9979 376.707C98.9979 376.707 98.9979 376.707 98.9979 376.707C98.9979 376.707 98.9979 376.707 98.9979 376.707C98.9979 376.707 98.9979 376.707 98.9979 376.707C98.9979 376.707 98.9979 376.707 98.9979 376.707C98.9979 376.707 98.9979 376.707 98.9979 376.707C98.9979 376.707 98.9979 376.707 98.9979 376.707C98.9979 376.707 98.9979 376.707 98.9979 376.707C98.9979 376.707 98.9979 376.707 98.9979 376.707C98.9979 376.707 98.9979 376.707 98.9979 376.707C98.9979 376.707 98.9979 376.707 98.9979 376.707C98.9979 376.707 98.9979 376.707 98.9979 376.707C98.9979 376.707 98.9979 376.707 98.9979 376.707C98.9979 376.707 98.9979 376.707 98.9979 376.707C98.9979 376.707 98.9979 376.707 98.9979 376.707C98.9979 376.707 98.9979 376.707 98.9979 376.707C98.9979 376.707 98.9979 376.707 98.9979 376.707C98.9979 376.707 98.9979 376.707 98.9979 376.707C98.9979 376.707 98.9979 376.707 98.9979 376.707C98.9979 376.707 98.9979 376.707 98.9979 376.707C98.9979 376.707 98.9979 376.707 98.9979 376.707C99.21 376.619 99.2979 376.407 99.2979 376.407C98.9979 376.707 98.9979 376.707 98.9979 376.707C98.9979 376.707 98.9979 376.707 98.9979 376.707C98.9979 376.707 98.9979 376.707 98.9979 376.707C98.9979 376.707 98.9979 376.707 98.9979 376.707C98.9979 376.707 98.9979 376.707 98.9979 376.707C98.9979 376.707 98.9979 376.707 98.9979 376.707C98.9979 376.707 98.9979 376.707 98.9979 376.707C98.9979 376.707 98.9979 376.707 98.9979 376.707C98.9979 376.707 98.9979 376.707 98.9979 376.707C98.9979 376.707 98.9979 376.707 98.9979 376.707C98.9979 376.707 98.9979 376.707 98.9979 376.707C98.9979 376.707 98.9979 376.707 98.9979 376.707C98.9979 376.707 98.9979 376.707 98.9979 376.707C98.9979 376.707 98.9979 376.707 98.9979 376.707C98.9979 376.707 98.9979 376.707 98.9979 376.707C98.9979 376.707 98.9979 376.707 98.9979 376.707C98.9979 376.707 98.9979 376.707 98.9979 376.707C98.9979 376.707 98.9979 376.707 98.9979 376.707C98.9979 376.707 98.9979 376.707 98.9979 376.707C98.9979 376.707 98.9979 376.707 98.9979 376.707C98.9979 376.707 98.9979 376.707 98.9979 376.707C98.9979 376.707 98.9979 376.707 98.9979 376.707C98.9979 376.707 98.9979 376.707 98.9979 376.707C98.9979 376.707 98.9979 376.707 98.9979 376.707C98.9979 376.707 98.9979 376.707 98.9979 376.707C98.9979 376.707 98.9979 376.707 98.9979 376.707C98.9979 376.707 98.9979 376.707 98.9979 376.707C98.9979 376.707 98.9979 376.707 98.9979 376.707C98.9979 376.707 98.9979 376.707 98.9979 376.707C98.9979 376.707 98.9979 376.707 98.9979 376.707C98.9979 376.707 98.9979 376.707 98.9979 376.707C98.9979 376.707 98.9979 376.707 98.9979 376.707C98.9979 376.707 98.9979 376.707 98.9979 376.707C98.9979 376.707 98.9979 376.707 98.9979 376.707C98.9979 376.707 98.9979 376.707 98.9979 376.707C98.9979 376.707 98.9979 376.707 98.9979 376.707C98.9979 376.707 98.9979 376.707 98.9979 376.707C98.9979 376.707 98.9979 376.707 98.9979 376.707C98.9979 376.707 98.9979 376.707 98.9979 376.707C98.9979 376.707 98.9979 376.707 98.9979 376.707C98.9979 376.707 98.9979 376.707 98.9979 376.707C98.9979 376.707 98.9979 376.707 98.9979 376.707C98.9979 376.707 98.9979 376.707 98.9979 376.707C98.9979 376.707 98.9979 376.707 98.9979 376.707C98.9979 376.707 98.9979 376.707 98.9979 376.707C98.9979 376.707 98.9979 376.707 98.9979 376.707C98.9979 376.707 98.9979 376.707 98.9979 376.707C98.9979 376.707 98.9979 376.707 98.9979 376.707C98.9979 376.707 98.9979 376.707 98.9979 376.707C98.9979 376.707 98.9979 376.707 98.9979 376.707C98.9979 376.707 98.9979 376.707 98.9979 376.707C98.9979 376.707 98.9979 376.707 98.9979 376.707C98.9979 376.707 98.9979 376.707 98.9979 376.707C98.9979 376.707 98.9979 376.707 98.9979 376.707C98.9979 376.707 98.9979 376.707 98.9979 376.707C98.9979 376.707 98.9979 376.707 98.9979 376.707C98.9979 376.707 98.9979 376.707 98.9979 376.707C98.9979 376.707 98.9979 376.707 98.9979 376.707C98.9979 376.707 98.9979 376.707 98.9979 376.707C98.9979 376.707 98.9979 376.707 98.9979 376.707C98.9979 376.707 98.9979 376.707 98.9979 376.707C98.9979 376.707 98.9979 376.707 98.9979 376.707C98.9979 376.707 98.9979 376.707 98.9979 376.707C98.9979 376.707 98.9979 376.707 98.9979 376.707C98.9979 376.707 98.9979 376.707 98.9979 376.707C98.9979 376.707 98.9979 376.707 98.9979 376.707C98.9979 376.707 98.9979 376.707 98.9979 376.707C98.9979 376.707 98.9979 376.707 98.9979 376.707C98.9979 376.707 98.9979 376.707 98.9979 376.707C98.9979 376.707 98.9979 376.707 98.9979 376.707C98.9979 376.707 98.9979 376.707 98.9979 376.707C98.9979 376.707 98.9979 376.707 98.9979 376.707C98.9979 376.707 98.9979 376.707 98.9979 376.707C98.9979 376.707 98.9979 376.707 98.9979 376.707C98.9979 376.707 98.9979 376.707 98.9979 376.707C98.9979 376.707 98.9979 376.707 98.9979 376.707C98.9979 376.707 98.9979 376.707 98.9979 376.707C98.9979 376.707 98.9979 376.707 98.9979 376.707C98.9979 376.707 98.9979 376.707 98.9979 376.707C98.9979 376.707 98.9979 376.707 98.9979 376.707C98.9979 376.707 98.9979 376.707 98.9979 376.707C98.9979 376.707 98.9979 376.707 98.9979 376.707C98.9979 376.707 98.9979 376.707 98.9979 376.707C98.9979 376.707 98.9979 376.707 98.9979 376.707C98.9979 376.707 98.9979 376.707 98.9979 376.707C98.9979 376.707 98.9979 376.707 98.9979 376.707C98.9979 376.707 98.9979 376.707 98.9979 376.707C98.9979 376.707 98.9979 376.707 98.9979 376.707C98.9979 376.707 98.9979 376.707 98.9979 376.707C98.9979 376.707 98.9979 376.707 98.9979 376.707C98.9979 376.707 98.9979 376.707 98.9979 376.707C98.9979 376.707 98.9979 376.707 98.9979 376.707C98.9979 376.707 98.9979 376.707 98.9979 376.707C98.9979 376.707 98.9979 376.707 98.9979 376.707C98.9979 376.707 98.9979 376.707 98.9979 376.707C98.9979 376.707 98.9979 376.707 98.9979 376.707C98.9979 376.707 98.9979 376.707 98.9979 376.707C98.9979 376.707 98.9979 376.707 98.9979 376.707C98.9979 376.707 98.9979 376.707 98.9979 376.707C98.9979 376.707 98.9979 376.707 98.9979 376.707C98.9979 376.707 98.9979 376.707 98.9979 376.707C98.9979 376.707 98.9979 376.707 98.9979 376.707C98.9979 376.707 98.9979 376.707 98.9979 376.707C98.9979 376.707 98.9979 376.707 98.9979 376.707C98.9979 376.707 98.9979 376.707 98.9979 376.707C98.9979 376.707 98.9979 376.707 98.9979 376.707C98.9979 376.707 98.9979 376.707 98.9979 376.707C98.9979 376.707 98.9979 376.707 98.9979 376.707C98.9979 376.707 98.9979 376.707 98.9979 376.707C98.9979 376.707 98.9979 376.707 98.9979 376.707C98.9979 376.707 98.9979 376.707 98.9979 376.707C98.9979 376.707 98.9979 376.707 98.9979 376.707C98.9979 376.707 98.9979 376.707 98.9979 376.707C98.9979 376.707 98.9979 376.707 98.9979 376.707C98.9979 376.707 98.9979 376.707 98.9979 376.707C98.9979 376.707 98.9979 376.707 98.9979 376.707C98.9979 376.707 98.9979 376.707 98.9979 376.707C98.9979 376.707 98.9979 376.707 98.9979 376.707C98.9979 376.707 98.9979 376.707 98.9979 376.707C98.9979 376.707 98.9979 376.707 98.9979 376.707C98.9979 376.707 98.9979 376.707 98.9979 376.707C98.9979 376.707 98.9979 376.707 98.9979 376.707C98.9979 376.707 98.9979 376.707 98.9979 376.707C98.9979 376.707 98.9979 376.707 98.9979 376.707C98.9979 376.707 98.9979 376.707 98.9979 376.707C98.9979 376.707 98.9979 376.707 98.9979 376.707C98.9979 376.707 98.9979 376.707 98.9979 376.707C98.9979 376.707 98.9979 376.707 98.9979 376.707C98.9979 376.707 98.9979 376.707 98.9979 376.707C98.9979 376.707 98.9979 376.707 98.9979 376.707C98.9979 376.707 98.9979 376.707 98.9979 376.707C98.9979 376.707 98.9979 376.707 98.9979 376.707C98.9979 376.707 98.9979 376.707 98.9979 376.707C98.9979 376.707 98.9979 376.707 98.9979 376.707C98.9979 376.707 98.9979 376.707 98.9979 376.707C98.9979 376.707 98.9979 376.707 98.9979 376.707C98.9979 376.707 98.9979 376.707 98.9979 376.707C98.9979 376.707 98.9979 376.707 98.9979 376.707C98.9979 376.707 98.9979 376.707 98.9979 376.707C98.9979 376.707 98.9979 376.707 98.9979 376.707C98.9979 376.707 98.9979 376.707 98.9979 376.707C98.9979 376.707 98.9979 376.707 98.9979 376.707C98.9979 376.707 98.9979 376.707 98.9979 376.707C98.9979 376.707 98.9979 376.707 98.9979 376.707C98.9979 376.707 98.9979 376.707 98.9979 376.707C98.9979 376.707 98.9979 376.707 98.9979 376.707C98.9979 376.707 98.9979 376.707 98.9979 376.707C98.9979 376.707 98.9979 376.707 98.9979 376.707C98.9979 376.707 98.9979 376.707 98.9979 376.707C98.9979 376.707 98.9979 376.707 98.9979 376.707C98.9979 376.707 98.9979 376.707 98.9979 376.707C98.9979 376.707 98.9979 376.707 98.9979 376.707C98.9979 376.707 98.9979 376.707 98.9979 376.707C98.9979 376.707 98.9979 376.707 98.9979 376.707C98.9979 376.707 98.9979 376.707 98.9979 376.707C98.9979 376.707 98.9979 376.407 98.9979 376.407C98.9979 376.707 98.9979 376.707 98.9979 376.407C98.9979 376.707 98.9979 376.707 98.9979 376.707C98.9979 376.407 98.9979 376.707 98.9979 376.707C98.9979 376.707 98.9979 376.407 98.9979 376.407C98.9979 376.707 98.9979 376.707 98.9979 376.407C98.9979 376.707 98.9979 376.707 98.9979 376.707C98.9979 376.407 98.9979 376.407 98.9979 376.407C98.9979 376.707 98.9979 376.707 98.9979 376.707C98.9979 376.407 98.9979 376.407 98.9979 376.407C98.9979 376.707 98.9979 376.707 98.9979 376.407C98.9979 376.407 98.9979 376.107 98.9979 376.107C98.9979 376.107 98.9979 376.407 98.9979 376.407C98.9979 376.407 98.9979 376.107 98.9979 376.107C98.9979 376.107 98.9979 376.407 98.9979 376.407C98.9979 376.407 98.9979 376.107 98.9979 376.107C98.9979 376.107 98.9979 376.407 98.9979 376.407C98.9979 376.107 98.9979 376.107 98.9979 376.407C98.9979 376.107 98.9979 376.107 98.9979 376.107C98.9979 376.407 98.9979 376.107 98.9979 376.107C98.9979 376.107 98.9979 376.107 98.9979 376.107C98.9979 376.107 98.9979 376.107 98.9979 376.107C98.9979 376.107 98.9979 376.107 98.9979 376.107C98.9979 376.107 98.9979 376.107 98.9979 376.107C98.9979 376.107 98.9979 376.107 98.9979 376.107C98.9979 376.107 98.9979 376.107 98.9979 376.107C98.9979 376.107 98.9979 376.107 98.9979 376.107C98.9979 376.107 98.9979 376.107 98.9979 376.107C98.9979 376.107 98.9979 376.107 98.9979 376.107C98.9979 376.107 98.9979 376.107 98.9979 376.107C98.9979 376.107 98.9979 376.107 98.9979 376.107C98.9979 376.107 98.9979 376.107 98.9979 376.107C98.9979 376.107 98.9979 376.107 98.9979 376.107C98.9979 376.107 98.9979 376.107 98.9979 376.107C98.9979 376.107 98.9979 376.107 98.9979 376.107C98.9979 376.107 98.9979 376.107 98.9979 376.107C98.9979 376.107 98.9979 376.107 98.9979 376.107C98.9979 376.107 98.9979 376.107 98.9979 376.107C98.9979 376.107 98.9979 376.107 98.9979 376.107C98.9979 376.107 98.9979 376.107 98.9979 376.107C98.9979 376.107 98.9979 376.107 98.9979 376.107C98.9979 376.107 98.9979 376.107 98.9979 376.107C98.9979 376.107 98.9979 376.107 98.9979 376.107C98.9979 376.107 98.9979 376.107 98.9979 376.107C98.9979 376.107 98.9979 376.107 98.9979 376.107C98.9979 376.107 98.9979 376.107 98.9979 376.107C98.9979 376.107 98.9979 376.107 98.9979 376.107C98.9979 376.107 98.9979 376.107 98.9979 376.107C98.9979 376.107 98.9979 376.107 98.9979 376.107C98.9979 376.107 98.9979 376.107 98.9979 376.107C98.9979 376.107 98.9979 376.107 98.9979 376.107C98.9979 376.107 98.9979 376.107 98.9979 376.107C98.9979 376.107 98.9979 376.107 98.9979 376.107C98.9979 376.107 98.9979 376.107 98.9979 376.107C98.9979 376.107 98.9979 376.107 98.9979 376.107C98.9979 376.107 98.9979 376.107 98.9979 376.107C98.9979 376.107 98.9979 376.107 98.9979 376.107C98.9979 376.107 98.9979 376.107 98.9979 376.107C98.9979 376.107 98.9979 376.107 98.9979 376.107C98.9979 376.107 98.9979 376.107 98.9979 376.107C98.9979 376.107 98.9979 376.107 98.9979 376.107C98.9979 376.107 98.9979 376.107 98.9979 376.107C98.9979 376.107 98.9979 376.107 98.9979 376.107C98.9979 376.107 98.9979 376.107 98.9979 376.107C98.9979 376.107 98.9979 376.107 98.9979 376.107C98.9979 376.107 98.9979 376.107 98.9979 376.107C98.9979 376.107 98.9979 376.107 98.9979 376.107C98.9979 376.107 98.9979 376.107 98.9979 376.107C98.9979 376.107 98.9979 376.107 98.9979 376.107C98.9979 376.107 98.9979 376.107 98.9979 376.107C98.9979 376.107 98.9979 376.107 98.9979 376.107C98.9979 376.107 98.9979 376.107 98.9979 376.107C98.9979 376.107 98.9979 376.107 98.9979 376.107C98.9979 376.107 98.9979 376.107 98.9979 376.107C98.9979 376.107 98.9979 376.107 98.9979 376.107C98.9979 376.107 98.9979 376.107 98.9979 376.107C98.9979 376.107 98.9979 376.107 98.9979 376.107C98.9979 376.107 98.9979 376.107 98.9979 376.107C98.9979 376.107 98.9979 376.107 98.9979 376.107C98.9979 376.107 98.9979 376.107 98.9979 376.107C98.9979 376.107 98.9979 376.107 98.9979 376.107C98.9979 376.107 98.9979 376.107 98.9979 376.107C98.9979 376.107 98.9979 376.107 98.9979 376.107C98.9979 376.107 98.9979 376.107 98.9979 376.107C98.9979 376.107 98.9979 376.107 98.9979 376.107C98.9979 376.107 98.9979 376.107 98.9979 376.107C98.9979 376.107 98.9979 376.107 98.9979 376.107C98.9979 376.107 98.9979 376.107 98.9979 376.107C98.9979 376.107 98.9979 376.107 98.9979 376.107C98.9979 376.107 98.9979 376.107 98.9979 376.107C98.9979 376.107 98.9979 376.107 98.9979 376.107C98.9979 376.107 98.9979 376.107 98.9979 376.107C98.9979 376.107 98.9979 376.107 98.9979 376.107C98.9979 376.107 98.9979 376.107 98.9979 376.107C98.9979 376.107 98.9979 376.107 98.9979 376.107C98.9979 376.107 98.9979 376.107 98.9979 376.107C98.9979 376.107 98.9979 376.107 98.9979 376.107C98.9979 376.107 98.9979 376.107 98.9979 376.107C98.9979 376.107 98.9979 376.107 98.9979 376.107C98.9979 376.107 98.9979 376.107 98.9979 376.107C98.9979 376.107 98.9979 376.107 98.9979 376.107C98.9979 376.107 98.9979 376.107 98.9979 376.107C98.9979 376.107 98.9979 376.107 98.9979 376.107C98.9979 376.107 98.9979 376.107 98.9979 376.107C98.9979 376.107 98.9979 376.107 98.9979 376.107C98.9979 376.107 98.9979 376.107 98.9979 376.107C98.9979 376.107 98.9979 376.107 98.9979 376.107C98.9979 376.107 98.9979 376.107 98.9979 376.107C98.9979 376.107 98.9979 376.107 98.9979 376.107C98.9979 376.107 98.9979 376.107 98.9979 376.107C98.9979 376.107 98.9979 376.107 98.9979 376.107C98.9979 376.107 98.9979 376.107 98.9979 376.107C98.9979 376.107 98.9979 376.107 98.9979 376.107C98.9979 376.107 98.9979 376.107 98.9979 376.107C98.9979 376.107 98.9979 376.107 98.9979 376.107C98.9979 376.107 98.9979 376.107 98.9979 376.107C98.9979 376.107 98.9979 376.107 98.9979 376.107C98.9979 376.107 98.9979 376.107 98.9979 376.107C98.9979 376.107 98.9979 376.107 98.9979 376.107C98.9979 376.107 98.9979 376.107 98.9979 376.107C98.9979 376.107 98.9979 376.107 98.9979 376.107C98.9979 376.107 98.9979 376.107 98.9979 376.107C98.9979 376.107 98.9979 376.107 98.9979 376.107C98.9979 376.107 98.9979 376.107 98.9979 376.107C98.9979 376.107 98.9979 376.107 98.9979 376.107C98.9979 376.107 98.9979 376.107 98.9979 376.107C98.9979 376.107 98.9979 376.107 98.9979 376.107C98.9979 376.107 98.9979 376.107 98.9979 376.107C98.9979 376.107 98.9979 376.107 98.9979 376.107C98.9979 376.107 98.9979 376.107 98.9979 376.107C98.9979 376.107 98.9979 376.107 98.9979 376.107C98.9979 376.107 98.9979 376.107 98.9979 376.107C98.9979 376.107 98.9979 376.107 98.9979 376.107C98.9979 376.107 98.9979 376.107 98.9979 376.107C98.9979 376.107 98.9979 376.107 98.9979 376.107C98.6979 376.406 98.7859 376.194 98.9979 376.107C98.9979 376.107 98.9979 376.107 98.9979 376.107C98.9979 376.107 98.9979 376.107 98.9979 376.107C98.9979 376.107 98.9979 376.107 98.9979 376.107C98.9979 376.107 98.9979 376.107 98.9979 376.107C98.9979 376.107 98.9979 376.107 98.9979 376.107C98.9979 376.107 98.9979 376.107 98.9979 376.107C98.9979 376.107 98.9979 376.107 98.9979 376.107C98.9979 376.107 98.9979 376.107 98.9979 376.107C98.9979 376.107 98.9979 376.107 98.9979 376.107C98.9979 376.107 98.9979 376.107 98.9979 376.107C98.9979 376.107 98.9979 376.107 98.9979 376.107C98.9979 376.107 98.9979 376.107 98.9979 376.107C98.9979 376.107 98.9979 376.107 98.9979 376.107C98.9979 376.107 98.9979 376.107 98.9979 376.107C98.9979 376.107 98.9979 376.107 98.9979 376.107C98.9979 376.107 98.9979 376.107 98.9979 376.107C98.9979 376.107 98.9979 376.107 98.9979 376.107C98.9979 376.107 98.9979 376.107 98.9979 376.107C98.9979 376.107 98.9979 376.107 98.9979 376.107C98.9979 376.107 98.9979 376.107 98.9979 376.107C98.9979 376.107 98.9979 376.107 98.9979 376.107C98.9979 376.107 98.9979 376.107 98.9979 376.107C98.9979 376.107 98.9979 376.107 98.9979 376.107C98.9979 376.107 98.9979 376.107 98.9979 376.107C98.9979 376.107 98.9979 376.107 98.9979 376.107C98.9979 376.107 98.9979 376.107 98.9979 376.107C98.9979 376.107 98.9979 376.107 98.9979 376.107C98.9979 376.107 98.9979 376.107 98.9979 376.107C98.9979 376.107 98.9979 376.107 98.9979 376.107C98.9979 376.107 98.9979 376.107 98.9979 376.107C98.9979 376.107 98.9979 376.107 98.9979 376.107C98.9979 376.107 98.9979 376.107 98.9979 376.107C98.9979 376.107 98.9979 376.107 98.9979 376.107C98.9979 376.107 98.9979 376.107 98.9979 376.107C98.9979 376.107 98.9979 376.107 98.9979 376.107C98.9979 376.107 98.9979 376.107 98.9979 376.107C98.9979 376.107 98.9979 376.107 98.9979 376.107C98.9979 376.107 98.9979 376.107 98.9979 376.107C98.9979 376.107 98.9979 376.107 98.9979 376.107C98.9979 376.107 98.9979 376.107 98.9979 376.107C98.9979 376.107 98.9979 376.107 98.9979 376.107C98.9979 376.107 98.9979 376.107 98.9979 376.107V376.707ZM99.2979 376.407C99.2979 377.56 99.2214 378.623 99.1531 379.488L98.555 379.441C98.623 378.579 98.6979 377.535 98.6979 376.407H99.2979ZM99.1532 379.488C99.0409 380.927 98.4507 381.86 97.6701 382.448C96.9018 383.027 95.9765 383.253 95.2177 383.343L95.147 382.747C95.8569 382.663 96.6615 382.457 97.3089 381.969C97.944 381.49 98.4553 380.719 98.555 379.441L99.1532 379.488ZM95.291 383.325C95.1653 383.374 95.0321 383.4 94.8974 383.401L94.8919 382.801C94.9537 382.8 95.0152 382.788 95.0737 382.766L95.291 383.325ZM94.8947 383.401H93.9408V382.801H94.8947V383.401ZM93.9408 383.401C93.6559 383.401 93.3856 383.282 93.1886 383.076L93.6223 382.661C93.7092 382.752 93.8241 382.801 93.9408 382.801V383.401ZM93.1886 383.076C92.9919 382.87 92.8837 382.594 92.8837 382.309H93.4837C93.4837 382.443 93.535 382.57 93.6223 382.661L93.1886 383.076ZM92.8837 382.309C92.8837 382.023 92.9919 381.747 93.1886 381.541L93.6223 381.956C93.535 382.047 93.4837 382.174 93.4837 382.309H92.8837ZM93.1886 381.541C93.3856 381.335 93.6559 381.216 93.9408 381.216V381.816C93.8241 381.816 93.7092 381.865 93.6223 381.956L93.1886 381.541ZM93.9408 381.216C95.0604 381.216 95.8019 381.058 96.2724 380.753C96.7189 380.465 96.9628 380.016 97.0182 379.307L97.6163 379.353C97.5506 380.196 97.2419 380.841 96.5982 381.257C95.9785 381.658 95.0924 381.816 93.9408 381.816V381.216ZM97.0182 379.305C97.0711 378.658 97.1236 377.927 97.1461 377.151L97.7458 377.168C97.7229 377.96 97.6694 378.703 97.6163 379.354L97.0182 379.305ZM97.4459 377.459H96.4315V376.859H97.4459V377.459ZM96.414 377.459C95.7151 377.418 95.0607 377.099 94.584 376.571L95.0292 376.169C95.4032 376.583 95.9117 376.828 96.449 376.86L96.414 377.459ZM94.584 376.571C94.1077 376.044 93.8443 375.349 93.8443 374.628H94.4443C94.4443 375.203 94.6549 375.754 95.0292 376.169L94.584 376.571ZM93.8443 374.628C93.8443 373.908 94.1077 373.212 94.584 372.685L95.0292 373.088C94.6549 373.502 94.4443 374.053 94.4443 374.628H93.8443ZM94.584 372.685C95.0607 372.158 95.7151 371.838 96.414 371.798L96.449 372.397C95.9117 372.428 95.4032 372.674 95.0292 373.088L94.584 372.685ZM96.4315 371.797H96.8933V372.397H96.4315V371.797ZM96.6091 372.193C96.4569 371.743 96.1752 371.355 95.8055 371.083L96.1611 370.6C96.6326 370.947 96.987 371.437 97.1775 372.001L96.6091 372.193ZM95.8055 371.083C95.4361 370.811 94.9966 370.668 94.5481 370.67L94.5448 370.07C95.1245 370.067 95.6895 370.253 96.1611 370.6L95.8055 371.083ZM94.5464 370.67H93.2746V370.07H94.5464V370.67ZM93.2709 370.67C93.0789 370.668 92.8871 370.654 92.6967 370.628L92.7774 370.033C92.9435 370.056 93.1107 370.068 93.2782 370.07L93.2709 370.67ZM92.7371 370.63H50.7885V370.03H92.7371V370.63ZM51.0599 370.458C50.7931 371.024 50.5654 371.61 50.3785 372.21L49.8056 372.032C50.0007 371.405 50.2385 370.794 50.5171 370.203L51.0599 370.458ZM50.092 371.821H50.4403V372.421H50.092V371.821ZM50.4402 371.821C51.1177 371.821 51.7655 372.099 52.2452 372.591L51.8156 373.009C51.446 372.63 50.9519 372.421 50.4403 372.421L50.4402 371.821ZM52.2452 372.591C52.7244 373.082 52.9981 373.748 53.0114 374.444L52.4115 374.456C52.401 373.908 52.1857 373.389 51.8156 373.009L52.2452 372.591ZM53.0114 374.45V374.806H52.4114V374.45H53.0114ZM53.0114 374.812C52.9981 375.508 52.7244 376.174 52.2452 376.666L51.8156 376.247C52.1857 375.867 52.401 375.348 52.4115 374.801L53.0114 374.812ZM52.2452 376.666C51.7655 377.158 51.1177 377.436 50.4402 377.435L50.4403 376.835C50.9519 376.836 51.446 376.626 51.8156 376.247L52.2452 376.666ZM50.4403 377.435H49.6378V376.835H50.4403V377.435ZM49.935 377.094C50.0893 378.21 50.4603 379.28 51.0244 380.239L50.5072 380.544C49.9026 379.516 49.5057 378.37 49.3406 377.177L49.935 377.094ZM51.024 380.239C51.2132 380.558 51.4756 380.821 51.7857 381.004L51.481 381.521C51.0817 381.285 50.7472 380.949 50.5076 380.544L51.024 380.239ZM51.7857 381.004C52.0957 381.187 52.4439 381.284 52.7979 381.288L52.7916 381.888C52.3313 381.883 51.8804 381.756 51.481 381.521L51.7857 381.004ZM52.7947 381.288H53.2717V381.888H52.7947V381.288ZM53.2717 381.288C53.5565 381.288 53.8268 381.406 54.0239 381.612L53.5901 382.027C53.5032 381.936 53.3884 381.888 53.2717 381.888V381.288ZM54.0239 381.612C54.2205 381.818 54.3287 382.094 54.3287 382.38H53.7287C53.7287 382.245 53.6774 382.118 53.5901 382.027L54.0239 381.612ZM54.3287 382.38C54.3287 382.665 54.2205 382.942 54.0239 383.147L53.5901 382.733C53.6774 382.641 53.7287 382.515 53.7287 382.38H54.3287ZM54.0239 383.147C53.8268 383.354 53.5565 383.472 53.2717 383.472V382.872C53.3884 382.872 53.5032 382.824 53.5901 382.733L54.0239 383.147ZM53.2717 383.472H52.7947V382.872H53.2717V383.472ZM52.7987 383.472C52.0893 383.481 51.3898 383.304 50.7649 382.956L51.0568 382.431C51.591 382.729 52.1873 382.88 52.7908 382.872L52.7987 383.472ZM50.7649 382.956C50.1402 382.608 49.6108 382.102 49.2246 381.486L49.733 381.167C50.0668 381.7 50.5224 382.134 51.0568 382.431L50.7649 382.956ZM49.2234 381.484C48.4324 380.201 46.1819 375.613 49.3153 369.201L49.8543 369.464C46.8404 375.632 49.0111 379.996 49.7342 381.169L49.2234 381.484ZM49.3217 369.188L52.4862 363.413L53.0124 363.701L49.8479 369.476L49.3217 369.188ZM96.4828 374.051C96.3357 374.065 96.1958 374.137 96.0921 374.256L95.6399 373.861C95.8417 373.63 96.1214 373.483 96.4256 373.454L96.4828 374.051ZM96.0921 374.256C95.9881 374.375 95.9286 374.533 95.9286 374.699H95.3286C95.3286 374.391 95.4385 374.092 95.6399 373.861L96.0921 374.256ZM95.9286 374.699C95.9286 374.866 95.9881 375.024 96.0921 375.143L95.6399 375.537C95.4385 375.306 95.3286 375.007 95.3286 374.699H95.9286ZM96.0921 375.143C96.1958 375.262 96.3357 375.333 96.4828 375.347L96.4256 375.945C96.1214 375.916 95.8417 375.769 95.6399 375.537L96.0921 375.143ZM96.4542 375.346H97.4687V375.946H96.4542V375.346ZM97.169 375.66C97.1402 375.037 97.0757 374.416 96.9757 373.801L97.5679 373.705C97.6716 374.342 97.7385 374.986 97.7683 375.632L97.169 375.66ZM97.2718 374.053H96.4542V373.453H97.2718V374.053ZM58.3695 361.884C57.542 361.913 56.735 362.167 56.0284 362.623L55.7031 362.119C56.4995 361.605 57.4114 361.317 58.3486 361.285L58.3695 361.884ZM56.0284 362.623C55.3216 363.079 54.7393 363.722 54.3402 364.488L53.8081 364.211C54.254 363.354 54.9068 362.633 55.7031 362.119L56.0284 362.623ZM54.3371 364.494L51.8843 368.962L51.3583 368.673L53.8112 364.205L54.3371 364.494ZM51.6213 368.517H57.5263V369.117H51.6213V368.517ZM57.2383 368.733L59.3429 361.501L59.919 361.668L57.8144 368.901L57.2383 368.733ZM59.6309 361.884H58.3591V361.284H59.6309V361.884ZM61.5088 361.668L59.4042 368.901L58.8281 368.733L60.9327 361.501L61.5088 361.668ZM59.1161 368.517H73.5002V369.117H59.1161V368.517ZM73.2016 368.846L72.5127 361.613L73.11 361.556L73.7989 368.789L73.2016 368.846ZM72.8113 361.884H61.2208V361.284H72.8113V361.884ZM88.9541 368.921L82.6856 362.338L83.1201 361.924L89.3886 368.507L88.9541 368.921ZM82.6679 362.318C82.5492 362.168 82.4013 362.049 82.2354 361.968L82.4994 361.429C82.747 361.55 82.9648 361.727 83.1378 361.945L82.6679 362.318ZM82.2354 361.968C82.0695 361.886 81.8892 361.845 81.7072 361.845L81.7062 361.245C81.9809 361.244 82.2518 361.307 82.4994 361.429L82.2354 361.968ZM81.7067 361.845H74.333V361.245H81.7067V361.845ZM74.6317 361.517L75.313 368.789L74.7157 368.845L74.0343 361.573L74.6317 361.517ZM75.0143 368.517H89.2319V369.117H75.0143V368.517ZM88.9733 368.969L88.9127 368.866L89.4299 368.562L89.4905 368.665L88.9733 368.969ZM49.5394 375.283H50.4251V375.883H49.5394V375.283ZM50.4257 375.283C50.538 375.283 50.6488 375.238 50.7346 375.154L51.1554 375.582C50.9598 375.774 50.6985 375.883 50.4246 375.883L50.4257 375.283ZM50.7346 375.154C50.8209 375.069 50.8752 374.95 50.8827 374.821L51.4817 374.855C51.4659 375.129 51.3506 375.39 51.1554 375.582L50.7346 375.154ZM50.8822 374.838V374.482H51.4822V374.838H50.8822ZM50.8827 374.499C50.8752 374.369 50.8209 374.251 50.7346 374.166L51.1554 373.738C51.3506 373.93 51.4659 374.19 51.4817 374.464L50.8827 374.499ZM50.7346 374.166C50.6488 374.081 50.538 374.037 50.4257 374.037L50.4246 373.437C50.6985 373.436 50.9598 373.546 51.1554 373.738L50.7346 374.166ZM50.4251 374.037H49.6681V373.437H50.4251V374.037ZM49.9635 373.789C49.8582 374.384 49.804 374.987 49.8015 375.592L49.2015 375.589C49.2042 374.95 49.2614 374.313 49.3727 373.685L49.9635 373.789ZM49.44 375.297L49.4779 375.289L49.6008 375.876L49.563 375.884L49.44 375.297Z" fill="#153A7E" mask="url(#path-23-inside-1)"/>
<path d="M79.0253 373.367H82.1414C82.3047 373.367 82.4684 373.289 82.5939 373.138C82.7201 372.987 82.7945 372.776 82.7945 372.552C82.7945 372.327 82.7201 372.117 82.5939 371.965C82.4684 371.814 82.3047 371.736 82.1414 371.736H79.0253C78.862 371.736 78.6983 371.814 78.5728 371.965C78.4466 372.117 78.3722 372.327 78.3722 372.552C78.3722 372.776 78.4466 372.987 78.5728 373.138C78.6983 373.289 78.862 373.367 79.0253 373.367Z" fill="white" stroke="#153A7E" stroke-width="0.3"/>
<path d="M61.5718 373.139C61.6967 373.29 61.8593 373.367 62.0213 373.367H65.1454C65.3074 373.367 65.47 373.29 65.5949 373.139C65.7204 372.987 65.7945 372.776 65.7945 372.552C65.7945 372.327 65.7204 372.116 65.5949 371.965C65.47 371.814 65.3074 371.736 65.1454 371.736H62.0213C61.8593 371.736 61.6967 371.814 61.5718 371.965C61.4463 372.116 61.3722 372.327 61.3722 372.552C61.3722 372.776 61.4463 372.987 61.5718 373.139Z" fill="white" stroke="#153A7E" stroke-width="0.3"/>
</svg>
