<svg width="217" height="77" viewBox="0 0 217 77" fill="none" xmlns="http://www.w3.org/2000/svg">
<path d="M15.492 38.6C12.592 38.6 10.0087 37.8833 7.74199 36.45C5.47533 35.0167 3.69199 32.95 2.39199 30.25C1.12533 27.5167 0.491992 24.2667 0.491992 20.5C0.491992 16.7333 1.12533 13.5 2.39199 10.8C3.69199 8.06666 5.47533 5.98333 7.74199 4.55C10.0087 3.11667 12.592 2.4 15.492 2.4C18.392 2.4 20.9753 3.11667 23.242 4.55C25.5087 5.98333 27.2753 8.06666 28.542 10.8C29.842 13.5 30.492 16.7333 30.492 20.5C30.492 24.2667 29.842 27.5167 28.542 30.25C27.2753 32.95 25.5087 35.0167 23.242 36.45C20.9753 37.8833 18.392 38.6 15.492 38.6ZM15.492 31.75C17.6253 31.75 19.292 30.8333 20.492 29C21.7253 27.1667 22.342 24.3333 22.342 20.5C22.342 16.6667 21.7253 13.8333 20.492 12C19.292 10.1667 17.6253 9.25 15.492 9.25C13.392 9.25 11.7253 10.1667 10.492 12C9.29199 13.8333 8.69199 16.6667 8.69199 20.5C8.69199 24.3333 9.29199 27.1667 10.492 29C11.7253 30.8333 13.392 31.75 15.492 31.75ZM47.6275 27.45L43.8775 31.15V38H36.0775V0.899998H43.8775V21.9L55.2775 11.1H64.5775L53.3775 22.5L65.5775 38H56.1275L47.6275 27.45ZM95.6635 11.1V33.5C95.6635 38.4333 94.3801 42.1 91.8135 44.5C89.2468 46.9 85.4968 48.1 80.5635 48.1C77.9635 48.1 75.4968 47.7833 73.1635 47.15C70.8301 46.5167 68.8968 45.6 67.3635 44.4L70.4635 38.8C71.5968 39.7333 73.0301 40.4667 74.7635 41C76.4968 41.5667 78.2301 41.85 79.9635 41.85C82.6635 41.85 84.6468 41.2333 85.9135 40C87.2135 38.8 87.8635 36.9667 87.8635 34.5V33.35C85.8301 35.5833 82.9968 36.7 79.3635 36.7C76.8968 36.7 74.6301 36.1667 72.5635 35.1C70.5301 34 68.9135 32.4667 67.7135 30.5C66.5135 28.5333 65.9135 26.2667 65.9135 23.7C65.9135 21.1333 66.5135 18.8667 67.7135 16.9C68.9135 14.9333 70.5301 13.4167 72.5635 12.35C74.6301 11.25 76.8968 10.7 79.3635 10.7C83.2635 10.7 86.2301 11.9833 88.2635 14.55V11.1H95.6635ZM80.9135 30.3C82.9801 30.3 84.6635 29.7 85.9635 28.5C87.2968 27.2667 87.9635 25.6667 87.9635 23.7C87.9635 21.7333 87.2968 20.15 85.9635 18.95C84.6635 17.7167 82.9801 17.1 80.9135 17.1C78.8468 17.1 77.1468 17.7167 75.8135 18.95C74.4801 20.15 73.8135 21.7333 73.8135 23.7C73.8135 25.6667 74.4801 27.2667 75.8135 28.5C77.1468 29.7 78.8468 30.3 80.9135 30.3ZM123.587 15.74V38H119.117V36.14C117.957 37.54 116.277 38.24 114.077 38.24C112.557 38.24 111.177 37.9 109.937 37.22C108.717 36.54 107.757 35.57 107.057 34.31C106.357 33.05 106.007 31.59 106.007 29.93C106.007 28.27 106.357 26.81 107.057 25.55C107.757 24.29 108.717 23.32 109.937 22.64C111.177 21.96 112.557 21.62 114.077 21.62C116.137 21.62 117.747 22.27 118.907 23.57V15.74H123.587ZM114.887 34.4C116.067 34.4 117.047 34 117.827 33.2C118.607 32.38 118.997 31.29 118.997 29.93C118.997 28.57 118.607 27.49 117.827 26.69C117.047 25.87 116.067 25.46 114.887 25.46C113.687 25.46 112.697 25.87 111.917 26.69C111.137 27.49 110.747 28.57 110.747 29.93C110.747 31.29 111.137 32.38 111.917 33.2C112.697 34 113.687 34.4 114.887 34.4ZM143.729 29.99C143.729 30.05 143.699 30.47 143.639 31.25H131.429C131.649 32.25 132.169 33.04 132.989 33.62C133.809 34.2 134.829 34.49 136.049 34.49C136.889 34.49 137.629 34.37 138.269 34.13C138.929 33.87 139.539 33.47 140.099 32.93L142.589 35.63C141.069 37.37 138.849 38.24 135.929 38.24C134.109 38.24 132.499 37.89 131.099 37.19C129.699 36.47 128.619 35.48 127.859 34.22C127.099 32.96 126.719 31.53 126.719 29.93C126.719 28.35 127.089 26.93 127.829 25.67C128.589 24.39 129.619 23.4 130.919 22.7C132.239 21.98 133.709 21.62 135.329 21.62C136.909 21.62 138.339 21.96 139.619 22.64C140.899 23.32 141.899 24.3 142.619 25.58C143.359 26.84 143.729 28.31 143.729 29.99ZM135.359 25.16C134.299 25.16 133.409 25.46 132.689 26.06C131.969 26.66 131.529 27.48 131.369 28.52H139.319C139.159 27.5 138.719 26.69 137.999 26.09C137.279 25.47 136.399 25.16 135.359 25.16ZM165.721 38.36C163.581 38.36 161.641 37.9 159.901 36.98C158.181 36.04 156.821 34.75 155.821 33.11C154.841 31.45 154.351 29.58 154.351 27.5C154.351 25.42 154.841 23.56 155.821 21.92C156.821 20.26 158.181 18.97 159.901 18.05C161.641 17.11 163.591 16.64 165.751 16.64C167.571 16.64 169.211 16.96 170.671 17.6C172.151 18.24 173.391 19.16 174.391 20.36L171.271 23.24C169.851 21.6 168.091 20.78 165.991 20.78C164.691 20.78 163.531 21.07 162.511 21.65C161.491 22.21 160.691 23 160.111 24.02C159.551 25.04 159.271 26.2 159.271 27.5C159.271 28.8 159.551 29.96 160.111 30.98C160.691 32 161.491 32.8 162.511 33.38C163.531 33.94 164.691 34.22 165.991 34.22C168.091 34.22 169.851 33.39 171.271 31.73L174.391 34.61C173.391 35.83 172.151 36.76 170.671 37.4C169.191 38.04 167.541 38.36 165.721 38.36ZM187.403 38.36C185.223 38.36 183.253 37.89 181.493 36.95C179.753 36.01 178.383 34.72 177.383 33.08C176.403 31.42 175.913 29.56 175.913 27.5C175.913 25.44 176.403 23.59 177.383 21.95C178.383 20.29 179.753 18.99 181.493 18.05C183.253 17.11 185.223 16.64 187.403 16.64C189.583 16.64 191.543 17.11 193.283 18.05C195.023 18.99 196.393 20.29 197.393 21.95C198.393 23.59 198.893 25.44 198.893 27.5C198.893 29.56 198.393 31.42 197.393 33.08C196.393 34.72 195.023 36.01 193.283 36.95C191.543 37.89 189.583 38.36 187.403 38.36ZM187.403 34.22C188.643 34.22 189.763 33.94 190.763 33.38C191.763 32.8 192.543 32 193.103 30.98C193.683 29.96 193.973 28.8 193.973 27.5C193.973 26.2 193.683 25.04 193.103 24.02C192.543 23 191.763 22.21 190.763 21.65C189.763 21.07 188.643 20.78 187.403 20.78C186.163 20.78 185.043 21.07 184.043 21.65C183.043 22.21 182.253 23 181.673 24.02C181.113 25.04 180.833 26.2 180.833 27.5C180.833 28.8 181.113 29.96 181.673 30.98C182.253 32 183.043 32.8 184.043 33.38C185.043 33.94 186.163 34.22 187.403 34.22ZM216.623 34.04V38H200.753V34.85L208.853 27.2C209.713 26.38 210.293 25.68 210.593 25.1C210.893 24.5 211.043 23.91 211.043 23.33C211.043 22.49 210.753 21.85 210.173 21.41C209.613 20.95 208.783 20.72 207.683 20.72C206.763 20.72 205.933 20.9 205.193 21.26C204.453 21.6 203.833 22.12 203.333 22.82L199.793 20.54C200.613 19.32 201.743 18.37 203.183 17.69C204.623 16.99 206.273 16.64 208.133 16.64C209.693 16.64 211.053 16.9 212.213 17.42C213.393 17.92 214.303 18.64 214.943 19.58C215.603 20.5 215.933 21.59 215.933 22.85C215.933 23.99 215.693 25.06 215.213 26.06C214.733 27.06 213.803 28.2 212.423 29.48L207.593 34.04H216.623ZM62.734 62.4C63.7207 62.4 64.614 62.6267 65.414 63.08C66.214 63.52 66.8407 64.1467 67.294 64.96C67.7473 65.7733 67.974 66.7 67.974 67.74C67.974 68.7933 67.7473 69.7267 67.294 70.54C66.8407 71.3533 66.214 71.9867 65.414 72.44C64.6273 72.88 63.734 73.1 62.734 73.1C61.8807 73.1 61.1073 72.9267 60.414 72.58C59.734 72.22 59.174 71.7 58.734 71.02V76.88H57.314V62.48H58.674V64.56C59.1007 63.8667 59.6607 63.3333 60.354 62.96C61.0607 62.5867 61.854 62.4 62.734 62.4ZM62.634 71.84C63.3673 71.84 64.034 71.6733 64.634 71.34C65.234 70.9933 65.7007 70.5067 66.034 69.88C66.3807 69.2533 66.554 68.54 66.554 67.74C66.554 66.94 66.3807 66.2333 66.034 65.62C65.7007 64.9933 65.234 64.5067 64.634 64.16C64.034 63.8133 63.3673 63.64 62.634 63.64C61.8873 63.64 61.214 63.8133 60.614 64.16C60.0273 64.5067 59.5607 64.9933 59.214 65.62C58.8807 66.2333 58.714 66.94 58.714 67.74C58.714 68.54 58.8807 69.2533 59.214 69.88C59.5607 70.5067 60.0273 70.9933 60.614 71.34C61.214 71.6733 61.8873 71.84 62.634 71.84ZM74.4901 62.4C75.8634 62.4 76.9167 62.7467 77.6501 63.44C78.3834 64.12 78.7501 65.1333 78.7501 66.48V73H77.3901V71.36C77.0701 71.9067 76.5967 72.3333 75.9701 72.64C75.3567 72.9467 74.6234 73.1 73.7701 73.1C72.5967 73.1 71.6634 72.82 70.9701 72.26C70.2767 71.7 69.9301 70.96 69.9301 70.04C69.9301 69.1467 70.2501 68.4267 70.8901 67.88C71.5434 67.3333 72.5767 67.06 73.9901 67.06H77.3301V66.42C77.3301 65.5133 77.0767 64.8267 76.5701 64.36C76.0634 63.88 75.3234 63.64 74.3501 63.64C73.6834 63.64 73.0434 63.7533 72.4301 63.98C71.8167 64.1933 71.2901 64.4933 70.8501 64.88L70.2101 63.82C70.7434 63.3667 71.3834 63.02 72.1301 62.78C72.8767 62.5267 73.6634 62.4 74.4901 62.4ZM73.9901 71.98C74.7901 71.98 75.4767 71.8 76.0501 71.44C76.6234 71.0667 77.0501 70.5333 77.3301 69.84V68.12H74.0301C72.2301 68.12 71.3301 68.7467 71.3301 70C71.3301 70.6133 71.5634 71.1 72.0301 71.46C72.4967 71.8067 73.1501 71.98 73.9901 71.98ZM83.967 64.54C84.3003 63.8333 84.7936 63.3 85.447 62.94C86.1136 62.58 86.9336 62.4 87.907 62.4V63.78L87.567 63.76C86.4603 63.76 85.5936 64.1 84.967 64.78C84.3403 65.46 84.027 66.4133 84.027 67.64V73H82.607V62.48H83.967V64.54ZM98.8087 59V73H97.3687V60.28H94.0687V59H98.8087ZM107.735 73.12C106.655 73.12 105.689 72.8333 104.835 72.26C103.995 71.6867 103.335 70.8667 102.855 69.8C102.389 68.72 102.155 67.4533 102.155 66C102.155 64.5467 102.389 63.2867 102.855 62.22C103.335 61.14 103.995 60.3133 104.835 59.74C105.689 59.1667 106.655 58.88 107.735 58.88C108.815 58.88 109.775 59.1667 110.615 59.74C111.469 60.3133 112.135 61.14 112.615 62.22C113.095 63.2867 113.335 64.5467 113.335 66C113.335 67.4533 113.095 68.72 112.615 69.8C112.135 70.8667 111.469 71.6867 110.615 72.26C109.775 72.8333 108.815 73.12 107.735 73.12ZM107.735 71.8C108.549 71.8 109.262 71.5733 109.875 71.12C110.502 70.6667 110.989 70.0067 111.335 69.14C111.682 68.2733 111.855 67.2267 111.855 66C111.855 64.7733 111.682 63.7267 111.335 62.86C110.989 61.9933 110.502 61.3333 109.875 60.88C109.262 60.4267 108.549 60.2 107.735 60.2C106.922 60.2 106.202 60.4267 105.575 60.88C104.962 61.3333 104.482 61.9933 104.135 62.86C103.789 63.7267 103.615 64.7733 103.615 66C103.615 67.2267 103.789 68.2733 104.135 69.14C104.482 70.0067 104.962 70.6667 105.575 71.12C106.202 71.5733 106.922 71.8 107.735 71.8ZM120.977 73.12C119.897 73.12 118.931 72.8333 118.077 72.26C117.237 71.6867 116.577 70.8667 116.097 69.8C115.631 68.72 115.397 67.4533 115.397 66C115.397 64.5467 115.631 63.2867 116.097 62.22C116.577 61.14 117.237 60.3133 118.077 59.74C118.931 59.1667 119.897 58.88 120.977 58.88C122.057 58.88 123.017 59.1667 123.857 59.74C124.711 60.3133 125.377 61.14 125.857 62.22C126.337 63.2867 126.577 64.5467 126.577 66C126.577 67.4533 126.337 68.72 125.857 69.8C125.377 70.8667 124.711 71.6867 123.857 72.26C123.017 72.8333 122.057 73.12 120.977 73.12ZM120.977 71.8C121.791 71.8 122.504 71.5733 123.117 71.12C123.744 70.6667 124.231 70.0067 124.577 69.14C124.924 68.2733 125.097 67.2267 125.097 66C125.097 64.7733 124.924 63.7267 124.577 62.86C124.231 61.9933 123.744 61.3333 123.117 60.88C122.504 60.4267 121.791 60.2 120.977 60.2C120.164 60.2 119.444 60.4267 118.817 60.88C118.204 61.3333 117.724 61.9933 117.377 62.86C117.031 63.7267 116.857 64.7733 116.857 66C116.857 67.2267 117.031 68.2733 117.377 69.14C117.724 70.0067 118.204 70.6667 118.817 71.12C119.444 71.5733 120.164 71.8 120.977 71.8ZM133.48 67.72L131 70V73H129.58V58.16H131V68.22L137.28 62.48H139.04L134.54 66.78L139.46 73H137.72L133.48 67.72ZM154.555 62.4C155.875 62.4 156.908 62.78 157.655 63.54C158.415 64.3 158.795 65.42 158.795 66.9V73H157.375V67.04C157.375 65.9467 157.108 65.1133 156.575 64.54C156.055 63.9667 155.315 63.68 154.355 63.68C153.262 63.68 152.402 64.02 151.775 64.7C151.148 65.3667 150.835 66.2933 150.835 67.48V73H149.415V67.04C149.415 65.9467 149.148 65.1133 148.615 64.54C148.095 63.9667 147.348 63.68 146.375 63.68C145.295 63.68 144.435 64.02 143.795 64.7C143.168 65.3667 142.855 66.2933 142.855 67.48V73H141.435V62.48H142.795V64.4C143.168 63.76 143.688 63.2667 144.355 62.92C145.022 62.5733 145.788 62.4 146.655 62.4C147.535 62.4 148.295 62.5867 148.935 62.96C149.588 63.3333 150.075 63.8867 150.395 64.62C150.782 63.9267 151.335 63.3867 152.055 63C152.788 62.6 153.622 62.4 154.555 62.4Z" fill="white"/>
</svg>
