<svg width="140" height="72" viewBox="0 0 140 72" fill="none" xmlns="http://www.w3.org/2000/svg">
<path d="M69.9822 36.6C67.0822 36.6 64.4989 35.8833 62.2322 34.45C59.9656 33.0167 58.1822 30.95 56.8822 28.25C55.6156 25.5167 54.9822 22.2667 54.9822 18.5C54.9822 14.7333 55.6156 11.5 56.8822 8.8C58.1822 6.06666 59.9656 3.98333 62.2322 2.55C64.4989 1.11667 67.0822 0.399999 69.9822 0.399999C72.8822 0.399999 75.4656 1.11667 77.7322 2.55C79.9989 3.98333 81.7656 6.06666 83.0322 8.8C84.3322 11.5 84.9822 14.7333 84.9822 18.5C84.9822 22.2667 84.3322 25.5167 83.0322 28.25C81.7656 30.95 79.9989 33.0167 77.7322 34.45C75.4656 35.8833 72.8822 36.6 69.9822 36.6ZM69.9822 29.75C72.1156 29.75 73.7822 28.8333 74.9822 27C76.2156 25.1667 76.8322 22.3333 76.8322 18.5C76.8322 14.6667 76.2156 11.8333 74.9822 10C73.7822 8.16666 72.1156 7.25 69.9822 7.25C67.8822 7.25 66.2156 8.16666 64.9822 10C63.7822 11.8333 63.1822 14.6667 63.1822 18.5C63.1822 22.3333 63.7822 25.1667 64.9822 27C66.2156 28.8333 67.8822 29.75 69.9822 29.75ZM8.06566 71.192C6.68966 71.192 5.44966 70.912 4.34566 70.352C3.25766 69.776 2.40166 68.984 1.77766 67.976C1.16966 66.968 0.865656 65.824 0.865656 64.544C0.865656 63.264 1.16966 62.12 1.77766 61.112C2.40166 60.104 3.25766 59.32 4.34566 58.76C5.44966 58.184 6.68966 57.896 8.06566 57.896C9.42566 57.896 10.6097 58.184 11.6177 58.76C12.6417 59.32 13.3857 60.128 13.8497 61.184L10.9457 62.744C10.2737 61.56 9.30566 60.968 8.04166 60.968C7.06566 60.968 6.25766 61.288 5.61766 61.928C4.97766 62.568 4.65766 63.44 4.65766 64.544C4.65766 65.648 4.97766 66.52 5.61766 67.16C6.25766 67.8 7.06566 68.12 8.04166 68.12C9.32166 68.12 10.2897 67.528 10.9457 66.344L13.8497 67.928C13.3857 68.952 12.6417 69.752 11.6177 70.328C10.6097 70.904 9.42566 71.192 8.06566 71.192ZM21.9853 71.192C20.6253 71.192 19.4013 70.912 18.3133 70.352C17.2413 69.776 16.4013 68.984 15.7933 67.976C15.1853 66.968 14.8813 65.824 14.8813 64.544C14.8813 63.264 15.1853 62.12 15.7933 61.112C16.4013 60.104 17.2413 59.32 18.3133 58.76C19.4013 58.184 20.6253 57.896 21.9853 57.896C23.3453 57.896 24.5613 58.184 25.6333 58.76C26.7053 59.32 27.5453 60.104 28.1533 61.112C28.7613 62.12 29.0653 63.264 29.0653 64.544C29.0653 65.824 28.7613 66.968 28.1533 67.976C27.5453 68.984 26.7053 69.776 25.6333 70.352C24.5613 70.912 23.3453 71.192 21.9853 71.192ZM21.9853 68.12C22.9453 68.12 23.7293 67.8 24.3373 67.16C24.9613 66.504 25.2733 65.632 25.2733 64.544C25.2733 63.456 24.9613 62.592 24.3373 61.952C23.7293 61.296 22.9453 60.968 21.9853 60.968C21.0253 60.968 20.2333 61.296 19.6093 61.952C18.9853 62.592 18.6733 63.456 18.6733 64.544C18.6733 65.632 18.9853 66.504 19.6093 67.16C20.2333 67.8 21.0253 68.12 21.9853 68.12ZM44.5758 58.088V71H41.0238V69.464C40.5278 70.024 39.9358 70.456 39.2478 70.76C38.5598 71.048 37.8158 71.192 37.0158 71.192C35.3198 71.192 33.9758 70.704 32.9838 69.728C31.9918 68.752 31.4958 67.304 31.4958 65.384V58.088H35.2398V64.832C35.2398 66.912 36.1118 67.952 37.8558 67.952C38.7518 67.952 39.4718 67.664 40.0158 67.088C40.5598 66.496 40.8318 65.624 40.8318 64.472V58.088H44.5758ZM51.6204 59.792C52.0684 59.168 52.6684 58.696 53.4204 58.376C54.1884 58.056 55.0684 57.896 56.0604 57.896V61.352C55.6444 61.32 55.3644 61.304 55.2204 61.304C54.1484 61.304 53.3084 61.608 52.7004 62.216C52.0924 62.808 51.7884 63.704 51.7884 64.904V71H48.0444V58.088H51.6204V59.792ZM65.9186 57.896C67.1186 57.896 68.2066 58.176 69.1826 58.736C70.1746 59.28 70.9506 60.056 71.5106 61.064C72.0706 62.056 72.3506 63.216 72.3506 64.544C72.3506 65.872 72.0706 67.04 71.5106 68.048C70.9506 69.04 70.1746 69.816 69.1826 70.376C68.2066 70.92 67.1186 71.192 65.9186 71.192C64.1426 71.192 62.7906 70.632 61.8626 69.512V71H58.2866V53.192H62.0306V59.456C62.9746 58.416 64.2706 57.896 65.9186 57.896ZM65.2706 68.12C66.2306 68.12 67.0146 67.8 67.6226 67.16C68.2466 66.504 68.5586 65.632 68.5586 64.544C68.5586 63.456 68.2466 62.592 67.6226 61.952C67.0146 61.296 66.2306 60.968 65.2706 60.968C64.3106 60.968 63.5186 61.296 62.8946 61.952C62.2866 62.592 61.9826 63.456 61.9826 64.544C61.9826 65.632 62.2866 66.504 62.8946 67.16C63.5186 67.8 64.3106 68.12 65.2706 68.12ZM79.854 57.896C81.854 57.896 83.39 58.376 84.462 59.336C85.534 60.28 86.07 61.712 86.07 63.632V71H82.566V69.392C81.862 70.592 80.55 71.192 78.63 71.192C77.638 71.192 76.774 71.024 76.038 70.688C75.318 70.352 74.766 69.888 74.382 69.296C73.998 68.704 73.806 68.032 73.806 67.28C73.806 66.08 74.254 65.136 75.15 64.448C76.062 63.76 77.462 63.416 79.35 63.416H82.326C82.326 62.6 82.078 61.976 81.582 61.544C81.086 61.096 80.342 60.872 79.35 60.872C78.662 60.872 77.982 60.984 77.31 61.208C76.654 61.416 76.094 61.704 75.63 62.072L74.286 59.456C74.99 58.96 75.83 58.576 76.806 58.304C77.798 58.032 78.814 57.896 79.854 57.896ZM79.566 68.672C80.206 68.672 80.774 68.528 81.27 68.24C81.766 67.936 82.118 67.496 82.326 66.92V65.6H79.758C78.222 65.6 77.454 66.104 77.454 67.112C77.454 67.592 77.638 67.976 78.006 68.264C78.39 68.536 78.91 68.672 79.566 68.672ZM97.7865 70.376C97.4185 70.648 96.9625 70.856 96.4185 71C95.8905 71.128 95.3305 71.192 94.7385 71.192C93.2025 71.192 92.0105 70.8 91.1625 70.016C90.3305 69.232 89.9145 68.08 89.9145 66.56V61.256H87.9225V58.376H89.9145V55.232H93.6585V58.376H96.8745V61.256H93.6585V66.512C93.6585 67.056 93.7945 67.48 94.0665 67.784C94.3545 68.072 94.7545 68.216 95.2665 68.216C95.8585 68.216 96.3625 68.056 96.7785 67.736L97.7865 70.376ZM112.896 58.088V71H109.344V69.464C108.848 70.024 108.256 70.456 107.568 70.76C106.88 71.048 106.136 71.192 105.336 71.192C103.64 71.192 102.296 70.704 101.304 69.728C100.312 68.752 99.8162 67.304 99.8162 65.384V58.088H103.56V64.832C103.56 66.912 104.432 67.952 106.176 67.952C107.072 67.952 107.792 67.664 108.336 67.088C108.88 66.496 109.152 65.624 109.152 64.472V58.088H112.896ZM119.941 59.792C120.389 59.168 120.989 58.696 121.741 58.376C122.509 58.056 123.389 57.896 124.381 57.896V61.352C123.965 61.32 123.685 61.304 123.541 61.304C122.469 61.304 121.629 61.608 121.021 62.216C120.413 62.808 120.109 63.704 120.109 64.904V71H116.365V58.088H119.941V59.792ZM139.138 64.592C139.138 64.64 139.114 64.976 139.066 65.6H129.298C129.474 66.4 129.89 67.032 130.546 67.496C131.202 67.96 132.018 68.192 132.994 68.192C133.666 68.192 134.258 68.096 134.77 67.904C135.298 67.696 135.786 67.376 136.234 66.944L138.226 69.104C137.01 70.496 135.234 71.192 132.898 71.192C131.442 71.192 130.154 70.912 129.034 70.352C127.914 69.776 127.05 68.984 126.442 67.976C125.834 66.968 125.53 65.824 125.53 64.544C125.53 63.28 125.826 62.144 126.418 61.136C127.026 60.112 127.85 59.32 128.89 58.76C129.946 58.184 131.122 57.896 132.418 57.896C133.682 57.896 134.826 58.168 135.85 58.712C136.874 59.256 137.674 60.04 138.25 61.064C138.842 62.072 139.138 63.248 139.138 64.592ZM132.442 60.728C131.594 60.728 130.882 60.968 130.306 61.448C129.73 61.928 129.378 62.584 129.25 63.416H135.61C135.482 62.6 135.13 61.952 134.554 61.472C133.978 60.976 133.274 60.728 132.442 60.728Z" fill="white"/>
</svg>
