<svg width="300" height="28" viewBox="0 0 300 28" fill="none" xmlns="http://www.w3.org/2000/svg">
<path d="M17.1357 3.62868C18.0414 4.02533 19.1371 4.08409 20.2035 4.01063C21.0508 3.95187 21.9565 3.79028 22.5409 3.24673C23.1252 2.70318 23.1252 1.71892 22.351 1.46919C21.8981 1.32228 21.3576 1.46919 20.8463 1.51326C19.9552 1.57202 19.1225 1.26352 18.2606 1.11662C15.5726 0.631831 14.8422 2.62973 17.1357 3.62868Z" fill="white"/>
<path d="M11.7597 27.9999C6.0185 27.9999 1.34375 23.2989 1.34375 17.5256C1.34375 11.7522 6.0185 7.05127 11.7597 7.05127C17.5009 7.05127 22.1756 11.7522 22.1756 17.5256C22.1756 23.2989 17.5009 27.9999 11.7597 27.9999ZM11.7597 7.94739C6.50059 7.94739 2.22027 12.2517 2.22027 17.5403C2.22027 22.8288 6.50059 27.1331 11.7597 27.1331C17.0188 27.1331 21.2991 22.8288 21.2991 17.5403C21.2991 12.2517 17.0188 7.94739 11.7597 7.94739Z" fill="white"/>
<path d="M41.0795 27.9999C35.3383 27.9999 30.6636 23.2989 30.6636 17.5256C30.6636 11.7522 35.3383 7.05127 41.0795 7.05127C46.8207 7.05127 51.4954 11.7522 51.4954 17.5256C51.4954 23.2989 46.8207 27.9999 41.0795 27.9999ZM41.0795 7.94739C35.8204 7.94739 31.5401 12.2517 31.5401 17.5403C31.5401 22.8288 35.8204 27.1331 41.0795 27.1331C46.3386 27.1331 50.6189 22.8288 50.6189 17.5403C50.6189 12.2517 46.3386 7.94739 41.0795 7.94739Z" fill="white"/>
<path d="M41.0793 17.9664C40.9186 17.9664 40.7725 17.8782 40.6849 17.7313L31.9636 0.646338C31.8905 0.514124 31.9051 0.352529 31.9782 0.220315C32.0512 0.0881007 32.1973 0.0146484 32.358 0.0146484H38.4352C38.5666 0.0146484 38.6835 0.0734102 38.7566 0.161553L39.1218 0.572886C39.9545 1.49838 39.9691 2.90867 39.151 3.86355L38.7566 4.31895C38.6689 4.42178 38.552 4.46586 38.4206 4.46586H36.7113C36.463 4.46586 36.2731 4.27488 36.2731 4.02514C36.2731 3.7754 36.463 3.58443 36.7113 3.58443H38.2306L38.4936 3.27593C39.0195 2.67362 39.0049 1.76281 38.479 1.1605L38.2306 0.881385H33.0738L41.4591 17.3347C41.576 17.555 41.4884 17.8195 41.2692 17.9223C41.2108 17.9517 41.1524 17.9664 41.0793 17.9664Z" fill="white"/>
<path d="M25.9888 17.9666H11.76C11.5994 17.9666 11.4533 17.8784 11.3656 17.7315C11.2926 17.5846 11.3072 17.4083 11.3948 17.2761L20.0577 4.74518C20.1454 4.62765 20.2769 4.5542 20.4229 4.5542H34.1404C34.3011 4.5542 34.4472 4.64234 34.5202 4.78925C34.5933 4.93615 34.5933 5.09775 34.5056 5.24465L26.354 17.7756C26.2664 17.8931 26.1349 17.9666 25.9888 17.9666ZM12.6073 17.0852H25.7551L33.3516 5.43563H20.6713L12.6073 17.0852Z" fill="white"/>
<path d="M0.438258 16.7177C0.189912 16.7177 0 16.5268 0 16.277C0 10.5037 4.67475 5.80273 10.4159 5.80273C10.6643 5.80273 10.8542 5.99371 10.8542 6.24345C10.8542 6.49319 10.6643 6.68416 10.4159 6.68416C5.15684 6.68416 0.876516 10.9885 0.876516 16.277C0.876516 16.5268 0.686604 16.7177 0.438258 16.7177Z" fill="white"/>
<path d="M11.76 17.9661C11.5117 17.9661 11.3218 17.7752 11.3218 17.5254V9.93046C11.3218 9.68072 11.5117 9.48975 11.76 9.48975C12.0084 9.48975 12.1983 9.68072 12.1983 9.93046V17.5254C12.1983 17.7752 12.0084 17.9661 11.76 17.9661Z" fill="white"/>
<path d="M41.0794 17.9661C40.831 17.9661 40.6411 17.7752 40.6411 17.5254V9.93046C40.6411 9.68072 40.831 9.48975 41.0794 9.48975C41.3277 9.48975 41.5176 9.68072 41.5176 9.93046V17.5254C41.5176 17.7752 41.3131 17.9661 41.0794 17.9661Z" fill="white"/>
<circle cx="81" cy="16" r="9" fill="white"/>
<circle cx="291" cy="16" r="9" fill="white"/>
<line x1="81" y1="15" x2="291" y2="15" stroke="white" stroke-width="2"/>
</svg>
