<svg width="112" height="72" viewBox="0 0 112 72" fill="none" xmlns="http://www.w3.org/2000/svg">
<path d="M34.0584 36.6C31.1584 36.6 28.5751 35.8833 26.3084 34.45C24.0417 33.0167 22.2584 30.95 20.9584 28.25C19.6917 25.5167 19.0584 22.2667 19.0584 18.5C19.0584 14.7333 19.6917 11.5 20.9584 8.8C22.2584 6.06666 24.0417 3.98333 26.3084 2.55C28.5751 1.11667 31.1584 0.399999 34.0584 0.399999C36.9584 0.399999 39.5417 1.11667 41.8084 2.55C44.0751 3.98333 45.8417 6.06666 47.1084 8.8C48.4084 11.5 49.0584 14.7333 49.0584 18.5C49.0584 22.2667 48.4084 25.5167 47.1084 28.25C45.8417 30.95 44.0751 33.0167 41.8084 34.45C39.5417 35.8833 36.9584 36.6 34.0584 36.6ZM34.0584 29.75C36.1917 29.75 37.8584 28.8333 39.0584 27C40.2917 25.1667 40.9084 22.3333 40.9084 18.5C40.9084 14.6667 40.2917 11.8333 39.0584 10C37.8584 8.16666 36.1917 7.25 34.0584 7.25C31.9584 7.25 30.2917 8.16666 29.0584 10C27.8584 11.8333 27.2584 14.6667 27.2584 18.5C27.2584 22.3333 27.8584 25.1667 29.0584 27C30.2917 28.8333 31.9584 29.75 34.0584 29.75ZM61.0939 19.9C58.5273 19.9 56.4273 19.0333 54.7939 17.3C53.1939 15.5333 52.3939 13.1833 52.3939 10.25C52.3939 7.31666 53.1939 4.98333 54.7939 3.25C56.4273 1.48333 58.5273 0.6 61.0939 0.6C63.6606 0.6 65.7439 1.48333 67.3439 3.25C68.9439 4.98333 69.7439 7.31666 69.7439 10.25C69.7439 13.1833 68.9439 15.5333 67.3439 17.3C65.7439 19.0333 63.6606 19.9 61.0939 19.9ZM81.9439 0.999998H87.8939L63.9939 36H58.0439L81.9439 0.999998ZM61.0939 15.8C62.2273 15.8 63.1106 15.3333 63.7439 14.4C64.4106 13.4667 64.7439 12.0833 64.7439 10.25C64.7439 8.41666 64.4106 7.03333 63.7439 6.1C63.1106 5.16666 62.2273 4.7 61.0939 4.7C59.9939 4.7 59.1106 5.18333 58.4439 6.15C57.7773 7.08333 57.4439 8.45 57.4439 10.25C57.4439 12.05 57.7773 13.4333 58.4439 14.4C59.1106 15.3333 59.9939 15.8 61.0939 15.8ZM84.8439 36.4C83.1773 36.4 81.6773 36.0167 80.3439 35.25C79.0439 34.45 78.0273 33.3167 77.2939 31.85C76.5606 30.3833 76.1939 28.6833 76.1939 26.75C76.1939 24.8167 76.5606 23.1167 77.2939 21.65C78.0273 20.1833 79.0439 19.0667 80.3439 18.3C81.6773 17.5 83.1773 17.1 84.8439 17.1C87.4106 17.1 89.4939 17.9833 91.0939 19.75C92.7273 21.4833 93.5439 23.8167 93.5439 26.75C93.5439 29.6833 92.7273 32.0333 91.0939 33.8C89.4939 35.5333 87.4106 36.4 84.8439 36.4ZM84.8439 32.3C85.9773 32.3 86.8606 31.8333 87.4939 30.9C88.1606 29.9333 88.4939 28.55 88.4939 26.75C88.4939 24.95 88.1606 23.5833 87.4939 22.65C86.8606 21.6833 85.9773 21.2 84.8439 21.2C83.7439 21.2 82.8606 21.6667 82.1939 22.6C81.5273 23.5333 81.1939 24.9167 81.1939 26.75C81.1939 28.5833 81.5273 29.9667 82.1939 30.9C82.8606 31.8333 83.7439 32.3 84.8439 32.3ZM14.63 53.192V71H11.054V69.512C10.126 70.632 8.782 71.192 7.022 71.192C5.806 71.192 4.702 70.92 3.71 70.376C2.734 69.832 1.966 69.056 1.406 68.048C0.846 67.04 0.566 65.872 0.566 64.544C0.566 63.216 0.846 62.048 1.406 61.04C1.966 60.032 2.734 59.256 3.71 58.712C4.702 58.168 5.806 57.896 7.022 57.896C8.67 57.896 9.958 58.416 10.886 59.456V53.192H14.63ZM7.67 68.12C8.614 68.12 9.398 67.8 10.022 67.16C10.646 66.504 10.958 65.632 10.958 64.544C10.958 63.456 10.646 62.592 10.022 61.952C9.398 61.296 8.614 60.968 7.67 60.968C6.71 60.968 5.918 61.296 5.294 61.952C4.67 62.592 4.358 63.456 4.358 64.544C4.358 65.632 4.67 66.504 5.294 67.16C5.918 67.8 6.71 68.12 7.67 68.12ZM30.7432 64.592C30.7432 64.64 30.7192 64.976 30.6712 65.6H20.9032C21.0792 66.4 21.4952 67.032 22.1512 67.496C22.8072 67.96 23.6232 68.192 24.5992 68.192C25.2712 68.192 25.8632 68.096 26.3752 67.904C26.9032 67.696 27.3912 67.376 27.8392 66.944L29.8312 69.104C28.6152 70.496 26.8392 71.192 24.5032 71.192C23.0472 71.192 21.7592 70.912 20.6392 70.352C19.5192 69.776 18.6552 68.984 18.0472 67.976C17.4392 66.968 17.1352 65.824 17.1352 64.544C17.1352 63.28 17.4312 62.144 18.0232 61.136C18.6312 60.112 19.4552 59.32 20.4952 58.76C21.5512 58.184 22.7272 57.896 24.0232 57.896C25.2872 57.896 26.4312 58.168 27.4552 58.712C28.4792 59.256 29.2792 60.04 29.8552 61.064C30.4472 62.072 30.7432 63.248 30.7432 64.592ZM24.0472 60.728C23.1992 60.728 22.4872 60.968 21.9112 61.448C21.3352 61.928 20.9832 62.584 20.8552 63.416H27.2152C27.0872 62.6 26.7352 61.952 26.1592 61.472C25.5832 60.976 24.8792 60.728 24.0472 60.728ZM44.3767 71.192C43.3047 71.192 42.2567 71.064 41.2327 70.808C40.2087 70.536 39.3927 70.2 38.7847 69.8L40.0327 67.112C40.6087 67.48 41.3047 67.784 42.1207 68.024C42.9367 68.248 43.7367 68.36 44.5207 68.36C46.1047 68.36 46.8967 67.968 46.8967 67.184C46.8967 66.816 46.6807 66.552 46.2487 66.392C45.8167 66.232 45.1527 66.096 44.2567 65.984C43.2007 65.824 42.3287 65.64 41.6407 65.432C40.9527 65.224 40.3527 64.856 39.8407 64.328C39.3447 63.8 39.0967 63.048 39.0967 62.072C39.0967 61.256 39.3287 60.536 39.7927 59.912C40.2727 59.272 40.9607 58.776 41.8567 58.424C42.7687 58.072 43.8407 57.896 45.0727 57.896C45.9847 57.896 46.8887 58 47.7847 58.208C48.6967 58.4 49.4487 58.672 50.0407 59.024L48.7927 61.688C47.6567 61.048 46.4167 60.728 45.0727 60.728C44.2727 60.728 43.6727 60.84 43.2727 61.064C42.8727 61.288 42.6727 61.576 42.6727 61.928C42.6727 62.328 42.8887 62.608 43.3207 62.768C43.7527 62.928 44.4407 63.08 45.3847 63.224C46.4407 63.4 47.3047 63.592 47.9767 63.8C48.6487 63.992 49.2327 64.352 49.7287 64.88C50.2247 65.408 50.4727 66.144 50.4727 67.088C50.4727 67.888 50.2327 68.6 49.7527 69.224C49.2727 69.848 48.5687 70.336 47.6407 70.688C46.7287 71.024 45.6407 71.192 44.3767 71.192ZM61.1107 70.376C60.7427 70.648 60.2867 70.856 59.7427 71C59.2147 71.128 58.6547 71.192 58.0627 71.192C56.5267 71.192 55.3347 70.8 54.4867 70.016C53.6547 69.232 53.2387 68.08 53.2387 66.56V61.256H51.2467V58.376H53.2387V55.232H56.9827V58.376H60.1987V61.256H56.9827V66.512C56.9827 67.056 57.1187 67.48 57.3907 67.784C57.6787 68.072 58.0787 68.216 58.5907 68.216C59.1827 68.216 59.6867 68.056 60.1027 67.736L61.1107 70.376ZM66.7884 59.792C67.2364 59.168 67.8364 58.696 68.5884 58.376C69.3564 58.056 70.2364 57.896 71.2284 57.896V61.352C70.8124 61.32 70.5324 61.304 70.3884 61.304C69.3164 61.304 68.4764 61.608 67.8684 62.216C67.2604 62.808 66.9564 63.704 66.9564 64.904V71H63.2124V58.088H66.7884V59.792ZM85.9854 64.592C85.9854 64.64 85.9614 64.976 85.9134 65.6H76.1454C76.3214 66.4 76.7374 67.032 77.3934 67.496C78.0494 67.96 78.8654 68.192 79.8414 68.192C80.5134 68.192 81.1054 68.096 81.6174 67.904C82.1454 67.696 82.6334 67.376 83.0814 66.944L85.0734 69.104C83.8574 70.496 82.0814 71.192 79.7454 71.192C78.2894 71.192 77.0014 70.912 75.8814 70.352C74.7614 69.776 73.8974 68.984 73.2894 67.976C72.6814 66.968 72.3774 65.824 72.3774 64.544C72.3774 63.28 72.6734 62.144 73.2654 61.136C73.8734 60.112 74.6974 59.32 75.7374 58.76C76.7934 58.184 77.9694 57.896 79.2654 57.896C80.5294 57.896 81.6734 58.168 82.6974 58.712C83.7214 59.256 84.5214 60.04 85.0974 61.064C85.6894 62.072 85.9854 63.248 85.9854 64.592ZM79.2894 60.728C78.4414 60.728 77.7294 60.968 77.1534 61.448C76.5774 61.928 76.2254 62.584 76.0974 63.416H82.4574C82.3294 62.6 81.9774 61.952 81.4014 61.472C80.8254 60.976 80.1214 60.728 79.2894 60.728ZM92.822 71.192C91.75 71.192 90.702 71.064 89.678 70.808C88.654 70.536 87.838 70.2 87.23 69.8L88.478 67.112C89.054 67.48 89.75 67.784 90.566 68.024C91.382 68.248 92.182 68.36 92.966 68.36C94.55 68.36 95.342 67.968 95.342 67.184C95.342 66.816 95.126 66.552 94.694 66.392C94.262 66.232 93.598 66.096 92.702 65.984C91.646 65.824 90.774 65.64 90.086 65.432C89.398 65.224 88.798 64.856 88.286 64.328C87.79 63.8 87.542 63.048 87.542 62.072C87.542 61.256 87.774 60.536 88.238 59.912C88.718 59.272 89.406 58.776 90.302 58.424C91.214 58.072 92.286 57.896 93.518 57.896C94.43 57.896 95.334 58 96.23 58.208C97.142 58.4 97.894 58.672 98.486 59.024L97.238 61.688C96.102 61.048 94.862 60.728 93.518 60.728C92.718 60.728 92.118 60.84 91.718 61.064C91.318 61.288 91.118 61.576 91.118 61.928C91.118 62.328 91.334 62.608 91.766 62.768C92.198 62.928 92.886 63.08 93.83 63.224C94.886 63.4 95.75 63.592 96.422 63.8C97.094 63.992 97.678 64.352 98.174 64.88C98.67 65.408 98.918 66.144 98.918 67.088C98.918 67.888 98.678 68.6 98.198 69.224C97.718 69.848 97.014 70.336 96.086 70.688C95.174 71.024 94.086 71.192 92.822 71.192ZM105.572 71.192C104.5 71.192 103.452 71.064 102.428 70.808C101.404 70.536 100.588 70.2 99.98 69.8L101.228 67.112C101.804 67.48 102.5 67.784 103.316 68.024C104.132 68.248 104.932 68.36 105.716 68.36C107.3 68.36 108.092 67.968 108.092 67.184C108.092 66.816 107.876 66.552 107.444 66.392C107.012 66.232 106.348 66.096 105.452 65.984C104.396 65.824 103.524 65.64 102.836 65.432C102.148 65.224 101.548 64.856 101.036 64.328C100.54 63.8 100.292 63.048 100.292 62.072C100.292 61.256 100.524 60.536 100.988 59.912C101.468 59.272 102.156 58.776 103.052 58.424C103.964 58.072 105.036 57.896 106.268 57.896C107.18 57.896 108.084 58 108.98 58.208C109.892 58.4 110.644 58.672 111.236 59.024L109.988 61.688C108.852 61.048 107.612 60.728 106.268 60.728C105.468 60.728 104.868 60.84 104.468 61.064C104.068 61.288 103.868 61.576 103.868 61.928C103.868 62.328 104.084 62.608 104.516 62.768C104.948 62.928 105.636 63.08 106.58 63.224C107.636 63.4 108.5 63.592 109.172 63.8C109.844 63.992 110.428 64.352 110.924 64.88C111.42 65.408 111.668 66.144 111.668 67.088C111.668 67.888 111.428 68.6 110.948 69.224C110.468 69.848 109.764 70.336 108.836 70.688C107.924 71.024 106.836 71.192 105.572 71.192Z" fill="white"/>
</svg>
