<svg width="256" height="110" viewBox="0 0 256 110" fill="none" xmlns="http://www.w3.org/2000/svg">
<path d="M67.6489 0.999999C69.4356 0.999999 70.8356 1.42667 71.8489 2.28C72.8622 3.13333 73.3689 4.30667 73.3689 5.8C73.3689 7.29333 72.8622 8.46667 71.8489 9.32C70.8356 10.16 69.4356 10.58 67.6489 10.58H63.8889V15H62.4089V0.999999H67.6489ZM67.6089 9.28C68.9956 9.28 70.0556 8.98 70.7889 8.38C71.5222 7.76667 71.8889 6.90667 71.8889 5.8C71.8889 4.66667 71.5222 3.8 70.7889 3.2C70.0556 2.58667 68.9956 2.28 67.6089 2.28H63.8889V9.28H67.6089ZM85.3705 10.18H76.5705C76.6505 11.2733 77.0705 12.16 77.8305 12.84C78.5905 13.5067 79.5505 13.84 80.7105 13.84C81.3638 13.84 81.9638 13.7267 82.5105 13.5C83.0571 13.26 83.5305 12.9133 83.9305 12.46L84.7305 13.38C84.2638 13.94 83.6771 14.3667 82.9705 14.66C82.2771 14.9533 81.5105 15.1 80.6705 15.1C79.5905 15.1 78.6305 14.8733 77.7905 14.42C76.9638 13.9533 76.3171 13.3133 75.8505 12.5C75.3838 11.6867 75.1505 10.7667 75.1505 9.74C75.1505 8.71333 75.3705 7.79333 75.8105 6.98C76.2638 6.16667 76.8771 5.53333 77.6505 5.08C78.4371 4.62667 79.3171 4.4 80.2905 4.4C81.2638 4.4 82.1371 4.62667 82.9105 5.08C83.6838 5.53333 84.2905 6.16667 84.7305 6.98C85.1705 7.78 85.3905 8.7 85.3905 9.74L85.3705 10.18ZM80.2905 5.62C79.2771 5.62 78.4238 5.94667 77.7305 6.6C77.0505 7.24 76.6638 8.08 76.5705 9.12H84.0305C83.9371 8.08 83.5438 7.24 82.8505 6.6C82.1705 5.94667 81.3171 5.62 80.2905 5.62ZM97.7608 4.48V15H96.4008V13.08C96.0274 13.72 95.5141 14.22 94.8608 14.58C94.2074 14.9267 93.4608 15.1 92.6208 15.1C91.2474 15.1 90.1608 14.72 89.3608 13.96C88.5741 13.1867 88.1808 12.06 88.1808 10.58V4.48H89.6008V10.44C89.6008 11.5467 89.8741 12.3867 90.4208 12.96C90.9674 13.5333 91.7474 13.82 92.7608 13.82C93.8674 13.82 94.7408 13.4867 95.3808 12.82C96.0208 12.14 96.3408 11.2 96.3408 10V4.48H97.7608ZM107.278 14.36C107.011 14.6 106.678 14.7867 106.278 14.92C105.891 15.04 105.484 15.1 105.058 15.1C104.071 15.1 103.311 14.8333 102.778 14.3C102.244 13.7667 101.978 13.0133 101.978 12.04V5.68H100.098V4.48H101.978V2.18H103.398V4.48H106.598V5.68H103.398V11.96C103.398 12.5867 103.551 13.0667 103.858 13.4C104.178 13.72 104.631 13.88 105.218 13.88C105.511 13.88 105.791 13.8333 106.058 13.74C106.338 13.6467 106.578 13.5133 106.778 13.34L107.278 14.36ZM108.888 8.96H114.128V10.2H108.888V8.96ZM126.66 10.18H117.86C117.94 11.2733 118.36 12.16 119.12 12.84C119.88 13.5067 120.84 13.84 122 13.84C122.653 13.84 123.253 13.7267 123.8 13.5C124.346 13.26 124.82 12.9133 125.22 12.46L126.02 13.38C125.553 13.94 124.966 14.3667 124.26 14.66C123.566 14.9533 122.8 15.1 121.96 15.1C120.88 15.1 119.92 14.8733 119.08 14.42C118.253 13.9533 117.606 13.3133 117.14 12.5C116.673 11.6867 116.44 10.7667 116.44 9.74C116.44 8.71333 116.66 7.79333 117.1 6.98C117.553 6.16667 118.166 5.53333 118.94 5.08C119.726 4.62667 120.606 4.4 121.58 4.4C122.553 4.4 123.426 4.62667 124.2 5.08C124.973 5.53333 125.58 6.16667 126.02 6.98C126.46 7.78 126.68 8.7 126.68 9.74L126.66 10.18ZM121.58 5.62C120.566 5.62 119.713 5.94667 119.02 6.6C118.34 7.24 117.953 8.08 117.86 9.12H125.32C125.226 8.08 124.833 7.24 124.14 6.6C123.46 5.94667 122.606 5.62 121.58 5.62ZM123.56 2.84L121.58 1.18L119.6 2.84H118.28L120.86 0.359999H122.3L124.88 2.84H123.56ZM135.11 14.36C134.843 14.6 134.51 14.7867 134.11 14.92C133.723 15.04 133.317 15.1 132.89 15.1C131.903 15.1 131.143 14.8333 130.61 14.3C130.077 13.7667 129.81 13.0133 129.81 12.04V5.68H127.93V4.48H129.81V2.18H131.23V4.48H134.43V5.68H131.23V11.96C131.23 12.5867 131.383 13.0667 131.69 13.4C132.01 13.72 132.463 13.88 133.05 13.88C133.343 13.88 133.623 13.8333 133.89 13.74C134.17 13.6467 134.41 13.5133 134.61 13.34L135.11 14.36ZM139.055 6.54C139.388 5.83333 139.882 5.3 140.535 4.94C141.202 4.58 142.022 4.4 142.995 4.4V5.78L142.655 5.76C141.548 5.76 140.682 6.1 140.055 6.78C139.428 7.46 139.115 8.41333 139.115 9.64V15H137.695V4.48H139.055V6.54ZM154.628 10.18H145.828C145.908 11.2733 146.328 12.16 147.088 12.84C147.848 13.5067 148.808 13.84 149.968 13.84C150.622 13.84 151.222 13.7267 151.768 13.5C152.315 13.26 152.788 12.9133 153.188 12.46L153.988 13.38C153.522 13.94 152.935 14.3667 152.228 14.66C151.535 14.9533 150.768 15.1 149.928 15.1C148.848 15.1 147.888 14.8733 147.048 14.42C146.222 13.9533 145.575 13.3133 145.108 12.5C144.642 11.6867 144.408 10.7667 144.408 9.74C144.408 8.71333 144.628 7.79333 145.068 6.98C145.522 6.16667 146.135 5.53333 146.908 5.08C147.695 4.62667 148.575 4.4 149.548 4.4C150.522 4.4 151.395 4.62667 152.168 5.08C152.942 5.53333 153.548 6.16667 153.988 6.98C154.428 7.78 154.648 8.7 154.648 9.74L154.628 10.18ZM149.548 5.62C148.535 5.62 147.682 5.94667 146.988 6.6C146.308 7.24 145.922 8.08 145.828 9.12H153.288C153.195 8.08 152.802 7.24 152.108 6.6C151.428 5.94667 150.575 5.62 149.548 5.62ZM168.193 4.4C169.18 4.4 170.073 4.62667 170.873 5.08C171.673 5.52 172.3 6.14667 172.753 6.96C173.206 7.77333 173.433 8.7 173.433 9.74C173.433 10.7933 173.206 11.7267 172.753 12.54C172.3 13.3533 171.673 13.9867 170.873 14.44C170.086 14.88 169.193 15.1 168.193 15.1C167.34 15.1 166.566 14.9267 165.873 14.58C165.193 14.22 164.633 13.7 164.193 13.02V18.88H162.773V4.48H164.133V6.56C164.56 5.86667 165.12 5.33333 165.813 4.96C166.52 4.58667 167.313 4.4 168.193 4.4ZM168.093 13.84C168.826 13.84 169.493 13.6733 170.093 13.34C170.693 12.9933 171.16 12.5067 171.493 11.88C171.84 11.2533 172.013 10.54 172.013 9.74C172.013 8.94 171.84 8.23333 171.493 7.62C171.16 6.99333 170.693 6.50667 170.093 6.16C169.493 5.81333 168.826 5.64 168.093 5.64C167.346 5.64 166.673 5.81333 166.073 6.16C165.486 6.50667 165.02 6.99333 164.673 7.62C164.34 8.23333 164.173 8.94 164.173 9.74C164.173 10.54 164.34 11.2533 164.673 11.88C165.02 12.5067 165.486 12.9933 166.073 13.34C166.673 13.6733 167.346 13.84 168.093 13.84ZM179.949 4.4C181.322 4.4 182.376 4.74667 183.109 5.44C183.842 6.12 184.209 7.13333 184.209 8.48V15H182.849V13.36C182.529 13.9067 182.056 14.3333 181.429 14.64C180.816 14.9467 180.082 15.1 179.229 15.1C178.056 15.1 177.122 14.82 176.429 14.26C175.736 13.7 175.389 12.96 175.389 12.04C175.389 11.1467 175.709 10.4267 176.349 9.88C177.002 9.33333 178.036 9.06 179.449 9.06H182.789V8.42C182.789 7.51333 182.536 6.82667 182.029 6.36C181.522 5.88 180.782 5.64 179.809 5.64C179.142 5.64 178.502 5.75333 177.889 5.98C177.276 6.19333 176.749 6.49333 176.309 6.88L175.669 5.82C176.202 5.36667 176.842 5.02 177.589 4.78C178.336 4.52667 179.122 4.4 179.949 4.4ZM179.449 13.98C180.249 13.98 180.936 13.8 181.509 13.44C182.082 13.0667 182.509 12.5333 182.789 11.84V10.12H179.489C177.689 10.12 176.789 10.7467 176.789 12C176.789 12.6133 177.022 13.1 177.489 13.46C177.956 13.8067 178.609 13.98 179.449 13.98ZM190.886 15.1C190.033 15.1 189.213 14.98 188.426 14.74C187.653 14.4867 187.046 14.1733 186.606 13.8L187.246 12.68C187.686 13.0267 188.239 13.3133 188.906 13.54C189.573 13.7533 190.266 13.86 190.986 13.86C191.946 13.86 192.653 13.7133 193.106 13.42C193.573 13.1133 193.806 12.6867 193.806 12.14C193.806 11.7533 193.679 11.4533 193.426 11.24C193.173 11.0133 192.853 10.8467 192.466 10.74C192.079 10.62 191.566 10.5067 190.926 10.4C190.073 10.24 189.386 10.08 188.866 9.92C188.346 9.74667 187.899 9.46 187.526 9.06C187.166 8.66 186.986 8.10667 186.986 7.4C186.986 6.52 187.353 5.8 188.086 5.24C188.819 4.68 189.839 4.4 191.146 4.4C191.826 4.4 192.506 4.49333 193.186 4.68C193.866 4.85333 194.426 5.08667 194.866 5.38L194.246 6.52C193.379 5.92 192.346 5.62 191.146 5.62C190.239 5.62 189.553 5.78 189.086 6.1C188.633 6.42 188.406 6.84 188.406 7.36C188.406 7.76 188.533 8.08 188.786 8.32C189.053 8.56 189.379 8.74 189.766 8.86C190.153 8.96667 190.686 9.08 191.366 9.2C192.206 9.36 192.879 9.52 193.386 9.68C193.893 9.84 194.326 10.1133 194.686 10.5C195.046 10.8867 195.226 11.42 195.226 12.1C195.226 13.02 194.839 13.7533 194.066 14.3C193.306 14.8333 192.246 15.1 190.886 15.1ZM77.8006 35V70H69.7006V41.5H62.7006V35H77.8006ZM98.8807 70.6C95.9807 70.6 93.3973 69.8833 91.1307 68.45C88.864 67.0167 87.0807 64.95 85.7807 62.25C84.514 59.5167 83.8807 56.2667 83.8807 52.5C83.8807 48.7333 84.514 45.5 85.7807 42.8C87.0807 40.0667 88.864 37.9833 91.1307 36.55C93.3973 35.1167 95.9807 34.4 98.8807 34.4C101.781 34.4 104.364 35.1167 106.631 36.55C108.897 37.9833 110.664 40.0667 111.931 42.8C113.231 45.5 113.881 48.7333 113.881 52.5C113.881 56.2667 113.231 59.5167 111.931 62.25C110.664 64.95 108.897 67.0167 106.631 68.45C104.364 69.8833 101.781 70.6 98.8807 70.6ZM98.8807 63.75C101.014 63.75 102.681 62.8333 103.881 61C105.114 59.1667 105.731 56.3333 105.731 52.5C105.731 48.6667 105.114 45.8333 103.881 44C102.681 42.1667 101.014 41.25 98.8807 41.25C96.7807 41.25 95.114 42.1667 93.8807 44C92.6807 45.8333 92.0807 48.6667 92.0807 52.5C92.0807 56.3333 92.6807 59.1667 93.8807 61C95.114 62.8333 96.7807 63.75 98.8807 63.75ZM132.816 70.6C129.916 70.6 127.333 69.8833 125.066 68.45C122.8 67.0167 121.016 64.95 119.716 62.25C118.45 59.5167 117.816 56.2667 117.816 52.5C117.816 48.7333 118.45 45.5 119.716 42.8C121.016 40.0667 122.8 37.9833 125.066 36.55C127.333 35.1167 129.916 34.4 132.816 34.4C135.716 34.4 138.3 35.1167 140.566 36.55C142.833 37.9833 144.6 40.0667 145.866 42.8C147.166 45.5 147.816 48.7333 147.816 52.5C147.816 56.2667 147.166 59.5167 145.866 62.25C144.6 64.95 142.833 67.0167 140.566 68.45C138.3 69.8833 135.716 70.6 132.816 70.6ZM132.816 63.75C134.95 63.75 136.616 62.8333 137.816 61C139.05 59.1667 139.666 56.3333 139.666 52.5C139.666 48.6667 139.05 45.8333 137.816 44C136.616 42.1667 134.95 41.25 132.816 41.25C130.716 41.25 129.05 42.1667 127.816 44C126.616 45.8333 126.016 48.6667 126.016 52.5C126.016 56.3333 126.616 59.1667 127.816 61C129.05 62.8333 130.716 63.75 132.816 63.75ZM159.852 53.9C157.285 53.9 155.185 53.0333 153.552 51.3C151.952 49.5333 151.152 47.1833 151.152 44.25C151.152 41.3167 151.952 38.9833 153.552 37.25C155.185 35.4833 157.285 34.6 159.852 34.6C162.418 34.6 164.502 35.4833 166.102 37.25C167.702 38.9833 168.502 41.3167 168.502 44.25C168.502 47.1833 167.702 49.5333 166.102 51.3C164.502 53.0333 162.418 53.9 159.852 53.9ZM180.702 35H186.652L162.752 70H156.802L180.702 35ZM159.852 49.8C160.985 49.8 161.868 49.3333 162.502 48.4C163.168 47.4667 163.502 46.0833 163.502 44.25C163.502 42.4167 163.168 41.0333 162.502 40.1C161.868 39.1667 160.985 38.7 159.852 38.7C158.752 38.7 157.868 39.1833 157.202 40.15C156.535 41.0833 156.202 42.45 156.202 44.25C156.202 46.05 156.535 47.4333 157.202 48.4C157.868 49.3333 158.752 49.8 159.852 49.8ZM183.602 70.4C181.935 70.4 180.435 70.0167 179.102 69.25C177.802 68.45 176.785 67.3167 176.052 65.85C175.318 64.3833 174.952 62.6833 174.952 60.75C174.952 58.8167 175.318 57.1167 176.052 55.65C176.785 54.1833 177.802 53.0667 179.102 52.3C180.435 51.5 181.935 51.1 183.602 51.1C186.168 51.1 188.252 51.9833 189.852 53.75C191.485 55.4833 192.302 57.8167 192.302 60.75C192.302 63.6833 191.485 66.0333 189.852 67.8C188.252 69.5333 186.168 70.4 183.602 70.4ZM183.602 66.3C184.735 66.3 185.618 65.8333 186.252 64.9C186.918 63.9333 187.252 62.55 187.252 60.75C187.252 58.95 186.918 57.5833 186.252 56.65C185.618 55.6833 184.735 55.2 183.602 55.2C182.502 55.2 181.618 55.6667 180.952 56.6C180.285 57.5333 179.952 58.9167 179.952 60.75C179.952 62.5833 180.285 63.9667 180.952 64.9C181.618 65.8333 182.502 66.3 183.602 66.3ZM14.8995 87.192V105H11.3235V103.512C10.3955 104.632 9.05153 105.192 7.29153 105.192C6.07553 105.192 4.97153 104.92 3.97953 104.376C3.00353 103.832 2.23553 103.056 1.67553 102.048C1.11553 101.04 0.835531 99.872 0.835531 98.544C0.835531 97.216 1.11553 96.048 1.67553 95.04C2.23553 94.032 3.00353 93.256 3.97953 92.712C4.97153 92.168 6.07553 91.896 7.29153 91.896C8.93953 91.896 10.2275 92.416 11.1555 93.456V87.192H14.8995ZM7.93953 102.12C8.88353 102.12 9.66753 101.8 10.2915 101.16C10.9155 100.504 11.2275 99.632 11.2275 98.544C11.2275 97.456 10.9155 96.592 10.2915 95.952C9.66753 95.296 8.88353 94.968 7.93953 94.968C6.97953 94.968 6.18753 95.296 5.56353 95.952C4.93953 96.592 4.62753 97.456 4.62753 98.544C4.62753 99.632 4.93953 100.504 5.56353 101.16C6.18753 101.8 6.97953 102.12 7.93953 102.12ZM31.0127 98.592C31.0127 98.64 30.9887 98.976 30.9407 99.6H21.1727C21.3487 100.4 21.7647 101.032 22.4207 101.496C23.0767 101.96 23.8927 102.192 24.8687 102.192C25.5407 102.192 26.1327 102.096 26.6447 101.904C27.1727 101.696 27.6607 101.376 28.1087 100.944L30.1007 103.104C28.8847 104.496 27.1087 105.192 24.7727 105.192C23.3167 105.192 22.0287 104.912 20.9087 104.352C19.7887 103.776 18.9247 102.984 18.3167 101.976C17.7087 100.968 17.4047 99.824 17.4047 98.544C17.4047 97.28 17.7007 96.144 18.2927 95.136C18.9007 94.112 19.7247 93.32 20.7647 92.76C21.8207 92.184 22.9967 91.896 24.2927 91.896C25.5567 91.896 26.7007 92.168 27.7247 92.712C28.7487 93.256 29.5487 94.04 30.1247 95.064C30.7167 96.072 31.0127 97.248 31.0127 98.592ZM24.3167 94.728C23.4687 94.728 22.7567 94.968 22.1807 95.448C21.6047 95.928 21.2527 96.584 21.1247 97.416H27.4847C27.3567 96.6 27.0047 95.952 26.4287 95.472C25.8527 94.976 25.1487 94.728 24.3167 94.728ZM46.5422 105.192C45.1662 105.192 43.9262 104.912 42.8222 104.352C41.7342 103.776 40.8782 102.984 40.2542 101.976C39.6462 100.968 39.3422 99.824 39.3422 98.544C39.3422 97.264 39.6462 96.12 40.2542 95.112C40.8782 94.104 41.7342 93.32 42.8222 92.76C43.9262 92.184 45.1662 91.896 46.5422 91.896C47.9022 91.896 49.0862 92.184 50.0942 92.76C51.1182 93.32 51.8622 94.128 52.3262 95.184L49.4222 96.744C48.7502 95.56 47.7822 94.968 46.5182 94.968C45.5422 94.968 44.7342 95.288 44.0942 95.928C43.4542 96.568 43.1342 97.44 43.1342 98.544C43.1342 99.648 43.4542 100.52 44.0942 101.16C44.7342 101.8 45.5422 102.12 46.5182 102.12C47.7982 102.12 48.7662 101.528 49.4222 100.344L52.3262 101.928C51.8622 102.952 51.1182 103.752 50.0942 104.328C49.0862 104.904 47.9022 105.192 46.5422 105.192ZM60.4618 105.192C59.1018 105.192 57.8778 104.912 56.7898 104.352C55.7178 103.776 54.8778 102.984 54.2698 101.976C53.6618 100.968 53.3578 99.824 53.3578 98.544C53.3578 97.264 53.6618 96.12 54.2698 95.112C54.8778 94.104 55.7178 93.32 56.7898 92.76C57.8778 92.184 59.1018 91.896 60.4618 91.896C61.8218 91.896 63.0378 92.184 64.1098 92.76C65.1818 93.32 66.0218 94.104 66.6298 95.112C67.2378 96.12 67.5418 97.264 67.5418 98.544C67.5418 99.824 67.2378 100.968 66.6298 101.976C66.0218 102.984 65.1818 103.776 64.1098 104.352C63.0378 104.912 61.8218 105.192 60.4618 105.192ZM60.4618 102.12C61.4218 102.12 62.2058 101.8 62.8138 101.16C63.4378 100.504 63.7498 99.632 63.7498 98.544C63.7498 97.456 63.4378 96.592 62.8138 95.952C62.2058 95.296 61.4218 94.968 60.4618 94.968C59.5018 94.968 58.7098 95.296 58.0858 95.952C57.4618 96.592 57.1498 97.456 57.1498 98.544C57.1498 99.632 57.4618 100.504 58.0858 101.16C58.7098 101.8 59.5018 102.12 60.4618 102.12ZM83.0524 92.088V105H79.5004V103.464C79.0044 104.024 78.4124 104.456 77.7244 104.76C77.0364 105.048 76.2924 105.192 75.4924 105.192C73.7964 105.192 72.4524 104.704 71.4604 103.728C70.4684 102.752 69.9724 101.304 69.9724 99.384V92.088H73.7164V98.832C73.7164 100.912 74.5884 101.952 76.3324 101.952C77.2284 101.952 77.9484 101.664 78.4924 101.088C79.0364 100.496 79.3084 99.624 79.3084 98.472V92.088H83.0524ZM90.097 93.792C90.545 93.168 91.145 92.696 91.897 92.376C92.665 92.056 93.545 91.896 94.537 91.896V95.352C94.121 95.32 93.841 95.304 93.697 95.304C92.625 95.304 91.785 95.608 91.177 96.216C90.569 96.808 90.265 97.704 90.265 98.904V105H86.521V92.088H90.097V93.792ZM101.154 105.192C100.082 105.192 99.034 105.064 98.01 104.808C96.986 104.536 96.17 104.2 95.562 103.8L96.81 101.112C97.386 101.48 98.082 101.784 98.898 102.024C99.714 102.248 100.514 102.36 101.298 102.36C102.882 102.36 103.674 101.968 103.674 101.184C103.674 100.816 103.458 100.552 103.026 100.392C102.594 100.232 101.93 100.096 101.034 99.984C99.978 99.824 99.106 99.64 98.418 99.432C97.73 99.224 97.13 98.856 96.618 98.328C96.122 97.8 95.874 97.048 95.874 96.072C95.874 95.256 96.106 94.536 96.57 93.912C97.05 93.272 97.738 92.776 98.634 92.424C99.546 92.072 100.618 91.896 101.85 91.896C102.762 91.896 103.666 92 104.562 92.208C105.474 92.4 106.226 92.672 106.818 93.024L105.57 95.688C104.434 95.048 103.194 94.728 101.85 94.728C101.05 94.728 100.45 94.84 100.05 95.064C99.65 95.288 99.45 95.576 99.45 95.928C99.45 96.328 99.666 96.608 100.098 96.768C100.53 96.928 101.218 97.08 102.162 97.224C103.218 97.4 104.082 97.592 104.754 97.8C105.426 97.992 106.01 98.352 106.506 98.88C107.002 99.408 107.25 100.144 107.25 101.088C107.25 101.888 107.01 102.6 106.53 103.224C106.05 103.848 105.346 104.336 104.418 104.688C103.506 105.024 102.418 105.192 101.154 105.192ZM109.56 92.088H113.304V105H109.56V92.088ZM111.432 90.288C110.744 90.288 110.184 90.088 109.752 89.688C109.32 89.288 109.104 88.792 109.104 88.2C109.104 87.608 109.32 87.112 109.752 86.712C110.184 86.312 110.744 86.112 111.432 86.112C112.12 86.112 112.68 86.304 113.112 86.688C113.544 87.072 113.76 87.552 113.76 88.128C113.76 88.752 113.544 89.272 113.112 89.688C112.68 90.088 112.12 90.288 111.432 90.288ZM129.427 98.592C129.427 98.64 129.403 98.976 129.355 99.6H119.587C119.763 100.4 120.179 101.032 120.835 101.496C121.491 101.96 122.307 102.192 123.283 102.192C123.955 102.192 124.547 102.096 125.059 101.904C125.587 101.696 126.075 101.376 126.523 100.944L128.515 103.104C127.299 104.496 125.523 105.192 123.187 105.192C121.731 105.192 120.443 104.912 119.323 104.352C118.203 103.776 117.339 102.984 116.731 101.976C116.123 100.968 115.819 99.824 115.819 98.544C115.819 97.28 116.115 96.144 116.707 95.136C117.315 94.112 118.139 93.32 119.179 92.76C120.235 92.184 121.411 91.896 122.707 91.896C123.971 91.896 125.115 92.168 126.139 92.712C127.163 93.256 127.963 94.04 128.539 95.064C129.131 96.072 129.427 97.248 129.427 98.592ZM122.731 94.728C121.883 94.728 121.171 94.968 120.595 95.448C120.019 95.928 119.667 96.584 119.539 97.416H125.899C125.771 96.6 125.419 95.952 124.843 95.472C124.267 94.976 123.563 94.728 122.731 94.728ZM135.495 93.792C135.943 93.168 136.543 92.696 137.295 92.376C138.063 92.056 138.943 91.896 139.935 91.896V95.352C139.519 95.32 139.239 95.304 139.095 95.304C138.023 95.304 137.183 95.608 136.575 96.216C135.967 96.808 135.663 97.704 135.663 98.904V105H131.919V92.088H135.495V93.792ZM146.552 105.192C145.48 105.192 144.432 105.064 143.408 104.808C142.384 104.536 141.568 104.2 140.96 103.8L142.208 101.112C142.784 101.48 143.48 101.784 144.296 102.024C145.112 102.248 145.912 102.36 146.696 102.36C148.28 102.36 149.072 101.968 149.072 101.184C149.072 100.816 148.856 100.552 148.424 100.392C147.992 100.232 147.328 100.096 146.432 99.984C145.376 99.824 144.504 99.64 143.816 99.432C143.128 99.224 142.528 98.856 142.016 98.328C141.52 97.8 141.272 97.048 141.272 96.072C141.272 95.256 141.504 94.536 141.968 93.912C142.448 93.272 143.136 92.776 144.032 92.424C144.944 92.072 146.016 91.896 147.248 91.896C148.16 91.896 149.064 92 149.96 92.208C150.872 92.4 151.624 92.672 152.216 93.024L150.968 95.688C149.832 95.048 148.592 94.728 147.248 94.728C146.448 94.728 145.848 94.84 145.448 95.064C145.048 95.288 144.848 95.576 144.848 95.928C144.848 96.328 145.064 96.608 145.496 96.768C145.928 96.928 146.616 97.08 147.56 97.224C148.616 97.4 149.48 97.592 150.152 97.8C150.824 97.992 151.408 98.352 151.904 98.88C152.4 99.408 152.648 100.144 152.648 101.088C152.648 101.888 152.408 102.6 151.928 103.224C151.448 103.848 150.744 104.336 149.816 104.688C148.904 105.024 147.816 105.192 146.552 105.192ZM166.099 105.192C165.027 105.192 163.979 105.064 162.955 104.808C161.931 104.536 161.115 104.2 160.507 103.8L161.755 101.112C162.331 101.48 163.027 101.784 163.843 102.024C164.659 102.248 165.459 102.36 166.243 102.36C167.827 102.36 168.619 101.968 168.619 101.184C168.619 100.816 168.403 100.552 167.971 100.392C167.539 100.232 166.875 100.096 165.979 99.984C164.923 99.824 164.051 99.64 163.363 99.432C162.675 99.224 162.075 98.856 161.563 98.328C161.067 97.8 160.819 97.048 160.819 96.072C160.819 95.256 161.051 94.536 161.515 93.912C161.995 93.272 162.683 92.776 163.579 92.424C164.491 92.072 165.563 91.896 166.795 91.896C167.707 91.896 168.611 92 169.507 92.208C170.419 92.4 171.171 92.672 171.763 93.024L170.515 95.688C169.379 95.048 168.139 94.728 166.795 94.728C165.995 94.728 165.395 94.84 164.995 95.064C164.595 95.288 164.395 95.576 164.395 95.928C164.395 96.328 164.611 96.608 165.043 96.768C165.475 96.928 166.163 97.08 167.107 97.224C168.163 97.4 169.027 97.592 169.699 97.8C170.371 97.992 170.955 98.352 171.451 98.88C171.947 99.408 172.195 100.144 172.195 101.088C172.195 101.888 171.955 102.6 171.475 103.224C170.995 103.848 170.291 104.336 169.363 104.688C168.451 105.024 167.363 105.192 166.099 105.192ZM187.087 92.088L181.255 105.792C180.663 107.28 179.927 108.328 179.047 108.936C178.183 109.544 177.135 109.848 175.903 109.848C175.231 109.848 174.567 109.744 173.911 109.536C173.255 109.328 172.719 109.04 172.303 108.672L173.671 106.008C173.959 106.264 174.287 106.464 174.655 106.608C175.039 106.752 175.415 106.824 175.783 106.824C176.295 106.824 176.711 106.696 177.031 106.44C177.351 106.2 177.639 105.792 177.895 105.216L177.943 105.096L172.351 92.088H176.215L179.839 100.848L183.487 92.088H187.087ZM205.151 91.896C206.767 91.896 208.047 92.376 208.991 93.336C209.951 94.28 210.431 95.704 210.431 97.608V105H206.687V98.184C206.687 97.16 206.471 96.4 206.039 95.904C205.623 95.392 205.023 95.136 204.239 95.136C203.359 95.136 202.663 95.424 202.151 96C201.639 96.56 201.383 97.4 201.383 98.52V105H197.639V98.184C197.639 96.152 196.823 95.136 195.191 95.136C194.327 95.136 193.639 95.424 193.127 96C192.615 96.56 192.359 97.4 192.359 98.52V105H188.615V92.088H192.191V93.576C192.671 93.032 193.255 92.616 193.943 92.328C194.647 92.04 195.415 91.896 196.247 91.896C197.159 91.896 197.983 92.08 198.719 92.448C199.455 92.8 200.047 93.32 200.495 94.008C201.023 93.336 201.687 92.816 202.487 92.448C203.303 92.08 204.191 91.896 205.151 91.896ZM221.419 91.896C222.619 91.896 223.707 92.176 224.683 92.736C225.675 93.28 226.451 94.056 227.011 95.064C227.571 96.056 227.851 97.216 227.851 98.544C227.851 99.872 227.571 101.04 227.011 102.048C226.451 103.04 225.675 103.816 224.683 104.376C223.707 104.92 222.619 105.192 221.419 105.192C219.771 105.192 218.475 104.672 217.531 103.632V109.656H213.787V92.088H217.363V93.576C218.291 92.456 219.643 91.896 221.419 91.896ZM220.771 102.12C221.731 102.12 222.515 101.8 223.123 101.16C223.747 100.504 224.059 99.632 224.059 98.544C224.059 97.456 223.747 96.592 223.123 95.952C222.515 95.296 221.731 94.968 220.771 94.968C219.811 94.968 219.019 95.296 218.395 95.952C217.787 96.592 217.483 97.456 217.483 98.544C217.483 99.632 217.787 100.504 218.395 101.16C219.019 101.8 219.811 102.12 220.771 102.12ZM235.354 91.896C237.354 91.896 238.89 92.376 239.962 93.336C241.034 94.28 241.57 95.712 241.57 97.632V105H238.066V103.392C237.362 104.592 236.05 105.192 234.13 105.192C233.138 105.192 232.274 105.024 231.538 104.688C230.818 104.352 230.266 103.888 229.882 103.296C229.498 102.704 229.306 102.032 229.306 101.28C229.306 100.08 229.754 99.136 230.65 98.448C231.562 97.76 232.962 97.416 234.85 97.416H237.826C237.826 96.6 237.578 95.976 237.082 95.544C236.586 95.096 235.842 94.872 234.85 94.872C234.162 94.872 233.482 94.984 232.81 95.208C232.154 95.416 231.594 95.704 231.13 96.072L229.786 93.456C230.49 92.96 231.33 92.576 232.306 92.304C233.298 92.032 234.314 91.896 235.354 91.896ZM235.066 102.672C235.706 102.672 236.274 102.528 236.77 102.24C237.266 101.936 237.618 101.496 237.826 100.92V99.6H235.258C233.722 99.6 232.954 100.104 232.954 101.112C232.954 101.592 233.138 101.976 233.506 102.264C233.89 102.536 234.41 102.672 235.066 102.672ZM249.302 105.192C248.23 105.192 247.182 105.064 246.158 104.808C245.134 104.536 244.318 104.2 243.71 103.8L244.958 101.112C245.534 101.48 246.23 101.784 247.046 102.024C247.862 102.248 248.662 102.36 249.446 102.36C251.03 102.36 251.822 101.968 251.822 101.184C251.822 100.816 251.606 100.552 251.174 100.392C250.742 100.232 250.078 100.096 249.182 99.984C248.126 99.824 247.254 99.64 246.566 99.432C245.878 99.224 245.278 98.856 244.766 98.328C244.27 97.8 244.022 97.048 244.022 96.072C244.022 95.256 244.254 94.536 244.718 93.912C245.198 93.272 245.886 92.776 246.782 92.424C247.694 92.072 248.766 91.896 249.998 91.896C250.91 91.896 251.814 92 252.71 92.208C253.622 92.4 254.374 92.672 254.966 93.024L253.718 95.688C252.582 95.048 251.342 94.728 249.998 94.728C249.198 94.728 248.598 94.84 248.198 95.064C247.798 95.288 247.598 95.576 247.598 95.928C247.598 96.328 247.814 96.608 248.246 96.768C248.678 96.928 249.366 97.08 250.31 97.224C251.366 97.4 252.23 97.592 252.902 97.8C253.574 97.992 254.158 98.352 254.654 98.88C255.15 99.408 255.398 100.144 255.398 101.088C255.398 101.888 255.158 102.6 254.678 103.224C254.198 103.848 253.494 104.336 252.566 104.688C251.654 105.024 250.566 105.192 249.302 105.192Z" fill="white"/>
</svg>
