<svg width="408" height="539" viewBox="0 0 408 539" fill="none" xmlns="http://www.w3.org/2000/svg">
<rect width="408" height="539" rx="5" fill="#153A7E"/>
<path d="M0 311.909C0 309.522 1.68718 307.468 4.02864 307.005L402.029 228.183C405.12 227.57 408 229.936 408 233.087V534C408 536.761 405.761 539 403 539H5C2.23857 539 0 536.761 0 534V311.909Z" fill="#0D2A61"/>
<path d="M153.801 111V146H145.701V117.5H138.701V111H153.801ZM174.881 146.6C171.981 146.6 169.397 145.883 167.131 144.45C164.864 143.017 163.081 140.95 161.781 138.25C160.514 135.517 159.881 132.267 159.881 128.5C159.881 124.733 160.514 121.5 161.781 118.8C163.081 116.067 164.864 113.983 167.131 112.55C169.397 111.117 171.981 110.4 174.881 110.4C177.781 110.4 180.364 111.117 182.631 112.55C184.897 113.983 186.664 116.067 187.931 118.8C189.231 121.5 189.881 124.733 189.881 128.5C189.881 132.267 189.231 135.517 187.931 138.25C186.664 140.95 184.897 143.017 182.631 144.45C180.364 145.883 177.781 146.6 174.881 146.6ZM174.881 139.75C177.014 139.75 178.681 138.833 179.881 137C181.114 135.167 181.731 132.333 181.731 128.5C181.731 124.667 181.114 121.833 179.881 120C178.681 118.167 177.014 117.25 174.881 117.25C172.781 117.25 171.114 118.167 169.881 120C168.681 121.833 168.081 124.667 168.081 128.5C168.081 132.333 168.681 135.167 169.881 137C171.114 138.833 172.781 139.75 174.881 139.75ZM208.816 146.6C205.916 146.6 203.333 145.883 201.066 144.45C198.8 143.017 197.016 140.95 195.716 138.25C194.45 135.517 193.816 132.267 193.816 128.5C193.816 124.733 194.45 121.5 195.716 118.8C197.016 116.067 198.8 113.983 201.066 112.55C203.333 111.117 205.916 110.4 208.816 110.4C211.716 110.4 214.3 111.117 216.566 112.55C218.833 113.983 220.6 116.067 221.866 118.8C223.166 121.5 223.816 124.733 223.816 128.5C223.816 132.267 223.166 135.517 221.866 138.25C220.6 140.95 218.833 143.017 216.566 144.45C214.3 145.883 211.716 146.6 208.816 146.6ZM208.816 139.75C210.95 139.75 212.616 138.833 213.816 137C215.05 135.167 215.666 132.333 215.666 128.5C215.666 124.667 215.05 121.833 213.816 120C212.616 118.167 210.95 117.25 208.816 117.25C206.716 117.25 205.05 118.167 203.816 120C202.616 121.833 202.016 124.667 202.016 128.5C202.016 132.333 202.616 135.167 203.816 137C205.05 138.833 206.716 139.75 208.816 139.75ZM235.852 129.9C233.285 129.9 231.185 129.033 229.552 127.3C227.952 125.533 227.152 123.183 227.152 120.25C227.152 117.317 227.952 114.983 229.552 113.25C231.185 111.483 233.285 110.6 235.852 110.6C238.418 110.6 240.502 111.483 242.102 113.25C243.702 114.983 244.502 117.317 244.502 120.25C244.502 123.183 243.702 125.533 242.102 127.3C240.502 129.033 238.418 129.9 235.852 129.9ZM256.702 111H262.652L238.752 146H232.802L256.702 111ZM235.852 125.8C236.985 125.8 237.868 125.333 238.502 124.4C239.168 123.467 239.502 122.083 239.502 120.25C239.502 118.417 239.168 117.033 238.502 116.1C237.868 115.167 236.985 114.7 235.852 114.7C234.752 114.7 233.868 115.183 233.202 116.15C232.535 117.083 232.202 118.45 232.202 120.25C232.202 122.05 232.535 123.433 233.202 124.4C233.868 125.333 234.752 125.8 235.852 125.8ZM259.602 146.4C257.935 146.4 256.435 146.017 255.102 145.25C253.802 144.45 252.785 143.317 252.052 141.85C251.318 140.383 250.952 138.683 250.952 136.75C250.952 134.817 251.318 133.117 252.052 131.65C252.785 130.183 253.802 129.067 255.102 128.3C256.435 127.5 257.935 127.1 259.602 127.1C262.168 127.1 264.252 127.983 265.852 129.75C267.485 131.483 268.302 133.817 268.302 136.75C268.302 139.683 267.485 142.033 265.852 143.8C264.252 145.533 262.168 146.4 259.602 146.4ZM259.602 142.3C260.735 142.3 261.618 141.833 262.252 140.9C262.918 139.933 263.252 138.55 263.252 136.75C263.252 134.95 262.918 133.583 262.252 132.65C261.618 131.683 260.735 131.2 259.602 131.2C258.502 131.2 257.618 131.667 256.952 132.6C256.285 133.533 255.952 134.917 255.952 136.75C255.952 138.583 256.285 139.967 256.952 140.9C257.618 141.833 258.502 142.3 259.602 142.3ZM90.8995 163.192V181H87.3235V179.512C86.3955 180.632 85.0515 181.192 83.2915 181.192C82.0755 181.192 80.9715 180.92 79.9795 180.376C79.0035 179.832 78.2355 179.056 77.6755 178.048C77.1155 177.04 76.8355 175.872 76.8355 174.544C76.8355 173.216 77.1155 172.048 77.6755 171.04C78.2355 170.032 79.0035 169.256 79.9795 168.712C80.9715 168.168 82.0755 167.896 83.2915 167.896C84.9395 167.896 86.2275 168.416 87.1555 169.456V163.192H90.8995ZM83.9395 178.12C84.8835 178.12 85.6675 177.8 86.2915 177.16C86.9155 176.504 87.2275 175.632 87.2275 174.544C87.2275 173.456 86.9155 172.592 86.2915 171.952C85.6675 171.296 84.8835 170.968 83.9395 170.968C82.9795 170.968 82.1875 171.296 81.5635 171.952C80.9395 172.592 80.6275 173.456 80.6275 174.544C80.6275 175.632 80.9395 176.504 81.5635 177.16C82.1875 177.8 82.9795 178.12 83.9395 178.12ZM107.013 174.592C107.013 174.64 106.989 174.976 106.941 175.6H97.1727C97.3487 176.4 97.7647 177.032 98.4207 177.496C99.0767 177.96 99.8927 178.192 100.869 178.192C101.541 178.192 102.133 178.096 102.645 177.904C103.173 177.696 103.661 177.376 104.109 176.944L106.101 179.104C104.885 180.496 103.109 181.192 100.773 181.192C99.3167 181.192 98.0287 180.912 96.9087 180.352C95.7887 179.776 94.9247 178.984 94.3167 177.976C93.7087 176.968 93.4047 175.824 93.4047 174.544C93.4047 173.28 93.7007 172.144 94.2927 171.136C94.9007 170.112 95.7247 169.32 96.7647 168.76C97.8207 168.184 98.9967 167.896 100.293 167.896C101.557 167.896 102.701 168.168 103.725 168.712C104.749 169.256 105.549 170.04 106.125 171.064C106.717 172.072 107.013 173.248 107.013 174.592ZM100.317 170.728C99.4687 170.728 98.7567 170.968 98.1807 171.448C97.6047 171.928 97.2527 172.584 97.1247 173.416H103.485C103.357 172.6 103.005 171.952 102.429 171.472C101.853 170.976 101.149 170.728 100.317 170.728ZM122.542 181.192C121.166 181.192 119.926 180.912 118.822 180.352C117.734 179.776 116.878 178.984 116.254 177.976C115.646 176.968 115.342 175.824 115.342 174.544C115.342 173.264 115.646 172.12 116.254 171.112C116.878 170.104 117.734 169.32 118.822 168.76C119.926 168.184 121.166 167.896 122.542 167.896C123.902 167.896 125.086 168.184 126.094 168.76C127.118 169.32 127.862 170.128 128.326 171.184L125.422 172.744C124.75 171.56 123.782 170.968 122.518 170.968C121.542 170.968 120.734 171.288 120.094 171.928C119.454 172.568 119.134 173.44 119.134 174.544C119.134 175.648 119.454 176.52 120.094 177.16C120.734 177.8 121.542 178.12 122.518 178.12C123.798 178.12 124.766 177.528 125.422 176.344L128.326 177.928C127.862 178.952 127.118 179.752 126.094 180.328C125.086 180.904 123.902 181.192 122.542 181.192ZM136.462 181.192C135.102 181.192 133.878 180.912 132.79 180.352C131.718 179.776 130.878 178.984 130.27 177.976C129.662 176.968 129.358 175.824 129.358 174.544C129.358 173.264 129.662 172.12 130.27 171.112C130.878 170.104 131.718 169.32 132.79 168.76C133.878 168.184 135.102 167.896 136.462 167.896C137.822 167.896 139.038 168.184 140.11 168.76C141.182 169.32 142.022 170.104 142.63 171.112C143.238 172.12 143.542 173.264 143.542 174.544C143.542 175.824 143.238 176.968 142.63 177.976C142.022 178.984 141.182 179.776 140.11 180.352C139.038 180.912 137.822 181.192 136.462 181.192ZM136.462 178.12C137.422 178.12 138.206 177.8 138.814 177.16C139.438 176.504 139.75 175.632 139.75 174.544C139.75 173.456 139.438 172.592 138.814 171.952C138.206 171.296 137.422 170.968 136.462 170.968C135.502 170.968 134.71 171.296 134.086 171.952C133.462 172.592 133.15 173.456 133.15 174.544C133.15 175.632 133.462 176.504 134.086 177.16C134.71 177.8 135.502 178.12 136.462 178.12ZM159.052 168.088V181H155.5V179.464C155.004 180.024 154.412 180.456 153.724 180.76C153.036 181.048 152.292 181.192 151.492 181.192C149.796 181.192 148.452 180.704 147.46 179.728C146.468 178.752 145.972 177.304 145.972 175.384V168.088H149.716V174.832C149.716 176.912 150.588 177.952 152.332 177.952C153.228 177.952 153.948 177.664 154.492 177.088C155.036 176.496 155.308 175.624 155.308 174.472V168.088H159.052ZM166.097 169.792C166.545 169.168 167.145 168.696 167.897 168.376C168.665 168.056 169.545 167.896 170.537 167.896V171.352C170.121 171.32 169.841 171.304 169.697 171.304C168.625 171.304 167.785 171.608 167.177 172.216C166.569 172.808 166.265 173.704 166.265 174.904V181H162.521V168.088H166.097V169.792ZM177.154 181.192C176.082 181.192 175.034 181.064 174.01 180.808C172.986 180.536 172.17 180.2 171.562 179.8L172.81 177.112C173.386 177.48 174.082 177.784 174.898 178.024C175.714 178.248 176.514 178.36 177.298 178.36C178.882 178.36 179.674 177.968 179.674 177.184C179.674 176.816 179.458 176.552 179.026 176.392C178.594 176.232 177.93 176.096 177.034 175.984C175.978 175.824 175.106 175.64 174.418 175.432C173.73 175.224 173.13 174.856 172.618 174.328C172.122 173.8 171.874 173.048 171.874 172.072C171.874 171.256 172.106 170.536 172.57 169.912C173.05 169.272 173.738 168.776 174.634 168.424C175.546 168.072 176.618 167.896 177.85 167.896C178.762 167.896 179.666 168 180.562 168.208C181.474 168.4 182.226 168.672 182.818 169.024L181.57 171.688C180.434 171.048 179.194 170.728 177.85 170.728C177.05 170.728 176.45 170.84 176.05 171.064C175.65 171.288 175.45 171.576 175.45 171.928C175.45 172.328 175.666 172.608 176.098 172.768C176.53 172.928 177.218 173.08 178.162 173.224C179.218 173.4 180.082 173.592 180.754 173.8C181.426 173.992 182.01 174.352 182.506 174.88C183.002 175.408 183.25 176.144 183.25 177.088C183.25 177.888 183.01 178.6 182.53 179.224C182.05 179.848 181.346 180.336 180.418 180.688C179.506 181.024 178.418 181.192 177.154 181.192ZM185.56 168.088H189.304V181H185.56V168.088ZM187.432 166.288C186.744 166.288 186.184 166.088 185.752 165.688C185.32 165.288 185.104 164.792 185.104 164.2C185.104 163.608 185.32 163.112 185.752 162.712C186.184 162.312 186.744 162.112 187.432 162.112C188.12 162.112 188.68 162.304 189.112 162.688C189.544 163.072 189.76 163.552 189.76 164.128C189.76 164.752 189.544 165.272 189.112 165.688C188.68 166.088 188.12 166.288 187.432 166.288ZM205.427 174.592C205.427 174.64 205.403 174.976 205.355 175.6H195.587C195.763 176.4 196.179 177.032 196.835 177.496C197.491 177.96 198.307 178.192 199.283 178.192C199.955 178.192 200.547 178.096 201.059 177.904C201.587 177.696 202.075 177.376 202.523 176.944L204.515 179.104C203.299 180.496 201.523 181.192 199.187 181.192C197.731 181.192 196.443 180.912 195.323 180.352C194.203 179.776 193.339 178.984 192.731 177.976C192.123 176.968 191.819 175.824 191.819 174.544C191.819 173.28 192.115 172.144 192.707 171.136C193.315 170.112 194.139 169.32 195.179 168.76C196.235 168.184 197.411 167.896 198.707 167.896C199.971 167.896 201.115 168.168 202.139 168.712C203.163 169.256 203.963 170.04 204.539 171.064C205.131 172.072 205.427 173.248 205.427 174.592ZM198.731 170.728C197.883 170.728 197.171 170.968 196.595 171.448C196.019 171.928 195.667 172.584 195.539 173.416H201.899C201.771 172.6 201.419 171.952 200.843 171.472C200.267 170.976 199.563 170.728 198.731 170.728ZM211.495 169.792C211.943 169.168 212.543 168.696 213.295 168.376C214.063 168.056 214.943 167.896 215.935 167.896V171.352C215.519 171.32 215.239 171.304 215.095 171.304C214.023 171.304 213.183 171.608 212.575 172.216C211.967 172.808 211.663 173.704 211.663 174.904V181H207.919V168.088H211.495V169.792ZM222.552 181.192C221.48 181.192 220.432 181.064 219.408 180.808C218.384 180.536 217.568 180.2 216.96 179.8L218.208 177.112C218.784 177.48 219.48 177.784 220.296 178.024C221.112 178.248 221.912 178.36 222.696 178.36C224.28 178.36 225.072 177.968 225.072 177.184C225.072 176.816 224.856 176.552 224.424 176.392C223.992 176.232 223.328 176.096 222.432 175.984C221.376 175.824 220.504 175.64 219.816 175.432C219.128 175.224 218.528 174.856 218.016 174.328C217.52 173.8 217.272 173.048 217.272 172.072C217.272 171.256 217.504 170.536 217.968 169.912C218.448 169.272 219.136 168.776 220.032 168.424C220.944 168.072 222.016 167.896 223.248 167.896C224.16 167.896 225.064 168 225.96 168.208C226.872 168.4 227.624 168.672 228.216 169.024L226.968 171.688C225.832 171.048 224.592 170.728 223.248 170.728C222.448 170.728 221.848 170.84 221.448 171.064C221.048 171.288 220.848 171.576 220.848 171.928C220.848 172.328 221.064 172.608 221.496 172.768C221.928 172.928 222.616 173.08 223.56 173.224C224.616 173.4 225.48 173.592 226.152 173.8C226.824 173.992 227.408 174.352 227.904 174.88C228.4 175.408 228.648 176.144 228.648 177.088C228.648 177.888 228.408 178.6 227.928 179.224C227.448 179.848 226.744 180.336 225.816 180.688C224.904 181.024 223.816 181.192 222.552 181.192ZM242.099 181.192C241.027 181.192 239.979 181.064 238.955 180.808C237.931 180.536 237.115 180.2 236.507 179.8L237.755 177.112C238.331 177.48 239.027 177.784 239.843 178.024C240.659 178.248 241.459 178.36 242.243 178.36C243.827 178.36 244.619 177.968 244.619 177.184C244.619 176.816 244.403 176.552 243.971 176.392C243.539 176.232 242.875 176.096 241.979 175.984C240.923 175.824 240.051 175.64 239.363 175.432C238.675 175.224 238.075 174.856 237.563 174.328C237.067 173.8 236.819 173.048 236.819 172.072C236.819 171.256 237.051 170.536 237.515 169.912C237.995 169.272 238.683 168.776 239.579 168.424C240.491 168.072 241.563 167.896 242.795 167.896C243.707 167.896 244.611 168 245.507 168.208C246.419 168.4 247.171 168.672 247.763 169.024L246.515 171.688C245.379 171.048 244.139 170.728 242.795 170.728C241.995 170.728 241.395 170.84 240.995 171.064C240.595 171.288 240.395 171.576 240.395 171.928C240.395 172.328 240.611 172.608 241.043 172.768C241.475 172.928 242.163 173.08 243.107 173.224C244.163 173.4 245.027 173.592 245.699 173.8C246.371 173.992 246.955 174.352 247.451 174.88C247.947 175.408 248.195 176.144 248.195 177.088C248.195 177.888 247.955 178.6 247.475 179.224C246.995 179.848 246.291 180.336 245.363 180.688C244.451 181.024 243.363 181.192 242.099 181.192ZM263.087 168.088L257.255 181.792C256.663 183.28 255.927 184.328 255.047 184.936C254.183 185.544 253.135 185.848 251.903 185.848C251.231 185.848 250.567 185.744 249.911 185.536C249.255 185.328 248.719 185.04 248.303 184.672L249.671 182.008C249.959 182.264 250.287 182.464 250.655 182.608C251.039 182.752 251.415 182.824 251.783 182.824C252.295 182.824 252.711 182.696 253.031 182.44C253.351 182.2 253.639 181.792 253.895 181.216L253.943 181.096L248.351 168.088H252.215L255.839 176.848L259.487 168.088H263.087ZM281.151 167.896C282.767 167.896 284.047 168.376 284.991 169.336C285.951 170.28 286.431 171.704 286.431 173.608V181H282.687V174.184C282.687 173.16 282.471 172.4 282.039 171.904C281.623 171.392 281.023 171.136 280.239 171.136C279.359 171.136 278.663 171.424 278.151 172C277.639 172.56 277.383 173.4 277.383 174.52V181H273.639V174.184C273.639 172.152 272.823 171.136 271.191 171.136C270.327 171.136 269.639 171.424 269.127 172C268.615 172.56 268.359 173.4 268.359 174.52V181H264.615V168.088H268.191V169.576C268.671 169.032 269.255 168.616 269.943 168.328C270.647 168.04 271.415 167.896 272.247 167.896C273.159 167.896 273.983 168.08 274.719 168.448C275.455 168.8 276.047 169.32 276.495 170.008C277.023 169.336 277.687 168.816 278.487 168.448C279.303 168.08 280.191 167.896 281.151 167.896ZM297.419 167.896C298.619 167.896 299.707 168.176 300.683 168.736C301.675 169.28 302.451 170.056 303.011 171.064C303.571 172.056 303.851 173.216 303.851 174.544C303.851 175.872 303.571 177.04 303.011 178.048C302.451 179.04 301.675 179.816 300.683 180.376C299.707 180.92 298.619 181.192 297.419 181.192C295.771 181.192 294.475 180.672 293.531 179.632V185.656H289.787V168.088H293.363V169.576C294.291 168.456 295.643 167.896 297.419 167.896ZM296.771 178.12C297.731 178.12 298.515 177.8 299.123 177.16C299.747 176.504 300.059 175.632 300.059 174.544C300.059 173.456 299.747 172.592 299.123 171.952C298.515 171.296 297.731 170.968 296.771 170.968C295.811 170.968 295.019 171.296 294.395 171.952C293.787 172.592 293.483 173.456 293.483 174.544C293.483 175.632 293.787 176.504 294.395 177.16C295.019 177.8 295.811 178.12 296.771 178.12ZM311.354 167.896C313.354 167.896 314.89 168.376 315.962 169.336C317.034 170.28 317.57 171.712 317.57 173.632V181H314.066V179.392C313.362 180.592 312.05 181.192 310.13 181.192C309.138 181.192 308.274 181.024 307.538 180.688C306.818 180.352 306.266 179.888 305.882 179.296C305.498 178.704 305.306 178.032 305.306 177.28C305.306 176.08 305.754 175.136 306.65 174.448C307.562 173.76 308.962 173.416 310.85 173.416H313.826C313.826 172.6 313.578 171.976 313.082 171.544C312.586 171.096 311.842 170.872 310.85 170.872C310.162 170.872 309.482 170.984 308.81 171.208C308.154 171.416 307.594 171.704 307.13 172.072L305.786 169.456C306.49 168.96 307.33 168.576 308.306 168.304C309.298 168.032 310.314 167.896 311.354 167.896ZM311.066 178.672C311.706 178.672 312.274 178.528 312.77 178.24C313.266 177.936 313.618 177.496 313.826 176.92V175.6H311.258C309.722 175.6 308.954 176.104 308.954 177.112C308.954 177.592 309.138 177.976 309.506 178.264C309.89 178.536 310.41 178.672 311.066 178.672ZM325.302 181.192C324.23 181.192 323.182 181.064 322.158 180.808C321.134 180.536 320.318 180.2 319.71 179.8L320.958 177.112C321.534 177.48 322.23 177.784 323.046 178.024C323.862 178.248 324.662 178.36 325.446 178.36C327.03 178.36 327.822 177.968 327.822 177.184C327.822 176.816 327.606 176.552 327.174 176.392C326.742 176.232 326.078 176.096 325.182 175.984C324.126 175.824 323.254 175.64 322.566 175.432C321.878 175.224 321.278 174.856 320.766 174.328C320.27 173.8 320.022 173.048 320.022 172.072C320.022 171.256 320.254 170.536 320.718 169.912C321.198 169.272 321.886 168.776 322.782 168.424C323.694 168.072 324.766 167.896 325.998 167.896C326.91 167.896 327.814 168 328.71 168.208C329.622 168.4 330.374 168.672 330.966 169.024L329.718 171.688C328.582 171.048 327.342 170.728 325.998 170.728C325.198 170.728 324.598 170.84 324.198 171.064C323.798 171.288 323.598 171.576 323.598 171.928C323.598 172.328 323.814 172.608 324.246 172.768C324.678 172.928 325.366 173.08 326.31 173.224C327.366 173.4 328.23 173.592 328.902 173.8C329.574 173.992 330.158 174.352 330.654 174.88C331.15 175.408 331.398 176.144 331.398 177.088C331.398 177.888 331.158 178.6 330.678 179.224C330.198 179.848 329.494 180.336 328.566 180.688C327.654 181.024 326.566 181.192 325.302 181.192Z" fill="white"/>
<path d="M143.649 322C145.436 322 146.836 322.427 147.849 323.28C148.862 324.133 149.369 325.307 149.369 326.8C149.369 328.293 148.862 329.467 147.849 330.32C146.836 331.16 145.436 331.58 143.649 331.58H139.889V336H138.409V322H143.649ZM143.609 330.28C144.996 330.28 146.056 329.98 146.789 329.38C147.522 328.767 147.889 327.907 147.889 326.8C147.889 325.667 147.522 324.8 146.789 324.2C146.056 323.587 144.996 323.28 143.609 323.28H139.889V330.28H143.609ZM161.37 331.18H152.57C152.65 332.273 153.07 333.16 153.83 333.84C154.59 334.507 155.55 334.84 156.71 334.84C157.364 334.84 157.964 334.727 158.51 334.5C159.057 334.26 159.53 333.913 159.93 333.46L160.73 334.38C160.264 334.94 159.677 335.367 158.97 335.66C158.277 335.953 157.51 336.1 156.67 336.1C155.59 336.1 154.63 335.873 153.79 335.42C152.964 334.953 152.317 334.313 151.85 333.5C151.384 332.687 151.15 331.767 151.15 330.74C151.15 329.713 151.37 328.793 151.81 327.98C152.264 327.167 152.877 326.533 153.65 326.08C154.437 325.627 155.317 325.4 156.29 325.4C157.264 325.4 158.137 325.627 158.91 326.08C159.684 326.533 160.29 327.167 160.73 327.98C161.17 328.78 161.39 329.7 161.39 330.74L161.37 331.18ZM156.29 326.62C155.277 326.62 154.424 326.947 153.73 327.6C153.05 328.24 152.664 329.08 152.57 330.12H160.03C159.937 329.08 159.544 328.24 158.85 327.6C158.17 326.947 157.317 326.62 156.29 326.62ZM173.761 325.48V336H172.401V334.08C172.027 334.72 171.514 335.22 170.861 335.58C170.207 335.927 169.461 336.1 168.621 336.1C167.247 336.1 166.161 335.72 165.361 334.96C164.574 334.187 164.181 333.06 164.181 331.58V325.48H165.601V331.44C165.601 332.547 165.874 333.387 166.421 333.96C166.967 334.533 167.747 334.82 168.761 334.82C169.867 334.82 170.741 334.487 171.381 333.82C172.021 333.14 172.341 332.2 172.341 331V325.48H173.761ZM183.278 335.36C183.011 335.6 182.678 335.787 182.278 335.92C181.891 336.04 181.484 336.1 181.058 336.1C180.071 336.1 179.311 335.833 178.778 335.3C178.244 334.767 177.978 334.013 177.978 333.04V326.68H176.098V325.48H177.978V323.18H179.398V325.48H182.598V326.68H179.398V332.96C179.398 333.587 179.551 334.067 179.858 334.4C180.178 334.72 180.631 334.88 181.218 334.88C181.511 334.88 181.791 334.833 182.058 334.74C182.338 334.647 182.578 334.513 182.778 334.34L183.278 335.36ZM184.888 329.96H190.128V331.2H184.888V329.96ZM202.66 331.18H193.86C193.94 332.273 194.36 333.16 195.12 333.84C195.88 334.507 196.84 334.84 198 334.84C198.653 334.84 199.253 334.727 199.8 334.5C200.346 334.26 200.82 333.913 201.22 333.46L202.02 334.38C201.553 334.94 200.966 335.367 200.26 335.66C199.566 335.953 198.8 336.1 197.96 336.1C196.88 336.1 195.92 335.873 195.08 335.42C194.253 334.953 193.606 334.313 193.14 333.5C192.673 332.687 192.44 331.767 192.44 330.74C192.44 329.713 192.66 328.793 193.1 327.98C193.553 327.167 194.166 326.533 194.94 326.08C195.726 325.627 196.606 325.4 197.58 325.4C198.553 325.4 199.426 325.627 200.2 326.08C200.973 326.533 201.58 327.167 202.02 327.98C202.46 328.78 202.68 329.7 202.68 330.74L202.66 331.18ZM197.58 326.62C196.566 326.62 195.713 326.947 195.02 327.6C194.34 328.24 193.953 329.08 193.86 330.12H201.32C201.226 329.08 200.833 328.24 200.14 327.6C199.46 326.947 198.606 326.62 197.58 326.62ZM199.56 323.84L197.58 322.18L195.6 323.84H194.28L196.86 321.36H198.3L200.88 323.84H199.56ZM211.11 335.36C210.843 335.6 210.51 335.787 210.11 335.92C209.723 336.04 209.317 336.1 208.89 336.1C207.903 336.1 207.143 335.833 206.61 335.3C206.077 334.767 205.81 334.013 205.81 333.04V326.68H203.93V325.48H205.81V323.18H207.23V325.48H210.43V326.68H207.23V332.96C207.23 333.587 207.383 334.067 207.69 334.4C208.01 334.72 208.463 334.88 209.05 334.88C209.343 334.88 209.623 334.833 209.89 334.74C210.17 334.647 210.41 334.513 210.61 334.34L211.11 335.36ZM215.055 327.54C215.388 326.833 215.882 326.3 216.535 325.94C217.202 325.58 218.022 325.4 218.995 325.4V326.78L218.655 326.76C217.548 326.76 216.682 327.1 216.055 327.78C215.428 328.46 215.115 329.413 215.115 330.64V336H213.695V325.48H215.055V327.54ZM230.628 331.18H221.828C221.908 332.273 222.328 333.16 223.088 333.84C223.848 334.507 224.808 334.84 225.968 334.84C226.622 334.84 227.222 334.727 227.768 334.5C228.315 334.26 228.788 333.913 229.188 333.46L229.988 334.38C229.522 334.94 228.935 335.367 228.228 335.66C227.535 335.953 226.768 336.1 225.928 336.1C224.848 336.1 223.888 335.873 223.048 335.42C222.222 334.953 221.575 334.313 221.108 333.5C220.642 332.687 220.408 331.767 220.408 330.74C220.408 329.713 220.628 328.793 221.068 327.98C221.522 327.167 222.135 326.533 222.908 326.08C223.695 325.627 224.575 325.4 225.548 325.4C226.522 325.4 227.395 325.627 228.168 326.08C228.942 326.533 229.548 327.167 229.988 327.98C230.428 328.78 230.648 329.7 230.648 330.74L230.628 331.18ZM225.548 326.62C224.535 326.62 223.682 326.947 222.988 327.6C222.308 328.24 221.922 329.08 221.828 330.12H229.288C229.195 329.08 228.802 328.24 228.108 327.6C227.428 326.947 226.575 326.62 225.548 326.62ZM244.193 325.4C245.18 325.4 246.073 325.627 246.873 326.08C247.673 326.52 248.3 327.147 248.753 327.96C249.206 328.773 249.433 329.7 249.433 330.74C249.433 331.793 249.206 332.727 248.753 333.54C248.3 334.353 247.673 334.987 246.873 335.44C246.086 335.88 245.193 336.1 244.193 336.1C243.34 336.1 242.566 335.927 241.873 335.58C241.193 335.22 240.633 334.7 240.193 334.02V339.88H238.773V325.48H240.133V327.56C240.56 326.867 241.12 326.333 241.813 325.96C242.52 325.587 243.313 325.4 244.193 325.4ZM244.093 334.84C244.826 334.84 245.493 334.673 246.093 334.34C246.693 333.993 247.16 333.507 247.493 332.88C247.84 332.253 248.013 331.54 248.013 330.74C248.013 329.94 247.84 329.233 247.493 328.62C247.16 327.993 246.693 327.507 246.093 327.16C245.493 326.813 244.826 326.64 244.093 326.64C243.346 326.64 242.673 326.813 242.073 327.16C241.486 327.507 241.02 327.993 240.673 328.62C240.34 329.233 240.173 329.94 240.173 330.74C240.173 331.54 240.34 332.253 240.673 332.88C241.02 333.507 241.486 333.993 242.073 334.34C242.673 334.673 243.346 334.84 244.093 334.84ZM255.949 325.4C257.322 325.4 258.376 325.747 259.109 326.44C259.842 327.12 260.209 328.133 260.209 329.48V336H258.849V334.36C258.529 334.907 258.056 335.333 257.429 335.64C256.816 335.947 256.082 336.1 255.229 336.1C254.056 336.1 253.122 335.82 252.429 335.26C251.736 334.7 251.389 333.96 251.389 333.04C251.389 332.147 251.709 331.427 252.349 330.88C253.002 330.333 254.036 330.06 255.449 330.06H258.789V329.42C258.789 328.513 258.536 327.827 258.029 327.36C257.522 326.88 256.782 326.64 255.809 326.64C255.142 326.64 254.502 326.753 253.889 326.98C253.276 327.193 252.749 327.493 252.309 327.88L251.669 326.82C252.202 326.367 252.842 326.02 253.589 325.78C254.336 325.527 255.122 325.4 255.949 325.4ZM255.449 334.98C256.249 334.98 256.936 334.8 257.509 334.44C258.082 334.067 258.509 333.533 258.789 332.84V331.12H255.489C253.689 331.12 252.789 331.747 252.789 333C252.789 333.613 253.022 334.1 253.489 334.46C253.956 334.807 254.609 334.98 255.449 334.98ZM266.886 336.1C266.033 336.1 265.213 335.98 264.426 335.74C263.653 335.487 263.046 335.173 262.606 334.8L263.246 333.68C263.686 334.027 264.239 334.313 264.906 334.54C265.573 334.753 266.266 334.86 266.986 334.86C267.946 334.86 268.653 334.713 269.106 334.42C269.573 334.113 269.806 333.687 269.806 333.14C269.806 332.753 269.679 332.453 269.426 332.24C269.173 332.013 268.853 331.847 268.466 331.74C268.079 331.62 267.566 331.507 266.926 331.4C266.073 331.24 265.386 331.08 264.866 330.92C264.346 330.747 263.899 330.46 263.526 330.06C263.166 329.66 262.986 329.107 262.986 328.4C262.986 327.52 263.353 326.8 264.086 326.24C264.819 325.68 265.839 325.4 267.146 325.4C267.826 325.4 268.506 325.493 269.186 325.68C269.866 325.853 270.426 326.087 270.866 326.38L270.246 327.52C269.379 326.92 268.346 326.62 267.146 326.62C266.239 326.62 265.553 326.78 265.086 327.1C264.633 327.42 264.406 327.84 264.406 328.36C264.406 328.76 264.533 329.08 264.786 329.32C265.053 329.56 265.379 329.74 265.766 329.86C266.153 329.967 266.686 330.08 267.366 330.2C268.206 330.36 268.879 330.52 269.386 330.68C269.893 330.84 270.326 331.113 270.686 331.5C271.046 331.887 271.226 332.42 271.226 333.1C271.226 334.02 270.839 334.753 270.066 335.3C269.306 335.833 268.246 336.1 266.886 336.1ZM153.801 356V391H145.701V362.5H138.701V356H153.801ZM174.881 391.6C171.981 391.6 169.397 390.883 167.131 389.45C164.864 388.017 163.081 385.95 161.781 383.25C160.514 380.517 159.881 377.267 159.881 373.5C159.881 369.733 160.514 366.5 161.781 363.8C163.081 361.067 164.864 358.983 167.131 357.55C169.397 356.117 171.981 355.4 174.881 355.4C177.781 355.4 180.364 356.117 182.631 357.55C184.897 358.983 186.664 361.067 187.931 363.8C189.231 366.5 189.881 369.733 189.881 373.5C189.881 377.267 189.231 380.517 187.931 383.25C186.664 385.95 184.897 388.017 182.631 389.45C180.364 390.883 177.781 391.6 174.881 391.6ZM174.881 384.75C177.014 384.75 178.681 383.833 179.881 382C181.114 380.167 181.731 377.333 181.731 373.5C181.731 369.667 181.114 366.833 179.881 365C178.681 363.167 177.014 362.25 174.881 362.25C172.781 362.25 171.114 363.167 169.881 365C168.681 366.833 168.081 369.667 168.081 373.5C168.081 377.333 168.681 380.167 169.881 382C171.114 383.833 172.781 384.75 174.881 384.75ZM208.816 391.6C205.916 391.6 203.333 390.883 201.066 389.45C198.8 388.017 197.016 385.95 195.716 383.25C194.45 380.517 193.816 377.267 193.816 373.5C193.816 369.733 194.45 366.5 195.716 363.8C197.016 361.067 198.8 358.983 201.066 357.55C203.333 356.117 205.916 355.4 208.816 355.4C211.716 355.4 214.3 356.117 216.566 357.55C218.833 358.983 220.6 361.067 221.866 363.8C223.166 366.5 223.816 369.733 223.816 373.5C223.816 377.267 223.166 380.517 221.866 383.25C220.6 385.95 218.833 388.017 216.566 389.45C214.3 390.883 211.716 391.6 208.816 391.6ZM208.816 384.75C210.95 384.75 212.616 383.833 213.816 382C215.05 380.167 215.666 377.333 215.666 373.5C215.666 369.667 215.05 366.833 213.816 365C212.616 363.167 210.95 362.25 208.816 362.25C206.716 362.25 205.05 363.167 203.816 365C202.616 366.833 202.016 369.667 202.016 373.5C202.016 377.333 202.616 380.167 203.816 382C205.05 383.833 206.716 384.75 208.816 384.75ZM235.852 374.9C233.285 374.9 231.185 374.033 229.552 372.3C227.952 370.533 227.152 368.183 227.152 365.25C227.152 362.317 227.952 359.983 229.552 358.25C231.185 356.483 233.285 355.6 235.852 355.6C238.418 355.6 240.502 356.483 242.102 358.25C243.702 359.983 244.502 362.317 244.502 365.25C244.502 368.183 243.702 370.533 242.102 372.3C240.502 374.033 238.418 374.9 235.852 374.9ZM256.702 356H262.652L238.752 391H232.802L256.702 356ZM235.852 370.8C236.985 370.8 237.868 370.333 238.502 369.4C239.168 368.467 239.502 367.083 239.502 365.25C239.502 363.417 239.168 362.033 238.502 361.1C237.868 360.167 236.985 359.7 235.852 359.7C234.752 359.7 233.868 360.183 233.202 361.15C232.535 362.083 232.202 363.45 232.202 365.25C232.202 367.05 232.535 368.433 233.202 369.4C233.868 370.333 234.752 370.8 235.852 370.8ZM259.602 391.4C257.935 391.4 256.435 391.017 255.102 390.25C253.802 389.45 252.785 388.317 252.052 386.85C251.318 385.383 250.952 383.683 250.952 381.75C250.952 379.817 251.318 378.117 252.052 376.65C252.785 375.183 253.802 374.067 255.102 373.3C256.435 372.5 257.935 372.1 259.602 372.1C262.168 372.1 264.252 372.983 265.852 374.75C267.485 376.483 268.302 378.817 268.302 381.75C268.302 384.683 267.485 387.033 265.852 388.8C264.252 390.533 262.168 391.4 259.602 391.4ZM259.602 387.3C260.735 387.3 261.618 386.833 262.252 385.9C262.918 384.933 263.252 383.55 263.252 381.75C263.252 379.95 262.918 378.583 262.252 377.65C261.618 376.683 260.735 376.2 259.602 376.2C258.502 376.2 257.618 376.667 256.952 377.6C256.285 378.533 255.952 379.917 255.952 381.75C255.952 383.583 256.285 384.967 256.952 385.9C257.618 386.833 258.502 387.3 259.602 387.3ZM90.8995 408.192V426H87.3235V424.512C86.3955 425.632 85.0515 426.192 83.2915 426.192C82.0755 426.192 80.9715 425.92 79.9795 425.376C79.0035 424.832 78.2355 424.056 77.6755 423.048C77.1155 422.04 76.8355 420.872 76.8355 419.544C76.8355 418.216 77.1155 417.048 77.6755 416.04C78.2355 415.032 79.0035 414.256 79.9795 413.712C80.9715 413.168 82.0755 412.896 83.2915 412.896C84.9395 412.896 86.2275 413.416 87.1555 414.456V408.192H90.8995ZM83.9395 423.12C84.8835 423.12 85.6675 422.8 86.2915 422.16C86.9155 421.504 87.2275 420.632 87.2275 419.544C87.2275 418.456 86.9155 417.592 86.2915 416.952C85.6675 416.296 84.8835 415.968 83.9395 415.968C82.9795 415.968 82.1875 416.296 81.5635 416.952C80.9395 417.592 80.6275 418.456 80.6275 419.544C80.6275 420.632 80.9395 421.504 81.5635 422.16C82.1875 422.8 82.9795 423.12 83.9395 423.12ZM107.013 419.592C107.013 419.64 106.989 419.976 106.941 420.6H97.1727C97.3487 421.4 97.7647 422.032 98.4207 422.496C99.0767 422.96 99.8927 423.192 100.869 423.192C101.541 423.192 102.133 423.096 102.645 422.904C103.173 422.696 103.661 422.376 104.109 421.944L106.101 424.104C104.885 425.496 103.109 426.192 100.773 426.192C99.3167 426.192 98.0287 425.912 96.9087 425.352C95.7887 424.776 94.9247 423.984 94.3167 422.976C93.7087 421.968 93.4047 420.824 93.4047 419.544C93.4047 418.28 93.7007 417.144 94.2927 416.136C94.9007 415.112 95.7247 414.32 96.7647 413.76C97.8207 413.184 98.9967 412.896 100.293 412.896C101.557 412.896 102.701 413.168 103.725 413.712C104.749 414.256 105.549 415.04 106.125 416.064C106.717 417.072 107.013 418.248 107.013 419.592ZM100.317 415.728C99.4687 415.728 98.7567 415.968 98.1807 416.448C97.6047 416.928 97.2527 417.584 97.1247 418.416H103.485C103.357 417.6 103.005 416.952 102.429 416.472C101.853 415.976 101.149 415.728 100.317 415.728ZM122.542 426.192C121.166 426.192 119.926 425.912 118.822 425.352C117.734 424.776 116.878 423.984 116.254 422.976C115.646 421.968 115.342 420.824 115.342 419.544C115.342 418.264 115.646 417.12 116.254 416.112C116.878 415.104 117.734 414.32 118.822 413.76C119.926 413.184 121.166 412.896 122.542 412.896C123.902 412.896 125.086 413.184 126.094 413.76C127.118 414.32 127.862 415.128 128.326 416.184L125.422 417.744C124.75 416.56 123.782 415.968 122.518 415.968C121.542 415.968 120.734 416.288 120.094 416.928C119.454 417.568 119.134 418.44 119.134 419.544C119.134 420.648 119.454 421.52 120.094 422.16C120.734 422.8 121.542 423.12 122.518 423.12C123.798 423.12 124.766 422.528 125.422 421.344L128.326 422.928C127.862 423.952 127.118 424.752 126.094 425.328C125.086 425.904 123.902 426.192 122.542 426.192ZM136.462 426.192C135.102 426.192 133.878 425.912 132.79 425.352C131.718 424.776 130.878 423.984 130.27 422.976C129.662 421.968 129.358 420.824 129.358 419.544C129.358 418.264 129.662 417.12 130.27 416.112C130.878 415.104 131.718 414.32 132.79 413.76C133.878 413.184 135.102 412.896 136.462 412.896C137.822 412.896 139.038 413.184 140.11 413.76C141.182 414.32 142.022 415.104 142.63 416.112C143.238 417.12 143.542 418.264 143.542 419.544C143.542 420.824 143.238 421.968 142.63 422.976C142.022 423.984 141.182 424.776 140.11 425.352C139.038 425.912 137.822 426.192 136.462 426.192ZM136.462 423.12C137.422 423.12 138.206 422.8 138.814 422.16C139.438 421.504 139.75 420.632 139.75 419.544C139.75 418.456 139.438 417.592 138.814 416.952C138.206 416.296 137.422 415.968 136.462 415.968C135.502 415.968 134.71 416.296 134.086 416.952C133.462 417.592 133.15 418.456 133.15 419.544C133.15 420.632 133.462 421.504 134.086 422.16C134.71 422.8 135.502 423.12 136.462 423.12ZM159.052 413.088V426H155.5V424.464C155.004 425.024 154.412 425.456 153.724 425.76C153.036 426.048 152.292 426.192 151.492 426.192C149.796 426.192 148.452 425.704 147.46 424.728C146.468 423.752 145.972 422.304 145.972 420.384V413.088H149.716V419.832C149.716 421.912 150.588 422.952 152.332 422.952C153.228 422.952 153.948 422.664 154.492 422.088C155.036 421.496 155.308 420.624 155.308 419.472V413.088H159.052ZM166.097 414.792C166.545 414.168 167.145 413.696 167.897 413.376C168.665 413.056 169.545 412.896 170.537 412.896V416.352C170.121 416.32 169.841 416.304 169.697 416.304C168.625 416.304 167.785 416.608 167.177 417.216C166.569 417.808 166.265 418.704 166.265 419.904V426H162.521V413.088H166.097V414.792ZM177.154 426.192C176.082 426.192 175.034 426.064 174.01 425.808C172.986 425.536 172.17 425.2 171.562 424.8L172.81 422.112C173.386 422.48 174.082 422.784 174.898 423.024C175.714 423.248 176.514 423.36 177.298 423.36C178.882 423.36 179.674 422.968 179.674 422.184C179.674 421.816 179.458 421.552 179.026 421.392C178.594 421.232 177.93 421.096 177.034 420.984C175.978 420.824 175.106 420.64 174.418 420.432C173.73 420.224 173.13 419.856 172.618 419.328C172.122 418.8 171.874 418.048 171.874 417.072C171.874 416.256 172.106 415.536 172.57 414.912C173.05 414.272 173.738 413.776 174.634 413.424C175.546 413.072 176.618 412.896 177.85 412.896C178.762 412.896 179.666 413 180.562 413.208C181.474 413.4 182.226 413.672 182.818 414.024L181.57 416.688C180.434 416.048 179.194 415.728 177.85 415.728C177.05 415.728 176.45 415.84 176.05 416.064C175.65 416.288 175.45 416.576 175.45 416.928C175.45 417.328 175.666 417.608 176.098 417.768C176.53 417.928 177.218 418.08 178.162 418.224C179.218 418.4 180.082 418.592 180.754 418.8C181.426 418.992 182.01 419.352 182.506 419.88C183.002 420.408 183.25 421.144 183.25 422.088C183.25 422.888 183.01 423.6 182.53 424.224C182.05 424.848 181.346 425.336 180.418 425.688C179.506 426.024 178.418 426.192 177.154 426.192ZM185.56 413.088H189.304V426H185.56V413.088ZM187.432 411.288C186.744 411.288 186.184 411.088 185.752 410.688C185.32 410.288 185.104 409.792 185.104 409.2C185.104 408.608 185.32 408.112 185.752 407.712C186.184 407.312 186.744 407.112 187.432 407.112C188.12 407.112 188.68 407.304 189.112 407.688C189.544 408.072 189.76 408.552 189.76 409.128C189.76 409.752 189.544 410.272 189.112 410.688C188.68 411.088 188.12 411.288 187.432 411.288ZM205.427 419.592C205.427 419.64 205.403 419.976 205.355 420.6H195.587C195.763 421.4 196.179 422.032 196.835 422.496C197.491 422.96 198.307 423.192 199.283 423.192C199.955 423.192 200.547 423.096 201.059 422.904C201.587 422.696 202.075 422.376 202.523 421.944L204.515 424.104C203.299 425.496 201.523 426.192 199.187 426.192C197.731 426.192 196.443 425.912 195.323 425.352C194.203 424.776 193.339 423.984 192.731 422.976C192.123 421.968 191.819 420.824 191.819 419.544C191.819 418.28 192.115 417.144 192.707 416.136C193.315 415.112 194.139 414.32 195.179 413.76C196.235 413.184 197.411 412.896 198.707 412.896C199.971 412.896 201.115 413.168 202.139 413.712C203.163 414.256 203.963 415.04 204.539 416.064C205.131 417.072 205.427 418.248 205.427 419.592ZM198.731 415.728C197.883 415.728 197.171 415.968 196.595 416.448C196.019 416.928 195.667 417.584 195.539 418.416H201.899C201.771 417.6 201.419 416.952 200.843 416.472C200.267 415.976 199.563 415.728 198.731 415.728ZM211.495 414.792C211.943 414.168 212.543 413.696 213.295 413.376C214.063 413.056 214.943 412.896 215.935 412.896V416.352C215.519 416.32 215.239 416.304 215.095 416.304C214.023 416.304 213.183 416.608 212.575 417.216C211.967 417.808 211.663 418.704 211.663 419.904V426H207.919V413.088H211.495V414.792ZM222.552 426.192C221.48 426.192 220.432 426.064 219.408 425.808C218.384 425.536 217.568 425.2 216.96 424.8L218.208 422.112C218.784 422.48 219.48 422.784 220.296 423.024C221.112 423.248 221.912 423.36 222.696 423.36C224.28 423.36 225.072 422.968 225.072 422.184C225.072 421.816 224.856 421.552 224.424 421.392C223.992 421.232 223.328 421.096 222.432 420.984C221.376 420.824 220.504 420.64 219.816 420.432C219.128 420.224 218.528 419.856 218.016 419.328C217.52 418.8 217.272 418.048 217.272 417.072C217.272 416.256 217.504 415.536 217.968 414.912C218.448 414.272 219.136 413.776 220.032 413.424C220.944 413.072 222.016 412.896 223.248 412.896C224.16 412.896 225.064 413 225.96 413.208C226.872 413.4 227.624 413.672 228.216 414.024L226.968 416.688C225.832 416.048 224.592 415.728 223.248 415.728C222.448 415.728 221.848 415.84 221.448 416.064C221.048 416.288 220.848 416.576 220.848 416.928C220.848 417.328 221.064 417.608 221.496 417.768C221.928 417.928 222.616 418.08 223.56 418.224C224.616 418.4 225.48 418.592 226.152 418.8C226.824 418.992 227.408 419.352 227.904 419.88C228.4 420.408 228.648 421.144 228.648 422.088C228.648 422.888 228.408 423.6 227.928 424.224C227.448 424.848 226.744 425.336 225.816 425.688C224.904 426.024 223.816 426.192 222.552 426.192ZM242.099 426.192C241.027 426.192 239.979 426.064 238.955 425.808C237.931 425.536 237.115 425.2 236.507 424.8L237.755 422.112C238.331 422.48 239.027 422.784 239.843 423.024C240.659 423.248 241.459 423.36 242.243 423.36C243.827 423.36 244.619 422.968 244.619 422.184C244.619 421.816 244.403 421.552 243.971 421.392C243.539 421.232 242.875 421.096 241.979 420.984C240.923 420.824 240.051 420.64 239.363 420.432C238.675 420.224 238.075 419.856 237.563 419.328C237.067 418.8 236.819 418.048 236.819 417.072C236.819 416.256 237.051 415.536 237.515 414.912C237.995 414.272 238.683 413.776 239.579 413.424C240.491 413.072 241.563 412.896 242.795 412.896C243.707 412.896 244.611 413 245.507 413.208C246.419 413.4 247.171 413.672 247.763 414.024L246.515 416.688C245.379 416.048 244.139 415.728 242.795 415.728C241.995 415.728 241.395 415.84 240.995 416.064C240.595 416.288 240.395 416.576 240.395 416.928C240.395 417.328 240.611 417.608 241.043 417.768C241.475 417.928 242.163 418.08 243.107 418.224C244.163 418.4 245.027 418.592 245.699 418.8C246.371 418.992 246.955 419.352 247.451 419.88C247.947 420.408 248.195 421.144 248.195 422.088C248.195 422.888 247.955 423.6 247.475 424.224C246.995 424.848 246.291 425.336 245.363 425.688C244.451 426.024 243.363 426.192 242.099 426.192ZM263.087 413.088L257.255 426.792C256.663 428.28 255.927 429.328 255.047 429.936C254.183 430.544 253.135 430.848 251.903 430.848C251.231 430.848 250.567 430.744 249.911 430.536C249.255 430.328 248.719 430.04 248.303 429.672L249.671 427.008C249.959 427.264 250.287 427.464 250.655 427.608C251.039 427.752 251.415 427.824 251.783 427.824C252.295 427.824 252.711 427.696 253.031 427.44C253.351 427.2 253.639 426.792 253.895 426.216L253.943 426.096L248.351 413.088H252.215L255.839 421.848L259.487 413.088H263.087ZM281.151 412.896C282.767 412.896 284.047 413.376 284.991 414.336C285.951 415.28 286.431 416.704 286.431 418.608V426H282.687V419.184C282.687 418.16 282.471 417.4 282.039 416.904C281.623 416.392 281.023 416.136 280.239 416.136C279.359 416.136 278.663 416.424 278.151 417C277.639 417.56 277.383 418.4 277.383 419.52V426H273.639V419.184C273.639 417.152 272.823 416.136 271.191 416.136C270.327 416.136 269.639 416.424 269.127 417C268.615 417.56 268.359 418.4 268.359 419.52V426H264.615V413.088H268.191V414.576C268.671 414.032 269.255 413.616 269.943 413.328C270.647 413.04 271.415 412.896 272.247 412.896C273.159 412.896 273.983 413.08 274.719 413.448C275.455 413.8 276.047 414.32 276.495 415.008C277.023 414.336 277.687 413.816 278.487 413.448C279.303 413.08 280.191 412.896 281.151 412.896ZM297.419 412.896C298.619 412.896 299.707 413.176 300.683 413.736C301.675 414.28 302.451 415.056 303.011 416.064C303.571 417.056 303.851 418.216 303.851 419.544C303.851 420.872 303.571 422.04 303.011 423.048C302.451 424.04 301.675 424.816 300.683 425.376C299.707 425.92 298.619 426.192 297.419 426.192C295.771 426.192 294.475 425.672 293.531 424.632V430.656H289.787V413.088H293.363V414.576C294.291 413.456 295.643 412.896 297.419 412.896ZM296.771 423.12C297.731 423.12 298.515 422.8 299.123 422.16C299.747 421.504 300.059 420.632 300.059 419.544C300.059 418.456 299.747 417.592 299.123 416.952C298.515 416.296 297.731 415.968 296.771 415.968C295.811 415.968 295.019 416.296 294.395 416.952C293.787 417.592 293.483 418.456 293.483 419.544C293.483 420.632 293.787 421.504 294.395 422.16C295.019 422.8 295.811 423.12 296.771 423.12ZM311.354 412.896C313.354 412.896 314.89 413.376 315.962 414.336C317.034 415.28 317.57 416.712 317.57 418.632V426H314.066V424.392C313.362 425.592 312.05 426.192 310.13 426.192C309.138 426.192 308.274 426.024 307.538 425.688C306.818 425.352 306.266 424.888 305.882 424.296C305.498 423.704 305.306 423.032 305.306 422.28C305.306 421.08 305.754 420.136 306.65 419.448C307.562 418.76 308.962 418.416 310.85 418.416H313.826C313.826 417.6 313.578 416.976 313.082 416.544C312.586 416.096 311.842 415.872 310.85 415.872C310.162 415.872 309.482 415.984 308.81 416.208C308.154 416.416 307.594 416.704 307.13 417.072L305.786 414.456C306.49 413.96 307.33 413.576 308.306 413.304C309.298 413.032 310.314 412.896 311.354 412.896ZM311.066 423.672C311.706 423.672 312.274 423.528 312.77 423.24C313.266 422.936 313.618 422.496 313.826 421.92V420.6H311.258C309.722 420.6 308.954 421.104 308.954 422.112C308.954 422.592 309.138 422.976 309.506 423.264C309.89 423.536 310.41 423.672 311.066 423.672ZM325.302 426.192C324.23 426.192 323.182 426.064 322.158 425.808C321.134 425.536 320.318 425.2 319.71 424.8L320.958 422.112C321.534 422.48 322.23 422.784 323.046 423.024C323.862 423.248 324.662 423.36 325.446 423.36C327.03 423.36 327.822 422.968 327.822 422.184C327.822 421.816 327.606 421.552 327.174 421.392C326.742 421.232 326.078 421.096 325.182 420.984C324.126 420.824 323.254 420.64 322.566 420.432C321.878 420.224 321.278 419.856 320.766 419.328C320.27 418.8 320.022 418.048 320.022 417.072C320.022 416.256 320.254 415.536 320.718 414.912C321.198 414.272 321.886 413.776 322.782 413.424C323.694 413.072 324.766 412.896 325.998 412.896C326.91 412.896 327.814 413 328.71 413.208C329.622 413.4 330.374 413.672 330.966 414.024L329.718 416.688C328.582 416.048 327.342 415.728 325.998 415.728C325.198 415.728 324.598 415.84 324.198 416.064C323.798 416.288 323.598 416.576 323.598 416.928C323.598 417.328 323.814 417.608 324.246 417.768C324.678 417.928 325.366 418.08 326.31 418.224C327.366 418.4 328.23 418.592 328.902 418.8C329.574 418.992 330.158 419.352 330.654 419.88C331.15 420.408 331.398 421.144 331.398 422.088C331.398 422.888 331.158 423.6 330.678 424.224C330.198 424.848 329.494 425.336 328.566 425.688C327.654 426.024 326.566 426.192 325.302 426.192Z" fill="white"/>
<path d="M127.137 51.008H120.897L119.553 54H118.321L123.441 42.8H124.609L129.729 54H128.481L127.137 51.008ZM126.705 50.048L124.017 44.032L121.329 50.048H126.705ZM140.316 42.8L135.356 54H134.188L129.228 42.8H130.508L134.796 52.528L139.116 42.8H140.316ZM149.861 52.976V54H141.941V42.8H149.621V43.824H143.125V47.808H148.917V48.816H143.125V52.976H149.861ZM157.446 54.096C156.336 54.096 155.334 53.8507 154.438 53.36C153.552 52.8693 152.854 52.192 152.342 51.328C151.84 50.4533 151.59 49.4773 151.59 48.4C151.59 47.3227 151.84 46.352 152.342 45.488C152.854 44.6133 153.558 43.9307 154.454 43.44C155.35 42.9493 156.352 42.704 157.462 42.704C158.294 42.704 159.062 42.8427 159.766 43.12C160.47 43.3973 161.067 43.8027 161.558 44.336L160.806 45.088C159.931 44.2027 158.827 43.76 157.494 43.76C156.608 43.76 155.803 43.9627 155.078 44.368C154.352 44.7733 153.782 45.328 153.366 46.032C152.96 46.736 152.758 47.5253 152.758 48.4C152.758 49.2747 152.96 50.064 153.366 50.768C153.782 51.472 154.352 52.0267 155.078 52.432C155.803 52.8373 156.608 53.04 157.494 53.04C158.838 53.04 159.942 52.592 160.806 51.696L161.558 52.448C161.067 52.9813 160.464 53.392 159.75 53.68C159.046 53.9573 158.278 54.096 157.446 54.096ZM175.325 48.224C176.061 48.384 176.627 48.704 177.021 49.184C177.427 49.6533 177.629 50.2613 177.629 51.008C177.629 51.968 177.272 52.7093 176.557 53.232C175.853 53.744 174.808 54 173.421 54H168.269V42.8H173.101C174.349 42.8 175.315 43.0507 175.997 43.552C176.691 44.0533 177.037 44.7627 177.037 45.68C177.037 46.2987 176.883 46.8267 176.573 47.264C176.275 47.6907 175.859 48.0107 175.325 48.224ZM169.453 43.776V47.84H173.021C173.928 47.84 174.627 47.6693 175.117 47.328C175.608 46.976 175.853 46.4693 175.853 45.808C175.853 45.1467 175.608 44.6453 175.117 44.304C174.627 43.952 173.928 43.776 173.021 43.776H169.453ZM173.405 53.024C174.408 53.024 175.165 52.8533 175.677 52.512C176.189 52.1707 176.445 51.6373 176.445 50.912C176.445 49.5147 175.432 48.816 173.405 48.816H169.453V53.024H173.405ZM180.332 42.8H181.516V54H180.332V42.8ZM190.024 54.096C188.915 54.096 187.912 53.8507 187.016 53.36C186.131 52.8693 185.432 52.192 184.92 51.328C184.419 50.4533 184.168 49.4773 184.168 48.4C184.168 47.3227 184.419 46.352 184.92 45.488C185.432 44.6133 186.136 43.9307 187.032 43.44C187.928 42.9493 188.931 42.704 190.04 42.704C190.872 42.704 191.64 42.8427 192.344 43.12C193.048 43.3973 193.645 43.8027 194.136 44.336L193.384 45.088C192.509 44.2027 191.405 43.76 190.072 43.76C189.187 43.76 188.381 43.9627 187.656 44.368C186.931 44.7733 186.36 45.328 185.944 46.032C185.539 46.736 185.336 47.5253 185.336 48.4C185.336 49.2747 185.539 50.064 185.944 50.768C186.36 51.472 186.931 52.0267 187.656 52.432C188.381 52.8373 189.187 53.04 190.072 53.04C191.416 53.04 192.52 52.592 193.384 51.696L194.136 52.448C193.645 52.9813 193.043 53.392 192.328 53.68C191.624 53.9573 190.856 54.096 190.024 54.096ZM196.66 42.8H197.844V54H196.66V42.8ZM210.54 54.096C209.43 54.096 208.428 53.8507 207.532 53.36C206.646 52.8693 205.948 52.192 205.436 51.328C204.934 50.4533 204.684 49.4773 204.684 48.4C204.684 47.3227 204.934 46.352 205.436 45.488C205.948 44.6133 206.652 43.9307 207.548 43.44C208.444 42.9493 209.446 42.704 210.556 42.704C211.388 42.704 212.156 42.8427 212.86 43.12C213.564 43.3973 214.161 43.8027 214.652 44.336L213.9 45.088C213.025 44.2027 211.921 43.76 210.588 43.76C209.702 43.76 208.897 43.9627 208.172 44.368C207.446 44.7733 206.876 45.328 206.46 46.032C206.054 46.736 205.852 47.5253 205.852 48.4C205.852 49.2747 206.054 50.064 206.46 50.768C206.876 51.472 207.446 52.0267 208.172 52.432C208.897 52.8373 209.702 53.04 210.588 53.04C211.932 53.04 213.036 52.592 213.9 51.696L214.652 52.448C214.161 52.9813 213.558 53.392 212.844 53.68C212.14 53.9573 211.372 54.096 210.54 54.096ZM221.837 54.096C220.728 54.096 219.72 53.8507 218.813 53.36C217.917 52.8587 217.213 52.176 216.701 51.312C216.2 50.448 215.949 49.4773 215.949 48.4C215.949 47.3227 216.2 46.352 216.701 45.488C217.213 44.624 217.917 43.9467 218.813 43.456C219.72 42.9547 220.728 42.704 221.837 42.704C222.947 42.704 223.944 42.9493 224.829 43.44C225.725 43.9307 226.429 44.6133 226.941 45.488C227.453 46.352 227.709 47.3227 227.709 48.4C227.709 49.4773 227.453 50.4533 226.941 51.328C226.429 52.192 225.725 52.8693 224.829 53.36C223.944 53.8507 222.947 54.096 221.837 54.096ZM221.837 53.04C222.723 53.04 223.523 52.8427 224.237 52.448C224.952 52.0427 225.512 51.488 225.917 50.784C226.323 50.0693 226.525 49.2747 226.525 48.4C226.525 47.5253 226.323 46.736 225.917 46.032C225.512 45.3173 224.952 44.7627 224.237 44.368C223.523 43.9627 222.723 43.76 221.837 43.76C220.952 43.76 220.147 43.9627 219.421 44.368C218.707 44.7627 218.141 45.3173 217.725 46.032C217.32 46.736 217.117 47.5253 217.117 48.4C217.117 49.2747 217.32 50.0693 217.725 50.784C218.141 51.488 218.707 52.0427 219.421 52.448C220.147 52.8427 220.952 53.04 221.837 53.04ZM234.875 54.096C233.424 54.096 232.294 53.68 231.483 52.848C230.672 52.016 230.267 50.8053 230.267 49.216V42.8H231.451V49.168C231.451 50.4693 231.744 51.44 232.331 52.08C232.918 52.72 233.766 53.04 234.875 53.04C235.995 53.04 236.848 52.72 237.435 52.08C238.022 51.44 238.315 50.4693 238.315 49.168V42.8H239.467V49.216C239.467 50.8053 239.062 52.016 238.251 52.848C237.451 53.68 236.326 54.096 234.875 54.096ZM250.683 54L248.123 50.4C247.835 50.432 247.536 50.448 247.227 50.448H244.219V54H243.035V42.8H247.227C248.656 42.8 249.776 43.1413 250.587 43.824C251.398 44.5067 251.803 45.4453 251.803 46.64C251.803 47.5147 251.579 48.256 251.131 48.864C250.694 49.4613 250.064 49.8933 249.243 50.16L251.979 54H250.683ZM247.195 49.44C248.304 49.44 249.152 49.1947 249.739 48.704C250.326 48.2133 250.619 47.5253 250.619 46.64C250.619 45.7333 250.326 45.04 249.739 44.56C249.152 44.0693 248.304 43.824 247.195 43.824H244.219V49.44H247.195ZM254.597 42.8H255.781V54H254.597V42.8ZM267.346 52.976V54H259.426V42.8H267.106V43.824H260.61V47.808H266.402V48.816H260.61V52.976H267.346ZM277.777 54L275.217 50.4C274.929 50.432 274.63 50.448 274.321 50.448H271.313V54H270.129V42.8H274.321C275.75 42.8 276.87 43.1413 277.681 43.824C278.491 44.5067 278.897 45.4453 278.897 46.64C278.897 47.5147 278.673 48.256 278.225 48.864C277.787 49.4613 277.158 49.8933 276.337 50.16L279.073 54H277.777ZM274.289 49.44C275.398 49.44 276.246 49.1947 276.833 48.704C277.419 48.2133 277.713 47.5253 277.713 46.64C277.713 45.7333 277.419 45.04 276.833 44.56C276.246 44.0693 275.398 43.824 274.289 43.824H271.313V49.44H274.289ZM284.779 54.096C283.947 54.096 283.147 53.9627 282.379 53.696C281.622 53.4293 281.035 53.0773 280.619 52.64L281.083 51.728C281.489 52.1333 282.027 52.464 282.699 52.72C283.371 52.9653 284.065 53.088 284.779 53.088C285.782 53.088 286.534 52.9067 287.035 52.544C287.537 52.1707 287.787 51.6907 287.787 51.104C287.787 50.656 287.649 50.2987 287.371 50.032C287.105 49.7653 286.774 49.5627 286.379 49.424C285.985 49.2747 285.435 49.1147 284.731 48.944C283.889 48.7307 283.217 48.528 282.715 48.336C282.214 48.1333 281.782 47.8293 281.419 47.424C281.067 47.0187 280.891 46.4693 280.891 45.776C280.891 45.2107 281.041 44.6987 281.339 44.24C281.638 43.7707 282.097 43.3973 282.715 43.12C283.334 42.8427 284.102 42.704 285.019 42.704C285.659 42.704 286.283 42.7947 286.891 42.976C287.51 43.1467 288.043 43.3867 288.491 43.696L288.091 44.64C287.622 44.3307 287.121 44.1013 286.587 43.952C286.054 43.792 285.531 43.712 285.019 43.712C284.038 43.712 283.297 43.904 282.795 44.288C282.305 44.6613 282.059 45.1467 282.059 45.744C282.059 46.192 282.193 46.5547 282.459 46.832C282.737 47.0987 283.078 47.3067 283.483 47.456C283.899 47.5947 284.454 47.7493 285.147 47.92C285.969 48.1227 286.63 48.3253 287.131 48.528C287.643 48.72 288.075 49.0187 288.427 49.424C288.779 49.8187 288.955 50.3573 288.955 51.04C288.955 51.6053 288.801 52.1227 288.491 52.592C288.193 53.0507 287.729 53.4187 287.099 53.696C286.47 53.9627 285.697 54.096 284.779 54.096Z" fill="white"/>
<path d="M123.1 492.096C122.268 492.096 121.468 491.963 120.7 491.696C119.942 491.429 119.356 491.077 118.94 490.64L119.404 489.728C119.809 490.133 120.348 490.464 121.02 490.72C121.692 490.965 122.385 491.088 123.1 491.088C124.102 491.088 124.854 490.907 125.356 490.544C125.857 490.171 126.108 489.691 126.108 489.104C126.108 488.656 125.969 488.299 125.692 488.032C125.425 487.765 125.094 487.563 124.7 487.424C124.305 487.275 123.756 487.115 123.052 486.944C122.209 486.731 121.537 486.528 121.036 486.336C120.534 486.133 120.102 485.829 119.74 485.424C119.388 485.019 119.212 484.469 119.212 483.776C119.212 483.211 119.361 482.699 119.66 482.24C119.958 481.771 120.417 481.397 121.036 481.12C121.654 480.843 122.422 480.704 123.34 480.704C123.98 480.704 124.604 480.795 125.212 480.976C125.83 481.147 126.364 481.387 126.812 481.696L126.411 482.64C125.942 482.331 125.441 482.101 124.908 481.952C124.374 481.792 123.852 481.712 123.34 481.712C122.358 481.712 121.617 481.904 121.116 482.288C120.625 482.661 120.38 483.147 120.38 483.744C120.38 484.192 120.513 484.555 120.78 484.832C121.057 485.099 121.398 485.307 121.804 485.456C122.22 485.595 122.774 485.749 123.468 485.92C124.289 486.123 124.95 486.325 125.452 486.528C125.964 486.72 126.396 487.019 126.748 487.424C127.1 487.819 127.276 488.357 127.276 489.04C127.276 489.605 127.121 490.123 126.812 490.592C126.513 491.051 126.049 491.419 125.42 491.696C124.79 491.963 124.017 492.096 123.1 492.096ZM136.879 489.008H130.639L129.295 492H128.063L133.183 480.8H134.351L139.471 492H138.223L136.879 489.008ZM136.447 488.048L133.759 482.032L131.071 488.048H136.447ZM150.684 480.8V492H149.708L142.508 482.912V492H141.324V480.8H142.3L149.516 489.888V480.8H150.684ZM157.428 492.096C156.596 492.096 155.796 491.963 155.028 491.696C154.27 491.429 153.684 491.077 153.268 490.64L153.732 489.728C154.137 490.133 154.676 490.464 155.348 490.72C156.02 490.965 156.713 491.088 157.428 491.088C158.43 491.088 159.182 490.907 159.684 490.544C160.185 490.171 160.436 489.691 160.436 489.104C160.436 488.656 160.297 488.299 160.02 488.032C159.753 487.765 159.422 487.563 159.028 487.424C158.633 487.275 158.084 487.115 157.38 486.944C156.537 486.731 155.865 486.528 155.364 486.336C154.862 486.133 154.43 485.829 154.068 485.424C153.716 485.019 153.54 484.469 153.54 483.776C153.54 483.211 153.689 482.699 153.988 482.24C154.286 481.771 154.745 481.397 155.364 481.12C155.982 480.843 156.75 480.704 157.668 480.704C158.308 480.704 158.932 480.795 159.54 480.976C160.158 481.147 160.692 481.387 161.14 481.696L160.74 482.64C160.27 482.331 159.769 482.101 159.236 481.952C158.702 481.792 158.18 481.712 157.668 481.712C156.686 481.712 155.945 481.904 155.444 482.288C154.953 482.661 154.708 483.147 154.708 483.744C154.708 484.192 154.841 484.555 155.108 484.832C155.385 485.099 155.726 485.307 156.132 485.456C156.548 485.595 157.102 485.749 157.796 485.92C158.617 486.123 159.278 486.325 159.78 486.528C160.292 486.72 160.724 487.019 161.076 487.424C161.428 487.819 161.604 488.357 161.604 489.04C161.604 489.605 161.449 490.123 161.14 490.592C160.841 491.051 160.377 491.419 159.748 491.696C159.118 491.963 158.345 492.096 157.428 492.096ZM175.427 486.224C176.163 486.384 176.728 486.704 177.123 487.184C177.528 487.653 177.731 488.261 177.731 489.008C177.731 489.968 177.374 490.709 176.659 491.232C175.955 491.744 174.91 492 173.523 492H168.371V480.8H173.203C174.451 480.8 175.416 481.051 176.099 481.552C176.792 482.053 177.139 482.763 177.139 483.68C177.139 484.299 176.984 484.827 176.675 485.264C176.376 485.691 175.96 486.011 175.427 486.224ZM169.555 481.776V485.84H173.123C174.03 485.84 174.728 485.669 175.219 485.328C175.71 484.976 175.955 484.469 175.955 483.808C175.955 483.147 175.71 482.645 175.219 482.304C174.728 481.952 174.03 481.776 173.123 481.776H169.555ZM173.507 491.024C174.51 491.024 175.267 490.853 175.779 490.512C176.291 490.171 176.547 489.637 176.547 488.912C176.547 487.515 175.534 486.816 173.507 486.816H169.555V491.024H173.507ZM180.433 480.8H181.617V492H180.433V480.8ZM190.126 492.096C189.016 492.096 188.014 491.851 187.118 491.36C186.232 490.869 185.534 490.192 185.022 489.328C184.52 488.453 184.27 487.477 184.27 486.4C184.27 485.323 184.52 484.352 185.022 483.488C185.534 482.613 186.238 481.931 187.134 481.44C188.03 480.949 189.032 480.704 190.142 480.704C190.974 480.704 191.742 480.843 192.446 481.12C193.15 481.397 193.747 481.803 194.238 482.336L193.486 483.088C192.611 482.203 191.507 481.76 190.174 481.76C189.288 481.76 188.483 481.963 187.758 482.368C187.032 482.773 186.462 483.328 186.046 484.032C185.64 484.736 185.438 485.525 185.438 486.4C185.438 487.275 185.64 488.064 186.046 488.768C186.462 489.472 187.032 490.027 187.758 490.432C188.483 490.837 189.288 491.04 190.174 491.04C191.518 491.04 192.622 490.592 193.486 489.696L194.238 490.448C193.747 490.981 193.144 491.392 192.43 491.68C191.726 491.957 190.958 492.096 190.126 492.096ZM196.762 480.8H197.946V492H196.762V480.8ZM210.641 492.096C209.532 492.096 208.529 491.851 207.633 491.36C206.748 490.869 206.049 490.192 205.537 489.328C205.036 488.453 204.785 487.477 204.785 486.4C204.785 485.323 205.036 484.352 205.537 483.488C206.049 482.613 206.753 481.931 207.649 481.44C208.545 480.949 209.548 480.704 210.657 480.704C211.489 480.704 212.257 480.843 212.961 481.12C213.665 481.397 214.262 481.803 214.753 482.336L214.001 483.088C213.126 482.203 212.022 481.76 210.689 481.76C209.804 481.76 208.998 481.963 208.273 482.368C207.548 482.773 206.977 483.328 206.561 484.032C206.156 484.736 205.953 485.525 205.953 486.4C205.953 487.275 206.156 488.064 206.561 488.768C206.977 489.472 207.548 490.027 208.273 490.432C208.998 490.837 209.804 491.04 210.689 491.04C212.033 491.04 213.137 490.592 214.001 489.696L214.753 490.448C214.262 490.981 213.66 491.392 212.945 491.68C212.241 491.957 211.473 492.096 210.641 492.096ZM221.939 492.096C220.829 492.096 219.821 491.851 218.915 491.36C218.019 490.859 217.315 490.176 216.803 489.312C216.301 488.448 216.051 487.477 216.051 486.4C216.051 485.323 216.301 484.352 216.803 483.488C217.315 482.624 218.019 481.947 218.915 481.456C219.821 480.955 220.829 480.704 221.939 480.704C223.048 480.704 224.045 480.949 224.931 481.44C225.827 481.931 226.531 482.613 227.043 483.488C227.555 484.352 227.811 485.323 227.811 486.4C227.811 487.477 227.555 488.453 227.043 489.328C226.531 490.192 225.827 490.869 224.931 491.36C224.045 491.851 223.048 492.096 221.939 492.096ZM221.939 491.04C222.824 491.04 223.624 490.843 224.339 490.448C225.053 490.043 225.613 489.488 226.019 488.784C226.424 488.069 226.627 487.275 226.627 486.4C226.627 485.525 226.424 484.736 226.019 484.032C225.613 483.317 225.053 482.763 224.339 482.368C223.624 481.963 222.824 481.76 221.939 481.76C221.053 481.76 220.248 481.963 219.523 482.368C218.808 482.763 218.243 483.317 217.827 484.032C217.421 484.736 217.219 485.525 217.219 486.4C217.219 487.275 217.421 488.069 217.827 488.784C218.243 489.488 218.808 490.043 219.523 490.448C220.248 490.843 221.053 491.04 221.939 491.04ZM234.977 492.096C233.526 492.096 232.395 491.68 231.585 490.848C230.774 490.016 230.369 488.805 230.369 487.216V480.8H231.553V487.168C231.553 488.469 231.846 489.44 232.433 490.08C233.019 490.72 233.867 491.04 234.977 491.04C236.097 491.04 236.95 490.72 237.537 490.08C238.123 489.44 238.417 488.469 238.417 487.168V480.8H239.569V487.216C239.569 488.805 239.163 490.016 238.353 490.848C237.553 491.68 236.427 492.096 234.977 492.096ZM250.785 492L248.225 488.4C247.937 488.432 247.638 488.448 247.329 488.448H244.321V492H243.137V480.8H247.329C248.758 480.8 249.878 481.141 250.689 481.824C251.499 482.507 251.905 483.445 251.905 484.64C251.905 485.515 251.681 486.256 251.233 486.864C250.795 487.461 250.166 487.893 249.345 488.16L252.081 492H250.785ZM247.297 487.44C248.406 487.44 249.254 487.195 249.841 486.704C250.427 486.213 250.72 485.525 250.72 484.64C250.72 483.733 250.427 483.04 249.841 482.56C249.254 482.069 248.406 481.824 247.297 481.824H244.321V487.44H247.297ZM254.699 480.8H255.883V492H254.699V480.8ZM267.447 490.976V492H259.527V480.8H267.207V481.824H260.711V485.808H266.503V486.816H260.711V490.976H267.447ZM277.878 492L275.318 488.4C275.03 488.432 274.732 488.448 274.422 488.448H271.414V492H270.23V480.8H274.422C275.852 480.8 276.972 481.141 277.782 481.824C278.593 482.507 278.998 483.445 278.998 484.64C278.998 485.515 278.774 486.256 278.326 486.864C277.889 487.461 277.26 487.893 276.438 488.16L279.174 492H277.878ZM274.39 487.44C275.5 487.44 276.348 487.195 276.934 486.704C277.521 486.213 277.814 485.525 277.814 484.64C277.814 483.733 277.521 483.04 276.934 482.56C276.348 482.069 275.5 481.824 274.39 481.824H271.414V487.44H274.39ZM284.881 492.096C284.049 492.096 283.249 491.963 282.481 491.696C281.723 491.429 281.137 491.077 280.721 490.64L281.185 489.728C281.59 490.133 282.129 490.464 282.801 490.72C283.473 490.965 284.166 491.088 284.881 491.088C285.883 491.088 286.635 490.907 287.137 490.544C287.638 490.171 287.889 489.691 287.889 489.104C287.889 488.656 287.75 488.299 287.473 488.032C287.206 487.765 286.875 487.563 286.481 487.424C286.086 487.275 285.537 487.115 284.833 486.944C283.99 486.731 283.318 486.528 282.817 486.336C282.315 486.133 281.883 485.829 281.521 485.424C281.169 485.019 280.993 484.469 280.993 483.776C280.993 483.211 281.142 482.699 281.441 482.24C281.739 481.771 282.198 481.397 282.817 481.12C283.435 480.843 284.203 480.704 285.121 480.704C285.761 480.704 286.385 480.795 286.993 480.976C287.611 481.147 288.145 481.387 288.593 481.696L288.193 482.64C287.723 482.331 287.222 482.101 286.689 481.952C286.155 481.792 285.633 481.712 285.121 481.712C284.139 481.712 283.398 481.904 282.897 482.288C282.406 482.661 282.161 483.147 282.161 483.744C282.161 484.192 282.294 484.555 282.561 484.832C282.838 485.099 283.179 485.307 283.585 485.456C284.001 485.595 284.555 485.749 285.249 485.92C286.07 486.123 286.731 486.325 287.233 486.528C287.745 486.72 288.177 487.019 288.529 487.424C288.881 487.819 289.057 488.357 289.057 489.04C289.057 489.605 288.902 490.123 288.593 490.592C288.294 491.051 287.83 491.419 287.201 491.696C286.571 491.963 285.798 492.096 284.881 492.096Z" fill="white"/>
</svg>
