<svg width="114" height="114" viewBox="0 0 114 114" fill="none" xmlns="http://www.w3.org/2000/svg">
<path d="M71.25 87.875C65.6033 87.8801 60.0641 86.3318 55.2384 83.3996C50.4128 80.4674 46.4868 76.2642 43.89 71.25H71.25L76 61.75H40.755C40.5175 60.1825 40.375 58.615 40.375 57C40.375 55.385 40.5175 53.8175 40.755 52.25H71.25L76 42.75H43.89C46.4914 37.7396 50.4185 33.5397 55.2431 30.608C60.0677 27.6764 65.6046 26.1257 71.25 26.125C78.8975 26.125 85.9275 28.9275 91.3425 33.5825L99.75 25.175C91.9287 18.133 81.7744 14.2405 71.25 14.25C52.63 14.25 36.86 26.1725 30.97 42.75H14.25L9.5 52.25H28.785C28.4003 55.405 28.4003 58.595 28.785 61.75H14.25L9.5 71.25H30.97C36.86 87.8275 52.63 99.75 71.25 99.75C82.2225 99.75 92.1975 95.6175 99.75 88.825L91.295 80.4175C85.9275 85.0725 78.945 87.875 71.25 87.875Z" fill="black"/>
</svg>
